<?xml version="1.0" encoding="UTF-8" standalone="no"?>
<!DOCTYPE svg PUBLIC "-//W3C//DTD SVG 1.1//EN"
 "http://www.w3.org/Graphics/SVG/1.1/DTD/svg11.dtd">
<!-- Generated by graphviz version 12.1.2 (20240928.0832)
 -->
<!-- Title: MallobSharing Pages: 1 -->
<svg width="321pt" height="2059pt"
 viewBox="0.00 0.00 320.50 2058.75" xmlns="http://www.w3.org/2000/svg" xmlns:xlink="http://www.w3.org/1999/xlink">
<g id="graph0" class="graph" transform="scale(1 1) rotate(0) translate(4 2054.75)">
<title>MallobSharing</title>
<!-- Node1 -->
<g id="Node000001" class="node">
<title>Node1</title>
<g id="a_Node000001"><a xlink:title="Implements a global sharing strategy based on the Mallob algorithm.">
<polygon fill="#999999" stroke="none" points="285.5,-750 141.5,-750 141.5,0 285.5,0 285.5,-750"/>
<text text-anchor="start" x="182.75" y="-736.5" font-family="Helvetica,sans-Serif" font-size="10.00">MallobSharing</text>
<text text-anchor="start" x="145.88" y="-721.5" font-family="Helvetica,sans-Serif" font-size="10.00">#</text>
<text text-anchor="start" x="155.5" y="-721.5" font-family="Helvetica,sans-Serif" font-size="10.00">defaultBufferSize</text>
<text text-anchor="start" x="145.88" y="-706.5" font-family="Helvetica,sans-Serif" font-size="10.00">#</text>
<text text-anchor="start" x="155.5" y="-706.5" font-family="Helvetica,sans-Serif" font-size="10.00">baseSize</text>
<text text-anchor="start" x="145.88" y="-691.5" font-family="Helvetica,sans-Serif" font-size="10.00">#</text>
<text text-anchor="start" x="155.5" y="-691.5" font-family="Helvetica,sans-Serif" font-size="10.00">maxSize</text>
<text text-anchor="start" x="145.88" y="-676.5" font-family="Helvetica,sans-Serif" font-size="10.00">#</text>
<text text-anchor="start" x="155.5" y="-676.5" font-family="Helvetica,sans-Serif" font-size="10.00">buffers</text>
<text text-anchor="start" x="145.88" y="-661.5" font-family="Helvetica,sans-Serif" font-size="10.00">#</text>
<text text-anchor="start" x="155.5" y="-661.5" font-family="Helvetica,sans-Serif" font-size="10.00">clausesToSendSerialized</text>
<text text-anchor="start" x="145.88" y="-646.5" font-family="Helvetica,sans-Serif" font-size="10.00">#</text>
<text text-anchor="start" x="155.5" y="-646.5" font-family="Helvetica,sans-Serif" font-size="10.00">receivedClausesLeft</text>
<text text-anchor="start" x="145.88" y="-631.5" font-family="Helvetica,sans-Serif" font-size="10.00">#</text>
<text text-anchor="start" x="155.5" y="-631.5" font-family="Helvetica,sans-Serif" font-size="10.00">receivedClausesRight</text>
<text text-anchor="start" x="145.88" y="-616.5" font-family="Helvetica,sans-Serif" font-size="10.00">#</text>
<text text-anchor="start" x="155.5" y="-616.5" font-family="Helvetica,sans-Serif" font-size="10.00">receivedClausesFather</text>
<text text-anchor="start" x="145.88" y="-601.5" font-family="Helvetica,sans-Serif" font-size="10.00">#</text>
<text text-anchor="start" x="155.5" y="-601.5" font-family="Helvetica,sans-Serif" font-size="10.00">deserializedClauses</text>
<text text-anchor="start" x="145.88" y="-586.5" font-family="Helvetica,sans-Serif" font-size="10.00">#</text>
<text text-anchor="start" x="155.5" y="-586.5" font-family="Helvetica,sans-Serif" font-size="10.00">father</text>
<text text-anchor="start" x="145.88" y="-571.5" font-family="Helvetica,sans-Serif" font-size="10.00">#</text>
<text text-anchor="start" x="155.5" y="-571.5" font-family="Helvetica,sans-Serif" font-size="10.00">left_child</text>
<text text-anchor="start" x="145.88" y="-556.5" font-family="Helvetica,sans-Serif" font-size="10.00">#</text>
<text text-anchor="start" x="155.5" y="-556.5" font-family="Helvetica,sans-Serif" font-size="10.00">right_child</text>
<text text-anchor="start" x="145.88" y="-541.5" font-family="Helvetica,sans-Serif" font-size="10.00">#</text>
<text text-anchor="start" x="155.5" y="-541.5" font-family="Helvetica,sans-Serif" font-size="10.00">nb_children</text>
<text text-anchor="start" x="145.88" y="-526.5" font-family="Helvetica,sans-Serif" font-size="10.00">#</text>
<text text-anchor="start" x="155.5" y="-526.5" font-family="Helvetica,sans-Serif" font-size="10.00">sleepTime</text>
<text text-anchor="start" x="145.88" y="-511.5" font-family="Helvetica,sans-Serif" font-size="10.00">#</text>
<text text-anchor="start" x="155.5" y="-511.5" font-family="Helvetica,sans-Serif" font-size="10.00">addChildClauses</text>
<text text-anchor="start" x="145.88" y="-496.5" font-family="Helvetica,sans-Serif" font-size="10.00">#</text>
<text text-anchor="start" x="155.5" y="-496.5" font-family="Helvetica,sans-Serif" font-size="10.00">lbdLimitAtImport</text>
<text text-anchor="start" x="145.88" y="-481.5" font-family="Helvetica,sans-Serif" font-size="10.00">#</text>
<text text-anchor="start" x="155.5" y="-481.5" font-family="Helvetica,sans-Serif" font-size="10.00">sizeLimitAtImport</text>
<text text-anchor="start" x="145.88" y="-466.5" font-family="Helvetica,sans-Serif" font-size="10.00">#</text>
<text text-anchor="start" x="155.5" y="-466.5" font-family="Helvetica,sans-Serif" font-size="10.00">m_freeSize</text>
<text text-anchor="start" x="145.88" y="-451.5" font-family="Helvetica,sans-Serif" font-size="10.00">#</text>
<text text-anchor="start" x="155.5" y="-451.5" font-family="Helvetica,sans-Serif" font-size="10.00">accumulatedAdmittedLiterals</text>
<text text-anchor="start" x="145.88" y="-436.5" font-family="Helvetica,sans-Serif" font-size="10.00">#</text>
<text text-anchor="start" x="155.5" y="-436.5" font-family="Helvetica,sans-Serif" font-size="10.00">accumulatedDesiredLiterals</text>
<text text-anchor="start" x="145.88" y="-421.5" font-family="Helvetica,sans-Serif" font-size="10.00">#</text>
<text text-anchor="start" x="155.5" y="-421.5" font-family="Helvetica,sans-Serif" font-size="10.00">lastEpochAdmittedLits</text>
<text text-anchor="start" x="145.88" y="-406.5" font-family="Helvetica,sans-Serif" font-size="10.00">#</text>
<text text-anchor="start" x="155.5" y="-406.5" font-family="Helvetica,sans-Serif" font-size="10.00">lastEpochReceivedLits</text>
<text text-anchor="start" x="145.88" y="-391.5" font-family="Helvetica,sans-Serif" font-size="10.00">#</text>
<text text-anchor="start" x="155.5" y="-391.5" font-family="Helvetica,sans-Serif" font-size="10.00">compensationFactor</text>
<text text-anchor="start" x="145.88" y="-376.5" font-family="Helvetica,sans-Serif" font-size="10.00">#</text>
<text text-anchor="start" x="155.5" y="-376.5" font-family="Helvetica,sans-Serif" font-size="10.00">maxCompensationFactor</text>
<text text-anchor="start" x="145.88" y="-361.5" font-family="Helvetica,sans-Serif" font-size="10.00">#</text>
<text text-anchor="start" x="155.5" y="-361.5" font-family="Helvetica,sans-Serif" font-size="10.00">estimatedIncomingLits</text>
<text text-anchor="start" x="145.88" y="-346.5" font-family="Helvetica,sans-Serif" font-size="10.00">#</text>
<text text-anchor="start" x="155.5" y="-346.5" font-family="Helvetica,sans-Serif" font-size="10.00">estimatedSharedLits</text>
<text text-anchor="start" x="145.5" y="-331.5" font-family="Helvetica,sans-Serif" font-size="10.00">+</text>
<text text-anchor="start" x="155.5" y="-331.5" font-family="Helvetica,sans-Serif" font-size="10.00">MallobSharing()</text>
<text text-anchor="start" x="145.5" y="-316.5" font-family="Helvetica,sans-Serif" font-size="10.00">+</text>
<text text-anchor="start" x="155.5" y="-316.5" font-family="Helvetica,sans-Serif" font-size="10.00">~MallobSharing()</text>
<text text-anchor="start" x="145.5" y="-301.5" font-family="Helvetica,sans-Serif" font-size="10.00">+</text>
<text text-anchor="start" x="155.5" y="-301.5" font-family="Helvetica,sans-Serif" font-size="10.00">initMpiVariables()</text>
<text text-anchor="start" x="145.5" y="-286.5" font-family="Helvetica,sans-Serif" font-size="10.00">+</text>
<text text-anchor="start" x="155.5" y="-286.5" font-family="Helvetica,sans-Serif" font-size="10.00">doSharing()</text>
<text text-anchor="start" x="145.5" y="-271.5" font-family="Helvetica,sans-Serif" font-size="10.00">+</text>
<text text-anchor="start" x="155.5" y="-271.5" font-family="Helvetica,sans-Serif" font-size="10.00">joinProcess()</text>
<text text-anchor="start" x="145.5" y="-256.5" font-family="Helvetica,sans-Serif" font-size="10.00">+</text>
<text text-anchor="start" x="155.5" y="-256.5" font-family="Helvetica,sans-Serif" font-size="10.00">importClause()</text>
<text text-anchor="start" x="145.5" y="-241.5" font-family="Helvetica,sans-Serif" font-size="10.00">+</text>
<text text-anchor="start" x="155.5" y="-241.5" font-family="Helvetica,sans-Serif" font-size="10.00">getSleepingTime()</text>
<text text-anchor="start" x="145.5" y="-226.5" font-family="Helvetica,sans-Serif" font-size="10.00">+</text>
<text text-anchor="start" x="155.5" y="-226.5" font-family="Helvetica,sans-Serif" font-size="10.00">initializeFilter()</text>
<text text-anchor="start" x="145.5" y="-211.5" font-family="Helvetica,sans-Serif" font-size="10.00">+</text>
<text text-anchor="start" x="155.5" y="-211.5" font-family="Helvetica,sans-Serif" font-size="10.00">doesClauseExist()</text>
<text text-anchor="start" x="145.5" y="-196.5" font-family="Helvetica,sans-Serif" font-size="10.00">+</text>
<text text-anchor="start" x="155.5" y="-196.5" font-family="Helvetica,sans-Serif" font-size="10.00">updateClause()</text>
<text text-anchor="start" x="145.5" y="-181.5" font-family="Helvetica,sans-Serif" font-size="10.00">+</text>
<text text-anchor="start" x="155.5" y="-181.5" font-family="Helvetica,sans-Serif" font-size="10.00">insertClause()</text>
<text text-anchor="start" x="145.5" y="-166.5" font-family="Helvetica,sans-Serif" font-size="10.00">+</text>
<text text-anchor="start" x="155.5" y="-166.5" font-family="Helvetica,sans-Serif" font-size="10.00">isClauseShared()</text>
<text text-anchor="start" x="145.5" y="-151.5" font-family="Helvetica,sans-Serif" font-size="10.00">+</text>
<text text-anchor="start" x="155.5" y="-151.5" font-family="Helvetica,sans-Serif" font-size="10.00">canConsumerImportClause()</text>
<text text-anchor="start" x="145.5" y="-136.5" font-family="Helvetica,sans-Serif" font-size="10.00">+</text>
<text text-anchor="start" x="155.5" y="-136.5" font-family="Helvetica,sans-Serif" font-size="10.00">incrementEpoch()</text>
<text text-anchor="start" x="145.5" y="-121.5" font-family="Helvetica,sans-Serif" font-size="10.00">+</text>
<text text-anchor="start" x="155.5" y="-121.5" font-family="Helvetica,sans-Serif" font-size="10.00">markClauseAsShared()</text>
<text text-anchor="start" x="145.5" y="-106.5" font-family="Helvetica,sans-Serif" font-size="10.00">+</text>
<text text-anchor="start" x="155.5" y="-106.5" font-family="Helvetica,sans-Serif" font-size="10.00">shrinkFilter()</text>
<text text-anchor="start" x="145.88" y="-91.5" font-family="Helvetica,sans-Serif" font-size="10.00">#</text>
<text text-anchor="start" x="155.5" y="-91.5" font-family="Helvetica,sans-Serif" font-size="10.00">exportClauseToClient()</text>
<text text-anchor="start" x="145.88" y="-76.5" font-family="Helvetica,sans-Serif" font-size="10.00">#</text>
<text text-anchor="start" x="155.5" y="-76.5" font-family="Helvetica,sans-Serif" font-size="10.00">deserializeClauses()</text>
<text text-anchor="start" x="145.88" y="-61.5" font-family="Helvetica,sans-Serif" font-size="10.00">#</text>
<text text-anchor="start" x="155.5" y="-61.5" font-family="Helvetica,sans-Serif" font-size="10.00">mergeSerializedBuffersWith</text>
<text text-anchor="start" x="155.5" y="-50.25" font-family="Helvetica,sans-Serif" font-size="10.00">Mine()</text>
<text text-anchor="start" x="145.88" y="-35.5" font-family="Helvetica,sans-Serif" font-size="10.00">#</text>
<text text-anchor="start" x="155.5" y="-35.5" font-family="Helvetica,sans-Serif" font-size="10.00">computeBufferSize()</text>
<text text-anchor="start" x="145.88" y="-20.5" font-family="Helvetica,sans-Serif" font-size="10.00">#</text>
<text text-anchor="start" x="155.5" y="-20.5" font-family="Helvetica,sans-Serif" font-size="10.00">getOneClauseWrapper()</text>
<text text-anchor="start" x="145.88" y="-5.5" font-family="Helvetica,sans-Serif" font-size="10.00">#</text>
<text text-anchor="start" x="155.5" y="-5.5" font-family="Helvetica,sans-Serif" font-size="10.00">computeCompensation()</text>
<polygon fill="#666666" stroke="#666666" points="141.5,-733 141.5,-733 285.5,-733 285.5,-733 141.5,-733"/>
<polygon fill="#666666" stroke="#666666" points="141.5,-343 141.5,-343 153.5,-343 153.5,-343 141.5,-343"/>
<polygon fill="#666666" stroke="#666666" points="153.5,-343 153.5,-343 285.5,-343 285.5,-343 153.5,-343"/>
<polygon fill="none" stroke="#666666" points="141.5,0 141.5,-750 285.5,-750 285.5,0 141.5,0"/>
</a>
</g>
</g>
<!-- Node2 -->
<g id="Node000002" class="node">
<title>Node2</title>
<g id="a_Node000002"><a xlink:href="classGlobalSharingStrategy.html" target="_top" xlink:title="Base class for global clause sharing strategies across MPI processes.">
<polygon fill="white" stroke="none" points="216.5,-1206.25 90.5,-1206.25 90.5,-977.25 216.5,-977.25 216.5,-1206.25"/>
<text text-anchor="start" x="105.12" y="-1192.75" font-family="Helvetica,sans-Serif" font-size="10.00">GlobalSharingStrategy</text>
<text text-anchor="start" x="94.88" y="-1177.75" font-family="Helvetica,sans-Serif" font-size="10.00">#</text>
<text text-anchor="start" x="104.5" y="-1177.75" font-family="Helvetica,sans-Serif" font-size="10.00">requests_sent</text>
<text text-anchor="start" x="94.88" y="-1162.75" font-family="Helvetica,sans-Serif" font-size="10.00">#</text>
<text text-anchor="start" x="104.5" y="-1162.75" font-family="Helvetica,sans-Serif" font-size="10.00">recv_end_requests</text>
<text text-anchor="start" x="94.88" y="-1147.75" font-family="Helvetica,sans-Serif" font-size="10.00">#</text>
<text text-anchor="start" x="104.5" y="-1147.75" font-family="Helvetica,sans-Serif" font-size="10.00">send_end_request</text>
<text text-anchor="start" x="94.88" y="-1132.75" font-family="Helvetica,sans-Serif" font-size="10.00">#</text>
<text text-anchor="start" x="104.5" y="-1132.75" font-family="Helvetica,sans-Serif" font-size="10.00">receivedFinalResultRoot</text>
<text text-anchor="start" x="94.5" y="-1117.75" font-family="Helvetica,sans-Serif" font-size="10.00">+</text>
<text text-anchor="start" x="104.5" y="-1117.75" font-family="Helvetica,sans-Serif" font-size="10.00">GlobalSharingStrategy()</text>
<text text-anchor="start" x="94.5" y="-1102.75" font-family="Helvetica,sans-Serif" font-size="10.00">+</text>
<text text-anchor="start" x="104.5" y="-1102.75" font-family="Helvetica,sans-Serif" font-size="10.00">~GlobalSharingStrategy()</text>
<text text-anchor="start" x="94.5" y="-1087.75" font-family="Helvetica,sans-Serif" font-size="10.00">+</text>
<text text-anchor="start" x="104.5" y="-1087.75" font-family="Helvetica,sans-Serif" font-size="10.00">importClause()</text>
<text text-anchor="start" x="94.5" y="-1072.75" font-family="Helvetica,sans-Serif" font-size="10.00">+</text>
<text text-anchor="start" x="104.5" y="-1072.75" font-family="Helvetica,sans-Serif" font-size="10.00">importClauses()</text>
<text text-anchor="start" x="94.5" y="-1057.75" font-family="Helvetica,sans-Serif" font-size="10.00">+</text>
<text text-anchor="start" x="104.5" y="-1057.75" font-family="Helvetica,sans-Serif" font-size="10.00">exportClauseToClient()</text>
<text text-anchor="start" x="94.5" y="-1042.75" font-family="Helvetica,sans-Serif" font-size="10.00">+</text>
<text text-anchor="start" x="104.5" y="-1042.75" font-family="Helvetica,sans-Serif" font-size="10.00">getSleepingTime()</text>
<text text-anchor="start" x="94.5" y="-1027.75" font-family="Helvetica,sans-Serif" font-size="10.00">+</text>
<text text-anchor="start" x="104.5" y="-1027.75" font-family="Helvetica,sans-Serif" font-size="10.00">joinProcess()</text>
<text text-anchor="start" x="94.5" y="-1012.75" font-family="Helvetica,sans-Serif" font-size="10.00">+</text>
<text text-anchor="start" x="104.5" y="-1012.75" font-family="Helvetica,sans-Serif" font-size="10.00">printStats()</text>
<text text-anchor="start" x="94.5" y="-997.75" font-family="Helvetica,sans-Serif" font-size="10.00">+</text>
<text text-anchor="start" x="104.5" y="-997.75" font-family="Helvetica,sans-Serif" font-size="10.00">initMpiVariables()</text>
<text text-anchor="start" x="94.5" y="-982.75" font-family="Helvetica,sans-Serif" font-size="10.00">+</text>
<text text-anchor="start" x="104.5" y="-982.75" font-family="Helvetica,sans-Serif" font-size="10.00">doSharing()</text>
<polygon fill="#666666" stroke="#666666" points="90.5,-1189.25 90.5,-1189.25 216.5,-1189.25 216.5,-1189.25 90.5,-1189.25"/>
<polygon fill="#666666" stroke="#666666" points="90.5,-1129.25 90.5,-1129.25 102.5,-1129.25 102.5,-1129.25 90.5,-1129.25"/>
<polygon fill="#666666" stroke="#666666" points="102.5,-1129.25 102.5,-1129.25 216.5,-1129.25 216.5,-1129.25 102.5,-1129.25"/>
<polygon fill="none" stroke="#666666" points="90.5,-977.25 90.5,-1206.25 216.5,-1206.25 216.5,-977.25 90.5,-977.25"/>
</a>
</g>
</g>
<!-- Node2&#45;&gt;Node1 -->
<g id="edge1_Node000001_Node000002" class="edge">
<title>Node2&#45;&gt;Node1</title>
<g id="a_edge1_Node000001_Node000002"><a xlink:title=" ">
<path fill="none" stroke="#63b8ff" d="M163.95,-966.28C169.08,-905.21 175.55,-828.06 182.12,-749.86"/>
<polygon fill="none" stroke="#63b8ff" points="160.48,-965.73 163.13,-975.99 167.46,-966.32 160.48,-965.73"/>
</a>
</g>
</g>
<!-- Node3 -->
<g id="Node000003" class="node">
<title>Node3</title>
<g id="a_Node000003"><a xlink:href="classSharingStrategy.html" target="_top" xlink:title="SharingStrategy class, inheriting from SharingEntity.">
<polygon fill="white" stroke="none" points="153,-1647.5 0,-1647.5 0,-1433.5 153,-1433.5 153,-1647.5"/>
<text text-anchor="start" x="42" y="-1634" font-family="Helvetica,sans-Serif" font-size="10.00">SharingStrategy</text>
<text text-anchor="start" x="4.38" y="-1619" font-family="Helvetica,sans-Serif" font-size="10.00">#</text>
<text text-anchor="start" x="14" y="-1619" font-family="Helvetica,sans-Serif" font-size="10.00">m_clauseDB</text>
<text text-anchor="start" x="4.38" y="-1604" font-family="Helvetica,sans-Serif" font-size="10.00">#</text>
<text text-anchor="start" x="14" y="-1604" font-family="Helvetica,sans-Serif" font-size="10.00">m_producers</text>
<text text-anchor="start" x="4.38" y="-1589" font-family="Helvetica,sans-Serif" font-size="10.00">#</text>
<text text-anchor="start" x="14" y="-1589" font-family="Helvetica,sans-Serif" font-size="10.00">m_producersMutex</text>
<text text-anchor="start" x="4" y="-1574" font-family="Helvetica,sans-Serif" font-size="10.00">+</text>
<text text-anchor="start" x="14" y="-1574" font-family="Helvetica,sans-Serif" font-size="10.00">SharingStrategy()</text>
<text text-anchor="start" x="4" y="-1559" font-family="Helvetica,sans-Serif" font-size="10.00">+</text>
<text text-anchor="start" x="14" y="-1559" font-family="Helvetica,sans-Serif" font-size="10.00">~SharingStrategy()</text>
<text text-anchor="start" x="4" y="-1544" font-family="Helvetica,sans-Serif" font-size="10.00">+</text>
<text text-anchor="start" x="14" y="-1544" font-family="Helvetica,sans-Serif" font-size="10.00">doSharing()</text>
<text text-anchor="start" x="4" y="-1529" font-family="Helvetica,sans-Serif" font-size="10.00">+</text>
<text text-anchor="start" x="14" y="-1529" font-family="Helvetica,sans-Serif" font-size="10.00">getSleepingTime()</text>
<text text-anchor="start" x="4" y="-1514" font-family="Helvetica,sans-Serif" font-size="10.00">+</text>
<text text-anchor="start" x="14" y="-1514" font-family="Helvetica,sans-Serif" font-size="10.00">printStats()</text>
<text text-anchor="start" x="4" y="-1499" font-family="Helvetica,sans-Serif" font-size="10.00">+</text>
<text text-anchor="start" x="14" y="-1499" font-family="Helvetica,sans-Serif" font-size="10.00">connectConstructorProducers()</text>
<text text-anchor="start" x="4" y="-1484" font-family="Helvetica,sans-Serif" font-size="10.00">+</text>
<text text-anchor="start" x="14" y="-1484" font-family="Helvetica,sans-Serif" font-size="10.00">addProducer()</text>
<text text-anchor="start" x="4" y="-1469" font-family="Helvetica,sans-Serif" font-size="10.00">+</text>
<text text-anchor="start" x="14" y="-1469" font-family="Helvetica,sans-Serif" font-size="10.00">connectProducer()</text>
<text text-anchor="start" x="4" y="-1454" font-family="Helvetica,sans-Serif" font-size="10.00">+</text>
<text text-anchor="start" x="14" y="-1454" font-family="Helvetica,sans-Serif" font-size="10.00">removeProducer()</text>
<text text-anchor="start" x="4.38" y="-1439" font-family="Helvetica,sans-Serif" font-size="10.00">#</text>
<text text-anchor="start" x="14" y="-1439" font-family="Helvetica,sans-Serif" font-size="10.00">exportClauseToClient()</text>
<polygon fill="#666666" stroke="#666666" points="0,-1630.5 0,-1630.5 153,-1630.5 153,-1630.5 0,-1630.5"/>
<polygon fill="#666666" stroke="#666666" points="0,-1585.5 0,-1585.5 12,-1585.5 12,-1585.5 0,-1585.5"/>
<polygon fill="#666666" stroke="#666666" points="12,-1585.5 12,-1585.5 153,-1585.5 153,-1585.5 12,-1585.5"/>
<polygon fill="none" stroke="#666666" points="0,-1433.5 0,-1647.5 153,-1647.5 153,-1433.5 0,-1433.5"/>
</a>
</g>
</g>
<!-- Node3&#45;&gt;Node2 -->
<g id="edge2_Node000002_Node000003" class="edge">
<title>Node3&#45;&gt;Node2</title>
<g id="a_edge2_Node000002_Node000003"><a xlink:title=" ">
<path fill="none" stroke="#63b8ff" d="M96.64,-1422.62C108.17,-1355.77 122.55,-1272.31 133.97,-1206.07"/>
<polygon fill="none" stroke="#63b8ff" points="93.25,-1421.69 95.01,-1432.13 100.15,-1422.87 93.25,-1421.69"/>
</a>
</g>
</g>
<!-- Node4 -->
<g id="Node000004" class="node">
<title>Node4</title>
<g id="a_Node000004"><a xlink:href="classSharingEntity.html" target="_top" xlink:title="A base class representing entities that can exchange clauses between themselves.">
<polygon fill="white" stroke="none" points="134.5,-1953.75 18.5,-1953.75 18.5,-1694.75 134.5,-1694.75 134.5,-1953.75"/>
<text text-anchor="start" x="48" y="-1940.25" font-family="Helvetica,sans-Serif" font-size="10.00">SharingEntity</text>
<text text-anchor="start" x="22.88" y="-1925.25" font-family="Helvetica,sans-Serif" font-size="10.00">#</text>
<text text-anchor="start" x="32.5" y="-1925.25" font-family="Helvetica,sans-Serif" font-size="10.00">m_clients</text>
<text text-anchor="start" x="22.88" y="-1910.25" font-family="Helvetica,sans-Serif" font-size="10.00">#</text>
<text text-anchor="start" x="32.5" y="-1910.25" font-family="Helvetica,sans-Serif" font-size="10.00">m_clientsMutex</text>
<text text-anchor="start" x="22.5" y="-1895.25" font-family="Helvetica,sans-Serif" font-size="10.00">+</text>
<text text-anchor="start" x="32.5" y="-1895.25" font-family="Helvetica,sans-Serif" font-size="10.00">SharingEntity()</text>
<text text-anchor="start" x="22.5" y="-1880.25" font-family="Helvetica,sans-Serif" font-size="10.00">+</text>
<text text-anchor="start" x="32.5" y="-1880.25" font-family="Helvetica,sans-Serif" font-size="10.00">SharingEntity()</text>
<text text-anchor="start" x="22.5" y="-1865.25" font-family="Helvetica,sans-Serif" font-size="10.00">+</text>
<text text-anchor="start" x="32.5" y="-1865.25" font-family="Helvetica,sans-Serif" font-size="10.00">~SharingEntity()</text>
<text text-anchor="start" x="22.5" y="-1850.25" font-family="Helvetica,sans-Serif" font-size="10.00">+</text>
<text text-anchor="start" x="32.5" y="-1850.25" font-family="Helvetica,sans-Serif" font-size="10.00">importClause()</text>
<text text-anchor="start" x="22.5" y="-1835.25" font-family="Helvetica,sans-Serif" font-size="10.00">+</text>
<text text-anchor="start" x="32.5" y="-1835.25" font-family="Helvetica,sans-Serif" font-size="10.00">importClauses()</text>
<text text-anchor="start" x="22.5" y="-1820.25" font-family="Helvetica,sans-Serif" font-size="10.00">+</text>
<text text-anchor="start" x="32.5" y="-1820.25" font-family="Helvetica,sans-Serif" font-size="10.00">getSharingId()</text>
<text text-anchor="start" x="22.5" y="-1805.25" font-family="Helvetica,sans-Serif" font-size="10.00">+</text>
<text text-anchor="start" x="32.5" y="-1805.25" font-family="Helvetica,sans-Serif" font-size="10.00">setSharingId()</text>
<text text-anchor="start" x="22.5" y="-1790.25" font-family="Helvetica,sans-Serif" font-size="10.00">+</text>
<text text-anchor="start" x="32.5" y="-1790.25" font-family="Helvetica,sans-Serif" font-size="10.00">addClient()</text>
<text text-anchor="start" x="22.5" y="-1775.25" font-family="Helvetica,sans-Serif" font-size="10.00">+</text>
<text text-anchor="start" x="32.5" y="-1775.25" font-family="Helvetica,sans-Serif" font-size="10.00">removeClient()</text>
<text text-anchor="start" x="22.5" y="-1760.25" font-family="Helvetica,sans-Serif" font-size="10.00">+</text>
<text text-anchor="start" x="32.5" y="-1760.25" font-family="Helvetica,sans-Serif" font-size="10.00">getClientCount()</text>
<text text-anchor="start" x="22.5" y="-1745.25" font-family="Helvetica,sans-Serif" font-size="10.00">+</text>
<text text-anchor="start" x="32.5" y="-1745.25" font-family="Helvetica,sans-Serif" font-size="10.00">clearClients()</text>
<text text-anchor="start" x="22.88" y="-1730.25" font-family="Helvetica,sans-Serif" font-size="10.00">#</text>
<text text-anchor="start" x="32.5" y="-1730.25" font-family="Helvetica,sans-Serif" font-size="10.00">exportClauseToClient()</text>
<text text-anchor="start" x="22.88" y="-1715.25" font-family="Helvetica,sans-Serif" font-size="10.00">#</text>
<text text-anchor="start" x="32.5" y="-1715.25" font-family="Helvetica,sans-Serif" font-size="10.00">exportClause()</text>
<text text-anchor="start" x="22.88" y="-1700.25" font-family="Helvetica,sans-Serif" font-size="10.00">#</text>
<text text-anchor="start" x="32.5" y="-1700.25" font-family="Helvetica,sans-Serif" font-size="10.00">exportClauses()</text>
<polygon fill="#666666" stroke="#666666" points="18.5,-1936.75 18.5,-1936.75 134.5,-1936.75 134.5,-1936.75 18.5,-1936.75"/>
<polygon fill="#666666" stroke="#666666" points="18.5,-1906.75 18.5,-1906.75 30.5,-1906.75 30.5,-1906.75 18.5,-1906.75"/>
<polygon fill="#666666" stroke="#666666" points="30.5,-1906.75 30.5,-1906.75 134.5,-1906.75 134.5,-1906.75 30.5,-1906.75"/>
<polygon fill="none" stroke="#666666" points="18.5,-1694.75 18.5,-1953.75 134.5,-1953.75 134.5,-1694.75 18.5,-1694.75"/>
</a>
</g>
</g>
<!-- Node4&#45;&gt;Node3 -->
<g id="edge3_Node000003_Node000004" class="edge">
<title>Node4&#45;&gt;Node3</title>
<g id="a_edge3_Node000003_Node000004"><a xlink:title=" ">
<path fill="none" stroke="#63b8ff" d="M76.5,-1683.88C76.5,-1671.6 76.5,-1659.3 76.5,-1647.35"/>
<polygon fill="none" stroke="#63b8ff" points="73,-1683.64 76.5,-1693.64 80,-1683.64 73,-1683.64"/>
</a>
</g>
</g>
<!-- Node5 -->
<g id="Node000005" class="node">
<title>Node5</title>
<g id="a_Node000005"><a xlink:title=" ">
<polygon fill="white" stroke="none" points="141,-2050.75 12,-2050.75 12,-1990.75 141,-1990.75 141,-2050.75"/>
<text text-anchor="start" x="16.88" y="-2037.25" font-family="Helvetica,sans-Serif" font-size="10.00">std::enable_shared</text>
<text text-anchor="start" x="16.88" y="-2026" font-family="Helvetica,sans-Serif" font-size="10.00">_from_this&lt; SharingEntity &gt;</text>
<text text-anchor="start" x="75" y="-2011.25" font-family="Helvetica,sans-Serif" font-size="10.00"> </text>
<text text-anchor="start" x="75" y="-1996.25" font-family="Helvetica,sans-Serif" font-size="10.00"> </text>
<polygon fill="#bfbfbf" stroke="#bfbfbf" points="12,-2022.75 12,-2022.75 141,-2022.75 141,-2022.75 12,-2022.75"/>
<polygon fill="#bfbfbf" stroke="#bfbfbf" points="12,-2007.75 12,-2007.75 141,-2007.75 141,-2007.75 12,-2007.75"/>
<polygon fill="none" stroke="#bfbfbf" points="12,-1990.75 12,-2050.75 141,-2050.75 141,-1990.75 12,-1990.75"/>
</a>
</g>
</g>
<!-- Node5&#45;&gt;Node4 -->
<g id="edge4_Node000004_Node000005" class="edge">
<title>Node5&#45;&gt;Node4</title>
<g id="a_edge4_Node000004_Node000005"><a xlink:title=" ">
<path fill="none" stroke="#63b8ff" d="M76.5,-1979.59C76.5,-1971.6 76.5,-1962.81 76.5,-1953.61"/>
<polygon fill="none" stroke="#63b8ff" points="73,-1979.54 76.5,-1989.54 80,-1979.54 73,-1979.54"/>
</a>
</g>
</g>
<!-- Node6 -->
<g id="Node000006" class="node">
<title>Node6</title>
<g id="a_Node000006"><a xlink:href="structSharingStatistics.html" target="_top" xlink:title="Local Sharing statistics.Sharing statistics.">
<polygon fill="white" stroke="none" points="259.5,-1863.75 169.5,-1863.75 169.5,-1784.75 259.5,-1784.75 259.5,-1863.75"/>
<text text-anchor="start" x="177.38" y="-1850.25" font-family="Helvetica,sans-Serif" font-size="10.00">SharingStatistics</text>
<text text-anchor="start" x="173.5" y="-1835.25" font-family="Helvetica,sans-Serif" font-size="10.00">+</text>
<text text-anchor="start" x="183.5" y="-1835.25" font-family="Helvetica,sans-Serif" font-size="10.00">sharedClauses</text>
<text text-anchor="start" x="173.5" y="-1820.25" font-family="Helvetica,sans-Serif" font-size="10.00">+</text>
<text text-anchor="start" x="183.5" y="-1820.25" font-family="Helvetica,sans-Serif" font-size="10.00">receivedClauses</text>
<text text-anchor="start" x="173.5" y="-1805.25" font-family="Helvetica,sans-Serif" font-size="10.00">+</text>
<text text-anchor="start" x="183.5" y="-1805.25" font-family="Helvetica,sans-Serif" font-size="10.00">filteredAtImport</text>
<text text-anchor="start" x="213" y="-1790.25" font-family="Helvetica,sans-Serif" font-size="10.00"> </text>
<polygon fill="#666666" stroke="#666666" points="169.5,-1846.75 169.5,-1846.75 259.5,-1846.75 259.5,-1846.75 169.5,-1846.75"/>
<polygon fill="#666666" stroke="#666666" points="169.5,-1801.75 169.5,-1801.75 181.5,-1801.75 181.5,-1801.75 169.5,-1801.75"/>
<polygon fill="#666666" stroke="#666666" points="181.5,-1801.75 181.5,-1801.75 259.5,-1801.75 259.5,-1801.75 181.5,-1801.75"/>
<polygon fill="none" stroke="#666666" points="169.5,-1784.75 169.5,-1863.75 259.5,-1863.75 259.5,-1784.75 169.5,-1784.75"/>
</a>
</g>
</g>
<!-- Node6&#45;&gt;Node3 -->
<g id="edge5_Node000003_Node000006" class="edge">
<title>Node6&#45;&gt;Node3</title>
<g id="a_edge5_Node000003_Node000006"><a xlink:title=" ">
<path fill="none" stroke="#63b8ff" d="M195.75,-1784.96C179.85,-1752.5 156.18,-1704.18 134.11,-1659.12"/>
<polygon fill="none" stroke="#63b8ff" points="134.06,-1659.02 127.83,-1655.39 128.78,-1648.24 135.01,-1651.87 134.06,-1659.02"/>
</a>
</g>
<text text-anchor="middle" x="155.99" y="-1667.25" font-family="Helvetica,sans-Serif" font-size="10.00" fill="grey"> #stats</text>
</g>
<!-- Node7 -->
<g id="Node000007" class="node">
<title>Node7</title>
<g id="a_Node000007"><a xlink:href="structGlobalSharingStatistics.html" target="_top" xlink:title="Statistics of a global sharing strategy.">
<polygon fill="white" stroke="none" points="291.5,-1580 171.5,-1580 171.5,-1501 291.5,-1501 291.5,-1580"/>
<text text-anchor="start" x="180.5" y="-1566.5" font-family="Helvetica,sans-Serif" font-size="10.00">GlobalSharingStatistics</text>
<text text-anchor="start" x="175.5" y="-1551.5" font-family="Helvetica,sans-Serif" font-size="10.00">+</text>
<text text-anchor="start" x="185.5" y="-1551.5" font-family="Helvetica,sans-Serif" font-size="10.00">sharedDuplicasAvoided</text>
<text text-anchor="start" x="175.5" y="-1536.5" font-family="Helvetica,sans-Serif" font-size="10.00">+</text>
<text text-anchor="start" x="185.5" y="-1536.5" font-family="Helvetica,sans-Serif" font-size="10.00">receivedDuplicas</text>
<text text-anchor="start" x="175.5" y="-1521.5" font-family="Helvetica,sans-Serif" font-size="10.00">+</text>
<text text-anchor="start" x="185.5" y="-1521.5" font-family="Helvetica,sans-Serif" font-size="10.00">messagesSent</text>
<text text-anchor="start" x="230" y="-1506.5" font-family="Helvetica,sans-Serif" font-size="10.00"> </text>
<polygon fill="#666666" stroke="#666666" points="171.5,-1563 171.5,-1563 291.5,-1563 291.5,-1563 171.5,-1563"/>
<polygon fill="#666666" stroke="#666666" points="171.5,-1518 171.5,-1518 183.5,-1518 183.5,-1518 171.5,-1518"/>
<polygon fill="#666666" stroke="#666666" points="183.5,-1518 183.5,-1518 291.5,-1518 291.5,-1518 183.5,-1518"/>
<polygon fill="none" stroke="#666666" points="171.5,-1501 171.5,-1580 291.5,-1580 291.5,-1501 171.5,-1501"/>
</a>
</g>
</g>
<!-- Node6&#45;&gt;Node7 -->
<g id="edge7_Node000007_Node000006" class="edge">
<title>Node6&#45;&gt;Node7</title>
<g id="a_edge7_Node000007_Node000006"><a xlink:title=" ">
<path fill="none" stroke="#63b8ff" d="M217.49,-1773.68C220.83,-1718.33 226.16,-1629.95 229.19,-1579.71"/>
<polygon fill="none" stroke="#63b8ff" points="214.01,-1773.26 216.9,-1783.45 221,-1773.68 214.01,-1773.26"/>
</a>
</g>
</g>
<!-- Node7&#45;&gt;Node2 -->
<g id="edge6_Node000002_Node000007" class="edge">
<title>Node7&#45;&gt;Node2</title>
<g id="a_edge6_Node000002_Node000007"><a xlink:title=" ">
<path fill="none" stroke="#63b8ff" d="M224.78,-1501.02C213.94,-1438.94 192.13,-1313.99 175.47,-1218.58"/>
<polygon fill="none" stroke="#63b8ff" points="175.48,-1218.62 170.5,-1213.4 173.41,-1206.8 178.39,-1212.03 175.48,-1218.62"/>
</a>
</g>
<text text-anchor="middle" x="225.7" y="-1406" font-family="Helvetica,sans-Serif" font-size="10.00" fill="grey"> #gstats</text>
</g>
<!-- Node8 -->
<g id="Node000008" class="node">
<title>Node8</title>
<g id="a_Node000008"><a xlink:href="classBitset.html" target="_top" xlink:title="A class representing a bitset with dynamic size.">
<polygon fill="white" stroke="none" points="312.5,-1386.25 234.5,-1386.25 234.5,-797.25 312.5,-797.25 312.5,-1386.25"/>
<text text-anchor="start" x="260.75" y="-1372.75" font-family="Helvetica,sans-Serif" font-size="10.00">Bitset</text>
<text text-anchor="start" x="238.5" y="-1357.75" font-family="Helvetica,sans-Serif" font-size="10.00">+</text>
<text text-anchor="start" x="248.5" y="-1357.75" font-family="Helvetica,sans-Serif" font-size="10.00">bits</text>
<text text-anchor="start" x="238.5" y="-1342.75" font-family="Helvetica,sans-Serif" font-size="10.00">+</text>
<text text-anchor="start" x="248.5" y="-1342.75" font-family="Helvetica,sans-Serif" font-size="10.00">m_size</text>
<text text-anchor="start" x="238.5" y="-1327.75" font-family="Helvetica,sans-Serif" font-size="10.00">+</text>
<text text-anchor="start" x="248.5" y="-1327.75" font-family="Helvetica,sans-Serif" font-size="10.00">n</text>
<text text-anchor="start" x="238.5" y="-1312.75" font-family="Helvetica,sans-Serif" font-size="10.00">+</text>
<text text-anchor="start" x="248.5" y="-1312.75" font-family="Helvetica,sans-Serif" font-size="10.00">array</text>
<text text-anchor="start" x="238.5" y="-1297.75" font-family="Helvetica,sans-Serif" font-size="10.00">+</text>
<text text-anchor="start" x="248.5" y="-1297.75" font-family="Helvetica,sans-Serif" font-size="10.00">hashval</text>
<text text-anchor="start" x="238.5" y="-1282.75" font-family="Helvetica,sans-Serif" font-size="10.00">+</text>
<text text-anchor="start" x="248.5" y="-1282.75" font-family="Helvetica,sans-Serif" font-size="10.00">size_correcter</text>
<text text-anchor="start" x="238.5" y="-1267.75" font-family="Helvetica,sans-Serif" font-size="10.00">+</text>
<text text-anchor="start" x="248.5" y="-1267.75" font-family="Helvetica,sans-Serif" font-size="10.00">one_bit</text>
<text text-anchor="start" x="238.5" y="-1252.75" font-family="Helvetica,sans-Serif" font-size="10.00">+</text>
<text text-anchor="start" x="248.5" y="-1252.75" font-family="Helvetica,sans-Serif" font-size="10.00">zero_bit</text>
<text text-anchor="start" x="238.5" y="-1237.75" font-family="Helvetica,sans-Serif" font-size="10.00">+</text>
<text text-anchor="start" x="248.5" y="-1237.75" font-family="Helvetica,sans-Serif" font-size="10.00">Bitset()</text>
<text text-anchor="start" x="238.5" y="-1222.75" font-family="Helvetica,sans-Serif" font-size="10.00">+</text>
<text text-anchor="start" x="248.5" y="-1222.75" font-family="Helvetica,sans-Serif" font-size="10.00">num_blocks()</text>
<text text-anchor="start" x="238.5" y="-1207.75" font-family="Helvetica,sans-Serif" font-size="10.00">+</text>
<text text-anchor="start" x="248.5" y="-1207.75" font-family="Helvetica,sans-Serif" font-size="10.00">operator[]()</text>
<text text-anchor="start" x="238.5" y="-1192.75" font-family="Helvetica,sans-Serif" font-size="10.00">+</text>
<text text-anchor="start" x="248.5" y="-1192.75" font-family="Helvetica,sans-Serif" font-size="10.00">set()</text>
<text text-anchor="start" x="238.5" y="-1177.75" font-family="Helvetica,sans-Serif" font-size="10.00">+</text>
<text text-anchor="start" x="248.5" y="-1177.75" font-family="Helvetica,sans-Serif" font-size="10.00">clear()</text>
<text text-anchor="start" x="238.5" y="-1162.75" font-family="Helvetica,sans-Serif" font-size="10.00">+</text>
<text text-anchor="start" x="248.5" y="-1162.75" font-family="Helvetica,sans-Serif" font-size="10.00">resize()</text>
<text text-anchor="start" x="238.5" y="-1147.75" font-family="Helvetica,sans-Serif" font-size="10.00">+</text>
<text text-anchor="start" x="248.5" y="-1147.75" font-family="Helvetica,sans-Serif" font-size="10.00">size()</text>
<text text-anchor="start" x="238.5" y="-1132.75" font-family="Helvetica,sans-Serif" font-size="10.00">+</text>
<text text-anchor="start" x="248.5" y="-1132.75" font-family="Helvetica,sans-Serif" font-size="10.00">merge()</text>
<text text-anchor="start" x="238.5" y="-1117.75" font-family="Helvetica,sans-Serif" font-size="10.00">+</text>
<text text-anchor="start" x="248.5" y="-1117.75" font-family="Helvetica,sans-Serif" font-size="10.00">merge_or()</text>
<text text-anchor="start" x="238.5" y="-1102.75" font-family="Helvetica,sans-Serif" font-size="10.00">+</text>
<text text-anchor="start" x="248.5" y="-1102.75" font-family="Helvetica,sans-Serif" font-size="10.00">merge_and()</text>
<text text-anchor="start" x="238.5" y="-1087.75" font-family="Helvetica,sans-Serif" font-size="10.00">+</text>
<text text-anchor="start" x="248.5" y="-1087.75" font-family="Helvetica,sans-Serif" font-size="10.00">data()</text>
<text text-anchor="start" x="238.5" y="-1072.75" font-family="Helvetica,sans-Serif" font-size="10.00">+</text>
<text text-anchor="start" x="248.5" y="-1072.75" font-family="Helvetica,sans-Serif" font-size="10.00">data()</text>
<text text-anchor="start" x="238.5" y="-1057.75" font-family="Helvetica,sans-Serif" font-size="10.00">+</text>
<text text-anchor="start" x="248.5" y="-1057.75" font-family="Helvetica,sans-Serif" font-size="10.00">print()</text>
<text text-anchor="start" x="238.5" y="-1042.75" font-family="Helvetica,sans-Serif" font-size="10.00">+</text>
<text text-anchor="start" x="248.5" y="-1042.75" font-family="Helvetica,sans-Serif" font-size="10.00">hash()</text>
<text text-anchor="start" x="238.5" y="-1027.75" font-family="Helvetica,sans-Serif" font-size="10.00">+</text>
<text text-anchor="start" x="248.5" y="-1027.75" font-family="Helvetica,sans-Serif" font-size="10.00">allocate()</text>
<text text-anchor="start" x="238.5" y="-1012.75" font-family="Helvetica,sans-Serif" font-size="10.00">+</text>
<text text-anchor="start" x="248.5" y="-1012.75" font-family="Helvetica,sans-Serif" font-size="10.00">random()</text>
<text text-anchor="start" x="238.5" y="-997.75" font-family="Helvetica,sans-Serif" font-size="10.00">+</text>
<text text-anchor="start" x="248.5" y="-997.75" font-family="Helvetica,sans-Serif" font-size="10.00">free()</text>
<text text-anchor="start" x="238.5" y="-982.75" font-family="Helvetica,sans-Serif" font-size="10.00">+</text>
<text text-anchor="start" x="248.5" y="-982.75" font-family="Helvetica,sans-Serif" font-size="10.00">eqs()</text>
<text text-anchor="start" x="238.5" y="-967.75" font-family="Helvetica,sans-Serif" font-size="10.00">+</text>
<text text-anchor="start" x="248.5" y="-967.75" font-family="Helvetica,sans-Serif" font-size="10.00">ands()</text>
<text text-anchor="start" x="238.5" y="-952.75" font-family="Helvetica,sans-Serif" font-size="10.00">+</text>
<text text-anchor="start" x="248.5" y="-952.75" font-family="Helvetica,sans-Serif" font-size="10.00">xors()</text>
<text text-anchor="start" x="238.5" y="-937.75" font-family="Helvetica,sans-Serif" font-size="10.00">+</text>
<text text-anchor="start" x="248.5" y="-937.75" font-family="Helvetica,sans-Serif" font-size="10.00">operator==()</text>
<text text-anchor="start" x="238.5" y="-922.75" font-family="Helvetica,sans-Serif" font-size="10.00">+</text>
<text text-anchor="start" x="248.5" y="-922.75" font-family="Helvetica,sans-Serif" font-size="10.00">size()</text>
<text text-anchor="start" x="238.5" y="-907.75" font-family="Helvetica,sans-Serif" font-size="10.00">+</text>
<text text-anchor="start" x="248.5" y="-907.75" font-family="Helvetica,sans-Serif" font-size="10.00">set()</text>
<text text-anchor="start" x="238.5" y="-892.75" font-family="Helvetica,sans-Serif" font-size="10.00">+</text>
<text text-anchor="start" x="248.5" y="-892.75" font-family="Helvetica,sans-Serif" font-size="10.00">set()</text>
<text text-anchor="start" x="238.5" y="-877.75" font-family="Helvetica,sans-Serif" font-size="10.00">+</text>
<text text-anchor="start" x="248.5" y="-877.75" font-family="Helvetica,sans-Serif" font-size="10.00">reset()</text>
<text text-anchor="start" x="238.5" y="-862.75" font-family="Helvetica,sans-Serif" font-size="10.00">+</text>
<text text-anchor="start" x="248.5" y="-862.75" font-family="Helvetica,sans-Serif" font-size="10.00">reset()</text>
<text text-anchor="start" x="238.5" y="-847.75" font-family="Helvetica,sans-Serif" font-size="10.00">+</text>
<text text-anchor="start" x="248.5" y="-847.75" font-family="Helvetica,sans-Serif" font-size="10.00">flip()</text>
<text text-anchor="start" x="238.5" y="-832.75" font-family="Helvetica,sans-Serif" font-size="10.00">+</text>
<text text-anchor="start" x="248.5" y="-832.75" font-family="Helvetica,sans-Serif" font-size="10.00">operator=()</text>
<text text-anchor="start" x="238.5" y="-817.75" font-family="Helvetica,sans-Serif" font-size="10.00">+</text>
<text text-anchor="start" x="248.5" y="-817.75" font-family="Helvetica,sans-Serif" font-size="10.00">operator~()</text>
<text text-anchor="start" x="238.5" y="-802.75" font-family="Helvetica,sans-Serif" font-size="10.00">+</text>
<text text-anchor="start" x="248.5" y="-802.75" font-family="Helvetica,sans-Serif" font-size="10.00">operator[]()</text>
<polygon fill="#666666" stroke="#666666" points="234.5,-1369.25 234.5,-1369.25 312.5,-1369.25 312.5,-1369.25 234.5,-1369.25"/>
<polygon fill="#666666" stroke="#666666" points="234.5,-1249.25 234.5,-1249.25 246.5,-1249.25 246.5,-1249.25 234.5,-1249.25"/>
<polygon fill="#666666" stroke="#666666" points="246.5,-1249.25 246.5,-1249.25 312.5,-1249.25 312.5,-1249.25 246.5,-1249.25"/>
<polygon fill="none" stroke="#666666" points="234.5,-797.25 234.5,-1386.25 312.5,-1386.25 312.5,-797.25 234.5,-797.25"/>
</a>
</g>
</g>
<!-- Node8&#45;&gt;Node1 -->
<g id="edge8_Node000001_Node000008" class="edge">
<title>Node8&#45;&gt;Node1</title>
<g id="a_edge8_Node000001_Node000008"><a xlink:title=" ">
<path fill="none" stroke="#63b8ff" d="M248.88,-797.46C247.91,-785.93 246.94,-774.3 245.96,-762.64"/>
<polygon fill="none" stroke="#63b8ff" points="245.97,-762.83 241.48,-757.18 244.97,-750.87 249.46,-756.51 245.97,-762.83"/>
</a>
</g>
<text text-anchor="middle" x="277.47" y="-769.75" font-family="Helvetica,sans-Serif" font-size="10.00" fill="grey"> #myBitVector</text>
</g>
</g>
</svg>
