<?xml version="1.0" encoding="UTF-8" standalone="no"?>
<!DOCTYPE svg PUBLIC "-//W3C//DTD SVG 1.1//EN"
 "http://www.w3.org/Graphics/SVG/1.1/DTD/svg11.dtd">
<!-- Generated by graphviz version 12.1.2 (20240928.0832)
 -->
<!-- Title: AllGatherSharing Pages: 1 -->
<svg width="161pt" height="1143pt"
 viewBox="0.00 0.00 161.00 1143.00" xmlns="http://www.w3.org/2000/svg" xmlns:xlink="http://www.w3.org/1999/xlink">
<g id="graph0" class="graph" transform="scale(1 1) rotate(0) translate(4 1139)">
<title>AllGatherSharing</title>
<!-- Node1 -->
<g id="Node000001" class="node">
<title>Node1</title>
<g id="a_Node000001"><a xlink:title="Implements a global sharing strategy using MPI_Allgather for clause exchange.">
<polygon fill="#999999" stroke="none" points="140,-199 13,-199 13,0 140,0 140,-199"/>
<text text-anchor="start" x="39.75" y="-185.5" font-family="Helvetica,sans-Serif" font-size="10.00">AllGatherSharing</text>
<text text-anchor="start" x="17.38" y="-170.5" font-family="Helvetica,sans-Serif" font-size="10.00">#</text>
<text text-anchor="start" x="27" y="-170.5" font-family="Helvetica,sans-Serif" font-size="10.00">totalSize</text>
<text text-anchor="start" x="17.38" y="-155.5" font-family="Helvetica,sans-Serif" font-size="10.00">#</text>
<text text-anchor="start" x="27" y="-155.5" font-family="Helvetica,sans-Serif" font-size="10.00">color</text>
<text text-anchor="start" x="17.38" y="-140.5" font-family="Helvetica,sans-Serif" font-size="10.00">#</text>
<text text-anchor="start" x="27" y="-140.5" font-family="Helvetica,sans-Serif" font-size="10.00">clausesToSendSerialized</text>
<text text-anchor="start" x="17.38" y="-125.5" font-family="Helvetica,sans-Serif" font-size="10.00">#</text>
<text text-anchor="start" x="27" y="-125.5" font-family="Helvetica,sans-Serif" font-size="10.00">receivedClauses</text>
<text text-anchor="start" x="17.38" y="-110.5" font-family="Helvetica,sans-Serif" font-size="10.00">#</text>
<text text-anchor="start" x="27" y="-110.5" font-family="Helvetica,sans-Serif" font-size="10.00">b_filter</text>
<text text-anchor="start" x="17" y="-95.5" font-family="Helvetica,sans-Serif" font-size="10.00">+</text>
<text text-anchor="start" x="27" y="-95.5" font-family="Helvetica,sans-Serif" font-size="10.00">AllGatherSharing()</text>
<text text-anchor="start" x="17" y="-80.5" font-family="Helvetica,sans-Serif" font-size="10.00">+</text>
<text text-anchor="start" x="27" y="-80.5" font-family="Helvetica,sans-Serif" font-size="10.00">~AllGatherSharing()</text>
<text text-anchor="start" x="17" y="-65.5" font-family="Helvetica,sans-Serif" font-size="10.00">+</text>
<text text-anchor="start" x="27" y="-65.5" font-family="Helvetica,sans-Serif" font-size="10.00">doSharing()</text>
<text text-anchor="start" x="17" y="-50.5" font-family="Helvetica,sans-Serif" font-size="10.00">+</text>
<text text-anchor="start" x="27" y="-50.5" font-family="Helvetica,sans-Serif" font-size="10.00">initMpiVariables()</text>
<text text-anchor="start" x="17" y="-35.5" font-family="Helvetica,sans-Serif" font-size="10.00">+</text>
<text text-anchor="start" x="27" y="-35.5" font-family="Helvetica,sans-Serif" font-size="10.00">joinProcess()</text>
<text text-anchor="start" x="17.38" y="-20.5" font-family="Helvetica,sans-Serif" font-size="10.00">#</text>
<text text-anchor="start" x="27" y="-20.5" font-family="Helvetica,sans-Serif" font-size="10.00">serializeClauses()</text>
<text text-anchor="start" x="17.38" y="-5.5" font-family="Helvetica,sans-Serif" font-size="10.00">#</text>
<text text-anchor="start" x="27" y="-5.5" font-family="Helvetica,sans-Serif" font-size="10.00">deserializeClauses()</text>
<polygon fill="#666666" stroke="#666666" points="13,-182 13,-182 140,-182 140,-182 13,-182"/>
<polygon fill="#666666" stroke="#666666" points="13,-107 13,-107 25,-107 25,-107 13,-107"/>
<polygon fill="#666666" stroke="#666666" points="25,-107 25,-107 140,-107 140,-107 25,-107"/>
<polygon fill="none" stroke="#666666" points="13,0 13,-199 140,-199 140,0 13,0"/>
</a>
</g>
</g>
<!-- Node2 -->
<g id="Node000002" class="node">
<title>Node2</title>
<g id="a_Node000002"><a xlink:href="classGlobalSharingStrategy.html" target="_top" xlink:title="Base class for global clause sharing strategies across MPI processes.">
<polygon fill="white" stroke="none" points="139.5,-479 13.5,-479 13.5,-235 139.5,-235 139.5,-479"/>
<text text-anchor="start" x="28.12" y="-465.5" font-family="Helvetica,sans-Serif" font-size="10.00">GlobalSharingStrategy</text>
<text text-anchor="start" x="17.88" y="-450.5" font-family="Helvetica,sans-Serif" font-size="10.00">#</text>
<text text-anchor="start" x="27.5" y="-450.5" font-family="Helvetica,sans-Serif" font-size="10.00">gstats</text>
<text text-anchor="start" x="17.88" y="-435.5" font-family="Helvetica,sans-Serif" font-size="10.00">#</text>
<text text-anchor="start" x="27.5" y="-435.5" font-family="Helvetica,sans-Serif" font-size="10.00">requests_sent</text>
<text text-anchor="start" x="17.88" y="-420.5" font-family="Helvetica,sans-Serif" font-size="10.00">#</text>
<text text-anchor="start" x="27.5" y="-420.5" font-family="Helvetica,sans-Serif" font-size="10.00">recv_end_requests</text>
<text text-anchor="start" x="17.88" y="-405.5" font-family="Helvetica,sans-Serif" font-size="10.00">#</text>
<text text-anchor="start" x="27.5" y="-405.5" font-family="Helvetica,sans-Serif" font-size="10.00">send_end_request</text>
<text text-anchor="start" x="17.88" y="-390.5" font-family="Helvetica,sans-Serif" font-size="10.00">#</text>
<text text-anchor="start" x="27.5" y="-390.5" font-family="Helvetica,sans-Serif" font-size="10.00">receivedFinalResultRoot</text>
<text text-anchor="start" x="17.5" y="-375.5" font-family="Helvetica,sans-Serif" font-size="10.00">+</text>
<text text-anchor="start" x="27.5" y="-375.5" font-family="Helvetica,sans-Serif" font-size="10.00">GlobalSharingStrategy()</text>
<text text-anchor="start" x="17.5" y="-360.5" font-family="Helvetica,sans-Serif" font-size="10.00">+</text>
<text text-anchor="start" x="27.5" y="-360.5" font-family="Helvetica,sans-Serif" font-size="10.00">~GlobalSharingStrategy()</text>
<text text-anchor="start" x="17.5" y="-345.5" font-family="Helvetica,sans-Serif" font-size="10.00">+</text>
<text text-anchor="start" x="27.5" y="-345.5" font-family="Helvetica,sans-Serif" font-size="10.00">importClause()</text>
<text text-anchor="start" x="17.5" y="-330.5" font-family="Helvetica,sans-Serif" font-size="10.00">+</text>
<text text-anchor="start" x="27.5" y="-330.5" font-family="Helvetica,sans-Serif" font-size="10.00">importClauses()</text>
<text text-anchor="start" x="17.5" y="-315.5" font-family="Helvetica,sans-Serif" font-size="10.00">+</text>
<text text-anchor="start" x="27.5" y="-315.5" font-family="Helvetica,sans-Serif" font-size="10.00">exportClauseToClient()</text>
<text text-anchor="start" x="17.5" y="-300.5" font-family="Helvetica,sans-Serif" font-size="10.00">+</text>
<text text-anchor="start" x="27.5" y="-300.5" font-family="Helvetica,sans-Serif" font-size="10.00">getSleepingTime()</text>
<text text-anchor="start" x="17.5" y="-285.5" font-family="Helvetica,sans-Serif" font-size="10.00">+</text>
<text text-anchor="start" x="27.5" y="-285.5" font-family="Helvetica,sans-Serif" font-size="10.00">joinProcess()</text>
<text text-anchor="start" x="17.5" y="-270.5" font-family="Helvetica,sans-Serif" font-size="10.00">+</text>
<text text-anchor="start" x="27.5" y="-270.5" font-family="Helvetica,sans-Serif" font-size="10.00">printStats()</text>
<text text-anchor="start" x="17.5" y="-255.5" font-family="Helvetica,sans-Serif" font-size="10.00">+</text>
<text text-anchor="start" x="27.5" y="-255.5" font-family="Helvetica,sans-Serif" font-size="10.00">initMpiVariables()</text>
<text text-anchor="start" x="17.5" y="-240.5" font-family="Helvetica,sans-Serif" font-size="10.00">+</text>
<text text-anchor="start" x="27.5" y="-240.5" font-family="Helvetica,sans-Serif" font-size="10.00">doSharing()</text>
<polygon fill="#666666" stroke="#666666" points="13.5,-462 13.5,-462 139.5,-462 139.5,-462 13.5,-462"/>
<polygon fill="#666666" stroke="#666666" points="13.5,-387 13.5,-387 25.5,-387 25.5,-387 13.5,-387"/>
<polygon fill="#666666" stroke="#666666" points="25.5,-387 25.5,-387 139.5,-387 139.5,-387 25.5,-387"/>
<polygon fill="none" stroke="#666666" points="13.5,-235 13.5,-479 139.5,-479 139.5,-235 13.5,-235"/>
</a>
</g>
</g>
<!-- Node2&#45;&gt;Node1 -->
<g id="edge1_Node000001_Node000002" class="edge">
<title>Node2&#45;&gt;Node1</title>
<g id="a_edge1_Node000001_Node000002"><a xlink:title=" ">
<path fill="none" stroke="#63b8ff" d="M76.5,-224.13C76.5,-215.58 76.5,-207.07 76.5,-198.73"/>
<polygon fill="none" stroke="#63b8ff" points="73,-223.84 76.5,-233.84 80,-223.84 73,-223.84"/>
</a>
</g>
</g>
<!-- Node3 -->
<g id="Node000003" class="node">
<title>Node3</title>
<g id="a_Node000003"><a xlink:href="classSharingStrategy.html" target="_top" xlink:title="SharingStrategy class, inheriting from SharingEntity.">
<polygon fill="white" stroke="none" points="153,-744 0,-744 0,-515 153,-515 153,-744"/>
<text text-anchor="start" x="42" y="-730.5" font-family="Helvetica,sans-Serif" font-size="10.00">SharingStrategy</text>
<text text-anchor="start" x="4.38" y="-715.5" font-family="Helvetica,sans-Serif" font-size="10.00">#</text>
<text text-anchor="start" x="14" y="-715.5" font-family="Helvetica,sans-Serif" font-size="10.00">m_clauseDB</text>
<text text-anchor="start" x="4.38" y="-700.5" font-family="Helvetica,sans-Serif" font-size="10.00">#</text>
<text text-anchor="start" x="14" y="-700.5" font-family="Helvetica,sans-Serif" font-size="10.00">stats</text>
<text text-anchor="start" x="4.38" y="-685.5" font-family="Helvetica,sans-Serif" font-size="10.00">#</text>
<text text-anchor="start" x="14" y="-685.5" font-family="Helvetica,sans-Serif" font-size="10.00">m_producers</text>
<text text-anchor="start" x="4.38" y="-670.5" font-family="Helvetica,sans-Serif" font-size="10.00">#</text>
<text text-anchor="start" x="14" y="-670.5" font-family="Helvetica,sans-Serif" font-size="10.00">m_producersMutex</text>
<text text-anchor="start" x="4" y="-655.5" font-family="Helvetica,sans-Serif" font-size="10.00">+</text>
<text text-anchor="start" x="14" y="-655.5" font-family="Helvetica,sans-Serif" font-size="10.00">SharingStrategy()</text>
<text text-anchor="start" x="4" y="-640.5" font-family="Helvetica,sans-Serif" font-size="10.00">+</text>
<text text-anchor="start" x="14" y="-640.5" font-family="Helvetica,sans-Serif" font-size="10.00">~SharingStrategy()</text>
<text text-anchor="start" x="4" y="-625.5" font-family="Helvetica,sans-Serif" font-size="10.00">+</text>
<text text-anchor="start" x="14" y="-625.5" font-family="Helvetica,sans-Serif" font-size="10.00">doSharing()</text>
<text text-anchor="start" x="4" y="-610.5" font-family="Helvetica,sans-Serif" font-size="10.00">+</text>
<text text-anchor="start" x="14" y="-610.5" font-family="Helvetica,sans-Serif" font-size="10.00">getSleepingTime()</text>
<text text-anchor="start" x="4" y="-595.5" font-family="Helvetica,sans-Serif" font-size="10.00">+</text>
<text text-anchor="start" x="14" y="-595.5" font-family="Helvetica,sans-Serif" font-size="10.00">printStats()</text>
<text text-anchor="start" x="4" y="-580.5" font-family="Helvetica,sans-Serif" font-size="10.00">+</text>
<text text-anchor="start" x="14" y="-580.5" font-family="Helvetica,sans-Serif" font-size="10.00">connectConstructorProducers()</text>
<text text-anchor="start" x="4" y="-565.5" font-family="Helvetica,sans-Serif" font-size="10.00">+</text>
<text text-anchor="start" x="14" y="-565.5" font-family="Helvetica,sans-Serif" font-size="10.00">addProducer()</text>
<text text-anchor="start" x="4" y="-550.5" font-family="Helvetica,sans-Serif" font-size="10.00">+</text>
<text text-anchor="start" x="14" y="-550.5" font-family="Helvetica,sans-Serif" font-size="10.00">connectProducer()</text>
<text text-anchor="start" x="4" y="-535.5" font-family="Helvetica,sans-Serif" font-size="10.00">+</text>
<text text-anchor="start" x="14" y="-535.5" font-family="Helvetica,sans-Serif" font-size="10.00">removeProducer()</text>
<text text-anchor="start" x="4.38" y="-520.5" font-family="Helvetica,sans-Serif" font-size="10.00">#</text>
<text text-anchor="start" x="14" y="-520.5" font-family="Helvetica,sans-Serif" font-size="10.00">exportClauseToClient()</text>
<polygon fill="#666666" stroke="#666666" points="0,-727 0,-727 153,-727 153,-727 0,-727"/>
<polygon fill="#666666" stroke="#666666" points="0,-667 0,-667 12,-667 12,-667 0,-667"/>
<polygon fill="#666666" stroke="#666666" points="12,-667 12,-667 153,-667 153,-667 12,-667"/>
<polygon fill="none" stroke="#666666" points="0,-515 0,-744 153,-744 153,-515 0,-515"/>
</a>
</g>
</g>
<!-- Node3&#45;&gt;Node2 -->
<g id="edge2_Node000002_Node000003" class="edge">
<title>Node3&#45;&gt;Node2</title>
<g id="a_edge2_Node000002_Node000003"><a xlink:title=" ">
<path fill="none" stroke="#63b8ff" d="M76.5,-504.03C76.5,-495.69 76.5,-487.3 76.5,-478.98"/>
<polygon fill="none" stroke="#63b8ff" points="73,-503.84 76.5,-513.84 80,-503.84 73,-503.84"/>
</a>
</g>
</g>
<!-- Node4 -->
<g id="Node000004" class="node">
<title>Node4</title>
<g id="a_Node000004"><a xlink:href="classSharingEntity.html" target="_top" xlink:title="A base class representing entities that can exchange clauses between themselves.">
<polygon fill="white" stroke="none" points="134.5,-1039 18.5,-1039 18.5,-780 134.5,-780 134.5,-1039"/>
<text text-anchor="start" x="48" y="-1025.5" font-family="Helvetica,sans-Serif" font-size="10.00">SharingEntity</text>
<text text-anchor="start" x="22.88" y="-1010.5" font-family="Helvetica,sans-Serif" font-size="10.00">#</text>
<text text-anchor="start" x="32.5" y="-1010.5" font-family="Helvetica,sans-Serif" font-size="10.00">m_clients</text>
<text text-anchor="start" x="22.88" y="-995.5" font-family="Helvetica,sans-Serif" font-size="10.00">#</text>
<text text-anchor="start" x="32.5" y="-995.5" font-family="Helvetica,sans-Serif" font-size="10.00">m_clientsMutex</text>
<text text-anchor="start" x="22.5" y="-980.5" font-family="Helvetica,sans-Serif" font-size="10.00">+</text>
<text text-anchor="start" x="32.5" y="-980.5" font-family="Helvetica,sans-Serif" font-size="10.00">SharingEntity()</text>
<text text-anchor="start" x="22.5" y="-965.5" font-family="Helvetica,sans-Serif" font-size="10.00">+</text>
<text text-anchor="start" x="32.5" y="-965.5" font-family="Helvetica,sans-Serif" font-size="10.00">SharingEntity()</text>
<text text-anchor="start" x="22.5" y="-950.5" font-family="Helvetica,sans-Serif" font-size="10.00">+</text>
<text text-anchor="start" x="32.5" y="-950.5" font-family="Helvetica,sans-Serif" font-size="10.00">~SharingEntity()</text>
<text text-anchor="start" x="22.5" y="-935.5" font-family="Helvetica,sans-Serif" font-size="10.00">+</text>
<text text-anchor="start" x="32.5" y="-935.5" font-family="Helvetica,sans-Serif" font-size="10.00">importClause()</text>
<text text-anchor="start" x="22.5" y="-920.5" font-family="Helvetica,sans-Serif" font-size="10.00">+</text>
<text text-anchor="start" x="32.5" y="-920.5" font-family="Helvetica,sans-Serif" font-size="10.00">importClauses()</text>
<text text-anchor="start" x="22.5" y="-905.5" font-family="Helvetica,sans-Serif" font-size="10.00">+</text>
<text text-anchor="start" x="32.5" y="-905.5" font-family="Helvetica,sans-Serif" font-size="10.00">getSharingId()</text>
<text text-anchor="start" x="22.5" y="-890.5" font-family="Helvetica,sans-Serif" font-size="10.00">+</text>
<text text-anchor="start" x="32.5" y="-890.5" font-family="Helvetica,sans-Serif" font-size="10.00">setSharingId()</text>
<text text-anchor="start" x="22.5" y="-875.5" font-family="Helvetica,sans-Serif" font-size="10.00">+</text>
<text text-anchor="start" x="32.5" y="-875.5" font-family="Helvetica,sans-Serif" font-size="10.00">addClient()</text>
<text text-anchor="start" x="22.5" y="-860.5" font-family="Helvetica,sans-Serif" font-size="10.00">+</text>
<text text-anchor="start" x="32.5" y="-860.5" font-family="Helvetica,sans-Serif" font-size="10.00">removeClient()</text>
<text text-anchor="start" x="22.5" y="-845.5" font-family="Helvetica,sans-Serif" font-size="10.00">+</text>
<text text-anchor="start" x="32.5" y="-845.5" font-family="Helvetica,sans-Serif" font-size="10.00">getClientCount()</text>
<text text-anchor="start" x="22.5" y="-830.5" font-family="Helvetica,sans-Serif" font-size="10.00">+</text>
<text text-anchor="start" x="32.5" y="-830.5" font-family="Helvetica,sans-Serif" font-size="10.00">clearClients()</text>
<text text-anchor="start" x="22.88" y="-815.5" font-family="Helvetica,sans-Serif" font-size="10.00">#</text>
<text text-anchor="start" x="32.5" y="-815.5" font-family="Helvetica,sans-Serif" font-size="10.00">exportClauseToClient()</text>
<text text-anchor="start" x="22.88" y="-800.5" font-family="Helvetica,sans-Serif" font-size="10.00">#</text>
<text text-anchor="start" x="32.5" y="-800.5" font-family="Helvetica,sans-Serif" font-size="10.00">exportClause()</text>
<text text-anchor="start" x="22.88" y="-785.5" font-family="Helvetica,sans-Serif" font-size="10.00">#</text>
<text text-anchor="start" x="32.5" y="-785.5" font-family="Helvetica,sans-Serif" font-size="10.00">exportClauses()</text>
<polygon fill="#666666" stroke="#666666" points="18.5,-1022 18.5,-1022 134.5,-1022 134.5,-1022 18.5,-1022"/>
<polygon fill="#666666" stroke="#666666" points="18.5,-992 18.5,-992 30.5,-992 30.5,-992 18.5,-992"/>
<polygon fill="#666666" stroke="#666666" points="30.5,-992 30.5,-992 134.5,-992 134.5,-992 30.5,-992"/>
<polygon fill="none" stroke="#666666" points="18.5,-780 18.5,-1039 134.5,-1039 134.5,-780 18.5,-780"/>
</a>
</g>
</g>
<!-- Node4&#45;&gt;Node3 -->
<g id="edge3_Node000003_Node000004" class="edge">
<title>Node4&#45;&gt;Node3</title>
<g id="a_edge3_Node000003_Node000004"><a xlink:title=" ">
<path fill="none" stroke="#63b8ff" d="M76.5,-768.72C76.5,-760.39 76.5,-752.06 76.5,-743.85"/>
<polygon fill="none" stroke="#63b8ff" points="73,-768.57 76.5,-778.57 80,-768.57 73,-768.57"/>
</a>
</g>
</g>
<!-- Node5 -->
<g id="Node000005" class="node">
<title>Node5</title>
<g id="a_Node000005"><a xlink:title=" ">
<polygon fill="white" stroke="none" points="141,-1135 12,-1135 12,-1075 141,-1075 141,-1135"/>
<text text-anchor="start" x="16.88" y="-1121.5" font-family="Helvetica,sans-Serif" font-size="10.00">std::enable_shared</text>
<text text-anchor="start" x="16.88" y="-1110.25" font-family="Helvetica,sans-Serif" font-size="10.00">_from_this&lt; SharingEntity &gt;</text>
<text text-anchor="start" x="75" y="-1095.5" font-family="Helvetica,sans-Serif" font-size="10.00"> </text>
<text text-anchor="start" x="75" y="-1080.5" font-family="Helvetica,sans-Serif" font-size="10.00"> </text>
<polygon fill="#bfbfbf" stroke="#bfbfbf" points="12,-1107 12,-1107 141,-1107 141,-1107 12,-1107"/>
<polygon fill="#bfbfbf" stroke="#bfbfbf" points="12,-1092 12,-1092 141,-1092 141,-1092 12,-1092"/>
<polygon fill="none" stroke="#bfbfbf" points="12,-1075 12,-1135 141,-1135 141,-1075 12,-1075"/>
</a>
</g>
</g>
<!-- Node5&#45;&gt;Node4 -->
<g id="edge4_Node000004_Node000005" class="edge">
<title>Node5&#45;&gt;Node4</title>
<g id="a_edge4_Node000004_Node000005"><a xlink:title=" ">
<path fill="none" stroke="#63b8ff" d="M76.5,-1063.69C76.5,-1056.06 76.5,-1047.72 76.5,-1038.99"/>
<polygon fill="none" stroke="#63b8ff" points="73,-1063.52 76.5,-1073.52 80,-1063.52 73,-1063.52"/>
</a>
</g>
</g>
</g>
</svg>
