<?xml version="1.0" encoding="UTF-8" standalone="no"?>
<!DOCTYPE svg PUBLIC "-//W3C//DTD SVG 1.1//EN"
 "http://www.w3.org/Graphics/SVG/1.1/DTD/svg11.dtd">
<!-- Generated by graphviz version 12.1.2 (20240928.0832)
 -->
<!-- Title: ClauseDatabaseBufferPerEntity Pages: 1 -->
<svg width="167pt" height="408pt"
 viewBox="0.00 0.00 167.00 408.00" xmlns="http://www.w3.org/2000/svg" xmlns:xlink="http://www.w3.org/1999/xlink">
<g id="graph0" class="graph" transform="scale(1 1) rotate(0) translate(4 404)">
<title>ClauseDatabaseBufferPerEntity</title>
<!-- Node1 -->
<g id="Node000001" class="node">
<title>Node1</title>
<g id="a_Node000001"><a xlink:title="A clause database that maintain separate buffers for each entity, mimicing old painless default behav...">
<polygon fill="#999999" stroke="none" points="159,-195 0,-195 0,0 159,0 159,-195"/>
<text text-anchor="start" x="11.62" y="-181.5" font-family="Helvetica,sans-Serif" font-size="10.00">ClauseDatabaseBufferPerEntity</text>
<text text-anchor="start" x="78" y="-166.5" font-family="Helvetica,sans-Serif" font-size="10.00"> </text>
<text text-anchor="start" x="4" y="-151.5" font-family="Helvetica,sans-Serif" font-size="10.00">+</text>
<text text-anchor="start" x="14" y="-151.5" font-family="Helvetica,sans-Serif" font-size="10.00">ClauseDatabaseBufferPerEntity()</text>
<text text-anchor="start" x="4" y="-136.5" font-family="Helvetica,sans-Serif" font-size="10.00">+</text>
<text text-anchor="start" x="14" y="-136.5" font-family="Helvetica,sans-Serif" font-size="10.00">ClauseDatabaseBufferPerEntity()</text>
<text text-anchor="start" x="4" y="-121.5" font-family="Helvetica,sans-Serif" font-size="10.00">+</text>
<text text-anchor="start" x="14" y="-121.5" font-family="Helvetica,sans-Serif" font-size="10.00">~ClauseDatabaseBufferPer</text>
<text text-anchor="start" x="14" y="-110.25" font-family="Helvetica,sans-Serif" font-size="10.00">Entity()</text>
<text text-anchor="start" x="4" y="-95.5" font-family="Helvetica,sans-Serif" font-size="10.00">+</text>
<text text-anchor="start" x="14" y="-95.5" font-family="Helvetica,sans-Serif" font-size="10.00">addClause()</text>
<text text-anchor="start" x="4" y="-80.5" font-family="Helvetica,sans-Serif" font-size="10.00">+</text>
<text text-anchor="start" x="14" y="-80.5" font-family="Helvetica,sans-Serif" font-size="10.00">giveSelection()</text>
<text text-anchor="start" x="4" y="-65.5" font-family="Helvetica,sans-Serif" font-size="10.00">+</text>
<text text-anchor="start" x="14" y="-65.5" font-family="Helvetica,sans-Serif" font-size="10.00">getClauses()</text>
<text text-anchor="start" x="4" y="-50.5" font-family="Helvetica,sans-Serif" font-size="10.00">+</text>
<text text-anchor="start" x="14" y="-50.5" font-family="Helvetica,sans-Serif" font-size="10.00">getOneClause()</text>
<text text-anchor="start" x="4" y="-35.5" font-family="Helvetica,sans-Serif" font-size="10.00">+</text>
<text text-anchor="start" x="14" y="-35.5" font-family="Helvetica,sans-Serif" font-size="10.00">getSize()</text>
<text text-anchor="start" x="4" y="-20.5" font-family="Helvetica,sans-Serif" font-size="10.00">+</text>
<text text-anchor="start" x="14" y="-20.5" font-family="Helvetica,sans-Serif" font-size="10.00">clearDatabase()</text>
<text text-anchor="start" x="4" y="-5.5" font-family="Helvetica,sans-Serif" font-size="10.00">+</text>
<text text-anchor="start" x="14" y="-5.5" font-family="Helvetica,sans-Serif" font-size="10.00">shrinkDatabase()</text>
<polygon fill="#666666" stroke="#666666" points="0,-178 0,-178 159,-178 159,-178 0,-178"/>
<polygon fill="#666666" stroke="#666666" points="0,-163 0,-163 159,-163 159,-163 0,-163"/>
<polygon fill="none" stroke="#666666" points="0,0 0,-195 159,-195 159,0 0,0"/>
</a>
</g>
</g>
<!-- Node2 -->
<g id="Node000002" class="node">
<title>Node2</title>
<g id="a_Node000002"><a xlink:href="classClauseDatabase.html" target="_top" xlink:title="Abstract base class defining the interface for clause storage and management.">
<polygon fill="white" stroke="none" points="129.5,-400 29.5,-400 29.5,-231 129.5,-231 129.5,-400"/>
<text text-anchor="start" x="43.88" y="-386.5" font-family="Helvetica,sans-Serif" font-size="10.00">ClauseDatabase</text>
<text text-anchor="start" x="78" y="-371.5" font-family="Helvetica,sans-Serif" font-size="10.00"> </text>
<text text-anchor="start" x="33.5" y="-356.5" font-family="Helvetica,sans-Serif" font-size="10.00">+</text>
<text text-anchor="start" x="43.5" y="-356.5" font-family="Helvetica,sans-Serif" font-size="10.00">ClauseDatabase()</text>
<text text-anchor="start" x="33.5" y="-341.5" font-family="Helvetica,sans-Serif" font-size="10.00">+</text>
<text text-anchor="start" x="43.5" y="-341.5" font-family="Helvetica,sans-Serif" font-size="10.00">~ClauseDatabase()</text>
<text text-anchor="start" x="33.5" y="-326.5" font-family="Helvetica,sans-Serif" font-size="10.00">+</text>
<text text-anchor="start" x="43.5" y="-326.5" font-family="Helvetica,sans-Serif" font-size="10.00">addClause()</text>
<text text-anchor="start" x="33.5" y="-311.5" font-family="Helvetica,sans-Serif" font-size="10.00">+</text>
<text text-anchor="start" x="43.5" y="-311.5" font-family="Helvetica,sans-Serif" font-size="10.00">giveSelection()</text>
<text text-anchor="start" x="33.5" y="-296.5" font-family="Helvetica,sans-Serif" font-size="10.00">+</text>
<text text-anchor="start" x="43.5" y="-296.5" font-family="Helvetica,sans-Serif" font-size="10.00">getClauses()</text>
<text text-anchor="start" x="33.5" y="-281.5" font-family="Helvetica,sans-Serif" font-size="10.00">+</text>
<text text-anchor="start" x="43.5" y="-281.5" font-family="Helvetica,sans-Serif" font-size="10.00">getOneClause()</text>
<text text-anchor="start" x="33.5" y="-266.5" font-family="Helvetica,sans-Serif" font-size="10.00">+</text>
<text text-anchor="start" x="43.5" y="-266.5" font-family="Helvetica,sans-Serif" font-size="10.00">getSize()</text>
<text text-anchor="start" x="33.5" y="-251.5" font-family="Helvetica,sans-Serif" font-size="10.00">+</text>
<text text-anchor="start" x="43.5" y="-251.5" font-family="Helvetica,sans-Serif" font-size="10.00">shrinkDatabase()</text>
<text text-anchor="start" x="33.5" y="-236.5" font-family="Helvetica,sans-Serif" font-size="10.00">+</text>
<text text-anchor="start" x="43.5" y="-236.5" font-family="Helvetica,sans-Serif" font-size="10.00">clearDatabase()</text>
<polygon fill="#666666" stroke="#666666" points="29.5,-383 29.5,-383 129.5,-383 129.5,-383 29.5,-383"/>
<polygon fill="#666666" stroke="#666666" points="29.5,-368 29.5,-368 129.5,-368 129.5,-368 29.5,-368"/>
<polygon fill="none" stroke="#666666" points="29.5,-231 29.5,-400 129.5,-400 129.5,-231 29.5,-231"/>
</a>
</g>
</g>
<!-- Node2&#45;&gt;Node1 -->
<g id="edge1_Node000001_Node000002" class="edge">
<title>Node2&#45;&gt;Node1</title>
<g id="a_edge1_Node000001_Node000002"><a xlink:title=" ">
<path fill="none" stroke="#63b8ff" d="M79.5,-220.05C79.5,-211.74 79.5,-203.32 79.5,-194.99"/>
<polygon fill="none" stroke="#63b8ff" points="76,-219.78 79.5,-229.78 83,-219.78 76,-219.78"/>
</a>
</g>
</g>
</g>
</svg>
