<?xml version="1.0" encoding="UTF-8" standalone="no"?>
<!DOCTYPE svg PUBLIC "-//W3C//DTD SVG 1.1//EN"
 "http://www.w3.org/Graphics/SVG/1.1/DTD/svg11.dtd">
<!-- Generated by graphviz version 12.1.2 (20240928.0832)
 -->
<!-- Title: Parsers::TautologyFilter Pages: 1 -->
<svg width="130pt" height="202pt"
 viewBox="0.00 0.00 130.00 202.00" xmlns="http://www.w3.org/2000/svg" xmlns:xlink="http://www.w3.org/1999/xlink">
<g id="graph0" class="graph" transform="scale(1 1) rotate(0) translate(4 198)">
<title>Parsers::TautologyFilter</title>
<!-- Node1 -->
<g id="Node000001" class="node">
<title>Node1</title>
<g id="a_Node000001"><a xlink:title="Filter for removing tautological clauses. A tautological clause or simple a tautology is a clause tha...">
<polygon fill="#999999" stroke="none" points="117,-64 5,-64 5,0 117,0 117,-64"/>
<text text-anchor="start" x="10" y="-50.5" font-family="Helvetica,sans-Serif" font-size="10.00">Parsers::TautologyFilter</text>
<text text-anchor="start" x="59.5" y="-35.5" font-family="Helvetica,sans-Serif" font-size="10.00"> </text>
<text text-anchor="start" x="17.5" y="-20.5" font-family="Helvetica,sans-Serif" font-size="10.00">+</text>
<text text-anchor="start" x="36" y="-20.5" font-family="Helvetica,sans-Serif" font-size="10.00">initMembers()</text>
<text text-anchor="start" x="17.5" y="-5.5" font-family="Helvetica,sans-Serif" font-size="10.00">+</text>
<text text-anchor="start" x="36" y="-5.5" font-family="Helvetica,sans-Serif" font-size="10.00">operator()()</text>
<polygon fill="#666666" stroke="#666666" points="5,-47 5,-47 117,-47 117,-47 5,-47"/>
<polygon fill="#666666" stroke="#666666" points="5,-32 5,-32 117,-32 117,-32 5,-32"/>
<polygon fill="none" stroke="#666666" points="5,0 5,-64 117,-64 117,0 5,0"/>
</a>
</g>
</g>
<!-- Node2 -->
<g id="Node000002" class="node">
<title>Node2</title>
<g id="a_Node000002"><a xlink:href="classParsers_1_1ClauseProcessor.html" target="_top" xlink:title="Abstract base class for clause processors.">
<polygon fill="white" stroke="none" points="122,-194 0,-194 0,-100 122,-100 122,-194"/>
<text text-anchor="start" x="4.75" y="-180.5" font-family="Helvetica,sans-Serif" font-size="10.00">Parsers::ClauseProcessor</text>
<text text-anchor="start" x="59.5" y="-165.5" font-family="Helvetica,sans-Serif" font-size="10.00"> </text>
<text text-anchor="start" x="8.5" y="-150.5" font-family="Helvetica,sans-Serif" font-size="10.00">+</text>
<text text-anchor="start" x="23" y="-150.5" font-family="Helvetica,sans-Serif" font-size="10.00">ClauseProcessor()</text>
<text text-anchor="start" x="8.5" y="-135.5" font-family="Helvetica,sans-Serif" font-size="10.00">+</text>
<text text-anchor="start" x="23" y="-135.5" font-family="Helvetica,sans-Serif" font-size="10.00">initMembers()</text>
<text text-anchor="start" x="8.5" y="-120.5" font-family="Helvetica,sans-Serif" font-size="10.00">+</text>
<text text-anchor="start" x="23" y="-120.5" font-family="Helvetica,sans-Serif" font-size="10.00">operator()()</text>
<text text-anchor="start" x="8.5" y="-105.5" font-family="Helvetica,sans-Serif" font-size="10.00">+</text>
<text text-anchor="start" x="23" y="-105.5" font-family="Helvetica,sans-Serif" font-size="10.00">~ClauseProcessor()</text>
<polygon fill="#666666" stroke="#666666" points="0,-177 0,-177 122,-177 122,-177 0,-177"/>
<polygon fill="#666666" stroke="#666666" points="0,-162 0,-162 122,-162 122,-162 0,-162"/>
<polygon fill="none" stroke="#666666" points="0,-100 0,-194 122,-194 122,-100 0,-100"/>
</a>
</g>
</g>
<!-- Node2&#45;&gt;Node1 -->
<g id="edge1_Node000001_Node000002" class="edge">
<title>Node2&#45;&gt;Node1</title>
<g id="a_edge1_Node000001_Node000002"><a xlink:title=" ">
<path fill="none" stroke="#63b8ff" d="M61,-88.75C61,-80.11 61,-71.51 61,-63.73"/>
<polygon fill="none" stroke="#63b8ff" points="57.5,-88.52 61,-98.53 64.5,-88.53 57.5,-88.52"/>
</a>
</g>
</g>
</g>
</svg>
