<?xml version="1.0" encoding="UTF-8" standalone="no"?>
<!DOCTYPE svg PUBLIC "-//W3C//DTD SVG 1.1//EN"
 "http://www.w3.org/Graphics/SVG/1.1/DTD/svg11.dtd">
<!-- Generated by graphviz version 12.1.2 (20240928.0832)
 -->
<!-- Title: ClauseDatabaseMallob Pages: 1 -->
<!--zoomable 678 -->

<svg id="main" version="1.1" xmlns="http://www.w3.org/2000/svg" xmlns:xlink="http://www.w3.org/1999/xlink" xml:space="preserve" onload="init(evt)">

<style type="text/css"><![CDATA[
.node, .edge {opacity: 0.7;}
.node.selected, .edge.selected {opacity: 1;}
.edge:hover path { stroke: red; }
.edge:hover polygon { stroke: red; fill: red; }
]]></style>

<defs>
  <circle id="rim" cx="0" cy="0" r="7"/>
  <circle id="rim2" cx="0" cy="0" r="3.5"/>
  <g id="zoomPlus">
    <use xlink:href="#rim" fill="#404040"><set attributeName="fill" to="#808080" begin="zoomplus.mouseover" end="zoomplus.mouseout"/></use>
    <path d="M-4,0h8M0,-4v8" fill="none" stroke="white" stroke-width="1.5" pointer-events="none"/>
  </g>
  <g id="zoomMin">
    <use xlink:href="#rim" fill="#404040"><set attributeName="fill" to="#808080" begin="zoomminus.mouseover" end="zoomminus.mouseout"/></use>
    <path d="M-4,0h8" fill="none" stroke="white" stroke-width="1.5" pointer-events="none"/>
  </g>
  <g id="arrowUp" transform="translate(30 24)">
    <use xlink:href="#rim"/>
    <path pointer-events="none" fill="none" stroke="white" stroke-width="1.5" d="M0,-3.0v7 M-2.5,-0.5L0,-3.0L2.5,-0.5"/>
  </g>
  <g id="arrowRight" transform="rotate(90) translate(36 -43)">
    <use xlink:href="#rim"/>
    <path pointer-events="none" fill="none" stroke="white" stroke-width="1.5" d="M0,-3.0v7 M-2.5,-0.5L0,-3.0L2.5,-0.5"/>
  </g>
  <g id="arrowDown" transform="rotate(180) translate(-30 -48)">
    <use xlink:href="#rim"/>
    <path pointer-events="none" fill="none" stroke="white" stroke-width="1.5" d="M0,-3.0v7 M-2.5,-0.5L0,-3.0L2.5,-0.5"/>
  </g>
  <g id="arrowLeft" transform="rotate(270) translate(-36 17)">
    <use xlink:href="#rim"/>
    <path pointer-events="none" fill="none" stroke="white" stroke-width="1.5" d="M0,-3.0v7 M-2.5,-0.5L0,-3.0L2.5,-0.5"/>
  </g>
  <g id="resetDef">
    <use xlink:href="#rim2" fill="#404040"><set attributeName="fill" to="#808080" begin="reset.mouseover" end="reset.mouseout"/></use>
  </g>
</defs>
<script type="application/ecmascript">
var viewWidth = 264;
var viewHeight = 678;
var sectionId = 'dynsection-1';
</script>
<script type="application/ecmascript" xlink:href="svg.min.js"/>
<svg id="graph" class="graph">
<g id="viewport">
<title>ClauseDatabaseMallob</title>
<!-- Node1 -->
<g id="Node000001" class="node">
<title>Node1</title>
<g id="a_Node000001"><a xlink:title="A clause database implementation attempting to naively mimic the Simplified Adaptive Database from Ma...">
<polygon fill="#999999" stroke="none" points="182.5,-334 47.5,-334 47.5,0 182.5,0 182.5,-334"/>
<text text-anchor="start" x="65.12" y="-320.5" font-family="Helvetica,sans-Serif" font-size="10.00">ClauseDatabaseMallob</text>
<text text-anchor="start" x="51.88" y="-305.5" font-family="Helvetica,sans-Serif" font-size="10.00">#</text>
<text text-anchor="start" x="61.5" y="-305.5" font-family="Helvetica,sans-Serif" font-size="10.00">m_totalLiteralCapacity</text>
<text text-anchor="start" x="51.88" y="-290.5" font-family="Helvetica,sans-Serif" font-size="10.00">#</text>
<text text-anchor="start" x="61.5" y="-290.5" font-family="Helvetica,sans-Serif" font-size="10.00">m_maxPartitioningLbd</text>
<text text-anchor="start" x="51.88" y="-275.5" font-family="Helvetica,sans-Serif" font-size="10.00">#</text>
<text text-anchor="start" x="61.5" y="-275.5" font-family="Helvetica,sans-Serif" font-size="10.00">m_maxClauseSize</text>
<text text-anchor="start" x="51.88" y="-260.5" font-family="Helvetica,sans-Serif" font-size="10.00">#</text>
<text text-anchor="start" x="61.5" y="-260.5" font-family="Helvetica,sans-Serif" font-size="10.00">m_freeMaxSize</text>
<text text-anchor="start" x="51.88" y="-245.5" font-family="Helvetica,sans-Serif" font-size="10.00">#</text>
<text text-anchor="start" x="61.5" y="-245.5" font-family="Helvetica,sans-Serif" font-size="10.00">m_clauses</text>
<text text-anchor="start" x="51.88" y="-230.5" font-family="Helvetica,sans-Serif" font-size="10.00">#</text>
<text text-anchor="start" x="61.5" y="-230.5" font-family="Helvetica,sans-Serif" font-size="10.00">m_currentLiteralSize</text>
<text text-anchor="start" x="51.88" y="-215.5" font-family="Helvetica,sans-Serif" font-size="10.00">#</text>
<text text-anchor="start" x="61.5" y="-215.5" font-family="Helvetica,sans-Serif" font-size="10.00">m_currentWorstIndex</text>
<text text-anchor="start" x="51.88" y="-200.5" font-family="Helvetica,sans-Serif" font-size="10.00">#</text>
<text text-anchor="start" x="61.5" y="-200.5" font-family="Helvetica,sans-Serif" font-size="10.00">m_shrinkMutex</text>
<text text-anchor="start" x="51.5" y="-185.5" font-family="Helvetica,sans-Serif" font-size="10.00">+</text>
<text text-anchor="start" x="61.5" y="-185.5" font-family="Helvetica,sans-Serif" font-size="10.00">ClauseDatabaseMallob()</text>
<text text-anchor="start" x="51.5" y="-170.5" font-family="Helvetica,sans-Serif" font-size="10.00">+</text>
<text text-anchor="start" x="61.5" y="-170.5" font-family="Helvetica,sans-Serif" font-size="10.00">ClauseDatabaseMallob()</text>
<text text-anchor="start" x="51.5" y="-155.5" font-family="Helvetica,sans-Serif" font-size="10.00">+</text>
<text text-anchor="start" x="61.5" y="-155.5" font-family="Helvetica,sans-Serif" font-size="10.00">~ClauseDatabaseMallob()</text>
<text text-anchor="start" x="51.5" y="-140.5" font-family="Helvetica,sans-Serif" font-size="10.00">+</text>
<text text-anchor="start" x="61.5" y="-140.5" font-family="Helvetica,sans-Serif" font-size="10.00">addClause()</text>
<text text-anchor="start" x="51.5" y="-125.5" font-family="Helvetica,sans-Serif" font-size="10.00">+</text>
<text text-anchor="start" x="61.5" y="-125.5" font-family="Helvetica,sans-Serif" font-size="10.00">giveSelection()</text>
<text text-anchor="start" x="51.5" y="-110.5" font-family="Helvetica,sans-Serif" font-size="10.00">+</text>
<text text-anchor="start" x="61.5" y="-110.5" font-family="Helvetica,sans-Serif" font-size="10.00">getClauses()</text>
<text text-anchor="start" x="51.5" y="-95.5" font-family="Helvetica,sans-Serif" font-size="10.00">+</text>
<text text-anchor="start" x="61.5" y="-95.5" font-family="Helvetica,sans-Serif" font-size="10.00">getOneClause()</text>
<text text-anchor="start" x="51.5" y="-80.5" font-family="Helvetica,sans-Serif" font-size="10.00">+</text>
<text text-anchor="start" x="61.5" y="-80.5" font-family="Helvetica,sans-Serif" font-size="10.00">getSize()</text>
<text text-anchor="start" x="51.5" y="-65.5" font-family="Helvetica,sans-Serif" font-size="10.00">+</text>
<text text-anchor="start" x="61.5" y="-65.5" font-family="Helvetica,sans-Serif" font-size="10.00">shrinkDatabase()</text>
<text text-anchor="start" x="51.5" y="-50.5" font-family="Helvetica,sans-Serif" font-size="10.00">+</text>
<text text-anchor="start" x="61.5" y="-50.5" font-family="Helvetica,sans-Serif" font-size="10.00">clearDatabase()</text>
<text text-anchor="start" x="51.88" y="-35.5" font-family="Helvetica,sans-Serif" font-size="10.00">#</text>
<text text-anchor="start" x="61.5" y="-35.5" font-family="Helvetica,sans-Serif" font-size="10.00">getIndex()</text>
<text text-anchor="start" x="51.88" y="-20.5" font-family="Helvetica,sans-Serif" font-size="10.00">#</text>
<text text-anchor="start" x="61.5" y="-20.5" font-family="Helvetica,sans-Serif" font-size="10.00">getSizeFromIndex()</text>
<text text-anchor="start" x="51.88" y="-5.5" font-family="Helvetica,sans-Serif" font-size="10.00">#</text>
<text text-anchor="start" x="61.5" y="-5.5" font-family="Helvetica,sans-Serif" font-size="10.00">getLbdPartitionFromIndex()</text>
<polygon fill="#666666" stroke="#666666" points="47.5,-317 47.5,-317 182.5,-317 182.5,-317 47.5,-317"/>
<polygon fill="#666666" stroke="#666666" points="47.5,-197 47.5,-197 59.5,-197 59.5,-197 47.5,-197"/>
<polygon fill="#666666" stroke="#666666" points="59.5,-197 59.5,-197 182.5,-197 182.5,-197 59.5,-197"/>
<polygon fill="none" stroke="#666666" points="47.5,0 47.5,-334 182.5,-334 182.5,0 47.5,0"/>
</a>
</g>
</g>
<!-- Node2 -->
<g id="Node000002" class="node">
<title>Node2</title>
<g id="a_Node000002"><a xlink:href="classClauseDatabase.html" target="_top" xlink:title="Abstract base class defining the interface for clause storage and management.">
<polygon fill="white" stroke="none" points="100,-610.25 0,-610.25 0,-441.25 100,-441.25 100,-610.25"/>
<text text-anchor="start" x="14.38" y="-596.75" font-family="Helvetica,sans-Serif" font-size="10.00">ClauseDatabase</text>
<text text-anchor="start" x="48.5" y="-581.75" font-family="Helvetica,sans-Serif" font-size="10.00"> </text>
<text text-anchor="start" x="4" y="-566.75" font-family="Helvetica,sans-Serif" font-size="10.00">+</text>
<text text-anchor="start" x="14" y="-566.75" font-family="Helvetica,sans-Serif" font-size="10.00">ClauseDatabase()</text>
<text text-anchor="start" x="4" y="-551.75" font-family="Helvetica,sans-Serif" font-size="10.00">+</text>
<text text-anchor="start" x="14" y="-551.75" font-family="Helvetica,sans-Serif" font-size="10.00">~ClauseDatabase()</text>
<text text-anchor="start" x="4" y="-536.75" font-family="Helvetica,sans-Serif" font-size="10.00">+</text>
<text text-anchor="start" x="14" y="-536.75" font-family="Helvetica,sans-Serif" font-size="10.00">addClause()</text>
<text text-anchor="start" x="4" y="-521.75" font-family="Helvetica,sans-Serif" font-size="10.00">+</text>
<text text-anchor="start" x="14" y="-521.75" font-family="Helvetica,sans-Serif" font-size="10.00">giveSelection()</text>
<text text-anchor="start" x="4" y="-506.75" font-family="Helvetica,sans-Serif" font-size="10.00">+</text>
<text text-anchor="start" x="14" y="-506.75" font-family="Helvetica,sans-Serif" font-size="10.00">getClauses()</text>
<text text-anchor="start" x="4" y="-491.75" font-family="Helvetica,sans-Serif" font-size="10.00">+</text>
<text text-anchor="start" x="14" y="-491.75" font-family="Helvetica,sans-Serif" font-size="10.00">getOneClause()</text>
<text text-anchor="start" x="4" y="-476.75" font-family="Helvetica,sans-Serif" font-size="10.00">+</text>
<text text-anchor="start" x="14" y="-476.75" font-family="Helvetica,sans-Serif" font-size="10.00">getSize()</text>
<text text-anchor="start" x="4" y="-461.75" font-family="Helvetica,sans-Serif" font-size="10.00">+</text>
<text text-anchor="start" x="14" y="-461.75" font-family="Helvetica,sans-Serif" font-size="10.00">shrinkDatabase()</text>
<text text-anchor="start" x="4" y="-446.75" font-family="Helvetica,sans-Serif" font-size="10.00">+</text>
<text text-anchor="start" x="14" y="-446.75" font-family="Helvetica,sans-Serif" font-size="10.00">clearDatabase()</text>
<polygon fill="#666666" stroke="#666666" points="0,-593.25 0,-593.25 100,-593.25 100,-593.25 0,-593.25"/>
<polygon fill="#666666" stroke="#666666" points="0,-578.25 0,-578.25 100,-578.25 100,-578.25 0,-578.25"/>
<polygon fill="none" stroke="#666666" points="0,-441.25 0,-610.25 100,-610.25 100,-441.25 0,-441.25"/>
</a>
</g>
</g>
<!-- Node2&#45;&gt;Node1 -->
<g id="edge1_Node000001_Node000002" class="edge">
<title>Node2&#45;&gt;Node1</title>
<g id="a_edge1_Node000001_Node000002"><a xlink:title=" ">
<path fill="none" stroke="#63b8ff" d="M67.19,-430.39C72.6,-400.72 78.74,-367.02 84.77,-333.9"/>
<polygon fill="none" stroke="#63b8ff" points="63.78,-429.6 65.43,-440.07 70.66,-430.86 63.78,-429.6"/>
</a>
</g>
</g>
<!-- Node3 -->
<g id="Node000003" class="node">
<title>Node3</title>
<g id="a_Node000003"><a xlink:href="classClauseBuffer.html" target="_top" xlink:title="Wrapper for boost::lockfree::queue to manage ClauseExchange objects.">
<polygon fill="white" stroke="none" points="243.5,-670.25 118.5,-670.25 118.5,-381.25 243.5,-381.25 243.5,-670.25"/>
<text text-anchor="start" x="153.25" y="-656.75" font-family="Helvetica,sans-Serif" font-size="10.00">ClauseBuffer</text>
<text text-anchor="start" x="179.5" y="-641.75" font-family="Helvetica,sans-Serif" font-size="10.00"> </text>
<text text-anchor="start" x="122.5" y="-626.75" font-family="Helvetica,sans-Serif" font-size="10.00">+</text>
<text text-anchor="start" x="132.5" y="-626.75" font-family="Helvetica,sans-Serif" font-size="10.00">ClauseBuffer()</text>
<text text-anchor="start" x="122.5" y="-611.75" font-family="Helvetica,sans-Serif" font-size="10.00">+</text>
<text text-anchor="start" x="132.5" y="-611.75" font-family="Helvetica,sans-Serif" font-size="10.00">ClauseBuffer()</text>
<text text-anchor="start" x="122.5" y="-596.75" font-family="Helvetica,sans-Serif" font-size="10.00">+</text>
<text text-anchor="start" x="132.5" y="-596.75" font-family="Helvetica,sans-Serif" font-size="10.00">ClauseBuffer()</text>
<text text-anchor="start" x="122.5" y="-581.75" font-family="Helvetica,sans-Serif" font-size="10.00">+</text>
<text text-anchor="start" x="132.5" y="-581.75" font-family="Helvetica,sans-Serif" font-size="10.00">ClauseBuffer()</text>
<text text-anchor="start" x="122.5" y="-566.75" font-family="Helvetica,sans-Serif" font-size="10.00">+</text>
<text text-anchor="start" x="132.5" y="-566.75" font-family="Helvetica,sans-Serif" font-size="10.00">operator=()</text>
<text text-anchor="start" x="122.5" y="-551.75" font-family="Helvetica,sans-Serif" font-size="10.00">+</text>
<text text-anchor="start" x="132.5" y="-551.75" font-family="Helvetica,sans-Serif" font-size="10.00">ClauseBuffer()</text>
<text text-anchor="start" x="122.5" y="-536.75" font-family="Helvetica,sans-Serif" font-size="10.00">+</text>
<text text-anchor="start" x="132.5" y="-536.75" font-family="Helvetica,sans-Serif" font-size="10.00">operator=()</text>
<text text-anchor="start" x="122.5" y="-521.75" font-family="Helvetica,sans-Serif" font-size="10.00">+</text>
<text text-anchor="start" x="132.5" y="-521.75" font-family="Helvetica,sans-Serif" font-size="10.00">~ClauseBuffer()</text>
<text text-anchor="start" x="122.5" y="-506.75" font-family="Helvetica,sans-Serif" font-size="10.00">+</text>
<text text-anchor="start" x="132.5" y="-506.75" font-family="Helvetica,sans-Serif" font-size="10.00">addClause()</text>
<text text-anchor="start" x="122.5" y="-491.75" font-family="Helvetica,sans-Serif" font-size="10.00">+</text>
<text text-anchor="start" x="132.5" y="-491.75" font-family="Helvetica,sans-Serif" font-size="10.00">addClauses()</text>
<text text-anchor="start" x="122.5" y="-476.75" font-family="Helvetica,sans-Serif" font-size="10.00">+</text>
<text text-anchor="start" x="132.5" y="-476.75" font-family="Helvetica,sans-Serif" font-size="10.00">tryAddClauseBounded()</text>
<text text-anchor="start" x="122.5" y="-461.75" font-family="Helvetica,sans-Serif" font-size="10.00">+</text>
<text text-anchor="start" x="132.5" y="-461.75" font-family="Helvetica,sans-Serif" font-size="10.00">tryAddClausesBounded()</text>
<text text-anchor="start" x="122.5" y="-446.75" font-family="Helvetica,sans-Serif" font-size="10.00">+</text>
<text text-anchor="start" x="132.5" y="-446.75" font-family="Helvetica,sans-Serif" font-size="10.00">getClause()</text>
<text text-anchor="start" x="122.5" y="-431.75" font-family="Helvetica,sans-Serif" font-size="10.00">+</text>
<text text-anchor="start" x="132.5" y="-431.75" font-family="Helvetica,sans-Serif" font-size="10.00">getClauses()</text>
<text text-anchor="start" x="122.5" y="-416.75" font-family="Helvetica,sans-Serif" font-size="10.00">+</text>
<text text-anchor="start" x="132.5" y="-416.75" font-family="Helvetica,sans-Serif" font-size="10.00">size()</text>
<text text-anchor="start" x="122.5" y="-401.75" font-family="Helvetica,sans-Serif" font-size="10.00">+</text>
<text text-anchor="start" x="132.5" y="-401.75" font-family="Helvetica,sans-Serif" font-size="10.00">clear()</text>
<text text-anchor="start" x="122.5" y="-386.75" font-family="Helvetica,sans-Serif" font-size="10.00">+</text>
<text text-anchor="start" x="132.5" y="-386.75" font-family="Helvetica,sans-Serif" font-size="10.00">empty()</text>
<polygon fill="#666666" stroke="#666666" points="118.5,-653.25 118.5,-653.25 243.5,-653.25 243.5,-653.25 118.5,-653.25"/>
<polygon fill="#666666" stroke="#666666" points="118.5,-638.25 118.5,-638.25 243.5,-638.25 243.5,-638.25 118.5,-638.25"/>
<polygon fill="none" stroke="#666666" points="118.5,-381.25 118.5,-670.25 243.5,-670.25 243.5,-381.25 118.5,-381.25"/>
</a>
</g>
</g>
<!-- Node3&#45;&gt;Node1 -->
<g id="edge2_Node000001_Node000003" class="edge">
<title>Node3&#45;&gt;Node1</title>
<g id="a_edge2_Node000001_Node000003"><a xlink:title=" ">
<path fill="none" stroke="#63b8ff" d="M154.49,-381.44C152.36,-369.92 150.19,-358.19 148.02,-346.47"/>
<polygon fill="none" stroke="#63b8ff" points="148.01,-346.44 142.99,-341.26 145.83,-334.64 150.85,-339.81 148.01,-346.44"/>
</a>
</g>
<text text-anchor="middle" x="202.85" y="-353.75" font-family="Helvetica,sans-Serif" font-size="10.00" fill="grey"> #m_missedAdditionsBfr</text>
</g>
</g>
</svg>

<g id="navigator" transform="translate(0 0)" fill="#404254">
  <rect fill="#f2f5e9" fill-opacity="0.5" stroke="#606060" stroke-width=".5" x="0" y="0" width="60" height="60"/>
  <use id="zoomplus" xlink:href="#zoomPlus" x="17" y="9" onmousedown="handleZoom(evt,'in')"/>
  <use id="zoomminus" xlink:href="#zoomMin" x="42" y="9" onmousedown="handleZoom(evt,'out')"/>
  <use id="reset" xlink:href="#resetDef" x="30" y="36" onmousedown="handleReset()"/>
   <use id="arrowup" xlink:href="#arrowUp" x="0" y="0" onmousedown="handlePan(0,-1)"/>
  <use id="arrowright" xlink:href="#arrowRight" x="0" y="0" onmousedown="handlePan(1,0)"/>
  <use id="arrowdown" xlink:href="#arrowDown" x="0" y="0" onmousedown="handlePan(0,1)"/>
  <use id="arrowleft" xlink:href="#arrowLeft" x="0" y="0" onmousedown="handlePan(-1,0)"/>
</g>
<svg viewBox="0 0 15 15" width="100%" height="30px" preserveAspectRatio="xMaxYMin meet">
 <g id="arrow_out" transform="scale(0.3 0.3)">
  <a xlink:href="classClauseDatabaseMallob__coll__graph_org.svg" target="_base">
   <rect id="button" ry="5" rx="5" y="6" x="6" height="38" width="38"
        fill="#f2f5e9" fill-opacity="0.5" stroke="#606060" stroke-width="1.0"/>
   <path id="arrow"
     d="M 11.500037,31.436501 C 11.940474,20.09759 22.043105,11.32322 32.158766,21.979434 L 37.068811,17.246167 C 37.068811,17.246167 37.088388,32 37.088388,32 L 22.160133,31.978069 C 22.160133,31.978069 26.997745,27.140456 26.997745,27.140456 C 18.528582,18.264221 13.291696,25.230495 11.500037,31.436501 z"
     style="fill:#404040;"/>
  </a>
 </g>
</svg>

<style type='text/css'>
<![CDATA[
[data-mouse-over-selected='false'] { opacity: 0.7; }
[data-mouse-over-selected='true']  { opacity: 1.0; }
]]>
</style>
<script type="application/ecmascript"><![CDATA[
document.addEventListener('DOMContentLoaded', (event) => {
  highlightEdges();
  highlightAdjacentNodes();
});
]]></script>
</svg>
