<?xml version="1.0" encoding="UTF-8" standalone="no"?>
<!DOCTYPE svg PUBLIC "-//W3C//DTD SVG 1.1//EN"
 "http://www.w3.org/Graphics/SVG/1.1/DTD/svg11.dtd">
<!-- Generated by graphviz version 12.1.2 (20240928.0832)
 -->
<!-- Title: Sharer Pages: 1 -->
<svg width="104pt" height="333pt"
 viewBox="0.00 0.00 104.00 333.25" xmlns="http://www.w3.org/2000/svg" xmlns:xlink="http://www.w3.org/1999/xlink">
<g id="graph0" class="graph" transform="scale(1 1) rotate(0) translate(4 329.25)">
<title>Sharer</title>
<!-- Node1 -->
<g id="Node000001" class="node">
<title>Node1</title>
<g id="a_Node000001"><a xlink:title="A sharer is a thread responsible for executing a list of SharingStrategies.">
<polygon fill="#999999" stroke="none" points="96,-199 0,-199 0,0 96,0 96,-199"/>
<text text-anchor="start" x="33.75" y="-185.5" font-family="Helvetica,sans-Serif" font-size="10.00">Sharer</text>
<text text-anchor="start" x="4.38" y="-170.5" font-family="Helvetica,sans-Serif" font-size="10.00">#</text>
<text text-anchor="start" x="14" y="-170.5" font-family="Helvetica,sans-Serif" font-size="10.00">totalSharingTime</text>
<text text-anchor="start" x="4.38" y="-155.5" font-family="Helvetica,sans-Serif" font-size="10.00">#</text>
<text text-anchor="start" x="14" y="-155.5" font-family="Helvetica,sans-Serif" font-size="10.00">round</text>
<text text-anchor="start" x="4.38" y="-140.5" font-family="Helvetica,sans-Serif" font-size="10.00">#</text>
<text text-anchor="start" x="14" y="-140.5" font-family="Helvetica,sans-Serif" font-size="10.00">sharingStrategies</text>
<text text-anchor="start" x="4.38" y="-125.5" font-family="Helvetica,sans-Serif" font-size="10.00">#</text>
<text text-anchor="start" x="14" y="-125.5" font-family="Helvetica,sans-Serif" font-size="10.00">m_sharerId</text>
<text text-anchor="start" x="4" y="-110.5" font-family="Helvetica,sans-Serif" font-size="10.00">+</text>
<text text-anchor="start" x="14" y="-110.5" font-family="Helvetica,sans-Serif" font-size="10.00">Sharer()</text>
<text text-anchor="start" x="4" y="-95.5" font-family="Helvetica,sans-Serif" font-size="10.00">+</text>
<text text-anchor="start" x="14" y="-95.5" font-family="Helvetica,sans-Serif" font-size="10.00">Sharer()</text>
<text text-anchor="start" x="4" y="-80.5" font-family="Helvetica,sans-Serif" font-size="10.00">+</text>
<text text-anchor="start" x="14" y="-80.5" font-family="Helvetica,sans-Serif" font-size="10.00">~Sharer()</text>
<text text-anchor="start" x="4" y="-65.5" font-family="Helvetica,sans-Serif" font-size="10.00">+</text>
<text text-anchor="start" x="14" y="-65.5" font-family="Helvetica,sans-Serif" font-size="10.00">printStats()</text>
<text text-anchor="start" x="4" y="-50.5" font-family="Helvetica,sans-Serif" font-size="10.00">+</text>
<text text-anchor="start" x="14" y="-50.5" font-family="Helvetica,sans-Serif" font-size="10.00">join()</text>
<text text-anchor="start" x="4" y="-35.5" font-family="Helvetica,sans-Serif" font-size="10.00">+</text>
<text text-anchor="start" x="14" y="-35.5" font-family="Helvetica,sans-Serif" font-size="10.00">setThreadAffinity()</text>
<text text-anchor="start" x="4" y="-20.5" font-family="Helvetica,sans-Serif" font-size="10.00">+</text>
<text text-anchor="start" x="14" y="-20.5" font-family="Helvetica,sans-Serif" font-size="10.00">getId()</text>
<text text-anchor="start" x="4" y="-5.5" font-family="Helvetica,sans-Serif" font-size="10.00">+</text>
<text text-anchor="start" x="14" y="-5.5" font-family="Helvetica,sans-Serif" font-size="10.00">setId()</text>
<polygon fill="#666666" stroke="#666666" points="0,-182 0,-182 96,-182 96,-182 0,-182"/>
<polygon fill="#666666" stroke="#666666" points="0,-122 0,-122 12,-122 12,-122 0,-122"/>
<polygon fill="#666666" stroke="#666666" points="12,-122 12,-122 96,-122 96,-122 12,-122"/>
<polygon fill="none" stroke="#666666" points="0,0 0,-199 96,-199 96,0 0,0"/>
</a>
</g>
</g>
<!-- Node2 -->
<g id="Node000002" class="node">
<title>Node2</title>
<g id="a_Node000002"><a xlink:href="classThread.html" target="_top" xlink:title="Thread class.">
<polygon fill="white" stroke="none" points="96,-325.25 0,-325.25 0,-246.25 96,-246.25 96,-325.25"/>
<text text-anchor="start" x="33" y="-311.75" font-family="Helvetica,sans-Serif" font-size="10.00">Thread</text>
<text text-anchor="start" x="4.38" y="-296.75" font-family="Helvetica,sans-Serif" font-size="10.00">#</text>
<text text-anchor="start" x="14" y="-296.75" font-family="Helvetica,sans-Serif" font-size="10.00">myTid</text>
<text text-anchor="start" x="4" y="-281.75" font-family="Helvetica,sans-Serif" font-size="10.00">+</text>
<text text-anchor="start" x="14" y="-281.75" font-family="Helvetica,sans-Serif" font-size="10.00">Thread()</text>
<text text-anchor="start" x="4" y="-266.75" font-family="Helvetica,sans-Serif" font-size="10.00">+</text>
<text text-anchor="start" x="14" y="-266.75" font-family="Helvetica,sans-Serif" font-size="10.00">join()</text>
<text text-anchor="start" x="4" y="-251.75" font-family="Helvetica,sans-Serif" font-size="10.00">+</text>
<text text-anchor="start" x="14" y="-251.75" font-family="Helvetica,sans-Serif" font-size="10.00">setThreadAffinity()</text>
<polygon fill="#666666" stroke="#666666" points="0,-308.25 0,-308.25 96,-308.25 96,-308.25 0,-308.25"/>
<polygon fill="#666666" stroke="#666666" points="0,-293.25 0,-293.25 12,-293.25 12,-293.25 0,-293.25"/>
<polygon fill="#666666" stroke="#666666" points="12,-293.25 12,-293.25 96,-293.25 96,-293.25 12,-293.25"/>
<polygon fill="none" stroke="#666666" points="0,-246.25 0,-325.25 96,-325.25 96,-246.25 0,-246.25"/>
</a>
</g>
</g>
<!-- Node2&#45;&gt;Node1 -->
<g id="edge1_Node000001_Node000002" class="edge">
<title>Node2&#45;&gt;Node1</title>
<g id="a_edge1_Node000001_Node000002"><a xlink:title=" ">
<path fill="none" stroke="#63b8ff" d="M48,-246.57C48,-235.98 48,-223.92 48,-211.37"/>
<polygon fill="none" stroke="#63b8ff" points="48,-211.6 44,-205.6 48,-199.6 52,-205.6 48,-211.6"/>
</a>
</g>
<text text-anchor="middle" x="65.25" y="-218.75" font-family="Helvetica,sans-Serif" font-size="10.00" fill="grey"> #sharer</text>
</g>
</g>
</svg>
