<?xml version="1.0" encoding="UTF-8" standalone="no"?>
<!DOCTYPE svg PUBLIC "-//W3C//DTD SVG 1.1//EN"
 "http://www.w3.org/Graphics/SVG/1.1/DTD/svg11.dtd">
<!-- Generated by graphviz version 12.1.2 (20240928.0832)
 -->
<!-- Title: MapleCOMSPSSolver Pages: 1 -->
<svg width="293pt" height="1401pt"
 viewBox="0.00 0.00 292.50 1401.25" xmlns="http://www.w3.org/2000/svg" xmlns:xlink="http://www.w3.org/1999/xlink">
<g id="graph0" class="graph" transform="scale(1 1) rotate(0) translate(4 1397.25)">
<title>MapleCOMSPSSolver</title>
<!-- Node1 -->
<g id="Node000001" class="node">
<title>Node1</title>
<g id="a_Node000001"><a xlink:title="Instance of a MapleCOMSPS solver.">
<polygon fill="#999999" stroke="none" points="250,-439 124,-439 124,0 250,0 250,-439"/>
<text text-anchor="start" x="138.62" y="-425.5" font-family="Helvetica,sans-Serif" font-size="10.00">MapleCOMSPSSolver</text>
<text text-anchor="start" x="128.38" y="-410.5" font-family="Helvetica,sans-Serif" font-size="10.00">#</text>
<text text-anchor="start" x="138" y="-410.5" font-family="Helvetica,sans-Serif" font-size="10.00">solver</text>
<text text-anchor="start" x="128.38" y="-395.5" font-family="Helvetica,sans-Serif" font-size="10.00">#</text>
<text text-anchor="start" x="138" y="-395.5" font-family="Helvetica,sans-Serif" font-size="10.00">unitsToImport</text>
<text text-anchor="start" x="128.38" y="-380.5" font-family="Helvetica,sans-Serif" font-size="10.00">#</text>
<text text-anchor="start" x="138" y="-380.5" font-family="Helvetica,sans-Serif" font-size="10.00">stopSolver</text>
<text text-anchor="start" x="128" y="-365.5" font-family="Helvetica,sans-Serif" font-size="10.00">+</text>
<text text-anchor="start" x="138" y="-365.5" font-family="Helvetica,sans-Serif" font-size="10.00">getVariablesCount()</text>
<text text-anchor="start" x="128" y="-350.5" font-family="Helvetica,sans-Serif" font-size="10.00">+</text>
<text text-anchor="start" x="138" y="-350.5" font-family="Helvetica,sans-Serif" font-size="10.00">getDivisionVariable()</text>
<text text-anchor="start" x="128" y="-335.5" font-family="Helvetica,sans-Serif" font-size="10.00">+</text>
<text text-anchor="start" x="138" y="-335.5" font-family="Helvetica,sans-Serif" font-size="10.00">setPhase()</text>
<text text-anchor="start" x="128" y="-320.5" font-family="Helvetica,sans-Serif" font-size="10.00">+</text>
<text text-anchor="start" x="138" y="-320.5" font-family="Helvetica,sans-Serif" font-size="10.00">bumpVariableActivity()</text>
<text text-anchor="start" x="128" y="-305.5" font-family="Helvetica,sans-Serif" font-size="10.00">+</text>
<text text-anchor="start" x="138" y="-305.5" font-family="Helvetica,sans-Serif" font-size="10.00">setSolverInterrupt()</text>
<text text-anchor="start" x="128" y="-290.5" font-family="Helvetica,sans-Serif" font-size="10.00">+</text>
<text text-anchor="start" x="138" y="-290.5" font-family="Helvetica,sans-Serif" font-size="10.00">unsetSolverInterrupt()</text>
<text text-anchor="start" x="128" y="-275.5" font-family="Helvetica,sans-Serif" font-size="10.00">+</text>
<text text-anchor="start" x="138" y="-275.5" font-family="Helvetica,sans-Serif" font-size="10.00">solve()</text>
<text text-anchor="start" x="128" y="-260.5" font-family="Helvetica,sans-Serif" font-size="10.00">+</text>
<text text-anchor="start" x="138" y="-260.5" font-family="Helvetica,sans-Serif" font-size="10.00">addClause()</text>
<text text-anchor="start" x="128" y="-245.5" font-family="Helvetica,sans-Serif" font-size="10.00">+</text>
<text text-anchor="start" x="138" y="-245.5" font-family="Helvetica,sans-Serif" font-size="10.00">addClauses()</text>
<text text-anchor="start" x="128" y="-230.5" font-family="Helvetica,sans-Serif" font-size="10.00">+</text>
<text text-anchor="start" x="138" y="-230.5" font-family="Helvetica,sans-Serif" font-size="10.00">addInitialClauses()</text>
<text text-anchor="start" x="128" y="-215.5" font-family="Helvetica,sans-Serif" font-size="10.00">+</text>
<text text-anchor="start" x="138" y="-215.5" font-family="Helvetica,sans-Serif" font-size="10.00">loadFormula()</text>
<text text-anchor="start" x="128" y="-200.5" font-family="Helvetica,sans-Serif" font-size="10.00">+</text>
<text text-anchor="start" x="138" y="-200.5" font-family="Helvetica,sans-Serif" font-size="10.00">importClause()</text>
<text text-anchor="start" x="128" y="-185.5" font-family="Helvetica,sans-Serif" font-size="10.00">+</text>
<text text-anchor="start" x="138" y="-185.5" font-family="Helvetica,sans-Serif" font-size="10.00">importClauses()</text>
<text text-anchor="start" x="128" y="-170.5" font-family="Helvetica,sans-Serif" font-size="10.00">+</text>
<text text-anchor="start" x="138" y="-170.5" font-family="Helvetica,sans-Serif" font-size="10.00">printStatistics()</text>
<text text-anchor="start" x="128" y="-155.5" font-family="Helvetica,sans-Serif" font-size="10.00">+</text>
<text text-anchor="start" x="138" y="-155.5" font-family="Helvetica,sans-Serif" font-size="10.00">printWinningLog()</text>
<text text-anchor="start" x="128" y="-140.5" font-family="Helvetica,sans-Serif" font-size="10.00">+</text>
<text text-anchor="start" x="138" y="-140.5" font-family="Helvetica,sans-Serif" font-size="10.00">getModel()</text>
<text text-anchor="start" x="128" y="-125.5" font-family="Helvetica,sans-Serif" font-size="10.00">+</text>
<text text-anchor="start" x="138" y="-125.5" font-family="Helvetica,sans-Serif" font-size="10.00">diversify()</text>
<text text-anchor="start" x="128" y="-110.5" font-family="Helvetica,sans-Serif" font-size="10.00">+</text>
<text text-anchor="start" x="138" y="-110.5" font-family="Helvetica,sans-Serif" font-size="10.00">MapleCOMSPSSolver()</text>
<text text-anchor="start" x="128" y="-95.5" font-family="Helvetica,sans-Serif" font-size="10.00">+</text>
<text text-anchor="start" x="138" y="-95.5" font-family="Helvetica,sans-Serif" font-size="10.00">MapleCOMSPSSolver()</text>
<text text-anchor="start" x="128" y="-80.5" font-family="Helvetica,sans-Serif" font-size="10.00">+</text>
<text text-anchor="start" x="138" y="-80.5" font-family="Helvetica,sans-Serif" font-size="10.00">~MapleCOMSPSSolver()</text>
<text text-anchor="start" x="128" y="-65.5" font-family="Helvetica,sans-Serif" font-size="10.00">+</text>
<text text-anchor="start" x="138" y="-65.5" font-family="Helvetica,sans-Serif" font-size="10.00">getFinalAnalysis()</text>
<text text-anchor="start" x="128" y="-50.5" font-family="Helvetica,sans-Serif" font-size="10.00">+</text>
<text text-anchor="start" x="138" y="-50.5" font-family="Helvetica,sans-Serif" font-size="10.00">getSatAssumptions()</text>
<text text-anchor="start" x="128" y="-35.5" font-family="Helvetica,sans-Serif" font-size="10.00">+</text>
<text text-anchor="start" x="138" y="-35.5" font-family="Helvetica,sans-Serif" font-size="10.00">setStrengthening()</text>
<text text-anchor="start" x="128" y="-20.5" font-family="Helvetica,sans-Serif" font-size="10.00">+</text>
<text text-anchor="start" x="138" y="-20.5" font-family="Helvetica,sans-Serif" font-size="10.00">setParameter()</text>
<text text-anchor="start" x="128" y="-5.5" font-family="Helvetica,sans-Serif" font-size="10.00">+</text>
<text text-anchor="start" x="138" y="-5.5" font-family="Helvetica,sans-Serif" font-size="10.00">initshuffle()</text>
<polygon fill="#666666" stroke="#666666" points="124,-422 124,-422 250,-422 250,-422 124,-422"/>
<polygon fill="#666666" stroke="#666666" points="124,-377 124,-377 136,-377 136,-377 124,-377"/>
<polygon fill="#666666" stroke="#666666" points="136,-377 136,-377 250,-377 250,-377 136,-377"/>
<polygon fill="none" stroke="#666666" points="124,0 124,-439 250,-439 250,0 124,0"/>
</a>
</g>
</g>
<!-- Node2 -->
<g id="Node000002" class="node">
<title>Node2</title>
<g id="a_Node000002"><a xlink:href="classSolverCdclInterface.html" target="_top" xlink:title="Interface for CDCL (Conflict&#45;Driven Clause Learning) solvers This class provides a common interface f...">
<polygon fill="white" stroke="none" points="141.5,-715.25 26.5,-715.25 26.5,-546.25 141.5,-546.25 141.5,-715.25"/>
<text text-anchor="start" x="41.25" y="-701.75" font-family="Helvetica,sans-Serif" font-size="10.00">SolverCdclInterface</text>
<text text-anchor="start" x="30.5" y="-686.75" font-family="Helvetica,sans-Serif" font-size="10.00">+</text>
<text text-anchor="start" x="40.5" y="-686.75" font-family="Helvetica,sans-Serif" font-size="10.00">m_cdclType</text>
<text text-anchor="start" x="30.88" y="-671.75" font-family="Helvetica,sans-Serif" font-size="10.00">#</text>
<text text-anchor="start" x="40.5" y="-671.75" font-family="Helvetica,sans-Serif" font-size="10.00">m_clausesToImport</text>
<text text-anchor="start" x="30.5" y="-656.75" font-family="Helvetica,sans-Serif" font-size="10.00">+</text>
<text text-anchor="start" x="40.5" y="-656.75" font-family="Helvetica,sans-Serif" font-size="10.00">setPhase()</text>
<text text-anchor="start" x="30.5" y="-641.75" font-family="Helvetica,sans-Serif" font-size="10.00">+</text>
<text text-anchor="start" x="40.5" y="-641.75" font-family="Helvetica,sans-Serif" font-size="10.00">bumpVariableActivity()</text>
<text text-anchor="start" x="30.5" y="-626.75" font-family="Helvetica,sans-Serif" font-size="10.00">+</text>
<text text-anchor="start" x="40.5" y="-626.75" font-family="Helvetica,sans-Serif" font-size="10.00">getFinalAnalysis()</text>
<text text-anchor="start" x="30.5" y="-611.75" font-family="Helvetica,sans-Serif" font-size="10.00">+</text>
<text text-anchor="start" x="40.5" y="-611.75" font-family="Helvetica,sans-Serif" font-size="10.00">getSatAssumptions()</text>
<text text-anchor="start" x="30.5" y="-596.75" font-family="Helvetica,sans-Serif" font-size="10.00">+</text>
<text text-anchor="start" x="40.5" y="-596.75" font-family="Helvetica,sans-Serif" font-size="10.00">printWinningLog()</text>
<text text-anchor="start" x="30.5" y="-581.75" font-family="Helvetica,sans-Serif" font-size="10.00">+</text>
<text text-anchor="start" x="40.5" y="-581.75" font-family="Helvetica,sans-Serif" font-size="10.00">getSolverType()</text>
<text text-anchor="start" x="30.5" y="-566.75" font-family="Helvetica,sans-Serif" font-size="10.00">+</text>
<text text-anchor="start" x="40.5" y="-566.75" font-family="Helvetica,sans-Serif" font-size="10.00">SolverCdclInterface()</text>
<text text-anchor="start" x="30.5" y="-551.75" font-family="Helvetica,sans-Serif" font-size="10.00">+</text>
<text text-anchor="start" x="40.5" y="-551.75" font-family="Helvetica,sans-Serif" font-size="10.00">~SolverCdclInterface()</text>
<polygon fill="#666666" stroke="#666666" points="26.5,-698.25 26.5,-698.25 141.5,-698.25 141.5,-698.25 26.5,-698.25"/>
<polygon fill="#666666" stroke="#666666" points="26.5,-668.25 26.5,-668.25 38.5,-668.25 38.5,-668.25 26.5,-668.25"/>
<polygon fill="#666666" stroke="#666666" points="38.5,-668.25 38.5,-668.25 141.5,-668.25 141.5,-668.25 38.5,-668.25"/>
<polygon fill="none" stroke="#666666" points="26.5,-546.25 26.5,-715.25 141.5,-715.25 141.5,-546.25 26.5,-546.25"/>
</a>
</g>
</g>
<!-- Node2&#45;&gt;Node1 -->
<g id="edge1_Node000001_Node000002" class="edge">
<title>Node2&#45;&gt;Node1</title>
<g id="a_edge1_Node000001_Node000002"><a xlink:title=" ">
<path fill="none" stroke="#63b8ff" d="M107.73,-535.45C115.09,-506.21 123.53,-472.69 132.09,-438.66"/>
<polygon fill="none" stroke="#63b8ff" points="104.38,-534.42 105.34,-544.97 111.17,-536.13 104.38,-534.42"/>
</a>
</g>
</g>
<!-- Node3 -->
<g id="Node000003" class="node">
<title>Node3</title>
<g id="a_Node000003"><a xlink:href="classSolverInterface.html" target="_top" xlink:title="Interface for a SAT solver with standard features.">
<polygon fill="white" stroke="none" points="144,-1296.25 0,-1296.25 0,-812.25 144,-812.25 144,-1296.25"/>
<text text-anchor="start" x="39" y="-1282.75" font-family="Helvetica,sans-Serif" font-size="10.00">SolverInterface</text>
<text text-anchor="start" x="4.38" y="-1267.75" font-family="Helvetica,sans-Serif" font-size="10.00">#</text>
<text text-anchor="start" x="14" y="-1267.75" font-family="Helvetica,sans-Serif" font-size="10.00">m_algoType</text>
<text text-anchor="start" x="4.38" y="-1252.75" font-family="Helvetica,sans-Serif" font-size="10.00">#</text>
<text text-anchor="start" x="14" y="-1252.75" font-family="Helvetica,sans-Serif" font-size="10.00">m_initialized</text>
<text text-anchor="start" x="4.38" y="-1237.75" font-family="Helvetica,sans-Serif" font-size="10.00">#</text>
<text text-anchor="start" x="14" y="-1237.75" font-family="Helvetica,sans-Serif" font-size="10.00">m_solverTypeId</text>
<text text-anchor="start" x="4.38" y="-1222.75" font-family="Helvetica,sans-Serif" font-size="10.00">#</text>
<text text-anchor="start" x="14" y="-1222.75" font-family="Helvetica,sans-Serif" font-size="10.00">m_solverId</text>
<text text-anchor="start" x="4.38" y="-1207.75" font-family="Helvetica,sans-Serif" font-size="10.00">#</text>
<text text-anchor="start" x="14" y="-1207.75" font-family="Helvetica,sans-Serif" font-size="10.00">s_instanceCounts</text>
<text text-anchor="start" x="4" y="-1192.75" font-family="Helvetica,sans-Serif" font-size="10.00">+</text>
<text text-anchor="start" x="14" y="-1192.75" font-family="Helvetica,sans-Serif" font-size="10.00">getVariablesCount()</text>
<text text-anchor="start" x="4" y="-1177.75" font-family="Helvetica,sans-Serif" font-size="10.00">+</text>
<text text-anchor="start" x="14" y="-1177.75" font-family="Helvetica,sans-Serif" font-size="10.00">getDivisionVariable()</text>
<text text-anchor="start" x="4" y="-1162.75" font-family="Helvetica,sans-Serif" font-size="10.00">+</text>
<text text-anchor="start" x="14" y="-1162.75" font-family="Helvetica,sans-Serif" font-size="10.00">setSolverInterrupt()</text>
<text text-anchor="start" x="4" y="-1147.75" font-family="Helvetica,sans-Serif" font-size="10.00">+</text>
<text text-anchor="start" x="14" y="-1147.75" font-family="Helvetica,sans-Serif" font-size="10.00">unsetSolverInterrupt()</text>
<text text-anchor="start" x="4" y="-1132.75" font-family="Helvetica,sans-Serif" font-size="10.00">+</text>
<text text-anchor="start" x="14" y="-1132.75" font-family="Helvetica,sans-Serif" font-size="10.00">printWinningLog()</text>
<text text-anchor="start" x="4" y="-1117.75" font-family="Helvetica,sans-Serif" font-size="10.00">+</text>
<text text-anchor="start" x="14" y="-1117.75" font-family="Helvetica,sans-Serif" font-size="10.00">solve()</text>
<text text-anchor="start" x="4" y="-1102.75" font-family="Helvetica,sans-Serif" font-size="10.00">+</text>
<text text-anchor="start" x="14" y="-1102.75" font-family="Helvetica,sans-Serif" font-size="10.00">addClause()</text>
<text text-anchor="start" x="4" y="-1087.75" font-family="Helvetica,sans-Serif" font-size="10.00">+</text>
<text text-anchor="start" x="14" y="-1087.75" font-family="Helvetica,sans-Serif" font-size="10.00">addClauses()</text>
<text text-anchor="start" x="4" y="-1072.75" font-family="Helvetica,sans-Serif" font-size="10.00">+</text>
<text text-anchor="start" x="14" y="-1072.75" font-family="Helvetica,sans-Serif" font-size="10.00">addInitialClauses()</text>
<text text-anchor="start" x="4" y="-1057.75" font-family="Helvetica,sans-Serif" font-size="10.00">+</text>
<text text-anchor="start" x="14" y="-1057.75" font-family="Helvetica,sans-Serif" font-size="10.00">loadFormula()</text>
<text text-anchor="start" x="4" y="-1042.75" font-family="Helvetica,sans-Serif" font-size="10.00">+</text>
<text text-anchor="start" x="14" y="-1042.75" font-family="Helvetica,sans-Serif" font-size="10.00">printStatistics()</text>
<text text-anchor="start" x="4" y="-1027.75" font-family="Helvetica,sans-Serif" font-size="10.00">+</text>
<text text-anchor="start" x="14" y="-1027.75" font-family="Helvetica,sans-Serif" font-size="10.00">getModel()</text>
<text text-anchor="start" x="4" y="-1012.75" font-family="Helvetica,sans-Serif" font-size="10.00">+</text>
<text text-anchor="start" x="14" y="-1012.75" font-family="Helvetica,sans-Serif" font-size="10.00">printParameters()</text>
<text text-anchor="start" x="4" y="-997.75" font-family="Helvetica,sans-Serif" font-size="10.00">+</text>
<text text-anchor="start" x="14" y="-997.75" font-family="Helvetica,sans-Serif" font-size="10.00">diversify()</text>
<text text-anchor="start" x="4" y="-982.75" font-family="Helvetica,sans-Serif" font-size="10.00">+</text>
<text text-anchor="start" x="14" y="-982.75" font-family="Helvetica,sans-Serif" font-size="10.00">isInitialized()</text>
<text text-anchor="start" x="4" y="-967.75" font-family="Helvetica,sans-Serif" font-size="10.00">+</text>
<text text-anchor="start" x="14" y="-967.75" font-family="Helvetica,sans-Serif" font-size="10.00">setInitialized()</text>
<text text-anchor="start" x="4" y="-952.75" font-family="Helvetica,sans-Serif" font-size="10.00">+</text>
<text text-anchor="start" x="14" y="-952.75" font-family="Helvetica,sans-Serif" font-size="10.00">getAlgoType()</text>
<text text-anchor="start" x="4" y="-937.75" font-family="Helvetica,sans-Serif" font-size="10.00">+</text>
<text text-anchor="start" x="14" y="-937.75" font-family="Helvetica,sans-Serif" font-size="10.00">getSolverTypeId()</text>
<text text-anchor="start" x="4" y="-922.75" font-family="Helvetica,sans-Serif" font-size="10.00">+</text>
<text text-anchor="start" x="14" y="-922.75" font-family="Helvetica,sans-Serif" font-size="10.00">setSolverTypeId()</text>
<text text-anchor="start" x="4" y="-907.75" font-family="Helvetica,sans-Serif" font-size="10.00">+</text>
<text text-anchor="start" x="14" y="-907.75" font-family="Helvetica,sans-Serif" font-size="10.00">getSolverId()</text>
<text text-anchor="start" x="4" y="-892.75" font-family="Helvetica,sans-Serif" font-size="10.00">+</text>
<text text-anchor="start" x="14" y="-892.75" font-family="Helvetica,sans-Serif" font-size="10.00">setSolverId()</text>
<text text-anchor="start" x="4" y="-877.75" font-family="Helvetica,sans-Serif" font-size="10.00">+</text>
<text text-anchor="start" x="14" y="-877.75" font-family="Helvetica,sans-Serif" font-size="10.00">getSolverTypeCount()</text>
<text text-anchor="start" x="4" y="-862.75" font-family="Helvetica,sans-Serif" font-size="10.00">+</text>
<text text-anchor="start" x="14" y="-862.75" font-family="Helvetica,sans-Serif" font-size="10.00">SolverInterface()</text>
<text text-anchor="start" x="4" y="-847.75" font-family="Helvetica,sans-Serif" font-size="10.00">+</text>
<text text-anchor="start" x="14" y="-847.75" font-family="Helvetica,sans-Serif" font-size="10.00">~SolverInterface()</text>
<text text-anchor="start" x="4.38" y="-832.75" font-family="Helvetica,sans-Serif" font-size="10.00">#</text>
<text text-anchor="start" x="14" y="-832.75" font-family="Helvetica,sans-Serif" font-size="10.00">initializeTypeId()</text>
<text text-anchor="start" x="4.38" y="-817.75" font-family="Helvetica,sans-Serif" font-size="10.00">#</text>
<text text-anchor="start" x="14" y="-817.75" font-family="Helvetica,sans-Serif" font-size="10.00">getAndIncrementTypeCount()</text>
<polygon fill="#666666" stroke="#666666" points="0,-1279.25 0,-1279.25 144,-1279.25 144,-1279.25 0,-1279.25"/>
<polygon fill="#666666" stroke="#666666" points="0,-1204.25 0,-1204.25 12,-1204.25 12,-1204.25 0,-1204.25"/>
<polygon fill="#666666" stroke="#666666" points="12,-1204.25 12,-1204.25 144,-1204.25 144,-1204.25 12,-1204.25"/>
<polygon fill="none" stroke="#666666" points="0,-812.25 0,-1296.25 144,-1296.25 144,-812.25 0,-812.25"/>
</a>
</g>
</g>
<!-- Node3&#45;&gt;Node2 -->
<g id="edge2_Node000002_Node000003" class="edge">
<title>Node3&#45;&gt;Node2</title>
<g id="a_edge2_Node000002_Node000003"><a xlink:title=" ">
<path fill="none" stroke="#63b8ff" d="M79.18,-800.95C80.06,-770.17 80.9,-740.62 81.63,-715.07"/>
<polygon fill="none" stroke="#63b8ff" points="75.69,-800.73 78.9,-810.83 82.69,-800.93 75.69,-800.73"/>
</a>
</g>
</g>
<!-- Node4 -->
<g id="Node000004" class="node">
<title>Node4</title>
<g id="a_Node000004"><a xlink:href="classSharingEntity.html" target="_top" xlink:title="A base class representing entities that can exchange clauses between themselves.">
<polygon fill="white" stroke="none" points="278,-1183.75 162,-1183.75 162,-924.75 278,-924.75 278,-1183.75"/>
<text text-anchor="start" x="191.5" y="-1170.25" font-family="Helvetica,sans-Serif" font-size="10.00">SharingEntity</text>
<text text-anchor="start" x="166.38" y="-1155.25" font-family="Helvetica,sans-Serif" font-size="10.00">#</text>
<text text-anchor="start" x="176" y="-1155.25" font-family="Helvetica,sans-Serif" font-size="10.00">m_clients</text>
<text text-anchor="start" x="166.38" y="-1140.25" font-family="Helvetica,sans-Serif" font-size="10.00">#</text>
<text text-anchor="start" x="176" y="-1140.25" font-family="Helvetica,sans-Serif" font-size="10.00">m_clientsMutex</text>
<text text-anchor="start" x="166" y="-1125.25" font-family="Helvetica,sans-Serif" font-size="10.00">+</text>
<text text-anchor="start" x="176" y="-1125.25" font-family="Helvetica,sans-Serif" font-size="10.00">SharingEntity()</text>
<text text-anchor="start" x="166" y="-1110.25" font-family="Helvetica,sans-Serif" font-size="10.00">+</text>
<text text-anchor="start" x="176" y="-1110.25" font-family="Helvetica,sans-Serif" font-size="10.00">SharingEntity()</text>
<text text-anchor="start" x="166" y="-1095.25" font-family="Helvetica,sans-Serif" font-size="10.00">+</text>
<text text-anchor="start" x="176" y="-1095.25" font-family="Helvetica,sans-Serif" font-size="10.00">~SharingEntity()</text>
<text text-anchor="start" x="166" y="-1080.25" font-family="Helvetica,sans-Serif" font-size="10.00">+</text>
<text text-anchor="start" x="176" y="-1080.25" font-family="Helvetica,sans-Serif" font-size="10.00">importClause()</text>
<text text-anchor="start" x="166" y="-1065.25" font-family="Helvetica,sans-Serif" font-size="10.00">+</text>
<text text-anchor="start" x="176" y="-1065.25" font-family="Helvetica,sans-Serif" font-size="10.00">importClauses()</text>
<text text-anchor="start" x="166" y="-1050.25" font-family="Helvetica,sans-Serif" font-size="10.00">+</text>
<text text-anchor="start" x="176" y="-1050.25" font-family="Helvetica,sans-Serif" font-size="10.00">getSharingId()</text>
<text text-anchor="start" x="166" y="-1035.25" font-family="Helvetica,sans-Serif" font-size="10.00">+</text>
<text text-anchor="start" x="176" y="-1035.25" font-family="Helvetica,sans-Serif" font-size="10.00">setSharingId()</text>
<text text-anchor="start" x="166" y="-1020.25" font-family="Helvetica,sans-Serif" font-size="10.00">+</text>
<text text-anchor="start" x="176" y="-1020.25" font-family="Helvetica,sans-Serif" font-size="10.00">addClient()</text>
<text text-anchor="start" x="166" y="-1005.25" font-family="Helvetica,sans-Serif" font-size="10.00">+</text>
<text text-anchor="start" x="176" y="-1005.25" font-family="Helvetica,sans-Serif" font-size="10.00">removeClient()</text>
<text text-anchor="start" x="166" y="-990.25" font-family="Helvetica,sans-Serif" font-size="10.00">+</text>
<text text-anchor="start" x="176" y="-990.25" font-family="Helvetica,sans-Serif" font-size="10.00">getClientCount()</text>
<text text-anchor="start" x="166" y="-975.25" font-family="Helvetica,sans-Serif" font-size="10.00">+</text>
<text text-anchor="start" x="176" y="-975.25" font-family="Helvetica,sans-Serif" font-size="10.00">clearClients()</text>
<text text-anchor="start" x="166.38" y="-960.25" font-family="Helvetica,sans-Serif" font-size="10.00">#</text>
<text text-anchor="start" x="176" y="-960.25" font-family="Helvetica,sans-Serif" font-size="10.00">exportClauseToClient()</text>
<text text-anchor="start" x="166.38" y="-945.25" font-family="Helvetica,sans-Serif" font-size="10.00">#</text>
<text text-anchor="start" x="176" y="-945.25" font-family="Helvetica,sans-Serif" font-size="10.00">exportClause()</text>
<text text-anchor="start" x="166.38" y="-930.25" font-family="Helvetica,sans-Serif" font-size="10.00">#</text>
<text text-anchor="start" x="176" y="-930.25" font-family="Helvetica,sans-Serif" font-size="10.00">exportClauses()</text>
<polygon fill="#666666" stroke="#666666" points="162,-1166.75 162,-1166.75 278,-1166.75 278,-1166.75 162,-1166.75"/>
<polygon fill="#666666" stroke="#666666" points="162,-1136.75 162,-1136.75 174,-1136.75 174,-1136.75 162,-1136.75"/>
<polygon fill="#666666" stroke="#666666" points="174,-1136.75 174,-1136.75 278,-1136.75 278,-1136.75 174,-1136.75"/>
<polygon fill="none" stroke="#666666" points="162,-924.75 162,-1183.75 278,-1183.75 278,-924.75 162,-924.75"/>
</a>
</g>
</g>
<!-- Node4&#45;&gt;Node2 -->
<g id="edge3_Node000002_Node000004" class="edge">
<title>Node4&#45;&gt;Node2</title>
<g id="a_edge3_Node000002_Node000004"><a xlink:title=" ">
<path fill="none" stroke="#63b8ff" d="M183.74,-914.18C174.33,-880.62 163.79,-845 153,-812.25 142.45,-780.23 129.55,-745.53 117.77,-715.19"/>
<polygon fill="none" stroke="#63b8ff" points="180.29,-914.85 186.35,-923.54 187.03,-912.97 180.29,-914.85"/>
</a>
</g>
</g>
<!-- Node5 -->
<g id="Node000005" class="node">
<title>Node5</title>
<g id="a_Node000005"><a xlink:title=" ">
<polygon fill="white" stroke="none" points="284.5,-1393.25 155.5,-1393.25 155.5,-1333.25 284.5,-1333.25 284.5,-1393.25"/>
<text text-anchor="start" x="160.38" y="-1379.75" font-family="Helvetica,sans-Serif" font-size="10.00">std::enable_shared</text>
<text text-anchor="start" x="160.38" y="-1368.5" font-family="Helvetica,sans-Serif" font-size="10.00">_from_this&lt; SharingEntity &gt;</text>
<text text-anchor="start" x="218.5" y="-1353.75" font-family="Helvetica,sans-Serif" font-size="10.00"> </text>
<text text-anchor="start" x="218.5" y="-1338.75" font-family="Helvetica,sans-Serif" font-size="10.00"> </text>
<polygon fill="#bfbfbf" stroke="#bfbfbf" points="155.5,-1365.25 155.5,-1365.25 284.5,-1365.25 284.5,-1365.25 155.5,-1365.25"/>
<polygon fill="#bfbfbf" stroke="#bfbfbf" points="155.5,-1350.25 155.5,-1350.25 284.5,-1350.25 284.5,-1350.25 155.5,-1350.25"/>
<polygon fill="none" stroke="#bfbfbf" points="155.5,-1333.25 155.5,-1393.25 284.5,-1393.25 284.5,-1333.25 155.5,-1333.25"/>
</a>
</g>
</g>
<!-- Node5&#45;&gt;Node4 -->
<g id="edge4_Node000004_Node000005" class="edge">
<title>Node5&#45;&gt;Node4</title>
<g id="a_edge4_Node000004_Node000005"><a xlink:title=" ">
<path fill="none" stroke="#63b8ff" d="M220,-1322.1C220,-1286.75 220,-1233.28 220,-1183.46"/>
<polygon fill="none" stroke="#63b8ff" points="216.5,-1321.85 220,-1331.85 223.5,-1321.85 216.5,-1321.85"/>
</a>
</g>
</g>
<!-- Node6 -->
<g id="Node000006" class="node">
<title>Node6</title>
<g id="a_Node000006"><a xlink:href="classClauseBuffer.html" target="_top" xlink:title="Wrapper for boost::lockfree::queue to manage ClauseExchange objects.">
<polygon fill="white" stroke="none" points="284.5,-775.25 159.5,-775.25 159.5,-486.25 284.5,-486.25 284.5,-775.25"/>
<text text-anchor="start" x="194.25" y="-761.75" font-family="Helvetica,sans-Serif" font-size="10.00">ClauseBuffer</text>
<text text-anchor="start" x="220.5" y="-746.75" font-family="Helvetica,sans-Serif" font-size="10.00"> </text>
<text text-anchor="start" x="163.5" y="-731.75" font-family="Helvetica,sans-Serif" font-size="10.00">+</text>
<text text-anchor="start" x="173.5" y="-731.75" font-family="Helvetica,sans-Serif" font-size="10.00">ClauseBuffer()</text>
<text text-anchor="start" x="163.5" y="-716.75" font-family="Helvetica,sans-Serif" font-size="10.00">+</text>
<text text-anchor="start" x="173.5" y="-716.75" font-family="Helvetica,sans-Serif" font-size="10.00">ClauseBuffer()</text>
<text text-anchor="start" x="163.5" y="-701.75" font-family="Helvetica,sans-Serif" font-size="10.00">+</text>
<text text-anchor="start" x="173.5" y="-701.75" font-family="Helvetica,sans-Serif" font-size="10.00">ClauseBuffer()</text>
<text text-anchor="start" x="163.5" y="-686.75" font-family="Helvetica,sans-Serif" font-size="10.00">+</text>
<text text-anchor="start" x="173.5" y="-686.75" font-family="Helvetica,sans-Serif" font-size="10.00">ClauseBuffer()</text>
<text text-anchor="start" x="163.5" y="-671.75" font-family="Helvetica,sans-Serif" font-size="10.00">+</text>
<text text-anchor="start" x="173.5" y="-671.75" font-family="Helvetica,sans-Serif" font-size="10.00">operator=()</text>
<text text-anchor="start" x="163.5" y="-656.75" font-family="Helvetica,sans-Serif" font-size="10.00">+</text>
<text text-anchor="start" x="173.5" y="-656.75" font-family="Helvetica,sans-Serif" font-size="10.00">ClauseBuffer()</text>
<text text-anchor="start" x="163.5" y="-641.75" font-family="Helvetica,sans-Serif" font-size="10.00">+</text>
<text text-anchor="start" x="173.5" y="-641.75" font-family="Helvetica,sans-Serif" font-size="10.00">operator=()</text>
<text text-anchor="start" x="163.5" y="-626.75" font-family="Helvetica,sans-Serif" font-size="10.00">+</text>
<text text-anchor="start" x="173.5" y="-626.75" font-family="Helvetica,sans-Serif" font-size="10.00">~ClauseBuffer()</text>
<text text-anchor="start" x="163.5" y="-611.75" font-family="Helvetica,sans-Serif" font-size="10.00">+</text>
<text text-anchor="start" x="173.5" y="-611.75" font-family="Helvetica,sans-Serif" font-size="10.00">addClause()</text>
<text text-anchor="start" x="163.5" y="-596.75" font-family="Helvetica,sans-Serif" font-size="10.00">+</text>
<text text-anchor="start" x="173.5" y="-596.75" font-family="Helvetica,sans-Serif" font-size="10.00">addClauses()</text>
<text text-anchor="start" x="163.5" y="-581.75" font-family="Helvetica,sans-Serif" font-size="10.00">+</text>
<text text-anchor="start" x="173.5" y="-581.75" font-family="Helvetica,sans-Serif" font-size="10.00">tryAddClauseBounded()</text>
<text text-anchor="start" x="163.5" y="-566.75" font-family="Helvetica,sans-Serif" font-size="10.00">+</text>
<text text-anchor="start" x="173.5" y="-566.75" font-family="Helvetica,sans-Serif" font-size="10.00">tryAddClausesBounded()</text>
<text text-anchor="start" x="163.5" y="-551.75" font-family="Helvetica,sans-Serif" font-size="10.00">+</text>
<text text-anchor="start" x="173.5" y="-551.75" font-family="Helvetica,sans-Serif" font-size="10.00">getClause()</text>
<text text-anchor="start" x="163.5" y="-536.75" font-family="Helvetica,sans-Serif" font-size="10.00">+</text>
<text text-anchor="start" x="173.5" y="-536.75" font-family="Helvetica,sans-Serif" font-size="10.00">getClauses()</text>
<text text-anchor="start" x="163.5" y="-521.75" font-family="Helvetica,sans-Serif" font-size="10.00">+</text>
<text text-anchor="start" x="173.5" y="-521.75" font-family="Helvetica,sans-Serif" font-size="10.00">size()</text>
<text text-anchor="start" x="163.5" y="-506.75" font-family="Helvetica,sans-Serif" font-size="10.00">+</text>
<text text-anchor="start" x="173.5" y="-506.75" font-family="Helvetica,sans-Serif" font-size="10.00">clear()</text>
<text text-anchor="start" x="163.5" y="-491.75" font-family="Helvetica,sans-Serif" font-size="10.00">+</text>
<text text-anchor="start" x="173.5" y="-491.75" font-family="Helvetica,sans-Serif" font-size="10.00">empty()</text>
<polygon fill="#666666" stroke="#666666" points="159.5,-758.25 159.5,-758.25 284.5,-758.25 284.5,-758.25 159.5,-758.25"/>
<polygon fill="#666666" stroke="#666666" points="159.5,-743.25 159.5,-743.25 284.5,-743.25 284.5,-743.25 159.5,-743.25"/>
<polygon fill="none" stroke="#666666" points="159.5,-486.25 159.5,-775.25 284.5,-775.25 284.5,-486.25 159.5,-486.25"/>
</a>
</g>
</g>
<!-- Node6&#45;&gt;Node1 -->
<g id="edge5_Node000001_Node000006" class="edge">
<title>Node6&#45;&gt;Node1</title>
<g id="a_edge5_Node000001_Node000006"><a xlink:title=" ">
<path fill="none" stroke="#63b8ff" d="M209.73,-486.33C208.76,-474.99 207.77,-463.38 206.77,-451.65"/>
<polygon fill="none" stroke="#63b8ff" points="206.78,-451.73 202.28,-446.09 205.75,-439.78 210.25,-445.41 206.78,-451.73"/>
</a>
</g>
<text text-anchor="middle" x="242.51" y="-458.75" font-family="Helvetica,sans-Serif" font-size="10.00" fill="grey"> #clausesToAdd</text>
</g>
</g>
</svg>
