<?xml version="1.0" encoding="UTF-8" standalone="no"?>
<!DOCTYPE svg PUBLIC "-//W3C//DTD SVG 1.1//EN"
 "http://www.w3.org/Graphics/SVG/1.1/DTD/svg11.dtd">
<!-- Generated by graphviz version 12.1.2 (20240928.0832)
 -->
<!-- Title: KissatINCSolver Pages: 1 -->
<!--zoomable 1268 -->

<svg id="main" version="1.1" xmlns="http://www.w3.org/2000/svg" xmlns:xlink="http://www.w3.org/1999/xlink" xml:space="preserve" onload="init(evt)">

<style type="text/css"><![CDATA[
.node, .edge {opacity: 0.7;}
.node.selected, .edge.selected {opacity: 1;}
.edge:hover path { stroke: red; }
.edge:hover polygon { stroke: red; fill: red; }
]]></style>

<defs>
  <circle id="rim" cx="0" cy="0" r="7"/>
  <circle id="rim2" cx="0" cy="0" r="3.5"/>
  <g id="zoomPlus">
    <use xlink:href="#rim" fill="#404040"><set attributeName="fill" to="#808080" begin="zoomplus.mouseover" end="zoomplus.mouseout"/></use>
    <path d="M-4,0h8M0,-4v8" fill="none" stroke="white" stroke-width="1.5" pointer-events="none"/>
  </g>
  <g id="zoomMin">
    <use xlink:href="#rim" fill="#404040"><set attributeName="fill" to="#808080" begin="zoomminus.mouseover" end="zoomminus.mouseout"/></use>
    <path d="M-4,0h8" fill="none" stroke="white" stroke-width="1.5" pointer-events="none"/>
  </g>
  <g id="arrowUp" transform="translate(30 24)">
    <use xlink:href="#rim"/>
    <path pointer-events="none" fill="none" stroke="white" stroke-width="1.5" d="M0,-3.0v7 M-2.5,-0.5L0,-3.0L2.5,-0.5"/>
  </g>
  <g id="arrowRight" transform="rotate(90) translate(36 -43)">
    <use xlink:href="#rim"/>
    <path pointer-events="none" fill="none" stroke="white" stroke-width="1.5" d="M0,-3.0v7 M-2.5,-0.5L0,-3.0L2.5,-0.5"/>
  </g>
  <g id="arrowDown" transform="rotate(180) translate(-30 -48)">
    <use xlink:href="#rim"/>
    <path pointer-events="none" fill="none" stroke="white" stroke-width="1.5" d="M0,-3.0v7 M-2.5,-0.5L0,-3.0L2.5,-0.5"/>
  </g>
  <g id="arrowLeft" transform="rotate(270) translate(-36 17)">
    <use xlink:href="#rim"/>
    <path pointer-events="none" fill="none" stroke="white" stroke-width="1.5" d="M0,-3.0v7 M-2.5,-0.5L0,-3.0L2.5,-0.5"/>
  </g>
  <g id="resetDef">
    <use xlink:href="#rim2" fill="#404040"><set attributeName="fill" to="#808080" begin="reset.mouseover" end="reset.mouseout"/></use>
  </g>
</defs>
<script type="application/ecmascript">
var viewWidth = 293;
var viewHeight = 1268;
var sectionId = 'dynsection-0';
</script>
<script type="application/ecmascript" xlink:href="svg.min.js"/>
<svg id="graph" class="graph">
<g id="viewport">
<title>KissatINCSolver</title>
<!-- Node1 -->
<g id="Node000001" class="node">
<title>Node1</title>
<g id="a_Node000001"><a xlink:title="Instance of a KissatINCSolver solver.">
<polygon fill="#999999" stroke="none" points="203.5,-439 88.5,-439 88.5,0 203.5,0 203.5,-439"/>
<text text-anchor="start" x="109.62" y="-425.5" font-family="Helvetica,sans-Serif" font-size="10.00">KissatINCSolver</text>
<text text-anchor="start" x="92.88" y="-410.5" font-family="Helvetica,sans-Serif" font-size="10.00">#</text>
<text text-anchor="start" x="102.5" y="-410.5" font-family="Helvetica,sans-Serif" font-size="10.00">bump_var</text>
<text text-anchor="start" x="92.88" y="-395.5" font-family="Helvetica,sans-Serif" font-size="10.00">#</text>
<text text-anchor="start" x="102.5" y="-395.5" font-family="Helvetica,sans-Serif" font-size="10.00">solver</text>
<text text-anchor="start" x="92.88" y="-380.5" font-family="Helvetica,sans-Serif" font-size="10.00">#</text>
<text text-anchor="start" x="102.5" y="-380.5" font-family="Helvetica,sans-Serif" font-size="10.00">family</text>
<text text-anchor="start" x="92.88" y="-365.5" font-family="Helvetica,sans-Serif" font-size="10.00">#</text>
<text text-anchor="start" x="102.5" y="-365.5" font-family="Helvetica,sans-Serif" font-size="10.00">clausesToAdd</text>
<text text-anchor="start" x="92.88" y="-350.5" font-family="Helvetica,sans-Serif" font-size="10.00">#</text>
<text text-anchor="start" x="102.5" y="-350.5" font-family="Helvetica,sans-Serif" font-size="10.00">stopSolver</text>
<text text-anchor="start" x="92.5" y="-335.5" font-family="Helvetica,sans-Serif" font-size="10.00">+</text>
<text text-anchor="start" x="102.5" y="-335.5" font-family="Helvetica,sans-Serif" font-size="10.00">setBumpVar()</text>
<text text-anchor="start" x="92.5" y="-320.5" font-family="Helvetica,sans-Serif" font-size="10.00">+</text>
<text text-anchor="start" x="102.5" y="-320.5" font-family="Helvetica,sans-Serif" font-size="10.00">loadFormula()</text>
<text text-anchor="start" x="92.5" y="-305.5" font-family="Helvetica,sans-Serif" font-size="10.00">+</text>
<text text-anchor="start" x="102.5" y="-305.5" font-family="Helvetica,sans-Serif" font-size="10.00">getVariablesCount()</text>
<text text-anchor="start" x="92.5" y="-290.5" font-family="Helvetica,sans-Serif" font-size="10.00">+</text>
<text text-anchor="start" x="102.5" y="-290.5" font-family="Helvetica,sans-Serif" font-size="10.00">getDivisionVariable()</text>
<text text-anchor="start" x="92.5" y="-275.5" font-family="Helvetica,sans-Serif" font-size="10.00">+</text>
<text text-anchor="start" x="102.5" y="-275.5" font-family="Helvetica,sans-Serif" font-size="10.00">setPhase()</text>
<text text-anchor="start" x="92.5" y="-260.5" font-family="Helvetica,sans-Serif" font-size="10.00">+</text>
<text text-anchor="start" x="102.5" y="-260.5" font-family="Helvetica,sans-Serif" font-size="10.00">bumpVariableActivity()</text>
<text text-anchor="start" x="92.5" y="-245.5" font-family="Helvetica,sans-Serif" font-size="10.00">+</text>
<text text-anchor="start" x="102.5" y="-245.5" font-family="Helvetica,sans-Serif" font-size="10.00">setSolverInterrupt()</text>
<text text-anchor="start" x="92.5" y="-230.5" font-family="Helvetica,sans-Serif" font-size="10.00">+</text>
<text text-anchor="start" x="102.5" y="-230.5" font-family="Helvetica,sans-Serif" font-size="10.00">unsetSolverInterrupt()</text>
<text text-anchor="start" x="92.5" y="-215.5" font-family="Helvetica,sans-Serif" font-size="10.00">+</text>
<text text-anchor="start" x="102.5" y="-215.5" font-family="Helvetica,sans-Serif" font-size="10.00">solve()</text>
<text text-anchor="start" x="92.5" y="-200.5" font-family="Helvetica,sans-Serif" font-size="10.00">+</text>
<text text-anchor="start" x="102.5" y="-200.5" font-family="Helvetica,sans-Serif" font-size="10.00">addClause()</text>
<text text-anchor="start" x="92.5" y="-185.5" font-family="Helvetica,sans-Serif" font-size="10.00">+</text>
<text text-anchor="start" x="102.5" y="-185.5" font-family="Helvetica,sans-Serif" font-size="10.00">addClauses()</text>
<text text-anchor="start" x="92.5" y="-170.5" font-family="Helvetica,sans-Serif" font-size="10.00">+</text>
<text text-anchor="start" x="102.5" y="-170.5" font-family="Helvetica,sans-Serif" font-size="10.00">addInitialClauses()</text>
<text text-anchor="start" x="92.5" y="-155.5" font-family="Helvetica,sans-Serif" font-size="10.00">+</text>
<text text-anchor="start" x="102.5" y="-155.5" font-family="Helvetica,sans-Serif" font-size="10.00">importClause()</text>
<text text-anchor="start" x="92.5" y="-140.5" font-family="Helvetica,sans-Serif" font-size="10.00">+</text>
<text text-anchor="start" x="102.5" y="-140.5" font-family="Helvetica,sans-Serif" font-size="10.00">importClauses()</text>
<text text-anchor="start" x="92.5" y="-125.5" font-family="Helvetica,sans-Serif" font-size="10.00">+</text>
<text text-anchor="start" x="102.5" y="-125.5" font-family="Helvetica,sans-Serif" font-size="10.00">printStatistics()</text>
<text text-anchor="start" x="92.5" y="-110.5" font-family="Helvetica,sans-Serif" font-size="10.00">+</text>
<text text-anchor="start" x="102.5" y="-110.5" font-family="Helvetica,sans-Serif" font-size="10.00">printWinningLog()</text>
<text text-anchor="start" x="92.5" y="-95.5" font-family="Helvetica,sans-Serif" font-size="10.00">+</text>
<text text-anchor="start" x="102.5" y="-95.5" font-family="Helvetica,sans-Serif" font-size="10.00">setFamily()</text>
<text text-anchor="start" x="92.5" y="-80.5" font-family="Helvetica,sans-Serif" font-size="10.00">+</text>
<text text-anchor="start" x="102.5" y="-80.5" font-family="Helvetica,sans-Serif" font-size="10.00">getModel()</text>
<text text-anchor="start" x="92.5" y="-65.5" font-family="Helvetica,sans-Serif" font-size="10.00">+</text>
<text text-anchor="start" x="102.5" y="-65.5" font-family="Helvetica,sans-Serif" font-size="10.00">diversify()</text>
<text text-anchor="start" x="92.5" y="-50.5" font-family="Helvetica,sans-Serif" font-size="10.00">+</text>
<text text-anchor="start" x="102.5" y="-50.5" font-family="Helvetica,sans-Serif" font-size="10.00">KissatINCSolver()</text>
<text text-anchor="start" x="92.5" y="-35.5" font-family="Helvetica,sans-Serif" font-size="10.00">+</text>
<text text-anchor="start" x="102.5" y="-35.5" font-family="Helvetica,sans-Serif" font-size="10.00">~KissatINCSolver()</text>
<text text-anchor="start" x="92.5" y="-20.5" font-family="Helvetica,sans-Serif" font-size="10.00">+</text>
<text text-anchor="start" x="102.5" y="-20.5" font-family="Helvetica,sans-Serif" font-size="10.00">getFinalAnalysis()</text>
<text text-anchor="start" x="92.5" y="-5.5" font-family="Helvetica,sans-Serif" font-size="10.00">+</text>
<text text-anchor="start" x="102.5" y="-5.5" font-family="Helvetica,sans-Serif" font-size="10.00">getSatAssumptions()</text>
<polygon fill="#666666" stroke="#666666" points="88.5,-422 88.5,-422 203.5,-422 203.5,-422 88.5,-422"/>
<polygon fill="#666666" stroke="#666666" points="88.5,-347 88.5,-347 100.5,-347 100.5,-347 88.5,-347"/>
<polygon fill="#666666" stroke="#666666" points="100.5,-347 100.5,-347 203.5,-347 203.5,-347 100.5,-347"/>
<polygon fill="none" stroke="#666666" points="88.5,0 88.5,-439 203.5,-439 203.5,0 88.5,0"/>
</a>
</g>
</g>
<!-- Node2 -->
<g id="Node000002" class="node">
<title>Node2</title>
<g id="a_Node000002"><a xlink:href="classSolverCdclInterface.html" target="_top" xlink:title="Interface for CDCL (Conflict&#45;Driven Clause Learning) solvers This class provides a common interface f...">
<polygon fill="white" stroke="none" points="203.5,-644 88.5,-644 88.5,-475 203.5,-475 203.5,-644"/>
<text text-anchor="start" x="103.25" y="-630.5" font-family="Helvetica,sans-Serif" font-size="10.00">SolverCdclInterface</text>
<text text-anchor="start" x="92.5" y="-615.5" font-family="Helvetica,sans-Serif" font-size="10.00">+</text>
<text text-anchor="start" x="102.5" y="-615.5" font-family="Helvetica,sans-Serif" font-size="10.00">m_cdclType</text>
<text text-anchor="start" x="92.88" y="-600.5" font-family="Helvetica,sans-Serif" font-size="10.00">#</text>
<text text-anchor="start" x="102.5" y="-600.5" font-family="Helvetica,sans-Serif" font-size="10.00">m_clausesToImport</text>
<text text-anchor="start" x="92.5" y="-585.5" font-family="Helvetica,sans-Serif" font-size="10.00">+</text>
<text text-anchor="start" x="102.5" y="-585.5" font-family="Helvetica,sans-Serif" font-size="10.00">setPhase()</text>
<text text-anchor="start" x="92.5" y="-570.5" font-family="Helvetica,sans-Serif" font-size="10.00">+</text>
<text text-anchor="start" x="102.5" y="-570.5" font-family="Helvetica,sans-Serif" font-size="10.00">bumpVariableActivity()</text>
<text text-anchor="start" x="92.5" y="-555.5" font-family="Helvetica,sans-Serif" font-size="10.00">+</text>
<text text-anchor="start" x="102.5" y="-555.5" font-family="Helvetica,sans-Serif" font-size="10.00">getFinalAnalysis()</text>
<text text-anchor="start" x="92.5" y="-540.5" font-family="Helvetica,sans-Serif" font-size="10.00">+</text>
<text text-anchor="start" x="102.5" y="-540.5" font-family="Helvetica,sans-Serif" font-size="10.00">getSatAssumptions()</text>
<text text-anchor="start" x="92.5" y="-525.5" font-family="Helvetica,sans-Serif" font-size="10.00">+</text>
<text text-anchor="start" x="102.5" y="-525.5" font-family="Helvetica,sans-Serif" font-size="10.00">printWinningLog()</text>
<text text-anchor="start" x="92.5" y="-510.5" font-family="Helvetica,sans-Serif" font-size="10.00">+</text>
<text text-anchor="start" x="102.5" y="-510.5" font-family="Helvetica,sans-Serif" font-size="10.00">getSolverType()</text>
<text text-anchor="start" x="92.5" y="-495.5" font-family="Helvetica,sans-Serif" font-size="10.00">+</text>
<text text-anchor="start" x="102.5" y="-495.5" font-family="Helvetica,sans-Serif" font-size="10.00">SolverCdclInterface()</text>
<text text-anchor="start" x="92.5" y="-480.5" font-family="Helvetica,sans-Serif" font-size="10.00">+</text>
<text text-anchor="start" x="102.5" y="-480.5" font-family="Helvetica,sans-Serif" font-size="10.00">~SolverCdclInterface()</text>
<polygon fill="#666666" stroke="#666666" points="88.5,-627 88.5,-627 203.5,-627 203.5,-627 88.5,-627"/>
<polygon fill="#666666" stroke="#666666" points="88.5,-597 88.5,-597 100.5,-597 100.5,-597 88.5,-597"/>
<polygon fill="#666666" stroke="#666666" points="100.5,-597 100.5,-597 203.5,-597 203.5,-597 100.5,-597"/>
<polygon fill="none" stroke="#666666" points="88.5,-475 88.5,-644 203.5,-644 203.5,-475 88.5,-475"/>
</a>
</g>
</g>
<!-- Node2&#45;&gt;Node1 -->
<g id="edge1_Node000001_Node000002" class="edge">
<title>Node2&#45;&gt;Node1</title>
<g id="a_edge1_Node000001_Node000002"><a xlink:title=" ">
<path fill="none" stroke="#63b8ff" d="M146,-464.09C146,-455.96 146,-447.53 146,-438.93"/>
<polygon fill="none" stroke="#63b8ff" points="142.5,-463.87 146,-473.87 149.5,-463.87 142.5,-463.87"/>
</a>
</g>
</g>
<!-- Node3 -->
<g id="Node000003" class="node">
<title>Node3</title>
<g id="a_Node000003"><a xlink:href="classSolverInterface.html" target="_top" xlink:title="Interface for a SAT solver with standard features.">
<polygon fill="white" stroke="none" points="144,-1164 0,-1164 0,-680 144,-680 144,-1164"/>
<text text-anchor="start" x="39" y="-1150.5" font-family="Helvetica,sans-Serif" font-size="10.00">SolverInterface</text>
<text text-anchor="start" x="4.38" y="-1135.5" font-family="Helvetica,sans-Serif" font-size="10.00">#</text>
<text text-anchor="start" x="14" y="-1135.5" font-family="Helvetica,sans-Serif" font-size="10.00">m_algoType</text>
<text text-anchor="start" x="4.38" y="-1120.5" font-family="Helvetica,sans-Serif" font-size="10.00">#</text>
<text text-anchor="start" x="14" y="-1120.5" font-family="Helvetica,sans-Serif" font-size="10.00">m_initialized</text>
<text text-anchor="start" x="4.38" y="-1105.5" font-family="Helvetica,sans-Serif" font-size="10.00">#</text>
<text text-anchor="start" x="14" y="-1105.5" font-family="Helvetica,sans-Serif" font-size="10.00">m_solverTypeId</text>
<text text-anchor="start" x="4.38" y="-1090.5" font-family="Helvetica,sans-Serif" font-size="10.00">#</text>
<text text-anchor="start" x="14" y="-1090.5" font-family="Helvetica,sans-Serif" font-size="10.00">m_solverId</text>
<text text-anchor="start" x="4.38" y="-1075.5" font-family="Helvetica,sans-Serif" font-size="10.00">#</text>
<text text-anchor="start" x="14" y="-1075.5" font-family="Helvetica,sans-Serif" font-size="10.00">s_instanceCounts</text>
<text text-anchor="start" x="4" y="-1060.5" font-family="Helvetica,sans-Serif" font-size="10.00">+</text>
<text text-anchor="start" x="14" y="-1060.5" font-family="Helvetica,sans-Serif" font-size="10.00">getVariablesCount()</text>
<text text-anchor="start" x="4" y="-1045.5" font-family="Helvetica,sans-Serif" font-size="10.00">+</text>
<text text-anchor="start" x="14" y="-1045.5" font-family="Helvetica,sans-Serif" font-size="10.00">getDivisionVariable()</text>
<text text-anchor="start" x="4" y="-1030.5" font-family="Helvetica,sans-Serif" font-size="10.00">+</text>
<text text-anchor="start" x="14" y="-1030.5" font-family="Helvetica,sans-Serif" font-size="10.00">setSolverInterrupt()</text>
<text text-anchor="start" x="4" y="-1015.5" font-family="Helvetica,sans-Serif" font-size="10.00">+</text>
<text text-anchor="start" x="14" y="-1015.5" font-family="Helvetica,sans-Serif" font-size="10.00">unsetSolverInterrupt()</text>
<text text-anchor="start" x="4" y="-1000.5" font-family="Helvetica,sans-Serif" font-size="10.00">+</text>
<text text-anchor="start" x="14" y="-1000.5" font-family="Helvetica,sans-Serif" font-size="10.00">printWinningLog()</text>
<text text-anchor="start" x="4" y="-985.5" font-family="Helvetica,sans-Serif" font-size="10.00">+</text>
<text text-anchor="start" x="14" y="-985.5" font-family="Helvetica,sans-Serif" font-size="10.00">solve()</text>
<text text-anchor="start" x="4" y="-970.5" font-family="Helvetica,sans-Serif" font-size="10.00">+</text>
<text text-anchor="start" x="14" y="-970.5" font-family="Helvetica,sans-Serif" font-size="10.00">addClause()</text>
<text text-anchor="start" x="4" y="-955.5" font-family="Helvetica,sans-Serif" font-size="10.00">+</text>
<text text-anchor="start" x="14" y="-955.5" font-family="Helvetica,sans-Serif" font-size="10.00">addClauses()</text>
<text text-anchor="start" x="4" y="-940.5" font-family="Helvetica,sans-Serif" font-size="10.00">+</text>
<text text-anchor="start" x="14" y="-940.5" font-family="Helvetica,sans-Serif" font-size="10.00">addInitialClauses()</text>
<text text-anchor="start" x="4" y="-925.5" font-family="Helvetica,sans-Serif" font-size="10.00">+</text>
<text text-anchor="start" x="14" y="-925.5" font-family="Helvetica,sans-Serif" font-size="10.00">loadFormula()</text>
<text text-anchor="start" x="4" y="-910.5" font-family="Helvetica,sans-Serif" font-size="10.00">+</text>
<text text-anchor="start" x="14" y="-910.5" font-family="Helvetica,sans-Serif" font-size="10.00">printStatistics()</text>
<text text-anchor="start" x="4" y="-895.5" font-family="Helvetica,sans-Serif" font-size="10.00">+</text>
<text text-anchor="start" x="14" y="-895.5" font-family="Helvetica,sans-Serif" font-size="10.00">getModel()</text>
<text text-anchor="start" x="4" y="-880.5" font-family="Helvetica,sans-Serif" font-size="10.00">+</text>
<text text-anchor="start" x="14" y="-880.5" font-family="Helvetica,sans-Serif" font-size="10.00">printParameters()</text>
<text text-anchor="start" x="4" y="-865.5" font-family="Helvetica,sans-Serif" font-size="10.00">+</text>
<text text-anchor="start" x="14" y="-865.5" font-family="Helvetica,sans-Serif" font-size="10.00">diversify()</text>
<text text-anchor="start" x="4" y="-850.5" font-family="Helvetica,sans-Serif" font-size="10.00">+</text>
<text text-anchor="start" x="14" y="-850.5" font-family="Helvetica,sans-Serif" font-size="10.00">isInitialized()</text>
<text text-anchor="start" x="4" y="-835.5" font-family="Helvetica,sans-Serif" font-size="10.00">+</text>
<text text-anchor="start" x="14" y="-835.5" font-family="Helvetica,sans-Serif" font-size="10.00">setInitialized()</text>
<text text-anchor="start" x="4" y="-820.5" font-family="Helvetica,sans-Serif" font-size="10.00">+</text>
<text text-anchor="start" x="14" y="-820.5" font-family="Helvetica,sans-Serif" font-size="10.00">getAlgoType()</text>
<text text-anchor="start" x="4" y="-805.5" font-family="Helvetica,sans-Serif" font-size="10.00">+</text>
<text text-anchor="start" x="14" y="-805.5" font-family="Helvetica,sans-Serif" font-size="10.00">getSolverTypeId()</text>
<text text-anchor="start" x="4" y="-790.5" font-family="Helvetica,sans-Serif" font-size="10.00">+</text>
<text text-anchor="start" x="14" y="-790.5" font-family="Helvetica,sans-Serif" font-size="10.00">setSolverTypeId()</text>
<text text-anchor="start" x="4" y="-775.5" font-family="Helvetica,sans-Serif" font-size="10.00">+</text>
<text text-anchor="start" x="14" y="-775.5" font-family="Helvetica,sans-Serif" font-size="10.00">getSolverId()</text>
<text text-anchor="start" x="4" y="-760.5" font-family="Helvetica,sans-Serif" font-size="10.00">+</text>
<text text-anchor="start" x="14" y="-760.5" font-family="Helvetica,sans-Serif" font-size="10.00">setSolverId()</text>
<text text-anchor="start" x="4" y="-745.5" font-family="Helvetica,sans-Serif" font-size="10.00">+</text>
<text text-anchor="start" x="14" y="-745.5" font-family="Helvetica,sans-Serif" font-size="10.00">getSolverTypeCount()</text>
<text text-anchor="start" x="4" y="-730.5" font-family="Helvetica,sans-Serif" font-size="10.00">+</text>
<text text-anchor="start" x="14" y="-730.5" font-family="Helvetica,sans-Serif" font-size="10.00">SolverInterface()</text>
<text text-anchor="start" x="4" y="-715.5" font-family="Helvetica,sans-Serif" font-size="10.00">+</text>
<text text-anchor="start" x="14" y="-715.5" font-family="Helvetica,sans-Serif" font-size="10.00">~SolverInterface()</text>
<text text-anchor="start" x="4.38" y="-700.5" font-family="Helvetica,sans-Serif" font-size="10.00">#</text>
<text text-anchor="start" x="14" y="-700.5" font-family="Helvetica,sans-Serif" font-size="10.00">initializeTypeId()</text>
<text text-anchor="start" x="4.38" y="-685.5" font-family="Helvetica,sans-Serif" font-size="10.00">#</text>
<text text-anchor="start" x="14" y="-685.5" font-family="Helvetica,sans-Serif" font-size="10.00">getAndIncrementTypeCount()</text>
<polygon fill="#666666" stroke="#666666" points="0,-1147 0,-1147 144,-1147 144,-1147 0,-1147"/>
<polygon fill="#666666" stroke="#666666" points="0,-1072 0,-1072 12,-1072 12,-1072 0,-1072"/>
<polygon fill="#666666" stroke="#666666" points="12,-1072 12,-1072 144,-1072 144,-1072 12,-1072"/>
<polygon fill="none" stroke="#666666" points="0,-680 0,-1164 144,-1164 144,-680 0,-680"/>
</a>
</g>
</g>
<!-- Node3&#45;&gt;Node2 -->
<g id="edge2_Node000002_Node000003" class="edge">
<title>Node3&#45;&gt;Node2</title>
<g id="a_edge2_Node000002_Node000003"><a xlink:title=" ">
<path fill="none" stroke="#63b8ff" d="M123.74,-668.93C125.52,-660.27 127.24,-651.87 128.89,-643.84"/>
<polygon fill="none" stroke="#63b8ff" points="120.35,-668.06 121.77,-678.56 127.21,-669.47 120.35,-668.06"/>
</a>
</g>
</g>
<!-- Node4 -->
<g id="Node000004" class="node">
<title>Node4</title>
<g id="a_Node000004"><a xlink:href="classSharingEntity.html" target="_top" xlink:title="A base class representing entities that can exchange clauses between themselves.">
<polygon fill="white" stroke="none" points="278,-1051.5 162,-1051.5 162,-792.5 278,-792.5 278,-1051.5"/>
<text text-anchor="start" x="191.5" y="-1038" font-family="Helvetica,sans-Serif" font-size="10.00">SharingEntity</text>
<text text-anchor="start" x="166.38" y="-1023" font-family="Helvetica,sans-Serif" font-size="10.00">#</text>
<text text-anchor="start" x="176" y="-1023" font-family="Helvetica,sans-Serif" font-size="10.00">m_clients</text>
<text text-anchor="start" x="166.38" y="-1008" font-family="Helvetica,sans-Serif" font-size="10.00">#</text>
<text text-anchor="start" x="176" y="-1008" font-family="Helvetica,sans-Serif" font-size="10.00">m_clientsMutex</text>
<text text-anchor="start" x="166" y="-993" font-family="Helvetica,sans-Serif" font-size="10.00">+</text>
<text text-anchor="start" x="176" y="-993" font-family="Helvetica,sans-Serif" font-size="10.00">SharingEntity()</text>
<text text-anchor="start" x="166" y="-978" font-family="Helvetica,sans-Serif" font-size="10.00">+</text>
<text text-anchor="start" x="176" y="-978" font-family="Helvetica,sans-Serif" font-size="10.00">SharingEntity()</text>
<text text-anchor="start" x="166" y="-963" font-family="Helvetica,sans-Serif" font-size="10.00">+</text>
<text text-anchor="start" x="176" y="-963" font-family="Helvetica,sans-Serif" font-size="10.00">~SharingEntity()</text>
<text text-anchor="start" x="166" y="-948" font-family="Helvetica,sans-Serif" font-size="10.00">+</text>
<text text-anchor="start" x="176" y="-948" font-family="Helvetica,sans-Serif" font-size="10.00">importClause()</text>
<text text-anchor="start" x="166" y="-933" font-family="Helvetica,sans-Serif" font-size="10.00">+</text>
<text text-anchor="start" x="176" y="-933" font-family="Helvetica,sans-Serif" font-size="10.00">importClauses()</text>
<text text-anchor="start" x="166" y="-918" font-family="Helvetica,sans-Serif" font-size="10.00">+</text>
<text text-anchor="start" x="176" y="-918" font-family="Helvetica,sans-Serif" font-size="10.00">getSharingId()</text>
<text text-anchor="start" x="166" y="-903" font-family="Helvetica,sans-Serif" font-size="10.00">+</text>
<text text-anchor="start" x="176" y="-903" font-family="Helvetica,sans-Serif" font-size="10.00">setSharingId()</text>
<text text-anchor="start" x="166" y="-888" font-family="Helvetica,sans-Serif" font-size="10.00">+</text>
<text text-anchor="start" x="176" y="-888" font-family="Helvetica,sans-Serif" font-size="10.00">addClient()</text>
<text text-anchor="start" x="166" y="-873" font-family="Helvetica,sans-Serif" font-size="10.00">+</text>
<text text-anchor="start" x="176" y="-873" font-family="Helvetica,sans-Serif" font-size="10.00">removeClient()</text>
<text text-anchor="start" x="166" y="-858" font-family="Helvetica,sans-Serif" font-size="10.00">+</text>
<text text-anchor="start" x="176" y="-858" font-family="Helvetica,sans-Serif" font-size="10.00">getClientCount()</text>
<text text-anchor="start" x="166" y="-843" font-family="Helvetica,sans-Serif" font-size="10.00">+</text>
<text text-anchor="start" x="176" y="-843" font-family="Helvetica,sans-Serif" font-size="10.00">clearClients()</text>
<text text-anchor="start" x="166.38" y="-828" font-family="Helvetica,sans-Serif" font-size="10.00">#</text>
<text text-anchor="start" x="176" y="-828" font-family="Helvetica,sans-Serif" font-size="10.00">exportClauseToClient()</text>
<text text-anchor="start" x="166.38" y="-813" font-family="Helvetica,sans-Serif" font-size="10.00">#</text>
<text text-anchor="start" x="176" y="-813" font-family="Helvetica,sans-Serif" font-size="10.00">exportClause()</text>
<text text-anchor="start" x="166.38" y="-798" font-family="Helvetica,sans-Serif" font-size="10.00">#</text>
<text text-anchor="start" x="176" y="-798" font-family="Helvetica,sans-Serif" font-size="10.00">exportClauses()</text>
<polygon fill="#666666" stroke="#666666" points="162,-1034.5 162,-1034.5 278,-1034.5 278,-1034.5 162,-1034.5"/>
<polygon fill="#666666" stroke="#666666" points="162,-1004.5 162,-1004.5 174,-1004.5 174,-1004.5 162,-1004.5"/>
<polygon fill="#666666" stroke="#666666" points="174,-1004.5 174,-1004.5 278,-1004.5 278,-1004.5 174,-1004.5"/>
<polygon fill="none" stroke="#666666" points="162,-792.5 162,-1051.5 278,-1051.5 278,-792.5 162,-792.5"/>
</a>
</g>
</g>
<!-- Node4&#45;&gt;Node2 -->
<g id="edge3_Node000002_Node000004" class="edge">
<title>Node4&#45;&gt;Node2</title>
<g id="a_edge3_Node000002_Node000004"><a xlink:title=" ">
<path fill="none" stroke="#63b8ff" d="M191.37,-781.53C181.83,-735.04 171.5,-684.74 163.12,-643.88"/>
<polygon fill="none" stroke="#63b8ff" points="187.91,-782.06 193.35,-791.15 194.76,-780.65 187.91,-782.06"/>
</a>
</g>
</g>
<!-- Node5 -->
<g id="Node000005" class="node">
<title>Node5</title>
<g id="a_Node000005"><a xlink:title=" ">
<polygon fill="white" stroke="none" points="284.5,-1260 155.5,-1260 155.5,-1200 284.5,-1200 284.5,-1260"/>
<text text-anchor="start" x="160.38" y="-1246.5" font-family="Helvetica,sans-Serif" font-size="10.00">std::enable_shared</text>
<text text-anchor="start" x="160.38" y="-1235.25" font-family="Helvetica,sans-Serif" font-size="10.00">_from_this&lt; SharingEntity &gt;</text>
<text text-anchor="start" x="218.5" y="-1220.5" font-family="Helvetica,sans-Serif" font-size="10.00"> </text>
<text text-anchor="start" x="218.5" y="-1205.5" font-family="Helvetica,sans-Serif" font-size="10.00"> </text>
<polygon fill="#bfbfbf" stroke="#bfbfbf" points="155.5,-1232 155.5,-1232 284.5,-1232 284.5,-1232 155.5,-1232"/>
<polygon fill="#bfbfbf" stroke="#bfbfbf" points="155.5,-1217 155.5,-1217 284.5,-1217 284.5,-1217 155.5,-1217"/>
<polygon fill="none" stroke="#bfbfbf" points="155.5,-1200 155.5,-1260 284.5,-1260 284.5,-1200 155.5,-1200"/>
</a>
</g>
</g>
<!-- Node5&#45;&gt;Node4 -->
<g id="edge4_Node000004_Node000005" class="edge">
<title>Node5&#45;&gt;Node4</title>
<g id="a_edge4_Node000004_Node000005"><a xlink:title=" ">
<path fill="none" stroke="#63b8ff" d="M220,-1189.01C220,-1153.86 220,-1100.72 220,-1051.15"/>
<polygon fill="none" stroke="#63b8ff" points="216.5,-1188.7 220,-1198.7 223.5,-1188.7 216.5,-1188.7"/>
</a>
</g>
</g>
</g>
</svg>

<g id="navigator" transform="translate(0 0)" fill="#404254">
  <rect fill="#f2f5e9" fill-opacity="0.5" stroke="#606060" stroke-width=".5" x="0" y="0" width="60" height="60"/>
  <use id="zoomplus" xlink:href="#zoomPlus" x="17" y="9" onmousedown="handleZoom(evt,'in')"/>
  <use id="zoomminus" xlink:href="#zoomMin" x="42" y="9" onmousedown="handleZoom(evt,'out')"/>
  <use id="reset" xlink:href="#resetDef" x="30" y="36" onmousedown="handleReset()"/>
   <use id="arrowup" xlink:href="#arrowUp" x="0" y="0" onmousedown="handlePan(0,-1)"/>
  <use id="arrowright" xlink:href="#arrowRight" x="0" y="0" onmousedown="handlePan(1,0)"/>
  <use id="arrowdown" xlink:href="#arrowDown" x="0" y="0" onmousedown="handlePan(0,1)"/>
  <use id="arrowleft" xlink:href="#arrowLeft" x="0" y="0" onmousedown="handlePan(-1,0)"/>
</g>
<svg viewBox="0 0 15 15" width="100%" height="30px" preserveAspectRatio="xMaxYMin meet">
 <g id="arrow_out" transform="scale(0.3 0.3)">
  <a xlink:href="classKissatINCSolver__inherit__graph_org.svg" target="_base">
   <rect id="button" ry="5" rx="5" y="6" x="6" height="38" width="38"
        fill="#f2f5e9" fill-opacity="0.5" stroke="#606060" stroke-width="1.0"/>
   <path id="arrow"
     d="M 11.500037,31.436501 C 11.940474,20.09759 22.043105,11.32322 32.158766,21.979434 L 37.068811,17.246167 C 37.068811,17.246167 37.088388,32 37.088388,32 L 22.160133,31.978069 C 22.160133,31.978069 26.997745,27.140456 26.997745,27.140456 C 18.528582,18.264221 13.291696,25.230495 11.500037,31.436501 z"
     style="fill:#404040;"/>
  </a>
 </g>
</svg>

<style type='text/css'>
<![CDATA[
[data-mouse-over-selected='false'] { opacity: 0.7; }
[data-mouse-over-selected='true']  { opacity: 1.0; }
]]>
</style>
<script type="application/ecmascript"><![CDATA[
document.addEventListener('DOMContentLoaded', (event) => {
  highlightEdges();
  highlightAdjacentNodes();
});
]]></script>
</svg>
