<?xml version="1.0" encoding="UTF-8" standalone="no"?>
<!DOCTYPE svg PUBLIC "-//W3C//DTD SVG 1.1//EN"
 "http://www.w3.org/Graphics/SVG/1.1/DTD/svg11.dtd">
<!-- Generated by graphviz version 12.1.2 (20240928.0832)
 -->
<!-- Title: Parsers::ClauseProcessor Pages: 1 -->
<svg width="368pt" height="217pt"
 viewBox="0.00 0.00 367.50 217.00" xmlns="http://www.w3.org/2000/svg" xmlns:xlink="http://www.w3.org/1999/xlink">

<svg id="main" version="1.1" xmlns="http://www.w3.org/2000/svg" xmlns:xlink="http://www.w3.org/1999/xlink" xml:space="preserve">

<style type="text/css"><![CDATA[
.node, .edge {opacity: 0.7;}
.node.selected, .edge.selected {opacity: 1;}
.edge:hover path { stroke: red; }
.edge:hover polygon { stroke: red; fill: red; }
]]></style>
<script type="application/ecmascript" xlink:href="svg.min.js"/>
<svg id="graph" class="graph">
<g id="graph0" class="graph" transform="scale(1 1) rotate(0) translate(4 213)">
<title>Parsers::ClauseProcessor</title>
<!-- Node1 -->
<g id="Node000001" class="node">
<title>Node1</title>
<g id="a_Node000001"><a xlink:title="Abstract base class for clause processors.">
<polygon fill="#999999" stroke="none" points="246.5,-209 124.5,-209 124.5,-115 246.5,-115 246.5,-209"/>
<text text-anchor="start" x="129.25" y="-195.5" font-family="Helvetica,sans-Serif" font-size="10.00">Parsers::ClauseProcessor</text>
<text text-anchor="start" x="184" y="-180.5" font-family="Helvetica,sans-Serif" font-size="10.00"> </text>
<text text-anchor="start" x="133" y="-165.5" font-family="Helvetica,sans-Serif" font-size="10.00">+</text>
<text text-anchor="start" x="147.5" y="-165.5" font-family="Helvetica,sans-Serif" font-size="10.00">ClauseProcessor()</text>
<text text-anchor="start" x="133" y="-150.5" font-family="Helvetica,sans-Serif" font-size="10.00">+</text>
<text text-anchor="start" x="147.5" y="-150.5" font-family="Helvetica,sans-Serif" font-size="10.00">initMembers()</text>
<text text-anchor="start" x="133" y="-135.5" font-family="Helvetica,sans-Serif" font-size="10.00">+</text>
<text text-anchor="start" x="147.5" y="-135.5" font-family="Helvetica,sans-Serif" font-size="10.00">operator()()</text>
<text text-anchor="start" x="133" y="-120.5" font-family="Helvetica,sans-Serif" font-size="10.00">+</text>
<text text-anchor="start" x="147.5" y="-120.5" font-family="Helvetica,sans-Serif" font-size="10.00">~ClauseProcessor()</text>
<polygon fill="#666666" stroke="#666666" points="124.5,-192 124.5,-192 246.5,-192 246.5,-192 124.5,-192"/>
<polygon fill="#666666" stroke="#666666" points="124.5,-177 124.5,-177 246.5,-177 246.5,-177 124.5,-177"/>
<polygon fill="none" stroke="#666666" points="124.5,-115 124.5,-209 246.5,-209 246.5,-115 124.5,-115"/>
</a>
</g>
</g>
<!-- Node2 -->
<g id="Node000002" class="node">
<title>Node2</title>
<g id="a_Node000002"><a xlink:href="classParsers_1_1RedundancyFilter.html" target="_top" xlink:title="Filter for removing redundant clauses.">
<polygon fill="white" stroke="none" points="123,-71.5 0,-71.5 0,-7.5 123,-7.5 123,-71.5"/>
<text text-anchor="start" x="4.88" y="-58" font-family="Helvetica,sans-Serif" font-size="10.00">Parsers::RedundancyFilter</text>
<text text-anchor="start" x="60" y="-43" font-family="Helvetica,sans-Serif" font-size="10.00"> </text>
<text text-anchor="start" x="15.5" y="-28" font-family="Helvetica,sans-Serif" font-size="10.00">+</text>
<text text-anchor="start" x="37" y="-28" font-family="Helvetica,sans-Serif" font-size="10.00">initMembers()</text>
<text text-anchor="start" x="15.5" y="-13" font-family="Helvetica,sans-Serif" font-size="10.00">+</text>
<text text-anchor="start" x="37" y="-13" font-family="Helvetica,sans-Serif" font-size="10.00">operator()()</text>
<polygon fill="#666666" stroke="#666666" points="0,-54.5 0,-54.5 123,-54.5 123,-54.5 0,-54.5"/>
<polygon fill="#666666" stroke="#666666" points="0,-39.5 0,-39.5 123,-39.5 123,-39.5 0,-39.5"/>
<polygon fill="none" stroke="#666666" points="0,-7.5 0,-71.5 123,-71.5 123,-7.5 0,-7.5"/>
</a>
</g>
</g>
<!-- Node1&#45;&gt;Node2 -->
<g id="edge1_Node000001_Node000002" class="edge">
<title>Node1&#45;&gt;Node2</title>
<g id="a_edge1_Node000001_Node000002"><a xlink:title=" ">
<path fill="none" stroke="#63b8ff" d="M130.05,-107.12C117.44,-94.86 104.46,-82.25 93.23,-71.34"/>
<polygon fill="none" stroke="#63b8ff" points="127.57,-109.59 137.18,-114.05 132.45,-104.57 127.57,-109.59"/>
</a>
</g>
</g>
<!-- Node3 -->
<g id="Node000003" class="node">
<title>Node3</title>
<g id="a_Node000003"><a xlink:href="classParsers_1_1SBVAInit.html" target="_top" xlink:title="A filter for Structured BVA (Binary Variable Addition)">
<polygon fill="white" stroke="none" points="229.5,-79 141.5,-79 141.5,0 229.5,0 229.5,-79"/>
<text text-anchor="start" x="146.12" y="-65.5" font-family="Helvetica,sans-Serif" font-size="10.00">Parsers::SBVAInit</text>
<text text-anchor="start" x="184" y="-50.5" font-family="Helvetica,sans-Serif" font-size="10.00"> </text>
<text text-anchor="start" x="148" y="-35.5" font-family="Helvetica,sans-Serif" font-size="10.00">+</text>
<text text-anchor="start" x="160.5" y="-35.5" font-family="Helvetica,sans-Serif" font-size="10.00">SBVAInit()</text>
<text text-anchor="start" x="148" y="-20.5" font-family="Helvetica,sans-Serif" font-size="10.00">+</text>
<text text-anchor="start" x="160.5" y="-20.5" font-family="Helvetica,sans-Serif" font-size="10.00">initMembers()</text>
<text text-anchor="start" x="148" y="-5.5" font-family="Helvetica,sans-Serif" font-size="10.00">+</text>
<text text-anchor="start" x="160.5" y="-5.5" font-family="Helvetica,sans-Serif" font-size="10.00">operator()()</text>
<polygon fill="#666666" stroke="#666666" points="141.5,-62 141.5,-62 229.5,-62 229.5,-62 141.5,-62"/>
<polygon fill="#666666" stroke="#666666" points="141.5,-47 141.5,-47 229.5,-47 229.5,-47 141.5,-47"/>
<polygon fill="none" stroke="#666666" points="141.5,0 141.5,-79 229.5,-79 229.5,0 141.5,0"/>
</a>
</g>
</g>
<!-- Node1&#45;&gt;Node3 -->
<g id="edge2_Node000001_Node000003" class="edge">
<title>Node1&#45;&gt;Node3</title>
<g id="a_edge2_Node000001_Node000003"><a xlink:title=" ">
<path fill="none" stroke="#63b8ff" d="M185.5,-103.7C185.5,-95.27 185.5,-86.75 185.5,-78.82"/>
<polygon fill="none" stroke="#63b8ff" points="182,-103.59 185.5,-113.59 189,-103.59 182,-103.59"/>
</a>
</g>
</g>
<!-- Node4 -->
<g id="Node000004" class="node">
<title>Node4</title>
<g id="a_Node000004"><a xlink:href="classParsers_1_1TautologyFilter.html" target="_top" xlink:title="Filter for removing tautological clauses. A tautological clause or simple a tautology is a clause tha...">
<polygon fill="white" stroke="none" points="359.5,-71.5 247.5,-71.5 247.5,-7.5 359.5,-7.5 359.5,-71.5"/>
<text text-anchor="start" x="252.5" y="-58" font-family="Helvetica,sans-Serif" font-size="10.00">Parsers::TautologyFilter</text>
<text text-anchor="start" x="302" y="-43" font-family="Helvetica,sans-Serif" font-size="10.00"> </text>
<text text-anchor="start" x="260" y="-28" font-family="Helvetica,sans-Serif" font-size="10.00">+</text>
<text text-anchor="start" x="278.5" y="-28" font-family="Helvetica,sans-Serif" font-size="10.00">initMembers()</text>
<text text-anchor="start" x="260" y="-13" font-family="Helvetica,sans-Serif" font-size="10.00">+</text>
<text text-anchor="start" x="278.5" y="-13" font-family="Helvetica,sans-Serif" font-size="10.00">operator()()</text>
<polygon fill="#666666" stroke="#666666" points="247.5,-54.5 247.5,-54.5 359.5,-54.5 359.5,-54.5 247.5,-54.5"/>
<polygon fill="#666666" stroke="#666666" points="247.5,-39.5 247.5,-39.5 359.5,-39.5 359.5,-39.5 247.5,-39.5"/>
<polygon fill="none" stroke="#666666" points="247.5,-7.5 247.5,-71.5 359.5,-71.5 359.5,-7.5 247.5,-7.5"/>
</a>
</g>
</g>
<!-- Node1&#45;&gt;Node4 -->
<g id="edge3_Node000001_Node000004" class="edge">
<title>Node1&#45;&gt;Node4</title>
<g id="a_edge3_Node000001_Node000004"><a xlink:title=" ">
<path fill="none" stroke="#63b8ff" d="M238.26,-107.12C250.27,-94.86 262.62,-82.25 273.3,-71.34"/>
<polygon fill="none" stroke="#63b8ff" points="236,-104.43 231.51,-114.02 241,-109.32 236,-104.43"/>
</a>
</g>
</g>
</g>
</svg>
</svg>

<style type='text/css'>
<![CDATA[
[data-mouse-over-selected='false'] { opacity: 0.7; }
[data-mouse-over-selected='true']  { opacity: 1.0; }
]]>
</style>
<script type="application/ecmascript"><![CDATA[
document.addEventListener('DOMContentLoaded', (event) => {
  highlightEdges();
  highlightAdjacentNodes();
});
]]></script>
</svg>
