<?xml version="1.0" encoding="UTF-8" standalone="no"?>
<!DOCTYPE svg PUBLIC "-//W3C//DTD SVG 1.1//EN"
 "http://www.w3.org/Graphics/SVG/1.1/DTD/svg11.dtd">
<!-- Generated by graphviz version 12.1.2 (20240928.0832)
 -->
<!-- Title: ClauseDatabase Pages: 1 -->
<svg width="644pt" height="562pt"
 viewBox="0.00 0.00 644.00 562.00" xmlns="http://www.w3.org/2000/svg" xmlns:xlink="http://www.w3.org/1999/xlink">
<g id="graph0" class="graph" transform="scale(1 1) rotate(0) translate(4 558)">
<title>ClauseDatabase</title>
<!-- Node1 -->
<g id="Node000001" class="node">
<title>Node1</title>
<g id="a_Node000001"><a xlink:title="Abstract base class defining the interface for clause storage and management.">
<polygon fill="#999999" stroke="none" points="370.5,-554 270.5,-554 270.5,-385 370.5,-385 370.5,-554"/>
<text text-anchor="start" x="284.88" y="-540.5" font-family="Helvetica,sans-Serif" font-size="10.00">ClauseDatabase</text>
<text text-anchor="start" x="319" y="-525.5" font-family="Helvetica,sans-Serif" font-size="10.00"> </text>
<text text-anchor="start" x="274.5" y="-510.5" font-family="Helvetica,sans-Serif" font-size="10.00">+</text>
<text text-anchor="start" x="284.5" y="-510.5" font-family="Helvetica,sans-Serif" font-size="10.00">ClauseDatabase()</text>
<text text-anchor="start" x="274.5" y="-495.5" font-family="Helvetica,sans-Serif" font-size="10.00">+</text>
<text text-anchor="start" x="284.5" y="-495.5" font-family="Helvetica,sans-Serif" font-size="10.00">~ClauseDatabase()</text>
<text text-anchor="start" x="274.5" y="-480.5" font-family="Helvetica,sans-Serif" font-size="10.00">+</text>
<text text-anchor="start" x="284.5" y="-480.5" font-family="Helvetica,sans-Serif" font-size="10.00">addClause()</text>
<text text-anchor="start" x="274.5" y="-465.5" font-family="Helvetica,sans-Serif" font-size="10.00">+</text>
<text text-anchor="start" x="284.5" y="-465.5" font-family="Helvetica,sans-Serif" font-size="10.00">giveSelection()</text>
<text text-anchor="start" x="274.5" y="-450.5" font-family="Helvetica,sans-Serif" font-size="10.00">+</text>
<text text-anchor="start" x="284.5" y="-450.5" font-family="Helvetica,sans-Serif" font-size="10.00">getClauses()</text>
<text text-anchor="start" x="274.5" y="-435.5" font-family="Helvetica,sans-Serif" font-size="10.00">+</text>
<text text-anchor="start" x="284.5" y="-435.5" font-family="Helvetica,sans-Serif" font-size="10.00">getOneClause()</text>
<text text-anchor="start" x="274.5" y="-420.5" font-family="Helvetica,sans-Serif" font-size="10.00">+</text>
<text text-anchor="start" x="284.5" y="-420.5" font-family="Helvetica,sans-Serif" font-size="10.00">getSize()</text>
<text text-anchor="start" x="274.5" y="-405.5" font-family="Helvetica,sans-Serif" font-size="10.00">+</text>
<text text-anchor="start" x="284.5" y="-405.5" font-family="Helvetica,sans-Serif" font-size="10.00">shrinkDatabase()</text>
<text text-anchor="start" x="274.5" y="-390.5" font-family="Helvetica,sans-Serif" font-size="10.00">+</text>
<text text-anchor="start" x="284.5" y="-390.5" font-family="Helvetica,sans-Serif" font-size="10.00">clearDatabase()</text>
<polygon fill="#666666" stroke="#666666" points="270.5,-537 270.5,-537 370.5,-537 370.5,-537 270.5,-537"/>
<polygon fill="#666666" stroke="#666666" points="270.5,-522 270.5,-522 370.5,-522 370.5,-522 270.5,-522"/>
<polygon fill="none" stroke="#666666" points="270.5,-385 270.5,-554 370.5,-554 370.5,-385 270.5,-385"/>
</a>
</g>
</g>
<!-- Node2 -->
<g id="Node000002" class="node">
<title>Node2</title>
<g id="a_Node000002"><a xlink:href="classClauseDatabaseBufferPerEntity.html" target="_top" xlink:title="A clause database that maintain separate buffers for each entity, mimicing old painless default behav...">
<polygon fill="white" stroke="none" points="159,-272 0,-272 0,-77 159,-77 159,-272"/>
<text text-anchor="start" x="11.62" y="-258.5" font-family="Helvetica,sans-Serif" font-size="10.00">ClauseDatabaseBufferPerEntity</text>
<text text-anchor="start" x="78" y="-243.5" font-family="Helvetica,sans-Serif" font-size="10.00"> </text>
<text text-anchor="start" x="4" y="-228.5" font-family="Helvetica,sans-Serif" font-size="10.00">+</text>
<text text-anchor="start" x="14" y="-228.5" font-family="Helvetica,sans-Serif" font-size="10.00">ClauseDatabaseBufferPerEntity()</text>
<text text-anchor="start" x="4" y="-213.5" font-family="Helvetica,sans-Serif" font-size="10.00">+</text>
<text text-anchor="start" x="14" y="-213.5" font-family="Helvetica,sans-Serif" font-size="10.00">ClauseDatabaseBufferPerEntity()</text>
<text text-anchor="start" x="4" y="-198.5" font-family="Helvetica,sans-Serif" font-size="10.00">+</text>
<text text-anchor="start" x="14" y="-198.5" font-family="Helvetica,sans-Serif" font-size="10.00">~ClauseDatabaseBufferPer</text>
<text text-anchor="start" x="14" y="-187.25" font-family="Helvetica,sans-Serif" font-size="10.00">Entity()</text>
<text text-anchor="start" x="4" y="-172.5" font-family="Helvetica,sans-Serif" font-size="10.00">+</text>
<text text-anchor="start" x="14" y="-172.5" font-family="Helvetica,sans-Serif" font-size="10.00">addClause()</text>
<text text-anchor="start" x="4" y="-157.5" font-family="Helvetica,sans-Serif" font-size="10.00">+</text>
<text text-anchor="start" x="14" y="-157.5" font-family="Helvetica,sans-Serif" font-size="10.00">giveSelection()</text>
<text text-anchor="start" x="4" y="-142.5" font-family="Helvetica,sans-Serif" font-size="10.00">+</text>
<text text-anchor="start" x="14" y="-142.5" font-family="Helvetica,sans-Serif" font-size="10.00">getClauses()</text>
<text text-anchor="start" x="4" y="-127.5" font-family="Helvetica,sans-Serif" font-size="10.00">+</text>
<text text-anchor="start" x="14" y="-127.5" font-family="Helvetica,sans-Serif" font-size="10.00">getOneClause()</text>
<text text-anchor="start" x="4" y="-112.5" font-family="Helvetica,sans-Serif" font-size="10.00">+</text>
<text text-anchor="start" x="14" y="-112.5" font-family="Helvetica,sans-Serif" font-size="10.00">getSize()</text>
<text text-anchor="start" x="4" y="-97.5" font-family="Helvetica,sans-Serif" font-size="10.00">+</text>
<text text-anchor="start" x="14" y="-97.5" font-family="Helvetica,sans-Serif" font-size="10.00">clearDatabase()</text>
<text text-anchor="start" x="4" y="-82.5" font-family="Helvetica,sans-Serif" font-size="10.00">+</text>
<text text-anchor="start" x="14" y="-82.5" font-family="Helvetica,sans-Serif" font-size="10.00">shrinkDatabase()</text>
<polygon fill="#666666" stroke="#666666" points="0,-255 0,-255 159,-255 159,-255 0,-255"/>
<polygon fill="#666666" stroke="#666666" points="0,-240 0,-240 159,-240 159,-240 0,-240"/>
<polygon fill="none" stroke="#666666" points="0,-77 0,-272 159,-272 159,-77 0,-77"/>
</a>
</g>
</g>
<!-- Node1&#45;&gt;Node2 -->
<g id="edge1_Node000001_Node000002" class="edge">
<title>Node1&#45;&gt;Node2</title>
<g id="a_edge1_Node000001_Node000002"><a xlink:title=" ">
<path fill="none" stroke="#63b8ff" d="M261.38,-431.54C230.61,-410.18 193.99,-381.19 167.5,-349 148.61,-326.05 132.31,-298.38 119.05,-271.94"/>
<polygon fill="none" stroke="#63b8ff" points="259.24,-434.31 269.47,-437.06 263.18,-428.53 259.24,-434.31"/>
</a>
</g>
</g>
<!-- Node3 -->
<g id="Node000003" class="node">
<title>Node3</title>
<g id="a_Node000003"><a xlink:href="classClauseDatabaseMallob.html" target="_top" xlink:title="A clause database implementation attempting to naively mimic the Simplified Adaptive Database from Ma...">
<polygon fill="white" stroke="none" points="312,-349 177,-349 177,0 312,0 312,-349"/>
<text text-anchor="start" x="194.62" y="-335.5" font-family="Helvetica,sans-Serif" font-size="10.00">ClauseDatabaseMallob</text>
<text text-anchor="start" x="181.38" y="-320.5" font-family="Helvetica,sans-Serif" font-size="10.00">#</text>
<text text-anchor="start" x="191" y="-320.5" font-family="Helvetica,sans-Serif" font-size="10.00">m_totalLiteralCapacity</text>
<text text-anchor="start" x="181.38" y="-305.5" font-family="Helvetica,sans-Serif" font-size="10.00">#</text>
<text text-anchor="start" x="191" y="-305.5" font-family="Helvetica,sans-Serif" font-size="10.00">m_maxPartitioningLbd</text>
<text text-anchor="start" x="181.38" y="-290.5" font-family="Helvetica,sans-Serif" font-size="10.00">#</text>
<text text-anchor="start" x="191" y="-290.5" font-family="Helvetica,sans-Serif" font-size="10.00">m_maxClauseSize</text>
<text text-anchor="start" x="181.38" y="-275.5" font-family="Helvetica,sans-Serif" font-size="10.00">#</text>
<text text-anchor="start" x="191" y="-275.5" font-family="Helvetica,sans-Serif" font-size="10.00">m_freeMaxSize</text>
<text text-anchor="start" x="181.38" y="-260.5" font-family="Helvetica,sans-Serif" font-size="10.00">#</text>
<text text-anchor="start" x="191" y="-260.5" font-family="Helvetica,sans-Serif" font-size="10.00">m_clauses</text>
<text text-anchor="start" x="181.38" y="-245.5" font-family="Helvetica,sans-Serif" font-size="10.00">#</text>
<text text-anchor="start" x="191" y="-245.5" font-family="Helvetica,sans-Serif" font-size="10.00">m_currentLiteralSize</text>
<text text-anchor="start" x="181.38" y="-230.5" font-family="Helvetica,sans-Serif" font-size="10.00">#</text>
<text text-anchor="start" x="191" y="-230.5" font-family="Helvetica,sans-Serif" font-size="10.00">m_currentWorstIndex</text>
<text text-anchor="start" x="181.38" y="-215.5" font-family="Helvetica,sans-Serif" font-size="10.00">#</text>
<text text-anchor="start" x="191" y="-215.5" font-family="Helvetica,sans-Serif" font-size="10.00">m_shrinkMutex</text>
<text text-anchor="start" x="181.38" y="-200.5" font-family="Helvetica,sans-Serif" font-size="10.00">#</text>
<text text-anchor="start" x="191" y="-200.5" font-family="Helvetica,sans-Serif" font-size="10.00">m_missedAdditionsBfr</text>
<text text-anchor="start" x="181" y="-185.5" font-family="Helvetica,sans-Serif" font-size="10.00">+</text>
<text text-anchor="start" x="191" y="-185.5" font-family="Helvetica,sans-Serif" font-size="10.00">ClauseDatabaseMallob()</text>
<text text-anchor="start" x="181" y="-170.5" font-family="Helvetica,sans-Serif" font-size="10.00">+</text>
<text text-anchor="start" x="191" y="-170.5" font-family="Helvetica,sans-Serif" font-size="10.00">ClauseDatabaseMallob()</text>
<text text-anchor="start" x="181" y="-155.5" font-family="Helvetica,sans-Serif" font-size="10.00">+</text>
<text text-anchor="start" x="191" y="-155.5" font-family="Helvetica,sans-Serif" font-size="10.00">~ClauseDatabaseMallob()</text>
<text text-anchor="start" x="181" y="-140.5" font-family="Helvetica,sans-Serif" font-size="10.00">+</text>
<text text-anchor="start" x="191" y="-140.5" font-family="Helvetica,sans-Serif" font-size="10.00">addClause()</text>
<text text-anchor="start" x="181" y="-125.5" font-family="Helvetica,sans-Serif" font-size="10.00">+</text>
<text text-anchor="start" x="191" y="-125.5" font-family="Helvetica,sans-Serif" font-size="10.00">giveSelection()</text>
<text text-anchor="start" x="181" y="-110.5" font-family="Helvetica,sans-Serif" font-size="10.00">+</text>
<text text-anchor="start" x="191" y="-110.5" font-family="Helvetica,sans-Serif" font-size="10.00">getClauses()</text>
<text text-anchor="start" x="181" y="-95.5" font-family="Helvetica,sans-Serif" font-size="10.00">+</text>
<text text-anchor="start" x="191" y="-95.5" font-family="Helvetica,sans-Serif" font-size="10.00">getOneClause()</text>
<text text-anchor="start" x="181" y="-80.5" font-family="Helvetica,sans-Serif" font-size="10.00">+</text>
<text text-anchor="start" x="191" y="-80.5" font-family="Helvetica,sans-Serif" font-size="10.00">getSize()</text>
<text text-anchor="start" x="181" y="-65.5" font-family="Helvetica,sans-Serif" font-size="10.00">+</text>
<text text-anchor="start" x="191" y="-65.5" font-family="Helvetica,sans-Serif" font-size="10.00">shrinkDatabase()</text>
<text text-anchor="start" x="181" y="-50.5" font-family="Helvetica,sans-Serif" font-size="10.00">+</text>
<text text-anchor="start" x="191" y="-50.5" font-family="Helvetica,sans-Serif" font-size="10.00">clearDatabase()</text>
<text text-anchor="start" x="181.38" y="-35.5" font-family="Helvetica,sans-Serif" font-size="10.00">#</text>
<text text-anchor="start" x="191" y="-35.5" font-family="Helvetica,sans-Serif" font-size="10.00">getIndex()</text>
<text text-anchor="start" x="181.38" y="-20.5" font-family="Helvetica,sans-Serif" font-size="10.00">#</text>
<text text-anchor="start" x="191" y="-20.5" font-family="Helvetica,sans-Serif" font-size="10.00">getSizeFromIndex()</text>
<text text-anchor="start" x="181.38" y="-5.5" font-family="Helvetica,sans-Serif" font-size="10.00">#</text>
<text text-anchor="start" x="191" y="-5.5" font-family="Helvetica,sans-Serif" font-size="10.00">getLbdPartitionFromIndex()</text>
<polygon fill="#666666" stroke="#666666" points="177,-332 177,-332 312,-332 312,-332 177,-332"/>
<polygon fill="#666666" stroke="#666666" points="177,-197 177,-197 189,-197 189,-197 177,-197"/>
<polygon fill="#666666" stroke="#666666" points="189,-197 189,-197 312,-197 312,-197 189,-197"/>
<polygon fill="none" stroke="#666666" points="177,0 177,-349 312,-349 312,0 177,0"/>
</a>
</g>
</g>
<!-- Node1&#45;&gt;Node3 -->
<g id="edge2_Node000001_Node000003" class="edge">
<title>Node1&#45;&gt;Node3</title>
<g id="a_edge2_Node000001_Node000003"><a xlink:title=" ">
<path fill="none" stroke="#63b8ff" d="M296.06,-374.28C293.93,-366.05 291.73,-357.58 289.5,-348.97"/>
<polygon fill="none" stroke="#63b8ff" points="292.65,-375.06 298.54,-383.86 299.42,-373.3 292.65,-375.06"/>
</a>
</g>
</g>
<!-- Node4 -->
<g id="Node000004" class="node">
<title>Node4</title>
<g id="a_Node000004"><a xlink:href="classClauseDatabasePerSize.html" target="_top" xlink:title="A clause database that organizes clauses based on their size.">
<polygon fill="white" stroke="none" points="464.5,-274 330.5,-274 330.5,-75 464.5,-75 464.5,-274"/>
<text text-anchor="start" x="345" y="-260.5" font-family="Helvetica,sans-Serif" font-size="10.00">ClauseDatabasePerSize</text>
<text text-anchor="start" x="334.5" y="-245.5" font-family="Helvetica,sans-Serif" font-size="10.00">+</text>
<text text-anchor="start" x="344.5" y="-245.5" font-family="Helvetica,sans-Serif" font-size="10.00">initLiteralCount</text>
<text text-anchor="start" x="334.5" y="-230.5" font-family="Helvetica,sans-Serif" font-size="10.00">+</text>
<text text-anchor="start" x="344.5" y="-230.5" font-family="Helvetica,sans-Serif" font-size="10.00">maxClauseSize</text>
<text text-anchor="start" x="334.5" y="-215.5" font-family="Helvetica,sans-Serif" font-size="10.00">+</text>
<text text-anchor="start" x="344.5" y="-215.5" font-family="Helvetica,sans-Serif" font-size="10.00">ClauseDatabasePerSize()</text>
<text text-anchor="start" x="334.5" y="-200.5" font-family="Helvetica,sans-Serif" font-size="10.00">+</text>
<text text-anchor="start" x="344.5" y="-200.5" font-family="Helvetica,sans-Serif" font-size="10.00">ClauseDatabasePerSize()</text>
<text text-anchor="start" x="334.5" y="-185.5" font-family="Helvetica,sans-Serif" font-size="10.00">+</text>
<text text-anchor="start" x="344.5" y="-185.5" font-family="Helvetica,sans-Serif" font-size="10.00">~ClauseDatabasePerSize()</text>
<text text-anchor="start" x="334.5" y="-170.5" font-family="Helvetica,sans-Serif" font-size="10.00">+</text>
<text text-anchor="start" x="344.5" y="-170.5" font-family="Helvetica,sans-Serif" font-size="10.00">addClause()</text>
<text text-anchor="start" x="334.5" y="-155.5" font-family="Helvetica,sans-Serif" font-size="10.00">+</text>
<text text-anchor="start" x="344.5" y="-155.5" font-family="Helvetica,sans-Serif" font-size="10.00">giveSelection()</text>
<text text-anchor="start" x="334.5" y="-140.5" font-family="Helvetica,sans-Serif" font-size="10.00">+</text>
<text text-anchor="start" x="344.5" y="-140.5" font-family="Helvetica,sans-Serif" font-size="10.00">getClauses()</text>
<text text-anchor="start" x="334.5" y="-125.5" font-family="Helvetica,sans-Serif" font-size="10.00">+</text>
<text text-anchor="start" x="344.5" y="-125.5" font-family="Helvetica,sans-Serif" font-size="10.00">getOneClause()</text>
<text text-anchor="start" x="334.5" y="-110.5" font-family="Helvetica,sans-Serif" font-size="10.00">+</text>
<text text-anchor="start" x="344.5" y="-110.5" font-family="Helvetica,sans-Serif" font-size="10.00">getSize()</text>
<text text-anchor="start" x="334.5" y="-95.5" font-family="Helvetica,sans-Serif" font-size="10.00">+</text>
<text text-anchor="start" x="344.5" y="-95.5" font-family="Helvetica,sans-Serif" font-size="10.00">shrinkDatabase()</text>
<text text-anchor="start" x="334.5" y="-80.5" font-family="Helvetica,sans-Serif" font-size="10.00">+</text>
<text text-anchor="start" x="344.5" y="-80.5" font-family="Helvetica,sans-Serif" font-size="10.00">clearDatabase()</text>
<polygon fill="#666666" stroke="#666666" points="330.5,-257 330.5,-257 464.5,-257 464.5,-257 330.5,-257"/>
<polygon fill="#666666" stroke="#666666" points="330.5,-227 330.5,-227 342.5,-227 342.5,-227 330.5,-227"/>
<polygon fill="#666666" stroke="#666666" points="342.5,-227 342.5,-227 464.5,-227 464.5,-227 342.5,-227"/>
<polygon fill="none" stroke="#666666" points="330.5,-75 330.5,-274 464.5,-274 464.5,-75 330.5,-75"/>
</a>
</g>
</g>
<!-- Node1&#45;&gt;Node4 -->
<g id="edge3_Node000001_Node000004" class="edge">
<title>Node1&#45;&gt;Node4</title>
<g id="a_edge3_Node000001_Node000004"><a xlink:title=" ">
<path fill="none" stroke="#63b8ff" d="M345.18,-374.58C353.63,-342.45 363.09,-306.42 371.63,-273.94"/>
<polygon fill="none" stroke="#63b8ff" points="341.9,-373.3 342.74,-383.86 348.67,-375.08 341.9,-373.3"/>
</a>
</g>
</g>
<!-- Node5 -->
<g id="Node000005" class="node">
<title>Node5</title>
<g id="a_Node000005"><a xlink:href="classClauseDatabaseSingleBuffer.html" target="_top" xlink:title="This is just a ClauseDatabase wrapper around a ClauseBuufer.">
<polygon fill="white" stroke="none" points="636,-266.5 483,-266.5 483,-82.5 636,-82.5 636,-266.5"/>
<text text-anchor="start" x="497.62" y="-253" font-family="Helvetica,sans-Serif" font-size="10.00">ClauseDatabaseSingleBuffer</text>
<text text-anchor="start" x="558" y="-238" font-family="Helvetica,sans-Serif" font-size="10.00"> </text>
<text text-anchor="start" x="487" y="-223" font-family="Helvetica,sans-Serif" font-size="10.00">+</text>
<text text-anchor="start" x="497" y="-223" font-family="Helvetica,sans-Serif" font-size="10.00">ClauseDatabaseSingleBuffer()</text>
<text text-anchor="start" x="487" y="-208" font-family="Helvetica,sans-Serif" font-size="10.00">+</text>
<text text-anchor="start" x="497" y="-208" font-family="Helvetica,sans-Serif" font-size="10.00">ClauseDatabaseSingleBuffer()</text>
<text text-anchor="start" x="487" y="-193" font-family="Helvetica,sans-Serif" font-size="10.00">+</text>
<text text-anchor="start" x="497" y="-193" font-family="Helvetica,sans-Serif" font-size="10.00">~ClauseDatabaseSingleBuffer()</text>
<text text-anchor="start" x="487" y="-178" font-family="Helvetica,sans-Serif" font-size="10.00">+</text>
<text text-anchor="start" x="497" y="-178" font-family="Helvetica,sans-Serif" font-size="10.00">addClause()</text>
<text text-anchor="start" x="487" y="-163" font-family="Helvetica,sans-Serif" font-size="10.00">+</text>
<text text-anchor="start" x="497" y="-163" font-family="Helvetica,sans-Serif" font-size="10.00">giveSelection()</text>
<text text-anchor="start" x="487" y="-148" font-family="Helvetica,sans-Serif" font-size="10.00">+</text>
<text text-anchor="start" x="497" y="-148" font-family="Helvetica,sans-Serif" font-size="10.00">getClauses()</text>
<text text-anchor="start" x="487" y="-133" font-family="Helvetica,sans-Serif" font-size="10.00">+</text>
<text text-anchor="start" x="497" y="-133" font-family="Helvetica,sans-Serif" font-size="10.00">getOneClause()</text>
<text text-anchor="start" x="487" y="-118" font-family="Helvetica,sans-Serif" font-size="10.00">+</text>
<text text-anchor="start" x="497" y="-118" font-family="Helvetica,sans-Serif" font-size="10.00">getSize()</text>
<text text-anchor="start" x="487" y="-103" font-family="Helvetica,sans-Serif" font-size="10.00">+</text>
<text text-anchor="start" x="497" y="-103" font-family="Helvetica,sans-Serif" font-size="10.00">shrinkDatabase()</text>
<text text-anchor="start" x="487" y="-88" font-family="Helvetica,sans-Serif" font-size="10.00">+</text>
<text text-anchor="start" x="497" y="-88" font-family="Helvetica,sans-Serif" font-size="10.00">clearDatabase()</text>
<polygon fill="#666666" stroke="#666666" points="483,-249.5 483,-249.5 636,-249.5 636,-249.5 483,-249.5"/>
<polygon fill="#666666" stroke="#666666" points="483,-234.5 483,-234.5 636,-234.5 636,-234.5 483,-234.5"/>
<polygon fill="none" stroke="#666666" points="483,-82.5 483,-266.5 636,-266.5 636,-82.5 483,-82.5"/>
</a>
</g>
</g>
<!-- Node1&#45;&gt;Node5 -->
<g id="edge4_Node000001_Node000005" class="edge">
<title>Node1&#45;&gt;Node5</title>
<g id="a_edge4_Node000001_Node000005"><a xlink:title=" ">
<path fill="none" stroke="#63b8ff" d="M379.74,-431.63C410.55,-410.3 447.16,-381.32 473.5,-349 493.57,-324.38 510.55,-294.29 523.97,-266.13"/>
<polygon fill="none" stroke="#63b8ff" points="377.94,-428.63 371.64,-437.15 381.88,-434.42 377.94,-428.63"/>
</a>
</g>
</g>
</g>
</svg>
