<?xml version="1.0" encoding="UTF-8" standalone="no"?>
<!DOCTYPE svg PUBLIC "-//W3C//DTD SVG 1.1//EN"
 "http://www.w3.org/Graphics/SVG/1.1/DTD/svg11.dtd">
<!-- Generated by graphviz version 12.1.2 (20240928.0832)
 -->
<!-- Title: SimpleSharing Pages: 1 -->
<svg width="239pt" height="801pt"
 viewBox="0.00 0.00 239.00 801.25" xmlns="http://www.w3.org/2000/svg" xmlns:xlink="http://www.w3.org/1999/xlink">
<g id="graph0" class="graph" transform="scale(1 1) rotate(0) translate(4 797.25)">
<title>SimpleSharing</title>
<!-- Node1 -->
<g id="Node000001" class="node">
<title>Node1</title>
<g id="a_Node000001"><a xlink:title="This strategy is a simple sharing strategy.">
<polygon fill="#999999" stroke="none" points="200.5,-139 108.5,-139 108.5,0 200.5,0 200.5,-139"/>
<text text-anchor="start" x="123" y="-125.5" font-family="Helvetica,sans-Serif" font-size="10.00">SimpleSharing</text>
<text text-anchor="start" x="112.88" y="-110.5" font-family="Helvetica,sans-Serif" font-size="10.00">#</text>
<text text-anchor="start" x="122.5" y="-110.5" font-family="Helvetica,sans-Serif" font-size="10.00">literalPerRound</text>
<text text-anchor="start" x="112.88" y="-95.5" font-family="Helvetica,sans-Serif" font-size="10.00">#</text>
<text text-anchor="start" x="122.5" y="-95.5" font-family="Helvetica,sans-Serif" font-size="10.00">selection</text>
<text text-anchor="start" x="112.88" y="-80.5" font-family="Helvetica,sans-Serif" font-size="10.00">#</text>
<text text-anchor="start" x="122.5" y="-80.5" font-family="Helvetica,sans-Serif" font-size="10.00">sizeLimit</text>
<text text-anchor="start" x="112.5" y="-65.5" font-family="Helvetica,sans-Serif" font-size="10.00">+</text>
<text text-anchor="start" x="122.5" y="-65.5" font-family="Helvetica,sans-Serif" font-size="10.00">SimpleSharing()</text>
<text text-anchor="start" x="112.5" y="-50.5" font-family="Helvetica,sans-Serif" font-size="10.00">+</text>
<text text-anchor="start" x="122.5" y="-50.5" font-family="Helvetica,sans-Serif" font-size="10.00">~SimpleSharing()</text>
<text text-anchor="start" x="112.5" y="-35.5" font-family="Helvetica,sans-Serif" font-size="10.00">+</text>
<text text-anchor="start" x="122.5" y="-35.5" font-family="Helvetica,sans-Serif" font-size="10.00">importClause()</text>
<text text-anchor="start" x="112.5" y="-20.5" font-family="Helvetica,sans-Serif" font-size="10.00">+</text>
<text text-anchor="start" x="122.5" y="-20.5" font-family="Helvetica,sans-Serif" font-size="10.00">importClauses()</text>
<text text-anchor="start" x="112.5" y="-5.5" font-family="Helvetica,sans-Serif" font-size="10.00">+</text>
<text text-anchor="start" x="122.5" y="-5.5" font-family="Helvetica,sans-Serif" font-size="10.00">doSharing()</text>
<polygon fill="#666666" stroke="#666666" points="108.5,-122 108.5,-122 200.5,-122 200.5,-122 108.5,-122"/>
<polygon fill="#666666" stroke="#666666" points="108.5,-77 108.5,-77 120.5,-77 120.5,-77 108.5,-77"/>
<polygon fill="#666666" stroke="#666666" points="120.5,-77 120.5,-77 200.5,-77 200.5,-77 120.5,-77"/>
<polygon fill="none" stroke="#666666" points="108.5,0 108.5,-139 200.5,-139 200.5,0 108.5,0"/>
</a>
</g>
</g>
<!-- Node2 -->
<g id="Node000002" class="node">
<title>Node2</title>
<g id="a_Node000002"><a xlink:href="classSharingStrategy.html" target="_top" xlink:title="SharingStrategy class, inheriting from SharingEntity.">
<polygon fill="white" stroke="none" points="231,-390 78,-390 78,-176 231,-176 231,-390"/>
<text text-anchor="start" x="120" y="-376.5" font-family="Helvetica,sans-Serif" font-size="10.00">SharingStrategy</text>
<text text-anchor="start" x="82.38" y="-361.5" font-family="Helvetica,sans-Serif" font-size="10.00">#</text>
<text text-anchor="start" x="92" y="-361.5" font-family="Helvetica,sans-Serif" font-size="10.00">m_clauseDB</text>
<text text-anchor="start" x="82.38" y="-346.5" font-family="Helvetica,sans-Serif" font-size="10.00">#</text>
<text text-anchor="start" x="92" y="-346.5" font-family="Helvetica,sans-Serif" font-size="10.00">m_producers</text>
<text text-anchor="start" x="82.38" y="-331.5" font-family="Helvetica,sans-Serif" font-size="10.00">#</text>
<text text-anchor="start" x="92" y="-331.5" font-family="Helvetica,sans-Serif" font-size="10.00">m_producersMutex</text>
<text text-anchor="start" x="82" y="-316.5" font-family="Helvetica,sans-Serif" font-size="10.00">+</text>
<text text-anchor="start" x="92" y="-316.5" font-family="Helvetica,sans-Serif" font-size="10.00">SharingStrategy()</text>
<text text-anchor="start" x="82" y="-301.5" font-family="Helvetica,sans-Serif" font-size="10.00">+</text>
<text text-anchor="start" x="92" y="-301.5" font-family="Helvetica,sans-Serif" font-size="10.00">~SharingStrategy()</text>
<text text-anchor="start" x="82" y="-286.5" font-family="Helvetica,sans-Serif" font-size="10.00">+</text>
<text text-anchor="start" x="92" y="-286.5" font-family="Helvetica,sans-Serif" font-size="10.00">doSharing()</text>
<text text-anchor="start" x="82" y="-271.5" font-family="Helvetica,sans-Serif" font-size="10.00">+</text>
<text text-anchor="start" x="92" y="-271.5" font-family="Helvetica,sans-Serif" font-size="10.00">getSleepingTime()</text>
<text text-anchor="start" x="82" y="-256.5" font-family="Helvetica,sans-Serif" font-size="10.00">+</text>
<text text-anchor="start" x="92" y="-256.5" font-family="Helvetica,sans-Serif" font-size="10.00">printStats()</text>
<text text-anchor="start" x="82" y="-241.5" font-family="Helvetica,sans-Serif" font-size="10.00">+</text>
<text text-anchor="start" x="92" y="-241.5" font-family="Helvetica,sans-Serif" font-size="10.00">connectConstructorProducers()</text>
<text text-anchor="start" x="82" y="-226.5" font-family="Helvetica,sans-Serif" font-size="10.00">+</text>
<text text-anchor="start" x="92" y="-226.5" font-family="Helvetica,sans-Serif" font-size="10.00">addProducer()</text>
<text text-anchor="start" x="82" y="-211.5" font-family="Helvetica,sans-Serif" font-size="10.00">+</text>
<text text-anchor="start" x="92" y="-211.5" font-family="Helvetica,sans-Serif" font-size="10.00">connectProducer()</text>
<text text-anchor="start" x="82" y="-196.5" font-family="Helvetica,sans-Serif" font-size="10.00">+</text>
<text text-anchor="start" x="92" y="-196.5" font-family="Helvetica,sans-Serif" font-size="10.00">removeProducer()</text>
<text text-anchor="start" x="82.38" y="-181.5" font-family="Helvetica,sans-Serif" font-size="10.00">#</text>
<text text-anchor="start" x="92" y="-181.5" font-family="Helvetica,sans-Serif" font-size="10.00">exportClauseToClient()</text>
<polygon fill="#666666" stroke="#666666" points="78,-373 78,-373 231,-373 231,-373 78,-373"/>
<polygon fill="#666666" stroke="#666666" points="78,-328 78,-328 90,-328 90,-328 78,-328"/>
<polygon fill="#666666" stroke="#666666" points="90,-328 90,-328 231,-328 231,-328 90,-328"/>
<polygon fill="none" stroke="#666666" points="78,-176 78,-390 231,-390 231,-176 78,-176"/>
</a>
</g>
</g>
<!-- Node2&#45;&gt;Node1 -->
<g id="edge1_Node000001_Node000002" class="edge">
<title>Node2&#45;&gt;Node1</title>
<g id="a_edge1_Node000001_Node000002"><a xlink:title=" ">
<path fill="none" stroke="#63b8ff" d="M154.5,-164.96C154.5,-156.07 154.5,-147.29 154.5,-138.88"/>
<polygon fill="none" stroke="#63b8ff" points="151,-164.74 154.5,-174.74 158,-164.74 151,-164.74"/>
</a>
</g>
</g>
<!-- Node3 -->
<g id="Node000003" class="node">
<title>Node3</title>
<g id="a_Node000003"><a xlink:href="classSharingEntity.html" target="_top" xlink:title="A base class representing entities that can exchange clauses between themselves.">
<polygon fill="white" stroke="none" points="122.5,-696.25 6.5,-696.25 6.5,-437.25 122.5,-437.25 122.5,-696.25"/>
<text text-anchor="start" x="36" y="-682.75" font-family="Helvetica,sans-Serif" font-size="10.00">SharingEntity</text>
<text text-anchor="start" x="10.88" y="-667.75" font-family="Helvetica,sans-Serif" font-size="10.00">#</text>
<text text-anchor="start" x="20.5" y="-667.75" font-family="Helvetica,sans-Serif" font-size="10.00">m_clients</text>
<text text-anchor="start" x="10.88" y="-652.75" font-family="Helvetica,sans-Serif" font-size="10.00">#</text>
<text text-anchor="start" x="20.5" y="-652.75" font-family="Helvetica,sans-Serif" font-size="10.00">m_clientsMutex</text>
<text text-anchor="start" x="10.5" y="-637.75" font-family="Helvetica,sans-Serif" font-size="10.00">+</text>
<text text-anchor="start" x="20.5" y="-637.75" font-family="Helvetica,sans-Serif" font-size="10.00">SharingEntity()</text>
<text text-anchor="start" x="10.5" y="-622.75" font-family="Helvetica,sans-Serif" font-size="10.00">+</text>
<text text-anchor="start" x="20.5" y="-622.75" font-family="Helvetica,sans-Serif" font-size="10.00">SharingEntity()</text>
<text text-anchor="start" x="10.5" y="-607.75" font-family="Helvetica,sans-Serif" font-size="10.00">+</text>
<text text-anchor="start" x="20.5" y="-607.75" font-family="Helvetica,sans-Serif" font-size="10.00">~SharingEntity()</text>
<text text-anchor="start" x="10.5" y="-592.75" font-family="Helvetica,sans-Serif" font-size="10.00">+</text>
<text text-anchor="start" x="20.5" y="-592.75" font-family="Helvetica,sans-Serif" font-size="10.00">importClause()</text>
<text text-anchor="start" x="10.5" y="-577.75" font-family="Helvetica,sans-Serif" font-size="10.00">+</text>
<text text-anchor="start" x="20.5" y="-577.75" font-family="Helvetica,sans-Serif" font-size="10.00">importClauses()</text>
<text text-anchor="start" x="10.5" y="-562.75" font-family="Helvetica,sans-Serif" font-size="10.00">+</text>
<text text-anchor="start" x="20.5" y="-562.75" font-family="Helvetica,sans-Serif" font-size="10.00">getSharingId()</text>
<text text-anchor="start" x="10.5" y="-547.75" font-family="Helvetica,sans-Serif" font-size="10.00">+</text>
<text text-anchor="start" x="20.5" y="-547.75" font-family="Helvetica,sans-Serif" font-size="10.00">setSharingId()</text>
<text text-anchor="start" x="10.5" y="-532.75" font-family="Helvetica,sans-Serif" font-size="10.00">+</text>
<text text-anchor="start" x="20.5" y="-532.75" font-family="Helvetica,sans-Serif" font-size="10.00">addClient()</text>
<text text-anchor="start" x="10.5" y="-517.75" font-family="Helvetica,sans-Serif" font-size="10.00">+</text>
<text text-anchor="start" x="20.5" y="-517.75" font-family="Helvetica,sans-Serif" font-size="10.00">removeClient()</text>
<text text-anchor="start" x="10.5" y="-502.75" font-family="Helvetica,sans-Serif" font-size="10.00">+</text>
<text text-anchor="start" x="20.5" y="-502.75" font-family="Helvetica,sans-Serif" font-size="10.00">getClientCount()</text>
<text text-anchor="start" x="10.5" y="-487.75" font-family="Helvetica,sans-Serif" font-size="10.00">+</text>
<text text-anchor="start" x="20.5" y="-487.75" font-family="Helvetica,sans-Serif" font-size="10.00">clearClients()</text>
<text text-anchor="start" x="10.88" y="-472.75" font-family="Helvetica,sans-Serif" font-size="10.00">#</text>
<text text-anchor="start" x="20.5" y="-472.75" font-family="Helvetica,sans-Serif" font-size="10.00">exportClauseToClient()</text>
<text text-anchor="start" x="10.88" y="-457.75" font-family="Helvetica,sans-Serif" font-size="10.00">#</text>
<text text-anchor="start" x="20.5" y="-457.75" font-family="Helvetica,sans-Serif" font-size="10.00">exportClause()</text>
<text text-anchor="start" x="10.88" y="-442.75" font-family="Helvetica,sans-Serif" font-size="10.00">#</text>
<text text-anchor="start" x="20.5" y="-442.75" font-family="Helvetica,sans-Serif" font-size="10.00">exportClauses()</text>
<polygon fill="#666666" stroke="#666666" points="6.5,-679.25 6.5,-679.25 122.5,-679.25 122.5,-679.25 6.5,-679.25"/>
<polygon fill="#666666" stroke="#666666" points="6.5,-649.25 6.5,-649.25 18.5,-649.25 18.5,-649.25 6.5,-649.25"/>
<polygon fill="#666666" stroke="#666666" points="18.5,-649.25 18.5,-649.25 122.5,-649.25 122.5,-649.25 18.5,-649.25"/>
<polygon fill="none" stroke="#666666" points="6.5,-437.25 6.5,-696.25 122.5,-696.25 122.5,-437.25 6.5,-437.25"/>
</a>
</g>
</g>
<!-- Node3&#45;&gt;Node2 -->
<g id="edge2_Node000002_Node000003" class="edge">
<title>Node3&#45;&gt;Node2</title>
<g id="a_edge2_Node000002_Node000003"><a xlink:title=" ">
<path fill="none" stroke="#63b8ff" d="M108.9,-426.76C112.86,-414.35 116.83,-401.92 120.69,-389.85"/>
<polygon fill="none" stroke="#63b8ff" points="105.59,-425.62 105.88,-436.21 112.26,-427.75 105.59,-425.62"/>
</a>
</g>
</g>
<!-- Node4 -->
<g id="Node000004" class="node">
<title>Node4</title>
<g id="a_Node000004"><a xlink:title=" ">
<polygon fill="white" stroke="none" points="129,-793.25 0,-793.25 0,-733.25 129,-733.25 129,-793.25"/>
<text text-anchor="start" x="4.88" y="-779.75" font-family="Helvetica,sans-Serif" font-size="10.00">std::enable_shared</text>
<text text-anchor="start" x="4.88" y="-768.5" font-family="Helvetica,sans-Serif" font-size="10.00">_from_this&lt; SharingEntity &gt;</text>
<text text-anchor="start" x="63" y="-753.75" font-family="Helvetica,sans-Serif" font-size="10.00"> </text>
<text text-anchor="start" x="63" y="-738.75" font-family="Helvetica,sans-Serif" font-size="10.00"> </text>
<polygon fill="#bfbfbf" stroke="#bfbfbf" points="0,-765.25 0,-765.25 129,-765.25 129,-765.25 0,-765.25"/>
<polygon fill="#bfbfbf" stroke="#bfbfbf" points="0,-750.25 0,-750.25 129,-750.25 129,-750.25 0,-750.25"/>
<polygon fill="none" stroke="#bfbfbf" points="0,-733.25 0,-793.25 129,-793.25 129,-733.25 0,-733.25"/>
</a>
</g>
</g>
<!-- Node4&#45;&gt;Node3 -->
<g id="edge3_Node000003_Node000004" class="edge">
<title>Node4&#45;&gt;Node3</title>
<g id="a_edge3_Node000003_Node000004"><a xlink:title=" ">
<path fill="none" stroke="#63b8ff" d="M64.5,-722.09C64.5,-714.1 64.5,-705.31 64.5,-696.11"/>
<polygon fill="none" stroke="#63b8ff" points="61,-722.04 64.5,-732.04 68,-722.04 61,-722.04"/>
</a>
</g>
</g>
<!-- Node5 -->
<g id="Node000005" class="node">
<title>Node5</title>
<g id="a_Node000005"><a xlink:href="structSharingStatistics.html" target="_top" xlink:title="Local Sharing statistics.Sharing statistics.">
<polygon fill="white" stroke="none" points="230.5,-606.25 140.5,-606.25 140.5,-527.25 230.5,-527.25 230.5,-606.25"/>
<text text-anchor="start" x="148.38" y="-592.75" font-family="Helvetica,sans-Serif" font-size="10.00">SharingStatistics</text>
<text text-anchor="start" x="144.5" y="-577.75" font-family="Helvetica,sans-Serif" font-size="10.00">+</text>
<text text-anchor="start" x="154.5" y="-577.75" font-family="Helvetica,sans-Serif" font-size="10.00">sharedClauses</text>
<text text-anchor="start" x="144.5" y="-562.75" font-family="Helvetica,sans-Serif" font-size="10.00">+</text>
<text text-anchor="start" x="154.5" y="-562.75" font-family="Helvetica,sans-Serif" font-size="10.00">receivedClauses</text>
<text text-anchor="start" x="144.5" y="-547.75" font-family="Helvetica,sans-Serif" font-size="10.00">+</text>
<text text-anchor="start" x="154.5" y="-547.75" font-family="Helvetica,sans-Serif" font-size="10.00">filteredAtImport</text>
<text text-anchor="start" x="184" y="-532.75" font-family="Helvetica,sans-Serif" font-size="10.00"> </text>
<polygon fill="#666666" stroke="#666666" points="140.5,-589.25 140.5,-589.25 230.5,-589.25 230.5,-589.25 140.5,-589.25"/>
<polygon fill="#666666" stroke="#666666" points="140.5,-544.25 140.5,-544.25 152.5,-544.25 152.5,-544.25 140.5,-544.25"/>
<polygon fill="#666666" stroke="#666666" points="152.5,-544.25 152.5,-544.25 230.5,-544.25 230.5,-544.25 152.5,-544.25"/>
<polygon fill="none" stroke="#666666" points="140.5,-527.25 140.5,-606.25 230.5,-606.25 230.5,-527.25 140.5,-527.25"/>
</a>
</g>
</g>
<!-- Node5&#45;&gt;Node2 -->
<g id="edge4_Node000002_Node000005" class="edge">
<title>Node5&#45;&gt;Node2</title>
<g id="a_edge4_Node000002_Node000005"><a xlink:title=" ">
<path fill="none" stroke="#63b8ff" d="M181.29,-527.46C177.75,-495.28 172.49,-447.5 167.57,-402.76"/>
<polygon fill="none" stroke="#63b8ff" points="167.57,-402.76 162.93,-397.23 166.25,-390.83 170.89,-396.36 167.57,-402.76"/>
</a>
</g>
<text text-anchor="middle" x="183.7" y="-409.75" font-family="Helvetica,sans-Serif" font-size="10.00" fill="grey"> #stats</text>
</g>
</g>
</svg>
