<?xml version="1.0" encoding="UTF-8" standalone="no"?>
<!DOCTYPE svg PUBLIC "-//W3C//DTD SVG 1.1//EN"
 "http://www.w3.org/Graphics/SVG/1.1/DTD/svg11.dtd">
<!-- Generated by graphviz version 12.1.2 (20240928.0832)
 -->
<!-- Title: HordeSatSharing Pages: 1 -->
<!--zoomable 921 -->

<svg id="main" version="1.1" xmlns="http://www.w3.org/2000/svg" xmlns:xlink="http://www.w3.org/1999/xlink" xml:space="preserve" onload="init(evt)">

<style type="text/css"><![CDATA[
.node, .edge {opacity: 0.7;}
.node.selected, .edge.selected {opacity: 1;}
.edge:hover path { stroke: red; }
.edge:hover polygon { stroke: red; fill: red; }
]]></style>

<defs>
  <circle id="rim" cx="0" cy="0" r="7"/>
  <circle id="rim2" cx="0" cy="0" r="3.5"/>
  <g id="zoomPlus">
    <use xlink:href="#rim" fill="#404040"><set attributeName="fill" to="#808080" begin="zoomplus.mouseover" end="zoomplus.mouseout"/></use>
    <path d="M-4,0h8M0,-4v8" fill="none" stroke="white" stroke-width="1.5" pointer-events="none"/>
  </g>
  <g id="zoomMin">
    <use xlink:href="#rim" fill="#404040"><set attributeName="fill" to="#808080" begin="zoomminus.mouseover" end="zoomminus.mouseout"/></use>
    <path d="M-4,0h8" fill="none" stroke="white" stroke-width="1.5" pointer-events="none"/>
  </g>
  <g id="arrowUp" transform="translate(30 24)">
    <use xlink:href="#rim"/>
    <path pointer-events="none" fill="none" stroke="white" stroke-width="1.5" d="M0,-3.0v7 M-2.5,-0.5L0,-3.0L2.5,-0.5"/>
  </g>
  <g id="arrowRight" transform="rotate(90) translate(36 -43)">
    <use xlink:href="#rim"/>
    <path pointer-events="none" fill="none" stroke="white" stroke-width="1.5" d="M0,-3.0v7 M-2.5,-0.5L0,-3.0L2.5,-0.5"/>
  </g>
  <g id="arrowDown" transform="rotate(180) translate(-30 -48)">
    <use xlink:href="#rim"/>
    <path pointer-events="none" fill="none" stroke="white" stroke-width="1.5" d="M0,-3.0v7 M-2.5,-0.5L0,-3.0L2.5,-0.5"/>
  </g>
  <g id="arrowLeft" transform="rotate(270) translate(-36 17)">
    <use xlink:href="#rim"/>
    <path pointer-events="none" fill="none" stroke="white" stroke-width="1.5" d="M0,-3.0v7 M-2.5,-0.5L0,-3.0L2.5,-0.5"/>
  </g>
  <g id="resetDef">
    <use xlink:href="#rim2" fill="#404040"><set attributeName="fill" to="#808080" begin="reset.mouseover" end="reset.mouseout"/></use>
  </g>
</defs>
<script type="application/ecmascript">
var viewWidth = 256;
var viewHeight = 921;
var sectionId = 'dynsection-1';
</script>
<script type="application/ecmascript" xlink:href="svg.min.js"/>
<svg id="graph" class="graph">
<g id="viewport">
<title>HordeSatSharing</title>
<!-- Node1 -->
<g id="Node000001" class="node">
<title>Node1</title>
<g id="a_Node000001"><a xlink:title="This strategy is a HordeSat&#45;like sharing strategy.">
<polygon fill="#999999" stroke="none" points="247.5,-259 61.5,-259 61.5,0 247.5,0 247.5,-259"/>
<text text-anchor="start" x="117.38" y="-245.5" font-family="Helvetica,sans-Serif" font-size="10.00">HordeSatSharing</text>
<text text-anchor="start" x="65.88" y="-230.5" font-family="Helvetica,sans-Serif" font-size="10.00">#</text>
<text text-anchor="start" x="75.5" y="-230.5" font-family="Helvetica,sans-Serif" font-size="10.00">literalPerRound</text>
<text text-anchor="start" x="65.88" y="-215.5" font-family="Helvetica,sans-Serif" font-size="10.00">#</text>
<text text-anchor="start" x="75.5" y="-215.5" font-family="Helvetica,sans-Serif" font-size="10.00">initialLbdLimit</text>
<text text-anchor="start" x="65.88" y="-200.5" font-family="Helvetica,sans-Serif" font-size="10.00">#</text>
<text text-anchor="start" x="75.5" y="-200.5" font-family="Helvetica,sans-Serif" font-size="10.00">roundBeforeIncrease</text>
<text text-anchor="start" x="65.88" y="-185.5" font-family="Helvetica,sans-Serif" font-size="10.00">#</text>
<text text-anchor="start" x="75.5" y="-185.5" font-family="Helvetica,sans-Serif" font-size="10.00">round</text>
<text text-anchor="start" x="65.88" y="-170.5" font-family="Helvetica,sans-Serif" font-size="10.00">#</text>
<text text-anchor="start" x="75.5" y="-170.5" font-family="Helvetica,sans-Serif" font-size="10.00">selection</text>
<text text-anchor="start" x="65.88" y="-155.5" font-family="Helvetica,sans-Serif" font-size="10.00">#</text>
<text text-anchor="start" x="75.5" y="-155.5" font-family="Helvetica,sans-Serif" font-size="10.00">lbdLimitPerProducer</text>
<text text-anchor="start" x="65.88" y="-140.5" font-family="Helvetica,sans-Serif" font-size="10.00">#</text>
<text text-anchor="start" x="75.5" y="-140.5" font-family="Helvetica,sans-Serif" font-size="10.00">literalsPerProducer</text>
<text text-anchor="start" x="65.88" y="-125.5" font-family="Helvetica,sans-Serif" font-size="10.00">#</text>
<text text-anchor="start" x="75.5" y="-125.5" font-family="Helvetica,sans-Serif" font-size="10.00">UNDER_UTILIZATION_THRESHOLD</text>
<text text-anchor="start" x="65.88" y="-110.5" font-family="Helvetica,sans-Serif" font-size="10.00">#</text>
<text text-anchor="start" x="75.5" y="-110.5" font-family="Helvetica,sans-Serif" font-size="10.00">OVER_UTILIZATION_THRESHOLD</text>
<text text-anchor="start" x="65.5" y="-95.5" font-family="Helvetica,sans-Serif" font-size="10.00">+</text>
<text text-anchor="start" x="75.5" y="-95.5" font-family="Helvetica,sans-Serif" font-size="10.00">HordeSatSharing()</text>
<text text-anchor="start" x="65.5" y="-80.5" font-family="Helvetica,sans-Serif" font-size="10.00">+</text>
<text text-anchor="start" x="75.5" y="-80.5" font-family="Helvetica,sans-Serif" font-size="10.00">~HordeSatSharing()</text>
<text text-anchor="start" x="65.5" y="-65.5" font-family="Helvetica,sans-Serif" font-size="10.00">+</text>
<text text-anchor="start" x="75.5" y="-65.5" font-family="Helvetica,sans-Serif" font-size="10.00">importClause()</text>
<text text-anchor="start" x="65.5" y="-50.5" font-family="Helvetica,sans-Serif" font-size="10.00">+</text>
<text text-anchor="start" x="75.5" y="-50.5" font-family="Helvetica,sans-Serif" font-size="10.00">importClauses()</text>
<text text-anchor="start" x="65.5" y="-35.5" font-family="Helvetica,sans-Serif" font-size="10.00">+</text>
<text text-anchor="start" x="75.5" y="-35.5" font-family="Helvetica,sans-Serif" font-size="10.00">doSharing()</text>
<text text-anchor="start" x="65.88" y="-20.5" font-family="Helvetica,sans-Serif" font-size="10.00">#</text>
<text text-anchor="start" x="75.5" y="-20.5" font-family="Helvetica,sans-Serif" font-size="10.00">addProducer()</text>
<text text-anchor="start" x="65.88" y="-5.5" font-family="Helvetica,sans-Serif" font-size="10.00">#</text>
<text text-anchor="start" x="75.5" y="-5.5" font-family="Helvetica,sans-Serif" font-size="10.00">removeProducer()</text>
<polygon fill="#666666" stroke="#666666" points="61.5,-242 61.5,-242 247.5,-242 247.5,-242 61.5,-242"/>
<polygon fill="#666666" stroke="#666666" points="61.5,-107 61.5,-107 73.5,-107 73.5,-107 61.5,-107"/>
<polygon fill="#666666" stroke="#666666" points="73.5,-107 73.5,-107 247.5,-107 247.5,-107 73.5,-107"/>
<polygon fill="none" stroke="#666666" points="61.5,0 61.5,-259 247.5,-259 247.5,0 61.5,0"/>
</a>
</g>
</g>
<!-- Node2 -->
<g id="Node000002" class="node">
<title>Node2</title>
<g id="a_Node000002"><a xlink:href="classSharingStrategy.html" target="_top" xlink:title="SharingStrategy class, inheriting from SharingEntity.">
<polygon fill="white" stroke="none" points="231,-510 78,-510 78,-296 231,-296 231,-510"/>
<text text-anchor="start" x="120" y="-496.5" font-family="Helvetica,sans-Serif" font-size="10.00">SharingStrategy</text>
<text text-anchor="start" x="82.38" y="-481.5" font-family="Helvetica,sans-Serif" font-size="10.00">#</text>
<text text-anchor="start" x="92" y="-481.5" font-family="Helvetica,sans-Serif" font-size="10.00">m_clauseDB</text>
<text text-anchor="start" x="82.38" y="-466.5" font-family="Helvetica,sans-Serif" font-size="10.00">#</text>
<text text-anchor="start" x="92" y="-466.5" font-family="Helvetica,sans-Serif" font-size="10.00">m_producers</text>
<text text-anchor="start" x="82.38" y="-451.5" font-family="Helvetica,sans-Serif" font-size="10.00">#</text>
<text text-anchor="start" x="92" y="-451.5" font-family="Helvetica,sans-Serif" font-size="10.00">m_producersMutex</text>
<text text-anchor="start" x="82" y="-436.5" font-family="Helvetica,sans-Serif" font-size="10.00">+</text>
<text text-anchor="start" x="92" y="-436.5" font-family="Helvetica,sans-Serif" font-size="10.00">SharingStrategy()</text>
<text text-anchor="start" x="82" y="-421.5" font-family="Helvetica,sans-Serif" font-size="10.00">+</text>
<text text-anchor="start" x="92" y="-421.5" font-family="Helvetica,sans-Serif" font-size="10.00">~SharingStrategy()</text>
<text text-anchor="start" x="82" y="-406.5" font-family="Helvetica,sans-Serif" font-size="10.00">+</text>
<text text-anchor="start" x="92" y="-406.5" font-family="Helvetica,sans-Serif" font-size="10.00">doSharing()</text>
<text text-anchor="start" x="82" y="-391.5" font-family="Helvetica,sans-Serif" font-size="10.00">+</text>
<text text-anchor="start" x="92" y="-391.5" font-family="Helvetica,sans-Serif" font-size="10.00">getSleepingTime()</text>
<text text-anchor="start" x="82" y="-376.5" font-family="Helvetica,sans-Serif" font-size="10.00">+</text>
<text text-anchor="start" x="92" y="-376.5" font-family="Helvetica,sans-Serif" font-size="10.00">printStats()</text>
<text text-anchor="start" x="82" y="-361.5" font-family="Helvetica,sans-Serif" font-size="10.00">+</text>
<text text-anchor="start" x="92" y="-361.5" font-family="Helvetica,sans-Serif" font-size="10.00">connectConstructorProducers()</text>
<text text-anchor="start" x="82" y="-346.5" font-family="Helvetica,sans-Serif" font-size="10.00">+</text>
<text text-anchor="start" x="92" y="-346.5" font-family="Helvetica,sans-Serif" font-size="10.00">addProducer()</text>
<text text-anchor="start" x="82" y="-331.5" font-family="Helvetica,sans-Serif" font-size="10.00">+</text>
<text text-anchor="start" x="92" y="-331.5" font-family="Helvetica,sans-Serif" font-size="10.00">connectProducer()</text>
<text text-anchor="start" x="82" y="-316.5" font-family="Helvetica,sans-Serif" font-size="10.00">+</text>
<text text-anchor="start" x="92" y="-316.5" font-family="Helvetica,sans-Serif" font-size="10.00">removeProducer()</text>
<text text-anchor="start" x="82.38" y="-301.5" font-family="Helvetica,sans-Serif" font-size="10.00">#</text>
<text text-anchor="start" x="92" y="-301.5" font-family="Helvetica,sans-Serif" font-size="10.00">exportClauseToClient()</text>
<polygon fill="#666666" stroke="#666666" points="78,-493 78,-493 231,-493 231,-493 78,-493"/>
<polygon fill="#666666" stroke="#666666" points="78,-448 78,-448 90,-448 90,-448 78,-448"/>
<polygon fill="#666666" stroke="#666666" points="90,-448 90,-448 231,-448 231,-448 90,-448"/>
<polygon fill="none" stroke="#666666" points="78,-296 78,-510 231,-510 231,-296 78,-296"/>
</a>
</g>
</g>
<!-- Node2&#45;&gt;Node1 -->
<g id="edge1_Node000001_Node000002" class="edge">
<title>Node2&#45;&gt;Node1</title>
<g id="a_edge1_Node000001_Node000002"><a xlink:title=" ">
<path fill="none" stroke="#63b8ff" d="M154.5,-284.87C154.5,-276.16 154.5,-267.34 154.5,-258.57"/>
<polygon fill="none" stroke="#63b8ff" points="151,-284.74 154.5,-294.74 158,-284.74 151,-284.74"/>
</a>
</g>
</g>
<!-- Node3 -->
<g id="Node000003" class="node">
<title>Node3</title>
<g id="a_Node000003"><a xlink:href="classSharingEntity.html" target="_top" xlink:title="A base class representing entities that can exchange clauses between themselves.">
<polygon fill="white" stroke="none" points="122.5,-816.25 6.5,-816.25 6.5,-557.25 122.5,-557.25 122.5,-816.25"/>
<text text-anchor="start" x="36" y="-802.75" font-family="Helvetica,sans-Serif" font-size="10.00">SharingEntity</text>
<text text-anchor="start" x="10.88" y="-787.75" font-family="Helvetica,sans-Serif" font-size="10.00">#</text>
<text text-anchor="start" x="20.5" y="-787.75" font-family="Helvetica,sans-Serif" font-size="10.00">m_clients</text>
<text text-anchor="start" x="10.88" y="-772.75" font-family="Helvetica,sans-Serif" font-size="10.00">#</text>
<text text-anchor="start" x="20.5" y="-772.75" font-family="Helvetica,sans-Serif" font-size="10.00">m_clientsMutex</text>
<text text-anchor="start" x="10.5" y="-757.75" font-family="Helvetica,sans-Serif" font-size="10.00">+</text>
<text text-anchor="start" x="20.5" y="-757.75" font-family="Helvetica,sans-Serif" font-size="10.00">SharingEntity()</text>
<text text-anchor="start" x="10.5" y="-742.75" font-family="Helvetica,sans-Serif" font-size="10.00">+</text>
<text text-anchor="start" x="20.5" y="-742.75" font-family="Helvetica,sans-Serif" font-size="10.00">SharingEntity()</text>
<text text-anchor="start" x="10.5" y="-727.75" font-family="Helvetica,sans-Serif" font-size="10.00">+</text>
<text text-anchor="start" x="20.5" y="-727.75" font-family="Helvetica,sans-Serif" font-size="10.00">~SharingEntity()</text>
<text text-anchor="start" x="10.5" y="-712.75" font-family="Helvetica,sans-Serif" font-size="10.00">+</text>
<text text-anchor="start" x="20.5" y="-712.75" font-family="Helvetica,sans-Serif" font-size="10.00">importClause()</text>
<text text-anchor="start" x="10.5" y="-697.75" font-family="Helvetica,sans-Serif" font-size="10.00">+</text>
<text text-anchor="start" x="20.5" y="-697.75" font-family="Helvetica,sans-Serif" font-size="10.00">importClauses()</text>
<text text-anchor="start" x="10.5" y="-682.75" font-family="Helvetica,sans-Serif" font-size="10.00">+</text>
<text text-anchor="start" x="20.5" y="-682.75" font-family="Helvetica,sans-Serif" font-size="10.00">getSharingId()</text>
<text text-anchor="start" x="10.5" y="-667.75" font-family="Helvetica,sans-Serif" font-size="10.00">+</text>
<text text-anchor="start" x="20.5" y="-667.75" font-family="Helvetica,sans-Serif" font-size="10.00">setSharingId()</text>
<text text-anchor="start" x="10.5" y="-652.75" font-family="Helvetica,sans-Serif" font-size="10.00">+</text>
<text text-anchor="start" x="20.5" y="-652.75" font-family="Helvetica,sans-Serif" font-size="10.00">addClient()</text>
<text text-anchor="start" x="10.5" y="-637.75" font-family="Helvetica,sans-Serif" font-size="10.00">+</text>
<text text-anchor="start" x="20.5" y="-637.75" font-family="Helvetica,sans-Serif" font-size="10.00">removeClient()</text>
<text text-anchor="start" x="10.5" y="-622.75" font-family="Helvetica,sans-Serif" font-size="10.00">+</text>
<text text-anchor="start" x="20.5" y="-622.75" font-family="Helvetica,sans-Serif" font-size="10.00">getClientCount()</text>
<text text-anchor="start" x="10.5" y="-607.75" font-family="Helvetica,sans-Serif" font-size="10.00">+</text>
<text text-anchor="start" x="20.5" y="-607.75" font-family="Helvetica,sans-Serif" font-size="10.00">clearClients()</text>
<text text-anchor="start" x="10.88" y="-592.75" font-family="Helvetica,sans-Serif" font-size="10.00">#</text>
<text text-anchor="start" x="20.5" y="-592.75" font-family="Helvetica,sans-Serif" font-size="10.00">exportClauseToClient()</text>
<text text-anchor="start" x="10.88" y="-577.75" font-family="Helvetica,sans-Serif" font-size="10.00">#</text>
<text text-anchor="start" x="20.5" y="-577.75" font-family="Helvetica,sans-Serif" font-size="10.00">exportClause()</text>
<text text-anchor="start" x="10.88" y="-562.75" font-family="Helvetica,sans-Serif" font-size="10.00">#</text>
<text text-anchor="start" x="20.5" y="-562.75" font-family="Helvetica,sans-Serif" font-size="10.00">exportClauses()</text>
<polygon fill="#666666" stroke="#666666" points="6.5,-799.25 6.5,-799.25 122.5,-799.25 122.5,-799.25 6.5,-799.25"/>
<polygon fill="#666666" stroke="#666666" points="6.5,-769.25 6.5,-769.25 18.5,-769.25 18.5,-769.25 6.5,-769.25"/>
<polygon fill="#666666" stroke="#666666" points="18.5,-769.25 18.5,-769.25 122.5,-769.25 122.5,-769.25 18.5,-769.25"/>
<polygon fill="none" stroke="#666666" points="6.5,-557.25 6.5,-816.25 122.5,-816.25 122.5,-557.25 6.5,-557.25"/>
</a>
</g>
</g>
<!-- Node3&#45;&gt;Node2 -->
<g id="edge2_Node000002_Node000003" class="edge">
<title>Node3&#45;&gt;Node2</title>
<g id="a_edge2_Node000002_Node000003"><a xlink:title=" ">
<path fill="none" stroke="#63b8ff" d="M108.9,-546.76C112.86,-534.35 116.83,-521.92 120.69,-509.85"/>
<polygon fill="none" stroke="#63b8ff" points="105.59,-545.62 105.88,-556.21 112.26,-547.75 105.59,-545.62"/>
</a>
</g>
</g>
<!-- Node4 -->
<g id="Node000004" class="node">
<title>Node4</title>
<g id="a_Node000004"><a xlink:title=" ">
<polygon fill="white" stroke="none" points="129,-913.25 0,-913.25 0,-853.25 129,-853.25 129,-913.25"/>
<text text-anchor="start" x="4.88" y="-899.75" font-family="Helvetica,sans-Serif" font-size="10.00">std::enable_shared</text>
<text text-anchor="start" x="4.88" y="-888.5" font-family="Helvetica,sans-Serif" font-size="10.00">_from_this&lt; SharingEntity &gt;</text>
<text text-anchor="start" x="63" y="-873.75" font-family="Helvetica,sans-Serif" font-size="10.00"> </text>
<text text-anchor="start" x="63" y="-858.75" font-family="Helvetica,sans-Serif" font-size="10.00"> </text>
<polygon fill="#bfbfbf" stroke="#bfbfbf" points="0,-885.25 0,-885.25 129,-885.25 129,-885.25 0,-885.25"/>
<polygon fill="#bfbfbf" stroke="#bfbfbf" points="0,-870.25 0,-870.25 129,-870.25 129,-870.25 0,-870.25"/>
<polygon fill="none" stroke="#bfbfbf" points="0,-853.25 0,-913.25 129,-913.25 129,-853.25 0,-853.25"/>
</a>
</g>
</g>
<!-- Node4&#45;&gt;Node3 -->
<g id="edge3_Node000003_Node000004" class="edge">
<title>Node4&#45;&gt;Node3</title>
<g id="a_edge3_Node000003_Node000004"><a xlink:title=" ">
<path fill="none" stroke="#63b8ff" d="M64.5,-842.09C64.5,-834.1 64.5,-825.31 64.5,-816.11"/>
<polygon fill="none" stroke="#63b8ff" points="61,-842.04 64.5,-852.04 68,-842.04 61,-842.04"/>
</a>
</g>
</g>
<!-- Node5 -->
<g id="Node000005" class="node">
<title>Node5</title>
<g id="a_Node000005"><a xlink:href="structSharingStatistics.html" target="_top" xlink:title="Local Sharing statistics.Sharing statistics.">
<polygon fill="white" stroke="none" points="230.5,-726.25 140.5,-726.25 140.5,-647.25 230.5,-647.25 230.5,-726.25"/>
<text text-anchor="start" x="148.38" y="-712.75" font-family="Helvetica,sans-Serif" font-size="10.00">SharingStatistics</text>
<text text-anchor="start" x="144.5" y="-697.75" font-family="Helvetica,sans-Serif" font-size="10.00">+</text>
<text text-anchor="start" x="154.5" y="-697.75" font-family="Helvetica,sans-Serif" font-size="10.00">sharedClauses</text>
<text text-anchor="start" x="144.5" y="-682.75" font-family="Helvetica,sans-Serif" font-size="10.00">+</text>
<text text-anchor="start" x="154.5" y="-682.75" font-family="Helvetica,sans-Serif" font-size="10.00">receivedClauses</text>
<text text-anchor="start" x="144.5" y="-667.75" font-family="Helvetica,sans-Serif" font-size="10.00">+</text>
<text text-anchor="start" x="154.5" y="-667.75" font-family="Helvetica,sans-Serif" font-size="10.00">filteredAtImport</text>
<text text-anchor="start" x="184" y="-652.75" font-family="Helvetica,sans-Serif" font-size="10.00"> </text>
<polygon fill="#666666" stroke="#666666" points="140.5,-709.25 140.5,-709.25 230.5,-709.25 230.5,-709.25 140.5,-709.25"/>
<polygon fill="#666666" stroke="#666666" points="140.5,-664.25 140.5,-664.25 152.5,-664.25 152.5,-664.25 140.5,-664.25"/>
<polygon fill="#666666" stroke="#666666" points="152.5,-664.25 152.5,-664.25 230.5,-664.25 230.5,-664.25 152.5,-664.25"/>
<polygon fill="none" stroke="#666666" points="140.5,-647.25 140.5,-726.25 230.5,-726.25 230.5,-647.25 140.5,-647.25"/>
</a>
</g>
</g>
<!-- Node5&#45;&gt;Node2 -->
<g id="edge4_Node000002_Node000005" class="edge">
<title>Node5&#45;&gt;Node2</title>
<g id="a_edge4_Node000002_Node000005"><a xlink:title=" ">
<path fill="none" stroke="#63b8ff" d="M181.29,-647.46C177.75,-615.28 172.49,-567.5 167.57,-522.76"/>
<polygon fill="none" stroke="#63b8ff" points="167.57,-522.76 162.93,-517.23 166.25,-510.83 170.89,-516.36 167.57,-522.76"/>
</a>
</g>
<text text-anchor="middle" x="183.7" y="-529.75" font-family="Helvetica,sans-Serif" font-size="10.00" fill="grey"> #stats</text>
</g>
</g>
</svg>

<g id="navigator" transform="translate(0 0)" fill="#404254">
  <rect fill="#f2f5e9" fill-opacity="0.5" stroke="#606060" stroke-width=".5" x="0" y="0" width="60" height="60"/>
  <use id="zoomplus" xlink:href="#zoomPlus" x="17" y="9" onmousedown="handleZoom(evt,'in')"/>
  <use id="zoomminus" xlink:href="#zoomMin" x="42" y="9" onmousedown="handleZoom(evt,'out')"/>
  <use id="reset" xlink:href="#resetDef" x="30" y="36" onmousedown="handleReset()"/>
   <use id="arrowup" xlink:href="#arrowUp" x="0" y="0" onmousedown="handlePan(0,-1)"/>
  <use id="arrowright" xlink:href="#arrowRight" x="0" y="0" onmousedown="handlePan(1,0)"/>
  <use id="arrowdown" xlink:href="#arrowDown" x="0" y="0" onmousedown="handlePan(0,1)"/>
  <use id="arrowleft" xlink:href="#arrowLeft" x="0" y="0" onmousedown="handlePan(-1,0)"/>
</g>
<svg viewBox="0 0 15 15" width="100%" height="30px" preserveAspectRatio="xMaxYMin meet">
 <g id="arrow_out" transform="scale(0.3 0.3)">
  <a xlink:href="classHordeSatSharing__coll__graph_org.svg" target="_base">
   <rect id="button" ry="5" rx="5" y="6" x="6" height="38" width="38"
        fill="#f2f5e9" fill-opacity="0.5" stroke="#606060" stroke-width="1.0"/>
   <path id="arrow"
     d="M 11.500037,31.436501 C 11.940474,20.09759 22.043105,11.32322 32.158766,21.979434 L 37.068811,17.246167 C 37.068811,17.246167 37.088388,32 37.088388,32 L 22.160133,31.978069 C 22.160133,31.978069 26.997745,27.140456 26.997745,27.140456 C 18.528582,18.264221 13.291696,25.230495 11.500037,31.436501 z"
     style="fill:#404040;"/>
  </a>
 </g>
</svg>

<style type='text/css'>
<![CDATA[
[data-mouse-over-selected='false'] { opacity: 0.7; }
[data-mouse-over-selected='true']  { opacity: 1.0; }
]]>
</style>
<script type="application/ecmascript"><![CDATA[
document.addEventListener('DOMContentLoaded', (event) => {
  highlightEdges();
  highlightAdjacentNodes();
});
]]></script>
</svg>
