<?xml version="1.0" encoding="UTF-8" standalone="no"?>
<!DOCTYPE svg PUBLIC "-//W3C//DTD SVG 1.1//EN"
 "http://www.w3.org/Graphics/SVG/1.1/DTD/svg11.dtd">
<!-- Generated by graphviz version 12.1.2 (20240928.0832)
 -->
<!-- Title: AllGatherSharing Pages: 1 -->
<svg width="346pt" height="1133pt"
 viewBox="0.00 0.00 346.00 1132.75" xmlns="http://www.w3.org/2000/svg" xmlns:xlink="http://www.w3.org/1999/xlink">
<g id="graph0" class="graph" transform="scale(1 1) rotate(0) translate(4 1128.75)">
<title>AllGatherSharing</title>
<!-- Node1 -->
<g id="Node000001" class="node">
<title>Node1</title>
<g id="a_Node000001"><a xlink:title="Implements a global sharing strategy using MPI_Allgather for clause exchange.">
<polygon fill="#999999" stroke="none" points="283,-184 156,-184 156,0 283,0 283,-184"/>
<text text-anchor="start" x="182.75" y="-170.5" font-family="Helvetica,sans-Serif" font-size="10.00">AllGatherSharing</text>
<text text-anchor="start" x="160.38" y="-155.5" font-family="Helvetica,sans-Serif" font-size="10.00">#</text>
<text text-anchor="start" x="170" y="-155.5" font-family="Helvetica,sans-Serif" font-size="10.00">totalSize</text>
<text text-anchor="start" x="160.38" y="-140.5" font-family="Helvetica,sans-Serif" font-size="10.00">#</text>
<text text-anchor="start" x="170" y="-140.5" font-family="Helvetica,sans-Serif" font-size="10.00">color</text>
<text text-anchor="start" x="160.38" y="-125.5" font-family="Helvetica,sans-Serif" font-size="10.00">#</text>
<text text-anchor="start" x="170" y="-125.5" font-family="Helvetica,sans-Serif" font-size="10.00">clausesToSendSerialized</text>
<text text-anchor="start" x="160.38" y="-110.5" font-family="Helvetica,sans-Serif" font-size="10.00">#</text>
<text text-anchor="start" x="170" y="-110.5" font-family="Helvetica,sans-Serif" font-size="10.00">receivedClauses</text>
<text text-anchor="start" x="160" y="-95.5" font-family="Helvetica,sans-Serif" font-size="10.00">+</text>
<text text-anchor="start" x="170" y="-95.5" font-family="Helvetica,sans-Serif" font-size="10.00">AllGatherSharing()</text>
<text text-anchor="start" x="160" y="-80.5" font-family="Helvetica,sans-Serif" font-size="10.00">+</text>
<text text-anchor="start" x="170" y="-80.5" font-family="Helvetica,sans-Serif" font-size="10.00">~AllGatherSharing()</text>
<text text-anchor="start" x="160" y="-65.5" font-family="Helvetica,sans-Serif" font-size="10.00">+</text>
<text text-anchor="start" x="170" y="-65.5" font-family="Helvetica,sans-Serif" font-size="10.00">doSharing()</text>
<text text-anchor="start" x="160" y="-50.5" font-family="Helvetica,sans-Serif" font-size="10.00">+</text>
<text text-anchor="start" x="170" y="-50.5" font-family="Helvetica,sans-Serif" font-size="10.00">initMpiVariables()</text>
<text text-anchor="start" x="160" y="-35.5" font-family="Helvetica,sans-Serif" font-size="10.00">+</text>
<text text-anchor="start" x="170" y="-35.5" font-family="Helvetica,sans-Serif" font-size="10.00">joinProcess()</text>
<text text-anchor="start" x="160.38" y="-20.5" font-family="Helvetica,sans-Serif" font-size="10.00">#</text>
<text text-anchor="start" x="170" y="-20.5" font-family="Helvetica,sans-Serif" font-size="10.00">serializeClauses()</text>
<text text-anchor="start" x="160.38" y="-5.5" font-family="Helvetica,sans-Serif" font-size="10.00">#</text>
<text text-anchor="start" x="170" y="-5.5" font-family="Helvetica,sans-Serif" font-size="10.00">deserializeClauses()</text>
<polygon fill="#666666" stroke="#666666" points="156,-167 156,-167 283,-167 283,-167 156,-167"/>
<polygon fill="#666666" stroke="#666666" points="156,-107 156,-107 168,-107 168,-107 156,-107"/>
<polygon fill="#666666" stroke="#666666" points="168,-107 168,-107 283,-107 283,-107 168,-107"/>
<polygon fill="none" stroke="#666666" points="156,0 156,-184 283,-184 283,0 156,0"/>
</a>
</g>
</g>
<!-- Node2 -->
<g id="Node000002" class="node">
<title>Node2</title>
<g id="a_Node000002"><a xlink:href="classGlobalSharingStrategy.html" target="_top" xlink:title="Base class for global clause sharing strategies across MPI processes.">
<polygon fill="white" stroke="none" points="216.5,-460.25 90.5,-460.25 90.5,-231.25 216.5,-231.25 216.5,-460.25"/>
<text text-anchor="start" x="105.12" y="-446.75" font-family="Helvetica,sans-Serif" font-size="10.00">GlobalSharingStrategy</text>
<text text-anchor="start" x="94.88" y="-431.75" font-family="Helvetica,sans-Serif" font-size="10.00">#</text>
<text text-anchor="start" x="104.5" y="-431.75" font-family="Helvetica,sans-Serif" font-size="10.00">requests_sent</text>
<text text-anchor="start" x="94.88" y="-416.75" font-family="Helvetica,sans-Serif" font-size="10.00">#</text>
<text text-anchor="start" x="104.5" y="-416.75" font-family="Helvetica,sans-Serif" font-size="10.00">recv_end_requests</text>
<text text-anchor="start" x="94.88" y="-401.75" font-family="Helvetica,sans-Serif" font-size="10.00">#</text>
<text text-anchor="start" x="104.5" y="-401.75" font-family="Helvetica,sans-Serif" font-size="10.00">send_end_request</text>
<text text-anchor="start" x="94.88" y="-386.75" font-family="Helvetica,sans-Serif" font-size="10.00">#</text>
<text text-anchor="start" x="104.5" y="-386.75" font-family="Helvetica,sans-Serif" font-size="10.00">receivedFinalResultRoot</text>
<text text-anchor="start" x="94.5" y="-371.75" font-family="Helvetica,sans-Serif" font-size="10.00">+</text>
<text text-anchor="start" x="104.5" y="-371.75" font-family="Helvetica,sans-Serif" font-size="10.00">GlobalSharingStrategy()</text>
<text text-anchor="start" x="94.5" y="-356.75" font-family="Helvetica,sans-Serif" font-size="10.00">+</text>
<text text-anchor="start" x="104.5" y="-356.75" font-family="Helvetica,sans-Serif" font-size="10.00">~GlobalSharingStrategy()</text>
<text text-anchor="start" x="94.5" y="-341.75" font-family="Helvetica,sans-Serif" font-size="10.00">+</text>
<text text-anchor="start" x="104.5" y="-341.75" font-family="Helvetica,sans-Serif" font-size="10.00">importClause()</text>
<text text-anchor="start" x="94.5" y="-326.75" font-family="Helvetica,sans-Serif" font-size="10.00">+</text>
<text text-anchor="start" x="104.5" y="-326.75" font-family="Helvetica,sans-Serif" font-size="10.00">importClauses()</text>
<text text-anchor="start" x="94.5" y="-311.75" font-family="Helvetica,sans-Serif" font-size="10.00">+</text>
<text text-anchor="start" x="104.5" y="-311.75" font-family="Helvetica,sans-Serif" font-size="10.00">exportClauseToClient()</text>
<text text-anchor="start" x="94.5" y="-296.75" font-family="Helvetica,sans-Serif" font-size="10.00">+</text>
<text text-anchor="start" x="104.5" y="-296.75" font-family="Helvetica,sans-Serif" font-size="10.00">getSleepingTime()</text>
<text text-anchor="start" x="94.5" y="-281.75" font-family="Helvetica,sans-Serif" font-size="10.00">+</text>
<text text-anchor="start" x="104.5" y="-281.75" font-family="Helvetica,sans-Serif" font-size="10.00">joinProcess()</text>
<text text-anchor="start" x="94.5" y="-266.75" font-family="Helvetica,sans-Serif" font-size="10.00">+</text>
<text text-anchor="start" x="104.5" y="-266.75" font-family="Helvetica,sans-Serif" font-size="10.00">printStats()</text>
<text text-anchor="start" x="94.5" y="-251.75" font-family="Helvetica,sans-Serif" font-size="10.00">+</text>
<text text-anchor="start" x="104.5" y="-251.75" font-family="Helvetica,sans-Serif" font-size="10.00">initMpiVariables()</text>
<text text-anchor="start" x="94.5" y="-236.75" font-family="Helvetica,sans-Serif" font-size="10.00">+</text>
<text text-anchor="start" x="104.5" y="-236.75" font-family="Helvetica,sans-Serif" font-size="10.00">doSharing()</text>
<polygon fill="#666666" stroke="#666666" points="90.5,-443.25 90.5,-443.25 216.5,-443.25 216.5,-443.25 90.5,-443.25"/>
<polygon fill="#666666" stroke="#666666" points="90.5,-383.25 90.5,-383.25 102.5,-383.25 102.5,-383.25 90.5,-383.25"/>
<polygon fill="#666666" stroke="#666666" points="102.5,-383.25 102.5,-383.25 216.5,-383.25 216.5,-383.25 102.5,-383.25"/>
<polygon fill="none" stroke="#666666" points="90.5,-231.25 90.5,-460.25 216.5,-460.25 216.5,-231.25 90.5,-231.25"/>
</a>
</g>
</g>
<!-- Node2&#45;&gt;Node1 -->
<g id="edge1_Node000001_Node000002" class="edge">
<title>Node2&#45;&gt;Node1</title>
<g id="a_edge1_Node000001_Node000002"><a xlink:title=" ">
<path fill="none" stroke="#63b8ff" d="M186.06,-220.54C189.31,-208.17 192.55,-195.78 195.68,-183.85"/>
<polygon fill="none" stroke="#63b8ff" points="182.75,-219.37 183.6,-229.93 189.52,-221.15 182.75,-219.37"/>
</a>
</g>
</g>
<!-- Node3 -->
<g id="Node000003" class="node">
<title>Node3</title>
<g id="a_Node000003"><a xlink:href="classSharingStrategy.html" target="_top" xlink:title="SharingStrategy class, inheriting from SharingEntity.">
<polygon fill="white" stroke="none" points="153,-721.5 0,-721.5 0,-507.5 153,-507.5 153,-721.5"/>
<text text-anchor="start" x="42" y="-708" font-family="Helvetica,sans-Serif" font-size="10.00">SharingStrategy</text>
<text text-anchor="start" x="4.38" y="-693" font-family="Helvetica,sans-Serif" font-size="10.00">#</text>
<text text-anchor="start" x="14" y="-693" font-family="Helvetica,sans-Serif" font-size="10.00">m_clauseDB</text>
<text text-anchor="start" x="4.38" y="-678" font-family="Helvetica,sans-Serif" font-size="10.00">#</text>
<text text-anchor="start" x="14" y="-678" font-family="Helvetica,sans-Serif" font-size="10.00">m_producers</text>
<text text-anchor="start" x="4.38" y="-663" font-family="Helvetica,sans-Serif" font-size="10.00">#</text>
<text text-anchor="start" x="14" y="-663" font-family="Helvetica,sans-Serif" font-size="10.00">m_producersMutex</text>
<text text-anchor="start" x="4" y="-648" font-family="Helvetica,sans-Serif" font-size="10.00">+</text>
<text text-anchor="start" x="14" y="-648" font-family="Helvetica,sans-Serif" font-size="10.00">SharingStrategy()</text>
<text text-anchor="start" x="4" y="-633" font-family="Helvetica,sans-Serif" font-size="10.00">+</text>
<text text-anchor="start" x="14" y="-633" font-family="Helvetica,sans-Serif" font-size="10.00">~SharingStrategy()</text>
<text text-anchor="start" x="4" y="-618" font-family="Helvetica,sans-Serif" font-size="10.00">+</text>
<text text-anchor="start" x="14" y="-618" font-family="Helvetica,sans-Serif" font-size="10.00">doSharing()</text>
<text text-anchor="start" x="4" y="-603" font-family="Helvetica,sans-Serif" font-size="10.00">+</text>
<text text-anchor="start" x="14" y="-603" font-family="Helvetica,sans-Serif" font-size="10.00">getSleepingTime()</text>
<text text-anchor="start" x="4" y="-588" font-family="Helvetica,sans-Serif" font-size="10.00">+</text>
<text text-anchor="start" x="14" y="-588" font-family="Helvetica,sans-Serif" font-size="10.00">printStats()</text>
<text text-anchor="start" x="4" y="-573" font-family="Helvetica,sans-Serif" font-size="10.00">+</text>
<text text-anchor="start" x="14" y="-573" font-family="Helvetica,sans-Serif" font-size="10.00">connectConstructorProducers()</text>
<text text-anchor="start" x="4" y="-558" font-family="Helvetica,sans-Serif" font-size="10.00">+</text>
<text text-anchor="start" x="14" y="-558" font-family="Helvetica,sans-Serif" font-size="10.00">addProducer()</text>
<text text-anchor="start" x="4" y="-543" font-family="Helvetica,sans-Serif" font-size="10.00">+</text>
<text text-anchor="start" x="14" y="-543" font-family="Helvetica,sans-Serif" font-size="10.00">connectProducer()</text>
<text text-anchor="start" x="4" y="-528" font-family="Helvetica,sans-Serif" font-size="10.00">+</text>
<text text-anchor="start" x="14" y="-528" font-family="Helvetica,sans-Serif" font-size="10.00">removeProducer()</text>
<text text-anchor="start" x="4.38" y="-513" font-family="Helvetica,sans-Serif" font-size="10.00">#</text>
<text text-anchor="start" x="14" y="-513" font-family="Helvetica,sans-Serif" font-size="10.00">exportClauseToClient()</text>
<polygon fill="#666666" stroke="#666666" points="0,-704.5 0,-704.5 153,-704.5 153,-704.5 0,-704.5"/>
<polygon fill="#666666" stroke="#666666" points="0,-659.5 0,-659.5 12,-659.5 12,-659.5 0,-659.5"/>
<polygon fill="#666666" stroke="#666666" points="12,-659.5 12,-659.5 153,-659.5 153,-659.5 12,-659.5"/>
<polygon fill="none" stroke="#666666" points="0,-507.5 0,-721.5 153,-721.5 153,-507.5 0,-507.5"/>
</a>
</g>
</g>
<!-- Node3&#45;&gt;Node2 -->
<g id="edge2_Node000002_Node000003" class="edge">
<title>Node3&#45;&gt;Node2</title>
<g id="a_edge2_Node000002_Node000003"><a xlink:title=" ">
<path fill="none" stroke="#63b8ff" d="M110.15,-496.94C113.7,-484.64 117.3,-472.15 120.84,-459.89"/>
<polygon fill="none" stroke="#63b8ff" points="106.87,-495.66 107.46,-506.24 113.6,-497.6 106.87,-495.66"/>
</a>
</g>
</g>
<!-- Node4 -->
<g id="Node000004" class="node">
<title>Node4</title>
<g id="a_Node000004"><a xlink:href="classSharingEntity.html" target="_top" xlink:title="A base class representing entities that can exchange clauses between themselves.">
<polygon fill="white" stroke="none" points="134.5,-1027.75 18.5,-1027.75 18.5,-768.75 134.5,-768.75 134.5,-1027.75"/>
<text text-anchor="start" x="48" y="-1014.25" font-family="Helvetica,sans-Serif" font-size="10.00">SharingEntity</text>
<text text-anchor="start" x="22.88" y="-999.25" font-family="Helvetica,sans-Serif" font-size="10.00">#</text>
<text text-anchor="start" x="32.5" y="-999.25" font-family="Helvetica,sans-Serif" font-size="10.00">m_clients</text>
<text text-anchor="start" x="22.88" y="-984.25" font-family="Helvetica,sans-Serif" font-size="10.00">#</text>
<text text-anchor="start" x="32.5" y="-984.25" font-family="Helvetica,sans-Serif" font-size="10.00">m_clientsMutex</text>
<text text-anchor="start" x="22.5" y="-969.25" font-family="Helvetica,sans-Serif" font-size="10.00">+</text>
<text text-anchor="start" x="32.5" y="-969.25" font-family="Helvetica,sans-Serif" font-size="10.00">SharingEntity()</text>
<text text-anchor="start" x="22.5" y="-954.25" font-family="Helvetica,sans-Serif" font-size="10.00">+</text>
<text text-anchor="start" x="32.5" y="-954.25" font-family="Helvetica,sans-Serif" font-size="10.00">SharingEntity()</text>
<text text-anchor="start" x="22.5" y="-939.25" font-family="Helvetica,sans-Serif" font-size="10.00">+</text>
<text text-anchor="start" x="32.5" y="-939.25" font-family="Helvetica,sans-Serif" font-size="10.00">~SharingEntity()</text>
<text text-anchor="start" x="22.5" y="-924.25" font-family="Helvetica,sans-Serif" font-size="10.00">+</text>
<text text-anchor="start" x="32.5" y="-924.25" font-family="Helvetica,sans-Serif" font-size="10.00">importClause()</text>
<text text-anchor="start" x="22.5" y="-909.25" font-family="Helvetica,sans-Serif" font-size="10.00">+</text>
<text text-anchor="start" x="32.5" y="-909.25" font-family="Helvetica,sans-Serif" font-size="10.00">importClauses()</text>
<text text-anchor="start" x="22.5" y="-894.25" font-family="Helvetica,sans-Serif" font-size="10.00">+</text>
<text text-anchor="start" x="32.5" y="-894.25" font-family="Helvetica,sans-Serif" font-size="10.00">getSharingId()</text>
<text text-anchor="start" x="22.5" y="-879.25" font-family="Helvetica,sans-Serif" font-size="10.00">+</text>
<text text-anchor="start" x="32.5" y="-879.25" font-family="Helvetica,sans-Serif" font-size="10.00">setSharingId()</text>
<text text-anchor="start" x="22.5" y="-864.25" font-family="Helvetica,sans-Serif" font-size="10.00">+</text>
<text text-anchor="start" x="32.5" y="-864.25" font-family="Helvetica,sans-Serif" font-size="10.00">addClient()</text>
<text text-anchor="start" x="22.5" y="-849.25" font-family="Helvetica,sans-Serif" font-size="10.00">+</text>
<text text-anchor="start" x="32.5" y="-849.25" font-family="Helvetica,sans-Serif" font-size="10.00">removeClient()</text>
<text text-anchor="start" x="22.5" y="-834.25" font-family="Helvetica,sans-Serif" font-size="10.00">+</text>
<text text-anchor="start" x="32.5" y="-834.25" font-family="Helvetica,sans-Serif" font-size="10.00">getClientCount()</text>
<text text-anchor="start" x="22.5" y="-819.25" font-family="Helvetica,sans-Serif" font-size="10.00">+</text>
<text text-anchor="start" x="32.5" y="-819.25" font-family="Helvetica,sans-Serif" font-size="10.00">clearClients()</text>
<text text-anchor="start" x="22.88" y="-804.25" font-family="Helvetica,sans-Serif" font-size="10.00">#</text>
<text text-anchor="start" x="32.5" y="-804.25" font-family="Helvetica,sans-Serif" font-size="10.00">exportClauseToClient()</text>
<text text-anchor="start" x="22.88" y="-789.25" font-family="Helvetica,sans-Serif" font-size="10.00">#</text>
<text text-anchor="start" x="32.5" y="-789.25" font-family="Helvetica,sans-Serif" font-size="10.00">exportClause()</text>
<text text-anchor="start" x="22.88" y="-774.25" font-family="Helvetica,sans-Serif" font-size="10.00">#</text>
<text text-anchor="start" x="32.5" y="-774.25" font-family="Helvetica,sans-Serif" font-size="10.00">exportClauses()</text>
<polygon fill="#666666" stroke="#666666" points="18.5,-1010.75 18.5,-1010.75 134.5,-1010.75 134.5,-1010.75 18.5,-1010.75"/>
<polygon fill="#666666" stroke="#666666" points="18.5,-980.75 18.5,-980.75 30.5,-980.75 30.5,-980.75 18.5,-980.75"/>
<polygon fill="#666666" stroke="#666666" points="30.5,-980.75 30.5,-980.75 134.5,-980.75 134.5,-980.75 30.5,-980.75"/>
<polygon fill="none" stroke="#666666" points="18.5,-768.75 18.5,-1027.75 134.5,-1027.75 134.5,-768.75 18.5,-768.75"/>
</a>
</g>
</g>
<!-- Node4&#45;&gt;Node3 -->
<g id="edge3_Node000003_Node000004" class="edge">
<title>Node4&#45;&gt;Node3</title>
<g id="a_edge3_Node000003_Node000004"><a xlink:title=" ">
<path fill="none" stroke="#63b8ff" d="M76.5,-757.88C76.5,-745.6 76.5,-733.3 76.5,-721.35"/>
<polygon fill="none" stroke="#63b8ff" points="73,-757.64 76.5,-767.64 80,-757.64 73,-757.64"/>
</a>
</g>
</g>
<!-- Node5 -->
<g id="Node000005" class="node">
<title>Node5</title>
<g id="a_Node000005"><a xlink:title=" ">
<polygon fill="white" stroke="none" points="141,-1124.75 12,-1124.75 12,-1064.75 141,-1064.75 141,-1124.75"/>
<text text-anchor="start" x="16.88" y="-1111.25" font-family="Helvetica,sans-Serif" font-size="10.00">std::enable_shared</text>
<text text-anchor="start" x="16.88" y="-1100" font-family="Helvetica,sans-Serif" font-size="10.00">_from_this&lt; SharingEntity &gt;</text>
<text text-anchor="start" x="75" y="-1085.25" font-family="Helvetica,sans-Serif" font-size="10.00"> </text>
<text text-anchor="start" x="75" y="-1070.25" font-family="Helvetica,sans-Serif" font-size="10.00"> </text>
<polygon fill="#bfbfbf" stroke="#bfbfbf" points="12,-1096.75 12,-1096.75 141,-1096.75 141,-1096.75 12,-1096.75"/>
<polygon fill="#bfbfbf" stroke="#bfbfbf" points="12,-1081.75 12,-1081.75 141,-1081.75 141,-1081.75 12,-1081.75"/>
<polygon fill="none" stroke="#bfbfbf" points="12,-1064.75 12,-1124.75 141,-1124.75 141,-1064.75 12,-1064.75"/>
</a>
</g>
</g>
<!-- Node5&#45;&gt;Node4 -->
<g id="edge4_Node000004_Node000005" class="edge">
<title>Node5&#45;&gt;Node4</title>
<g id="a_edge4_Node000004_Node000005"><a xlink:title=" ">
<path fill="none" stroke="#63b8ff" d="M76.5,-1053.59C76.5,-1045.6 76.5,-1036.81 76.5,-1027.61"/>
<polygon fill="none" stroke="#63b8ff" points="73,-1053.54 76.5,-1063.54 80,-1053.54 73,-1053.54"/>
</a>
</g>
</g>
<!-- Node6 -->
<g id="Node000006" class="node">
<title>Node6</title>
<g id="a_Node000006"><a xlink:href="structSharingStatistics.html" target="_top" xlink:title="Local Sharing statistics.Sharing statistics.">
<polygon fill="white" stroke="none" points="259.5,-937.75 169.5,-937.75 169.5,-858.75 259.5,-858.75 259.5,-937.75"/>
<text text-anchor="start" x="177.38" y="-924.25" font-family="Helvetica,sans-Serif" font-size="10.00">SharingStatistics</text>
<text text-anchor="start" x="173.5" y="-909.25" font-family="Helvetica,sans-Serif" font-size="10.00">+</text>
<text text-anchor="start" x="183.5" y="-909.25" font-family="Helvetica,sans-Serif" font-size="10.00">sharedClauses</text>
<text text-anchor="start" x="173.5" y="-894.25" font-family="Helvetica,sans-Serif" font-size="10.00">+</text>
<text text-anchor="start" x="183.5" y="-894.25" font-family="Helvetica,sans-Serif" font-size="10.00">receivedClauses</text>
<text text-anchor="start" x="173.5" y="-879.25" font-family="Helvetica,sans-Serif" font-size="10.00">+</text>
<text text-anchor="start" x="183.5" y="-879.25" font-family="Helvetica,sans-Serif" font-size="10.00">filteredAtImport</text>
<text text-anchor="start" x="213" y="-864.25" font-family="Helvetica,sans-Serif" font-size="10.00"> </text>
<polygon fill="#666666" stroke="#666666" points="169.5,-920.75 169.5,-920.75 259.5,-920.75 259.5,-920.75 169.5,-920.75"/>
<polygon fill="#666666" stroke="#666666" points="169.5,-875.75 169.5,-875.75 181.5,-875.75 181.5,-875.75 169.5,-875.75"/>
<polygon fill="#666666" stroke="#666666" points="181.5,-875.75 181.5,-875.75 259.5,-875.75 259.5,-875.75 181.5,-875.75"/>
<polygon fill="none" stroke="#666666" points="169.5,-858.75 169.5,-937.75 259.5,-937.75 259.5,-858.75 169.5,-858.75"/>
</a>
</g>
</g>
<!-- Node6&#45;&gt;Node3 -->
<g id="edge5_Node000003_Node000006" class="edge">
<title>Node6&#45;&gt;Node3</title>
<g id="a_edge5_Node000003_Node000006"><a xlink:title=" ">
<path fill="none" stroke="#63b8ff" d="M195.75,-858.96C179.85,-826.5 156.18,-778.18 134.11,-733.12"/>
<polygon fill="none" stroke="#63b8ff" points="134.06,-733.02 127.83,-729.39 128.78,-722.24 135.01,-725.87 134.06,-733.02"/>
</a>
</g>
<text text-anchor="middle" x="155.99" y="-741.25" font-family="Helvetica,sans-Serif" font-size="10.00" fill="grey"> #stats</text>
</g>
<!-- Node7 -->
<g id="Node000007" class="node">
<title>Node7</title>
<g id="a_Node000007"><a xlink:href="structGlobalSharingStatistics.html" target="_top" xlink:title="Statistics of a global sharing strategy.">
<polygon fill="white" stroke="none" points="291.5,-654 171.5,-654 171.5,-575 291.5,-575 291.5,-654"/>
<text text-anchor="start" x="180.5" y="-640.5" font-family="Helvetica,sans-Serif" font-size="10.00">GlobalSharingStatistics</text>
<text text-anchor="start" x="175.5" y="-625.5" font-family="Helvetica,sans-Serif" font-size="10.00">+</text>
<text text-anchor="start" x="185.5" y="-625.5" font-family="Helvetica,sans-Serif" font-size="10.00">sharedDuplicasAvoided</text>
<text text-anchor="start" x="175.5" y="-610.5" font-family="Helvetica,sans-Serif" font-size="10.00">+</text>
<text text-anchor="start" x="185.5" y="-610.5" font-family="Helvetica,sans-Serif" font-size="10.00">receivedDuplicas</text>
<text text-anchor="start" x="175.5" y="-595.5" font-family="Helvetica,sans-Serif" font-size="10.00">+</text>
<text text-anchor="start" x="185.5" y="-595.5" font-family="Helvetica,sans-Serif" font-size="10.00">messagesSent</text>
<text text-anchor="start" x="230" y="-580.5" font-family="Helvetica,sans-Serif" font-size="10.00"> </text>
<polygon fill="#666666" stroke="#666666" points="171.5,-637 171.5,-637 291.5,-637 291.5,-637 171.5,-637"/>
<polygon fill="#666666" stroke="#666666" points="171.5,-592 171.5,-592 183.5,-592 183.5,-592 171.5,-592"/>
<polygon fill="#666666" stroke="#666666" points="183.5,-592 183.5,-592 291.5,-592 291.5,-592 183.5,-592"/>
<polygon fill="none" stroke="#666666" points="171.5,-575 171.5,-654 291.5,-654 291.5,-575 171.5,-575"/>
</a>
</g>
</g>
<!-- Node6&#45;&gt;Node7 -->
<g id="edge7_Node000007_Node000006" class="edge">
<title>Node6&#45;&gt;Node7</title>
<g id="a_edge7_Node000007_Node000006"><a xlink:title=" ">
<path fill="none" stroke="#63b8ff" d="M217.49,-847.68C220.83,-792.33 226.16,-703.95 229.19,-653.71"/>
<polygon fill="none" stroke="#63b8ff" points="214.01,-847.26 216.9,-857.45 221,-847.68 214.01,-847.26"/>
</a>
</g>
</g>
<!-- Node7&#45;&gt;Node2 -->
<g id="edge6_Node000002_Node000007" class="edge">
<title>Node7&#45;&gt;Node2</title>
<g id="a_edge6_Node000002_Node000007"><a xlink:title=" ">
<path fill="none" stroke="#63b8ff" d="M220.32,-575.28C212.36,-548.05 201.17,-509.77 190.22,-472.32"/>
<polygon fill="none" stroke="#63b8ff" points="190.29,-472.58 184.77,-467.95 186.93,-461.07 192.45,-465.7 190.29,-472.58"/>
</a>
</g>
<text text-anchor="middle" x="212.09" y="-480" font-family="Helvetica,sans-Serif" font-size="10.00" fill="grey"> #gstats</text>
</g>
<!-- Node8 -->
<g id="Node000008" class="node">
<title>Node8</title>
<g id="a_Node000008"><a xlink:href="classBloomFilter.html" target="_top" xlink:title=" ">
<polygon fill="white" stroke="none" points="338,-430.25 235,-430.25 235,-261.25 338,-261.25 338,-430.25"/>
<text text-anchor="start" x="261.75" y="-416.75" font-family="Helvetica,sans-Serif" font-size="10.00">BloomFilter</text>
<text text-anchor="start" x="285" y="-401.75" font-family="Helvetica,sans-Serif" font-size="10.00"> </text>
<text text-anchor="start" x="239" y="-386.75" font-family="Helvetica,sans-Serif" font-size="10.00">+</text>
<text text-anchor="start" x="249" y="-386.75" font-family="Helvetica,sans-Serif" font-size="10.00">BloomFilter()</text>
<text text-anchor="start" x="239" y="-371.75" font-family="Helvetica,sans-Serif" font-size="10.00">+</text>
<text text-anchor="start" x="249" y="-371.75" font-family="Helvetica,sans-Serif" font-size="10.00">BloomFilter()</text>
<text text-anchor="start" x="239" y="-356.75" font-family="Helvetica,sans-Serif" font-size="10.00">+</text>
<text text-anchor="start" x="249" y="-356.75" font-family="Helvetica,sans-Serif" font-size="10.00">BloomFilter()</text>
<text text-anchor="start" x="239" y="-341.75" font-family="Helvetica,sans-Serif" font-size="10.00">+</text>
<text text-anchor="start" x="249" y="-341.75" font-family="Helvetica,sans-Serif" font-size="10.00">~BloomFilter()</text>
<text text-anchor="start" x="239" y="-326.75" font-family="Helvetica,sans-Serif" font-size="10.00">+</text>
<text text-anchor="start" x="249" y="-326.75" font-family="Helvetica,sans-Serif" font-size="10.00">insert()</text>
<text text-anchor="start" x="239" y="-311.75" font-family="Helvetica,sans-Serif" font-size="10.00">+</text>
<text text-anchor="start" x="249" y="-311.75" font-family="Helvetica,sans-Serif" font-size="10.00">test_and_insert()</text>
<text text-anchor="start" x="239" y="-296.75" font-family="Helvetica,sans-Serif" font-size="10.00">+</text>
<text text-anchor="start" x="249" y="-296.75" font-family="Helvetica,sans-Serif" font-size="10.00">test_and_insert()</text>
<text text-anchor="start" x="239" y="-281.75" font-family="Helvetica,sans-Serif" font-size="10.00">+</text>
<text text-anchor="start" x="249" y="-281.75" font-family="Helvetica,sans-Serif" font-size="10.00">contains_or_insert()</text>
<text text-anchor="start" x="239" y="-266.75" font-family="Helvetica,sans-Serif" font-size="10.00">+</text>
<text text-anchor="start" x="249" y="-266.75" font-family="Helvetica,sans-Serif" font-size="10.00">contains()</text>
<polygon fill="#bfbfbf" stroke="#bfbfbf" points="235,-413.25 235,-413.25 338,-413.25 338,-413.25 235,-413.25"/>
<polygon fill="#bfbfbf" stroke="#bfbfbf" points="235,-398.25 235,-398.25 338,-398.25 338,-398.25 235,-398.25"/>
<polygon fill="none" stroke="#bfbfbf" points="235,-261.25 235,-430.25 338,-430.25 338,-261.25 235,-261.25"/>
</a>
</g>
</g>
<!-- Node8&#45;&gt;Node1 -->
<g id="edge8_Node000001_Node000008" class="edge">
<title>Node8&#45;&gt;Node1</title>
<g id="a_edge8_Node000001_Node000008"><a xlink:title=" ">
<path fill="none" stroke="#63b8ff" d="M264.28,-261.27C258.72,-240.35 252.68,-217.67 246.89,-195.93"/>
<polygon fill="none" stroke="#63b8ff" points="246.93,-196.08 241.53,-191.31 243.85,-184.49 249.26,-189.26 246.93,-196.08"/>
</a>
</g>
<text text-anchor="middle" x="268.99" y="-203.75" font-family="Helvetica,sans-Serif" font-size="10.00" fill="grey"> #b_filter</text>
</g>
</g>
</svg>
