<?xml version="1.0" encoding="UTF-8" standalone="no"?>
<!DOCTYPE svg PUBLIC "-//W3C//DTD SVG 1.1//EN"
 "http://www.w3.org/Graphics/SVG/1.1/DTD/svg11.dtd">
<!-- Generated by graphviz version 12.1.2 (20240928.0832)
 -->
<!-- Title: ClauseDatabasePerSize Pages: 1 -->
<svg width="142pt" height="412pt"
 viewBox="0.00 0.00 142.00 412.00" xmlns="http://www.w3.org/2000/svg" xmlns:xlink="http://www.w3.org/1999/xlink">

<svg id="main" version="1.1" xmlns="http://www.w3.org/2000/svg" xmlns:xlink="http://www.w3.org/1999/xlink" xml:space="preserve">

<style type="text/css"><![CDATA[
.node, .edge {opacity: 0.7;}
.node.selected, .edge.selected {opacity: 1;}
.edge:hover path { stroke: red; }
.edge:hover polygon { stroke: red; fill: red; }
]]></style>
<script type="application/ecmascript" xlink:href="svg.min.js"/>
<svg id="graph" class="graph">
<g id="graph0" class="graph" transform="scale(1 1) rotate(0) translate(4 408)">
<title>ClauseDatabasePerSize</title>
<!-- Node1 -->
<g id="Node000001" class="node">
<title>Node1</title>
<g id="a_Node000001"><a xlink:title="A clause database that organizes clauses based on their size.">
<polygon fill="#999999" stroke="none" points="134,-199 0,-199 0,0 134,0 134,-199"/>
<text text-anchor="start" x="14.5" y="-185.5" font-family="Helvetica,sans-Serif" font-size="10.00">ClauseDatabasePerSize</text>
<text text-anchor="start" x="4" y="-170.5" font-family="Helvetica,sans-Serif" font-size="10.00">+</text>
<text text-anchor="start" x="14" y="-170.5" font-family="Helvetica,sans-Serif" font-size="10.00">initLiteralCount</text>
<text text-anchor="start" x="4" y="-155.5" font-family="Helvetica,sans-Serif" font-size="10.00">+</text>
<text text-anchor="start" x="14" y="-155.5" font-family="Helvetica,sans-Serif" font-size="10.00">maxClauseSize</text>
<text text-anchor="start" x="4" y="-140.5" font-family="Helvetica,sans-Serif" font-size="10.00">+</text>
<text text-anchor="start" x="14" y="-140.5" font-family="Helvetica,sans-Serif" font-size="10.00">ClauseDatabasePerSize()</text>
<text text-anchor="start" x="4" y="-125.5" font-family="Helvetica,sans-Serif" font-size="10.00">+</text>
<text text-anchor="start" x="14" y="-125.5" font-family="Helvetica,sans-Serif" font-size="10.00">ClauseDatabasePerSize()</text>
<text text-anchor="start" x="4" y="-110.5" font-family="Helvetica,sans-Serif" font-size="10.00">+</text>
<text text-anchor="start" x="14" y="-110.5" font-family="Helvetica,sans-Serif" font-size="10.00">~ClauseDatabasePerSize()</text>
<text text-anchor="start" x="4" y="-95.5" font-family="Helvetica,sans-Serif" font-size="10.00">+</text>
<text text-anchor="start" x="14" y="-95.5" font-family="Helvetica,sans-Serif" font-size="10.00">addClause()</text>
<text text-anchor="start" x="4" y="-80.5" font-family="Helvetica,sans-Serif" font-size="10.00">+</text>
<text text-anchor="start" x="14" y="-80.5" font-family="Helvetica,sans-Serif" font-size="10.00">giveSelection()</text>
<text text-anchor="start" x="4" y="-65.5" font-family="Helvetica,sans-Serif" font-size="10.00">+</text>
<text text-anchor="start" x="14" y="-65.5" font-family="Helvetica,sans-Serif" font-size="10.00">getClauses()</text>
<text text-anchor="start" x="4" y="-50.5" font-family="Helvetica,sans-Serif" font-size="10.00">+</text>
<text text-anchor="start" x="14" y="-50.5" font-family="Helvetica,sans-Serif" font-size="10.00">getOneClause()</text>
<text text-anchor="start" x="4" y="-35.5" font-family="Helvetica,sans-Serif" font-size="10.00">+</text>
<text text-anchor="start" x="14" y="-35.5" font-family="Helvetica,sans-Serif" font-size="10.00">getSize()</text>
<text text-anchor="start" x="4" y="-20.5" font-family="Helvetica,sans-Serif" font-size="10.00">+</text>
<text text-anchor="start" x="14" y="-20.5" font-family="Helvetica,sans-Serif" font-size="10.00">shrinkDatabase()</text>
<text text-anchor="start" x="4" y="-5.5" font-family="Helvetica,sans-Serif" font-size="10.00">+</text>
<text text-anchor="start" x="14" y="-5.5" font-family="Helvetica,sans-Serif" font-size="10.00">clearDatabase()</text>
<polygon fill="#666666" stroke="#666666" points="0,-182 0,-182 134,-182 134,-182 0,-182"/>
<polygon fill="#666666" stroke="#666666" points="0,-152 0,-152 12,-152 12,-152 0,-152"/>
<polygon fill="#666666" stroke="#666666" points="12,-152 12,-152 134,-152 134,-152 12,-152"/>
<polygon fill="none" stroke="#666666" points="0,0 0,-199 134,-199 134,0 0,0"/>
</a>
</g>
</g>
<!-- Node2 -->
<g id="Node000002" class="node">
<title>Node2</title>
<g id="a_Node000002"><a xlink:href="classClauseDatabase.html" target="_top" xlink:title="Abstract base class defining the interface for clause storage and management.">
<polygon fill="white" stroke="none" points="117,-404 17,-404 17,-235 117,-235 117,-404"/>
<text text-anchor="start" x="31.38" y="-390.5" font-family="Helvetica,sans-Serif" font-size="10.00">ClauseDatabase</text>
<text text-anchor="start" x="65.5" y="-375.5" font-family="Helvetica,sans-Serif" font-size="10.00"> </text>
<text text-anchor="start" x="21" y="-360.5" font-family="Helvetica,sans-Serif" font-size="10.00">+</text>
<text text-anchor="start" x="31" y="-360.5" font-family="Helvetica,sans-Serif" font-size="10.00">ClauseDatabase()</text>
<text text-anchor="start" x="21" y="-345.5" font-family="Helvetica,sans-Serif" font-size="10.00">+</text>
<text text-anchor="start" x="31" y="-345.5" font-family="Helvetica,sans-Serif" font-size="10.00">~ClauseDatabase()</text>
<text text-anchor="start" x="21" y="-330.5" font-family="Helvetica,sans-Serif" font-size="10.00">+</text>
<text text-anchor="start" x="31" y="-330.5" font-family="Helvetica,sans-Serif" font-size="10.00">addClause()</text>
<text text-anchor="start" x="21" y="-315.5" font-family="Helvetica,sans-Serif" font-size="10.00">+</text>
<text text-anchor="start" x="31" y="-315.5" font-family="Helvetica,sans-Serif" font-size="10.00">giveSelection()</text>
<text text-anchor="start" x="21" y="-300.5" font-family="Helvetica,sans-Serif" font-size="10.00">+</text>
<text text-anchor="start" x="31" y="-300.5" font-family="Helvetica,sans-Serif" font-size="10.00">getClauses()</text>
<text text-anchor="start" x="21" y="-285.5" font-family="Helvetica,sans-Serif" font-size="10.00">+</text>
<text text-anchor="start" x="31" y="-285.5" font-family="Helvetica,sans-Serif" font-size="10.00">getOneClause()</text>
<text text-anchor="start" x="21" y="-270.5" font-family="Helvetica,sans-Serif" font-size="10.00">+</text>
<text text-anchor="start" x="31" y="-270.5" font-family="Helvetica,sans-Serif" font-size="10.00">getSize()</text>
<text text-anchor="start" x="21" y="-255.5" font-family="Helvetica,sans-Serif" font-size="10.00">+</text>
<text text-anchor="start" x="31" y="-255.5" font-family="Helvetica,sans-Serif" font-size="10.00">shrinkDatabase()</text>
<text text-anchor="start" x="21" y="-240.5" font-family="Helvetica,sans-Serif" font-size="10.00">+</text>
<text text-anchor="start" x="31" y="-240.5" font-family="Helvetica,sans-Serif" font-size="10.00">clearDatabase()</text>
<polygon fill="#666666" stroke="#666666" points="17,-387 17,-387 117,-387 117,-387 17,-387"/>
<polygon fill="#666666" stroke="#666666" points="17,-372 17,-372 117,-372 117,-372 17,-372"/>
<polygon fill="none" stroke="#666666" points="17,-235 17,-404 117,-404 117,-235 17,-235"/>
</a>
</g>
</g>
<!-- Node2&#45;&gt;Node1 -->
<g id="edge1_Node000001_Node000002" class="edge">
<title>Node2&#45;&gt;Node1</title>
<g id="a_edge1_Node000001_Node000002"><a xlink:title=" ">
<path fill="none" stroke="#63b8ff" d="M67,-223.89C67,-215.56 67,-207.12 67,-198.77"/>
<polygon fill="none" stroke="#63b8ff" points="63.5,-223.64 67,-233.64 70.5,-223.64 63.5,-223.64"/>
</a>
</g>
</g>
</g>
</svg>
</svg>

<style type='text/css'>
<![CDATA[
[data-mouse-over-selected='false'] { opacity: 0.7; }
[data-mouse-over-selected='true']  { opacity: 1.0; }
]]>
</style>
<script type="application/ecmascript"><![CDATA[
document.addEventListener('DOMContentLoaded', (event) => {
  highlightEdges();
  highlightAdjacentNodes();
});
]]></script>
</svg>
