<?xml version="1.0" encoding="UTF-8" standalone="no"?>
<!DOCTYPE svg PUBLIC "-//W3C//DTD SVG 1.1//EN"
 "http://www.w3.org/Graphics/SVG/1.1/DTD/svg11.dtd">
<!-- Generated by graphviz version 12.1.2 (20240928.0832)
 -->
<!-- Title: WorkingStrategy Pages: 1 -->
<svg width="377pt" height="547pt"
 viewBox="0.00 0.00 377.00 547.00" xmlns="http://www.w3.org/2000/svg" xmlns:xlink="http://www.w3.org/1999/xlink">
<g id="graph0" class="graph" transform="scale(1 1) rotate(0) translate(4 543)">
<title>WorkingStrategy</title>
<!-- Node1 -->
<g id="Node000001" class="node">
<title>Node1</title>
<g id="a_Node000001"><a xlink:title="Base Interface for Working Strategies.">
<polygon fill="#999999" stroke="none" points="240,-539 129,-539 129,-370 240,-370 240,-539"/>
<text text-anchor="start" x="148.88" y="-525.5" font-family="Helvetica,sans-Serif" font-size="10.00">WorkingStrategy</text>
<text text-anchor="start" x="133.38" y="-510.5" font-family="Helvetica,sans-Serif" font-size="10.00">#</text>
<text text-anchor="start" x="143" y="-510.5" font-family="Helvetica,sans-Serif" font-size="10.00">parent</text>
<text text-anchor="start" x="133.38" y="-495.5" font-family="Helvetica,sans-Serif" font-size="10.00">#</text>
<text text-anchor="start" x="143" y="-495.5" font-family="Helvetica,sans-Serif" font-size="10.00">slaves</text>
<text text-anchor="start" x="133" y="-480.5" font-family="Helvetica,sans-Serif" font-size="10.00">+</text>
<text text-anchor="start" x="143" y="-480.5" font-family="Helvetica,sans-Serif" font-size="10.00">WorkingStrategy()</text>
<text text-anchor="start" x="133" y="-465.5" font-family="Helvetica,sans-Serif" font-size="10.00">+</text>
<text text-anchor="start" x="143" y="-465.5" font-family="Helvetica,sans-Serif" font-size="10.00">solve()</text>
<text text-anchor="start" x="133" y="-450.5" font-family="Helvetica,sans-Serif" font-size="10.00">+</text>
<text text-anchor="start" x="143" y="-450.5" font-family="Helvetica,sans-Serif" font-size="10.00">join()</text>
<text text-anchor="start" x="133" y="-435.5" font-family="Helvetica,sans-Serif" font-size="10.00">+</text>
<text text-anchor="start" x="143" y="-435.5" font-family="Helvetica,sans-Serif" font-size="10.00">setSolverInterrupt()</text>
<text text-anchor="start" x="133" y="-420.5" font-family="Helvetica,sans-Serif" font-size="10.00">+</text>
<text text-anchor="start" x="143" y="-420.5" font-family="Helvetica,sans-Serif" font-size="10.00">unsetSolverInterrupt()</text>
<text text-anchor="start" x="133" y="-405.5" font-family="Helvetica,sans-Serif" font-size="10.00">+</text>
<text text-anchor="start" x="143" y="-405.5" font-family="Helvetica,sans-Serif" font-size="10.00">waitInterrupt()</text>
<text text-anchor="start" x="133" y="-390.5" font-family="Helvetica,sans-Serif" font-size="10.00">+</text>
<text text-anchor="start" x="143" y="-390.5" font-family="Helvetica,sans-Serif" font-size="10.00">addSlave()</text>
<text text-anchor="start" x="133" y="-375.5" font-family="Helvetica,sans-Serif" font-size="10.00">+</text>
<text text-anchor="start" x="143" y="-375.5" font-family="Helvetica,sans-Serif" font-size="10.00">~WorkingStrategy()</text>
<polygon fill="#666666" stroke="#666666" points="129,-522 129,-522 240,-522 240,-522 129,-522"/>
<polygon fill="#666666" stroke="#666666" points="129,-492 129,-492 141,-492 141,-492 129,-492"/>
<polygon fill="#666666" stroke="#666666" points="141,-492 141,-492 240,-492 240,-492 141,-492"/>
<polygon fill="none" stroke="#666666" points="129,-370 129,-539 240,-539 240,-370 129,-370"/>
</a>
</g>
</g>
<!-- Node2 -->
<g id="Node000002" class="node">
<title>Node2</title>
<g id="a_Node000002"><a xlink:href="classPortfolioPRS.html" target="_top" xlink:title="An Implementation of WorkingStrategy that mimics the strategy used in the PRS&#45;Distributed solver from...">
<polygon fill="white" stroke="none" points="111,-334 0,-334 0,0 111,0 111,-334"/>
<text text-anchor="start" x="27.38" y="-320.5" font-family="Helvetica,sans-Serif" font-size="10.00">PortfolioPRS</text>
<text text-anchor="start" x="4.38" y="-305.5" font-family="Helvetica,sans-Serif" font-size="10.00">#</text>
<text text-anchor="start" x="14" y="-305.5" font-family="Helvetica,sans-Serif" font-size="10.00">strategyEnding</text>
<text text-anchor="start" x="4.38" y="-290.5" font-family="Helvetica,sans-Serif" font-size="10.00">#</text>
<text text-anchor="start" x="14" y="-290.5" font-family="Helvetica,sans-Serif" font-size="10.00">nodeGroup</text>
<text text-anchor="start" x="4.38" y="-275.5" font-family="Helvetica,sans-Serif" font-size="10.00">#</text>
<text text-anchor="start" x="14" y="-275.5" font-family="Helvetica,sans-Serif" font-size="10.00">solversPortfolio</text>
<text text-anchor="start" x="4.38" y="-260.5" font-family="Helvetica,sans-Serif" font-size="10.00">#</text>
<text text-anchor="start" x="14" y="-260.5" font-family="Helvetica,sans-Serif" font-size="10.00">sizePerGroup</text>
<text text-anchor="start" x="4.38" y="-245.5" font-family="Helvetica,sans-Serif" font-size="10.00">#</text>
<text text-anchor="start" x="14" y="-245.5" font-family="Helvetica,sans-Serif" font-size="10.00">rankInMyGroup</text>
<text text-anchor="start" x="4.38" y="-230.5" font-family="Helvetica,sans-Serif" font-size="10.00">#</text>
<text text-anchor="start" x="14" y="-230.5" font-family="Helvetica,sans-Serif" font-size="10.00">right_neighbor</text>
<text text-anchor="start" x="4.38" y="-215.5" font-family="Helvetica,sans-Serif" font-size="10.00">#</text>
<text text-anchor="start" x="14" y="-215.5" font-family="Helvetica,sans-Serif" font-size="10.00">left_neighbor</text>
<text text-anchor="start" x="4.38" y="-200.5" font-family="Helvetica,sans-Serif" font-size="10.00">#</text>
<text text-anchor="start" x="14" y="-200.5" font-family="Helvetica,sans-Serif" font-size="10.00">preprocessors</text>
<text text-anchor="start" x="4.38" y="-185.5" font-family="Helvetica,sans-Serif" font-size="10.00">#</text>
<text text-anchor="start" x="14" y="-185.5" font-family="Helvetica,sans-Serif" font-size="10.00">preprocLock</text>
<text text-anchor="start" x="4.38" y="-170.5" font-family="Helvetica,sans-Serif" font-size="10.00">#</text>
<text text-anchor="start" x="14" y="-170.5" font-family="Helvetica,sans-Serif" font-size="10.00">preprocSignal</text>
<text text-anchor="start" x="4.38" y="-155.5" font-family="Helvetica,sans-Serif" font-size="10.00">#</text>
<text text-anchor="start" x="14" y="-155.5" font-family="Helvetica,sans-Serif" font-size="10.00">strategies</text>
<text text-anchor="start" x="4.38" y="-140.5" font-family="Helvetica,sans-Serif" font-size="10.00">#</text>
<text text-anchor="start" x="14" y="-140.5" font-family="Helvetica,sans-Serif" font-size="10.00">sharers</text>
<text text-anchor="start" x="4" y="-125.5" font-family="Helvetica,sans-Serif" font-size="10.00">+</text>
<text text-anchor="start" x="14" y="-125.5" font-family="Helvetica,sans-Serif" font-size="10.00">PortfolioPRS()</text>
<text text-anchor="start" x="4" y="-110.5" font-family="Helvetica,sans-Serif" font-size="10.00">+</text>
<text text-anchor="start" x="14" y="-110.5" font-family="Helvetica,sans-Serif" font-size="10.00">~PortfolioPRS()</text>
<text text-anchor="start" x="4" y="-95.5" font-family="Helvetica,sans-Serif" font-size="10.00">+</text>
<text text-anchor="start" x="14" y="-95.5" font-family="Helvetica,sans-Serif" font-size="10.00">solve()</text>
<text text-anchor="start" x="4" y="-80.5" font-family="Helvetica,sans-Serif" font-size="10.00">+</text>
<text text-anchor="start" x="14" y="-80.5" font-family="Helvetica,sans-Serif" font-size="10.00">join()</text>
<text text-anchor="start" x="4" y="-65.5" font-family="Helvetica,sans-Serif" font-size="10.00">+</text>
<text text-anchor="start" x="14" y="-65.5" font-family="Helvetica,sans-Serif" font-size="10.00">setSolverInterrupt()</text>
<text text-anchor="start" x="4" y="-50.5" font-family="Helvetica,sans-Serif" font-size="10.00">+</text>
<text text-anchor="start" x="14" y="-50.5" font-family="Helvetica,sans-Serif" font-size="10.00">unsetSolverInterrupt()</text>
<text text-anchor="start" x="4" y="-35.5" font-family="Helvetica,sans-Serif" font-size="10.00">+</text>
<text text-anchor="start" x="14" y="-35.5" font-family="Helvetica,sans-Serif" font-size="10.00">waitInterrupt()</text>
<text text-anchor="start" x="4.38" y="-20.5" font-family="Helvetica,sans-Serif" font-size="10.00">#</text>
<text text-anchor="start" x="14" y="-20.5" font-family="Helvetica,sans-Serif" font-size="10.00">restoreModelDist()</text>
<text text-anchor="start" x="4.38" y="-5.5" font-family="Helvetica,sans-Serif" font-size="10.00">#</text>
<text text-anchor="start" x="14" y="-5.5" font-family="Helvetica,sans-Serif" font-size="10.00">computeNodeGroup()</text>
<polygon fill="#666666" stroke="#666666" points="0,-317 0,-317 111,-317 111,-317 0,-317"/>
<polygon fill="#666666" stroke="#666666" points="0,-137 0,-137 12,-137 12,-137 0,-137"/>
<polygon fill="#666666" stroke="#666666" points="12,-137 12,-137 111,-137 111,-137 12,-137"/>
<polygon fill="none" stroke="#666666" points="0,0 0,-334 111,-334 111,0 0,0"/>
</a>
</g>
</g>
<!-- Node1&#45;&gt;Node2 -->
<g id="edge1_Node000001_Node000002" class="edge">
<title>Node1&#45;&gt;Node2</title>
<g id="a_edge1_Node000001_Node000002"><a xlink:title=" ">
<path fill="none" stroke="#63b8ff" d="M132.2,-360.08C127.75,-351.34 123.45,-342.55 119.5,-334 116.58,-327.69 113.69,-321.21 110.82,-314.63"/>
<polygon fill="none" stroke="#63b8ff" points="129.08,-361.68 136.77,-368.96 135.3,-358.47 129.08,-361.68"/>
</a>
</g>
</g>
<!-- Node3 -->
<g id="Node000003" class="node">
<title>Node3</title>
<g id="a_Node000003"><a xlink:href="classPortfolioSimple.html" target="_top" xlink:title="A Simple Implementation of WorkingStrategy for the portfolio parallel strategy This strategy uses the...">
<polygon fill="white" stroke="none" points="240,-274 129,-274 129,-60 240,-60 240,-274"/>
<text text-anchor="start" x="151.5" y="-260.5" font-family="Helvetica,sans-Serif" font-size="10.00">PortfolioSimple</text>
<text text-anchor="start" x="133.38" y="-245.5" font-family="Helvetica,sans-Serif" font-size="10.00">#</text>
<text text-anchor="start" x="143" y="-245.5" font-family="Helvetica,sans-Serif" font-size="10.00">strategyEnding</text>
<text text-anchor="start" x="133.38" y="-230.5" font-family="Helvetica,sans-Serif" font-size="10.00">#</text>
<text text-anchor="start" x="143" y="-230.5" font-family="Helvetica,sans-Serif" font-size="10.00">cdclSolvers</text>
<text text-anchor="start" x="133.38" y="-215.5" font-family="Helvetica,sans-Serif" font-size="10.00">#</text>
<text text-anchor="start" x="143" y="-215.5" font-family="Helvetica,sans-Serif" font-size="10.00">localSolvers</text>
<text text-anchor="start" x="133.38" y="-200.5" font-family="Helvetica,sans-Serif" font-size="10.00">#</text>
<text text-anchor="start" x="143" y="-200.5" font-family="Helvetica,sans-Serif" font-size="10.00">localStrategies</text>
<text text-anchor="start" x="133.38" y="-185.5" font-family="Helvetica,sans-Serif" font-size="10.00">#</text>
<text text-anchor="start" x="143" y="-185.5" font-family="Helvetica,sans-Serif" font-size="10.00">globalStrategies</text>
<text text-anchor="start" x="133.38" y="-170.5" font-family="Helvetica,sans-Serif" font-size="10.00">#</text>
<text text-anchor="start" x="143" y="-170.5" font-family="Helvetica,sans-Serif" font-size="10.00">sharers</text>
<text text-anchor="start" x="133" y="-155.5" font-family="Helvetica,sans-Serif" font-size="10.00">+</text>
<text text-anchor="start" x="143" y="-155.5" font-family="Helvetica,sans-Serif" font-size="10.00">PortfolioSimple()</text>
<text text-anchor="start" x="133" y="-140.5" font-family="Helvetica,sans-Serif" font-size="10.00">+</text>
<text text-anchor="start" x="143" y="-140.5" font-family="Helvetica,sans-Serif" font-size="10.00">~PortfolioSimple()</text>
<text text-anchor="start" x="133" y="-125.5" font-family="Helvetica,sans-Serif" font-size="10.00">+</text>
<text text-anchor="start" x="143" y="-125.5" font-family="Helvetica,sans-Serif" font-size="10.00">solve()</text>
<text text-anchor="start" x="133" y="-110.5" font-family="Helvetica,sans-Serif" font-size="10.00">+</text>
<text text-anchor="start" x="143" y="-110.5" font-family="Helvetica,sans-Serif" font-size="10.00">join()</text>
<text text-anchor="start" x="133" y="-95.5" font-family="Helvetica,sans-Serif" font-size="10.00">+</text>
<text text-anchor="start" x="143" y="-95.5" font-family="Helvetica,sans-Serif" font-size="10.00">setSolverInterrupt()</text>
<text text-anchor="start" x="133" y="-80.5" font-family="Helvetica,sans-Serif" font-size="10.00">+</text>
<text text-anchor="start" x="143" y="-80.5" font-family="Helvetica,sans-Serif" font-size="10.00">unsetSolverInterrupt()</text>
<text text-anchor="start" x="133" y="-65.5" font-family="Helvetica,sans-Serif" font-size="10.00">+</text>
<text text-anchor="start" x="143" y="-65.5" font-family="Helvetica,sans-Serif" font-size="10.00">waitInterrupt()</text>
<polygon fill="#666666" stroke="#666666" points="129,-257 129,-257 240,-257 240,-257 129,-257"/>
<polygon fill="#666666" stroke="#666666" points="129,-167 129,-167 141,-167 141,-167 129,-167"/>
<polygon fill="#666666" stroke="#666666" points="141,-167 141,-167 240,-167 240,-167 141,-167"/>
<polygon fill="none" stroke="#666666" points="129,-60 129,-274 240,-274 240,-60 129,-60"/>
</a>
</g>
</g>
<!-- Node1&#45;&gt;Node3 -->
<g id="edge2_Node000001_Node000003" class="edge">
<title>Node1&#45;&gt;Node3</title>
<g id="a_edge2_Node000001_Node000003"><a xlink:title=" ">
<path fill="none" stroke="#63b8ff" d="M184.5,-358.67C184.5,-331.47 184.5,-301.65 184.5,-273.83"/>
<polygon fill="none" stroke="#63b8ff" points="181,-358.64 184.5,-368.64 188,-358.64 181,-358.64"/>
</a>
</g>
</g>
<!-- Node4 -->
<g id="Node000004" class="node">
<title>Node4</title>
<g id="a_Node000004"><a xlink:href="classSequentialWorker.html" target="_top" xlink:title="Basic Implementation of WorkingStrategy for a sequential execution.">
<polygon fill="white" stroke="none" points="369,-289 258,-289 258,-45 369,-45 369,-289"/>
<text text-anchor="start" x="275.25" y="-275.5" font-family="Helvetica,sans-Serif" font-size="10.00">SequentialWorker</text>
<text text-anchor="start" x="262" y="-260.5" font-family="Helvetica,sans-Serif" font-size="10.00">+</text>
<text text-anchor="start" x="272" y="-260.5" font-family="Helvetica,sans-Serif" font-size="10.00">solver</text>
<text text-anchor="start" x="262.38" y="-245.5" font-family="Helvetica,sans-Serif" font-size="10.00">#</text>
<text text-anchor="start" x="272" y="-245.5" font-family="Helvetica,sans-Serif" font-size="10.00">worker</text>
<text text-anchor="start" x="262.38" y="-230.5" font-family="Helvetica,sans-Serif" font-size="10.00">#</text>
<text text-anchor="start" x="272" y="-230.5" font-family="Helvetica,sans-Serif" font-size="10.00">actualCube</text>
<text text-anchor="start" x="262.38" y="-215.5" font-family="Helvetica,sans-Serif" font-size="10.00">#</text>
<text text-anchor="start" x="272" y="-215.5" font-family="Helvetica,sans-Serif" font-size="10.00">force</text>
<text text-anchor="start" x="262.38" y="-200.5" font-family="Helvetica,sans-Serif" font-size="10.00">#</text>
<text text-anchor="start" x="272" y="-200.5" font-family="Helvetica,sans-Serif" font-size="10.00">waitJob</text>
<text text-anchor="start" x="262.38" y="-185.5" font-family="Helvetica,sans-Serif" font-size="10.00">#</text>
<text text-anchor="start" x="272" y="-185.5" font-family="Helvetica,sans-Serif" font-size="10.00">waitInterruptLock</text>
<text text-anchor="start" x="262.38" y="-170.5" font-family="Helvetica,sans-Serif" font-size="10.00">#</text>
<text text-anchor="start" x="272" y="-170.5" font-family="Helvetica,sans-Serif" font-size="10.00">mutexStart</text>
<text text-anchor="start" x="262.38" y="-155.5" font-family="Helvetica,sans-Serif" font-size="10.00">#</text>
<text text-anchor="start" x="272" y="-155.5" font-family="Helvetica,sans-Serif" font-size="10.00">mutexCondStart</text>
<text text-anchor="start" x="262" y="-140.5" font-family="Helvetica,sans-Serif" font-size="10.00">+</text>
<text text-anchor="start" x="272" y="-140.5" font-family="Helvetica,sans-Serif" font-size="10.00">SequentialWorker()</text>
<text text-anchor="start" x="262" y="-125.5" font-family="Helvetica,sans-Serif" font-size="10.00">+</text>
<text text-anchor="start" x="272" y="-125.5" font-family="Helvetica,sans-Serif" font-size="10.00">~SequentialWorker()</text>
<text text-anchor="start" x="262" y="-110.5" font-family="Helvetica,sans-Serif" font-size="10.00">+</text>
<text text-anchor="start" x="272" y="-110.5" font-family="Helvetica,sans-Serif" font-size="10.00">solve()</text>
<text text-anchor="start" x="262" y="-95.5" font-family="Helvetica,sans-Serif" font-size="10.00">+</text>
<text text-anchor="start" x="272" y="-95.5" font-family="Helvetica,sans-Serif" font-size="10.00">join()</text>
<text text-anchor="start" x="262" y="-80.5" font-family="Helvetica,sans-Serif" font-size="10.00">+</text>
<text text-anchor="start" x="272" y="-80.5" font-family="Helvetica,sans-Serif" font-size="10.00">setSolverInterrupt()</text>
<text text-anchor="start" x="262" y="-65.5" font-family="Helvetica,sans-Serif" font-size="10.00">+</text>
<text text-anchor="start" x="272" y="-65.5" font-family="Helvetica,sans-Serif" font-size="10.00">unsetSolverInterrupt()</text>
<text text-anchor="start" x="262" y="-50.5" font-family="Helvetica,sans-Serif" font-size="10.00">+</text>
<text text-anchor="start" x="272" y="-50.5" font-family="Helvetica,sans-Serif" font-size="10.00">waitInterrupt()</text>
<polygon fill="#666666" stroke="#666666" points="258,-272 258,-272 369,-272 369,-272 258,-272"/>
<polygon fill="#666666" stroke="#666666" points="258,-152 258,-152 270,-152 270,-152 258,-152"/>
<polygon fill="#666666" stroke="#666666" points="270,-152 270,-152 369,-152 369,-152 270,-152"/>
<polygon fill="none" stroke="#666666" points="258,-45 258,-289 369,-289 369,-45 258,-45"/>
</a>
</g>
</g>
<!-- Node1&#45;&gt;Node4 -->
<g id="edge3_Node000001_Node000004" class="edge">
<title>Node1&#45;&gt;Node4</title>
<g id="a_edge3_Node000001_Node000004"><a xlink:title=" ">
<path fill="none" stroke="#63b8ff" d="M236.8,-360.08C241.25,-351.34 245.55,-342.55 249.5,-334 256.18,-319.56 262.76,-304.21 269.01,-288.91"/>
<polygon fill="none" stroke="#63b8ff" points="233.7,-358.47 232.23,-368.96 239.92,-361.68 233.7,-358.47"/>
</a>
</g>
</g>
</g>
</svg>
