<?xml version="1.0" encoding="UTF-8" standalone="no"?>
<!DOCTYPE svg PUBLIC "-//W3C//DTD SVG 1.1//EN"
 "http://www.w3.org/Graphics/SVG/1.1/DTD/svg11.dtd">
<!-- Generated by graphviz version 12.1.2 (20240928.0832)
 -->
<!-- Title: HordeSatSharing Pages: 1 -->
<!--zoomable 923 -->

<svg id="main" version="1.1" xmlns="http://www.w3.org/2000/svg" xmlns:xlink="http://www.w3.org/1999/xlink" xml:space="preserve" onload="init(evt)">

<style type="text/css"><![CDATA[
.node, .edge {opacity: 0.7;}
.node.selected, .edge.selected {opacity: 1;}
.edge:hover path { stroke: red; }
.edge:hover polygon { stroke: red; fill: red; }
]]></style>

<defs>
  <circle id="rim" cx="0" cy="0" r="7"/>
  <circle id="rim2" cx="0" cy="0" r="3.5"/>
  <g id="zoomPlus">
    <use xlink:href="#rim" fill="#404040"><set attributeName="fill" to="#808080" begin="zoomplus.mouseover" end="zoomplus.mouseout"/></use>
    <path d="M-4,0h8M0,-4v8" fill="none" stroke="white" stroke-width="1.5" pointer-events="none"/>
  </g>
  <g id="zoomMin">
    <use xlink:href="#rim" fill="#404040"><set attributeName="fill" to="#808080" begin="zoomminus.mouseover" end="zoomminus.mouseout"/></use>
    <path d="M-4,0h8" fill="none" stroke="white" stroke-width="1.5" pointer-events="none"/>
  </g>
  <g id="arrowUp" transform="translate(30 24)">
    <use xlink:href="#rim"/>
    <path pointer-events="none" fill="none" stroke="white" stroke-width="1.5" d="M0,-3.0v7 M-2.5,-0.5L0,-3.0L2.5,-0.5"/>
  </g>
  <g id="arrowRight" transform="rotate(90) translate(36 -43)">
    <use xlink:href="#rim"/>
    <path pointer-events="none" fill="none" stroke="white" stroke-width="1.5" d="M0,-3.0v7 M-2.5,-0.5L0,-3.0L2.5,-0.5"/>
  </g>
  <g id="arrowDown" transform="rotate(180) translate(-30 -48)">
    <use xlink:href="#rim"/>
    <path pointer-events="none" fill="none" stroke="white" stroke-width="1.5" d="M0,-3.0v7 M-2.5,-0.5L0,-3.0L2.5,-0.5"/>
  </g>
  <g id="arrowLeft" transform="rotate(270) translate(-36 17)">
    <use xlink:href="#rim"/>
    <path pointer-events="none" fill="none" stroke="white" stroke-width="1.5" d="M0,-3.0v7 M-2.5,-0.5L0,-3.0L2.5,-0.5"/>
  </g>
  <g id="resetDef">
    <use xlink:href="#rim2" fill="#404040"><set attributeName="fill" to="#808080" begin="reset.mouseover" end="reset.mouseout"/></use>
  </g>
</defs>
<script type="application/ecmascript">
var viewWidth = 194;
var viewHeight = 923;
var sectionId = 'dynsection-0';
</script>
<script type="application/ecmascript" xlink:href="svg.min.js"/>
<svg id="graph" class="graph">
<g id="viewport">
<title>HordeSatSharing</title>
<!-- Node1 -->
<g id="Node000001" class="node">
<title>Node1</title>
<g id="a_Node000001"><a xlink:title="This strategy is a HordeSat&#45;like sharing strategy.">
<polygon fill="#999999" stroke="none" points="186,-259 0,-259 0,0 186,0 186,-259"/>
<text text-anchor="start" x="55.88" y="-245.5" font-family="Helvetica,sans-Serif" font-size="10.00">HordeSatSharing</text>
<text text-anchor="start" x="4.38" y="-230.5" font-family="Helvetica,sans-Serif" font-size="10.00">#</text>
<text text-anchor="start" x="14" y="-230.5" font-family="Helvetica,sans-Serif" font-size="10.00">literalPerRound</text>
<text text-anchor="start" x="4.38" y="-215.5" font-family="Helvetica,sans-Serif" font-size="10.00">#</text>
<text text-anchor="start" x="14" y="-215.5" font-family="Helvetica,sans-Serif" font-size="10.00">initialLbdLimit</text>
<text text-anchor="start" x="4.38" y="-200.5" font-family="Helvetica,sans-Serif" font-size="10.00">#</text>
<text text-anchor="start" x="14" y="-200.5" font-family="Helvetica,sans-Serif" font-size="10.00">roundBeforeIncrease</text>
<text text-anchor="start" x="4.38" y="-185.5" font-family="Helvetica,sans-Serif" font-size="10.00">#</text>
<text text-anchor="start" x="14" y="-185.5" font-family="Helvetica,sans-Serif" font-size="10.00">round</text>
<text text-anchor="start" x="4.38" y="-170.5" font-family="Helvetica,sans-Serif" font-size="10.00">#</text>
<text text-anchor="start" x="14" y="-170.5" font-family="Helvetica,sans-Serif" font-size="10.00">selection</text>
<text text-anchor="start" x="4.38" y="-155.5" font-family="Helvetica,sans-Serif" font-size="10.00">#</text>
<text text-anchor="start" x="14" y="-155.5" font-family="Helvetica,sans-Serif" font-size="10.00">lbdLimitPerProducer</text>
<text text-anchor="start" x="4.38" y="-140.5" font-family="Helvetica,sans-Serif" font-size="10.00">#</text>
<text text-anchor="start" x="14" y="-140.5" font-family="Helvetica,sans-Serif" font-size="10.00">literalsPerProducer</text>
<text text-anchor="start" x="4.38" y="-125.5" font-family="Helvetica,sans-Serif" font-size="10.00">#</text>
<text text-anchor="start" x="14" y="-125.5" font-family="Helvetica,sans-Serif" font-size="10.00">UNDER_UTILIZATION_THRESHOLD</text>
<text text-anchor="start" x="4.38" y="-110.5" font-family="Helvetica,sans-Serif" font-size="10.00">#</text>
<text text-anchor="start" x="14" y="-110.5" font-family="Helvetica,sans-Serif" font-size="10.00">OVER_UTILIZATION_THRESHOLD</text>
<text text-anchor="start" x="4" y="-95.5" font-family="Helvetica,sans-Serif" font-size="10.00">+</text>
<text text-anchor="start" x="14" y="-95.5" font-family="Helvetica,sans-Serif" font-size="10.00">HordeSatSharing()</text>
<text text-anchor="start" x="4" y="-80.5" font-family="Helvetica,sans-Serif" font-size="10.00">+</text>
<text text-anchor="start" x="14" y="-80.5" font-family="Helvetica,sans-Serif" font-size="10.00">~HordeSatSharing()</text>
<text text-anchor="start" x="4" y="-65.5" font-family="Helvetica,sans-Serif" font-size="10.00">+</text>
<text text-anchor="start" x="14" y="-65.5" font-family="Helvetica,sans-Serif" font-size="10.00">importClause()</text>
<text text-anchor="start" x="4" y="-50.5" font-family="Helvetica,sans-Serif" font-size="10.00">+</text>
<text text-anchor="start" x="14" y="-50.5" font-family="Helvetica,sans-Serif" font-size="10.00">importClauses()</text>
<text text-anchor="start" x="4" y="-35.5" font-family="Helvetica,sans-Serif" font-size="10.00">+</text>
<text text-anchor="start" x="14" y="-35.5" font-family="Helvetica,sans-Serif" font-size="10.00">doSharing()</text>
<text text-anchor="start" x="4.38" y="-20.5" font-family="Helvetica,sans-Serif" font-size="10.00">#</text>
<text text-anchor="start" x="14" y="-20.5" font-family="Helvetica,sans-Serif" font-size="10.00">addProducer()</text>
<text text-anchor="start" x="4.38" y="-5.5" font-family="Helvetica,sans-Serif" font-size="10.00">#</text>
<text text-anchor="start" x="14" y="-5.5" font-family="Helvetica,sans-Serif" font-size="10.00">removeProducer()</text>
<polygon fill="#666666" stroke="#666666" points="0,-242 0,-242 186,-242 186,-242 0,-242"/>
<polygon fill="#666666" stroke="#666666" points="0,-107 0,-107 12,-107 12,-107 0,-107"/>
<polygon fill="#666666" stroke="#666666" points="12,-107 12,-107 186,-107 186,-107 12,-107"/>
<polygon fill="none" stroke="#666666" points="0,0 0,-259 186,-259 186,0 0,0"/>
</a>
</g>
</g>
<!-- Node2 -->
<g id="Node000002" class="node">
<title>Node2</title>
<g id="a_Node000002"><a xlink:href="classSharingStrategy.html" target="_top" xlink:title="SharingStrategy class, inheriting from SharingEntity.">
<polygon fill="white" stroke="none" points="169.5,-524 16.5,-524 16.5,-295 169.5,-295 169.5,-524"/>
<text text-anchor="start" x="58.5" y="-510.5" font-family="Helvetica,sans-Serif" font-size="10.00">SharingStrategy</text>
<text text-anchor="start" x="20.88" y="-495.5" font-family="Helvetica,sans-Serif" font-size="10.00">#</text>
<text text-anchor="start" x="30.5" y="-495.5" font-family="Helvetica,sans-Serif" font-size="10.00">m_clauseDB</text>
<text text-anchor="start" x="20.88" y="-480.5" font-family="Helvetica,sans-Serif" font-size="10.00">#</text>
<text text-anchor="start" x="30.5" y="-480.5" font-family="Helvetica,sans-Serif" font-size="10.00">stats</text>
<text text-anchor="start" x="20.88" y="-465.5" font-family="Helvetica,sans-Serif" font-size="10.00">#</text>
<text text-anchor="start" x="30.5" y="-465.5" font-family="Helvetica,sans-Serif" font-size="10.00">m_producers</text>
<text text-anchor="start" x="20.88" y="-450.5" font-family="Helvetica,sans-Serif" font-size="10.00">#</text>
<text text-anchor="start" x="30.5" y="-450.5" font-family="Helvetica,sans-Serif" font-size="10.00">m_producersMutex</text>
<text text-anchor="start" x="20.5" y="-435.5" font-family="Helvetica,sans-Serif" font-size="10.00">+</text>
<text text-anchor="start" x="30.5" y="-435.5" font-family="Helvetica,sans-Serif" font-size="10.00">SharingStrategy()</text>
<text text-anchor="start" x="20.5" y="-420.5" font-family="Helvetica,sans-Serif" font-size="10.00">+</text>
<text text-anchor="start" x="30.5" y="-420.5" font-family="Helvetica,sans-Serif" font-size="10.00">~SharingStrategy()</text>
<text text-anchor="start" x="20.5" y="-405.5" font-family="Helvetica,sans-Serif" font-size="10.00">+</text>
<text text-anchor="start" x="30.5" y="-405.5" font-family="Helvetica,sans-Serif" font-size="10.00">doSharing()</text>
<text text-anchor="start" x="20.5" y="-390.5" font-family="Helvetica,sans-Serif" font-size="10.00">+</text>
<text text-anchor="start" x="30.5" y="-390.5" font-family="Helvetica,sans-Serif" font-size="10.00">getSleepingTime()</text>
<text text-anchor="start" x="20.5" y="-375.5" font-family="Helvetica,sans-Serif" font-size="10.00">+</text>
<text text-anchor="start" x="30.5" y="-375.5" font-family="Helvetica,sans-Serif" font-size="10.00">printStats()</text>
<text text-anchor="start" x="20.5" y="-360.5" font-family="Helvetica,sans-Serif" font-size="10.00">+</text>
<text text-anchor="start" x="30.5" y="-360.5" font-family="Helvetica,sans-Serif" font-size="10.00">connectConstructorProducers()</text>
<text text-anchor="start" x="20.5" y="-345.5" font-family="Helvetica,sans-Serif" font-size="10.00">+</text>
<text text-anchor="start" x="30.5" y="-345.5" font-family="Helvetica,sans-Serif" font-size="10.00">addProducer()</text>
<text text-anchor="start" x="20.5" y="-330.5" font-family="Helvetica,sans-Serif" font-size="10.00">+</text>
<text text-anchor="start" x="30.5" y="-330.5" font-family="Helvetica,sans-Serif" font-size="10.00">connectProducer()</text>
<text text-anchor="start" x="20.5" y="-315.5" font-family="Helvetica,sans-Serif" font-size="10.00">+</text>
<text text-anchor="start" x="30.5" y="-315.5" font-family="Helvetica,sans-Serif" font-size="10.00">removeProducer()</text>
<text text-anchor="start" x="20.88" y="-300.5" font-family="Helvetica,sans-Serif" font-size="10.00">#</text>
<text text-anchor="start" x="30.5" y="-300.5" font-family="Helvetica,sans-Serif" font-size="10.00">exportClauseToClient()</text>
<polygon fill="#666666" stroke="#666666" points="16.5,-507 16.5,-507 169.5,-507 169.5,-507 16.5,-507"/>
<polygon fill="#666666" stroke="#666666" points="16.5,-447 16.5,-447 28.5,-447 28.5,-447 16.5,-447"/>
<polygon fill="#666666" stroke="#666666" points="28.5,-447 28.5,-447 169.5,-447 169.5,-447 28.5,-447"/>
<polygon fill="none" stroke="#666666" points="16.5,-295 16.5,-524 169.5,-524 169.5,-295 16.5,-295"/>
</a>
</g>
</g>
<!-- Node2&#45;&gt;Node1 -->
<g id="edge1_Node000001_Node000002" class="edge">
<title>Node2&#45;&gt;Node1</title>
<g id="a_edge1_Node000001_Node000002"><a xlink:title=" ">
<path fill="none" stroke="#63b8ff" d="M93,-283.7C93,-275.35 93,-266.94 93,-258.58"/>
<polygon fill="none" stroke="#63b8ff" points="89.5,-283.51 93,-293.51 96.5,-283.51 89.5,-283.51"/>
</a>
</g>
</g>
<!-- Node3 -->
<g id="Node000003" class="node">
<title>Node3</title>
<g id="a_Node000003"><a xlink:href="classSharingEntity.html" target="_top" xlink:title="A base class representing entities that can exchange clauses between themselves.">
<polygon fill="white" stroke="none" points="151,-819 35,-819 35,-560 151,-560 151,-819"/>
<text text-anchor="start" x="64.5" y="-805.5" font-family="Helvetica,sans-Serif" font-size="10.00">SharingEntity</text>
<text text-anchor="start" x="39.38" y="-790.5" font-family="Helvetica,sans-Serif" font-size="10.00">#</text>
<text text-anchor="start" x="49" y="-790.5" font-family="Helvetica,sans-Serif" font-size="10.00">m_clients</text>
<text text-anchor="start" x="39.38" y="-775.5" font-family="Helvetica,sans-Serif" font-size="10.00">#</text>
<text text-anchor="start" x="49" y="-775.5" font-family="Helvetica,sans-Serif" font-size="10.00">m_clientsMutex</text>
<text text-anchor="start" x="39" y="-760.5" font-family="Helvetica,sans-Serif" font-size="10.00">+</text>
<text text-anchor="start" x="49" y="-760.5" font-family="Helvetica,sans-Serif" font-size="10.00">SharingEntity()</text>
<text text-anchor="start" x="39" y="-745.5" font-family="Helvetica,sans-Serif" font-size="10.00">+</text>
<text text-anchor="start" x="49" y="-745.5" font-family="Helvetica,sans-Serif" font-size="10.00">SharingEntity()</text>
<text text-anchor="start" x="39" y="-730.5" font-family="Helvetica,sans-Serif" font-size="10.00">+</text>
<text text-anchor="start" x="49" y="-730.5" font-family="Helvetica,sans-Serif" font-size="10.00">~SharingEntity()</text>
<text text-anchor="start" x="39" y="-715.5" font-family="Helvetica,sans-Serif" font-size="10.00">+</text>
<text text-anchor="start" x="49" y="-715.5" font-family="Helvetica,sans-Serif" font-size="10.00">importClause()</text>
<text text-anchor="start" x="39" y="-700.5" font-family="Helvetica,sans-Serif" font-size="10.00">+</text>
<text text-anchor="start" x="49" y="-700.5" font-family="Helvetica,sans-Serif" font-size="10.00">importClauses()</text>
<text text-anchor="start" x="39" y="-685.5" font-family="Helvetica,sans-Serif" font-size="10.00">+</text>
<text text-anchor="start" x="49" y="-685.5" font-family="Helvetica,sans-Serif" font-size="10.00">getSharingId()</text>
<text text-anchor="start" x="39" y="-670.5" font-family="Helvetica,sans-Serif" font-size="10.00">+</text>
<text text-anchor="start" x="49" y="-670.5" font-family="Helvetica,sans-Serif" font-size="10.00">setSharingId()</text>
<text text-anchor="start" x="39" y="-655.5" font-family="Helvetica,sans-Serif" font-size="10.00">+</text>
<text text-anchor="start" x="49" y="-655.5" font-family="Helvetica,sans-Serif" font-size="10.00">addClient()</text>
<text text-anchor="start" x="39" y="-640.5" font-family="Helvetica,sans-Serif" font-size="10.00">+</text>
<text text-anchor="start" x="49" y="-640.5" font-family="Helvetica,sans-Serif" font-size="10.00">removeClient()</text>
<text text-anchor="start" x="39" y="-625.5" font-family="Helvetica,sans-Serif" font-size="10.00">+</text>
<text text-anchor="start" x="49" y="-625.5" font-family="Helvetica,sans-Serif" font-size="10.00">getClientCount()</text>
<text text-anchor="start" x="39" y="-610.5" font-family="Helvetica,sans-Serif" font-size="10.00">+</text>
<text text-anchor="start" x="49" y="-610.5" font-family="Helvetica,sans-Serif" font-size="10.00">clearClients()</text>
<text text-anchor="start" x="39.38" y="-595.5" font-family="Helvetica,sans-Serif" font-size="10.00">#</text>
<text text-anchor="start" x="49" y="-595.5" font-family="Helvetica,sans-Serif" font-size="10.00">exportClauseToClient()</text>
<text text-anchor="start" x="39.38" y="-580.5" font-family="Helvetica,sans-Serif" font-size="10.00">#</text>
<text text-anchor="start" x="49" y="-580.5" font-family="Helvetica,sans-Serif" font-size="10.00">exportClause()</text>
<text text-anchor="start" x="39.38" y="-565.5" font-family="Helvetica,sans-Serif" font-size="10.00">#</text>
<text text-anchor="start" x="49" y="-565.5" font-family="Helvetica,sans-Serif" font-size="10.00">exportClauses()</text>
<polygon fill="#666666" stroke="#666666" points="35,-802 35,-802 151,-802 151,-802 35,-802"/>
<polygon fill="#666666" stroke="#666666" points="35,-772 35,-772 47,-772 47,-772 35,-772"/>
<polygon fill="#666666" stroke="#666666" points="47,-772 47,-772 151,-772 151,-772 47,-772"/>
<polygon fill="none" stroke="#666666" points="35,-560 35,-819 151,-819 151,-560 35,-560"/>
</a>
</g>
</g>
<!-- Node3&#45;&gt;Node2 -->
<g id="edge2_Node000002_Node000003" class="edge">
<title>Node3&#45;&gt;Node2</title>
<g id="a_edge2_Node000002_Node000003"><a xlink:title=" ">
<path fill="none" stroke="#63b8ff" d="M93,-548.72C93,-540.39 93,-532.06 93,-523.85"/>
<polygon fill="none" stroke="#63b8ff" points="89.5,-548.57 93,-558.57 96.5,-548.57 89.5,-548.57"/>
</a>
</g>
</g>
<!-- Node4 -->
<g id="Node000004" class="node">
<title>Node4</title>
<g id="a_Node000004"><a xlink:title=" ">
<polygon fill="white" stroke="none" points="157.5,-915 28.5,-915 28.5,-855 157.5,-855 157.5,-915"/>
<text text-anchor="start" x="33.38" y="-901.5" font-family="Helvetica,sans-Serif" font-size="10.00">std::enable_shared</text>
<text text-anchor="start" x="33.38" y="-890.25" font-family="Helvetica,sans-Serif" font-size="10.00">_from_this&lt; SharingEntity &gt;</text>
<text text-anchor="start" x="91.5" y="-875.5" font-family="Helvetica,sans-Serif" font-size="10.00"> </text>
<text text-anchor="start" x="91.5" y="-860.5" font-family="Helvetica,sans-Serif" font-size="10.00"> </text>
<polygon fill="#bfbfbf" stroke="#bfbfbf" points="28.5,-887 28.5,-887 157.5,-887 157.5,-887 28.5,-887"/>
<polygon fill="#bfbfbf" stroke="#bfbfbf" points="28.5,-872 28.5,-872 157.5,-872 157.5,-872 28.5,-872"/>
<polygon fill="none" stroke="#bfbfbf" points="28.5,-855 28.5,-915 157.5,-915 157.5,-855 28.5,-855"/>
</a>
</g>
</g>
<!-- Node4&#45;&gt;Node3 -->
<g id="edge3_Node000003_Node000004" class="edge">
<title>Node4&#45;&gt;Node3</title>
<g id="a_edge3_Node000003_Node000004"><a xlink:title=" ">
<path fill="none" stroke="#63b8ff" d="M93,-843.69C93,-836.06 93,-827.72 93,-818.99"/>
<polygon fill="none" stroke="#63b8ff" points="89.5,-843.52 93,-853.52 96.5,-843.52 89.5,-843.52"/>
</a>
</g>
</g>
</g>
</svg>

<g id="navigator" transform="translate(0 0)" fill="#404254">
  <rect fill="#f2f5e9" fill-opacity="0.5" stroke="#606060" stroke-width=".5" x="0" y="0" width="60" height="60"/>
  <use id="zoomplus" xlink:href="#zoomPlus" x="17" y="9" onmousedown="handleZoom(evt,'in')"/>
  <use id="zoomminus" xlink:href="#zoomMin" x="42" y="9" onmousedown="handleZoom(evt,'out')"/>
  <use id="reset" xlink:href="#resetDef" x="30" y="36" onmousedown="handleReset()"/>
   <use id="arrowup" xlink:href="#arrowUp" x="0" y="0" onmousedown="handlePan(0,-1)"/>
  <use id="arrowright" xlink:href="#arrowRight" x="0" y="0" onmousedown="handlePan(1,0)"/>
  <use id="arrowdown" xlink:href="#arrowDown" x="0" y="0" onmousedown="handlePan(0,1)"/>
  <use id="arrowleft" xlink:href="#arrowLeft" x="0" y="0" onmousedown="handlePan(-1,0)"/>
</g>
<svg viewBox="0 0 15 15" width="100%" height="30px" preserveAspectRatio="xMaxYMin meet">
 <g id="arrow_out" transform="scale(0.3 0.3)">
  <a xlink:href="classHordeSatSharing__inherit__graph_org.svg" target="_base">
   <rect id="button" ry="5" rx="5" y="6" x="6" height="38" width="38"
        fill="#f2f5e9" fill-opacity="0.5" stroke="#606060" stroke-width="1.0"/>
   <path id="arrow"
     d="M 11.500037,31.436501 C 11.940474,20.09759 22.043105,11.32322 32.158766,21.979434 L 37.068811,17.246167 C 37.068811,17.246167 37.088388,32 37.088388,32 L 22.160133,31.978069 C 22.160133,31.978069 26.997745,27.140456 26.997745,27.140456 C 18.528582,18.264221 13.291696,25.230495 11.500037,31.436501 z"
     style="fill:#404040;"/>
  </a>
 </g>
</svg>

<style type='text/css'>
<![CDATA[
[data-mouse-over-selected='false'] { opacity: 0.7; }
[data-mouse-over-selected='true']  { opacity: 1.0; }
]]>
</style>
<script type="application/ecmascript"><![CDATA[
document.addEventListener('DOMContentLoaded', (event) => {
  highlightEdges();
  highlightAdjacentNodes();
});
]]></script>
</svg>
