<?xml version="1.0" encoding="UTF-8" standalone="no"?>
<!DOCTYPE svg PUBLIC "-//W3C//DTD SVG 1.1//EN"
 "http://www.w3.org/Graphics/SVG/1.1/DTD/svg11.dtd">
<!-- Generated by graphviz version 12.1.2 (20240928.0832)
 -->
<!-- Title: MapleCOMSPSSolver Pages: 1 -->
<svg width="293pt" height="1283pt"
 viewBox="0.00 0.00 292.50 1283.00" xmlns="http://www.w3.org/2000/svg" xmlns:xlink="http://www.w3.org/1999/xlink">
<g id="graph0" class="graph" transform="scale(1 1) rotate(0) translate(4 1279)">
<title>MapleCOMSPSSolver</title>
<!-- Node1 -->
<g id="Node000001" class="node">
<title>Node1</title>
<g id="a_Node000001"><a xlink:title="Instance of a MapleCOMSPS solver.">
<polygon fill="#999999" stroke="none" points="209,-454 83,-454 83,0 209,0 209,-454"/>
<text text-anchor="start" x="97.62" y="-440.5" font-family="Helvetica,sans-Serif" font-size="10.00">MapleCOMSPSSolver</text>
<text text-anchor="start" x="87.38" y="-425.5" font-family="Helvetica,sans-Serif" font-size="10.00">#</text>
<text text-anchor="start" x="97" y="-425.5" font-family="Helvetica,sans-Serif" font-size="10.00">solver</text>
<text text-anchor="start" x="87.38" y="-410.5" font-family="Helvetica,sans-Serif" font-size="10.00">#</text>
<text text-anchor="start" x="97" y="-410.5" font-family="Helvetica,sans-Serif" font-size="10.00">unitsToImport</text>
<text text-anchor="start" x="87.38" y="-395.5" font-family="Helvetica,sans-Serif" font-size="10.00">#</text>
<text text-anchor="start" x="97" y="-395.5" font-family="Helvetica,sans-Serif" font-size="10.00">clausesToAdd</text>
<text text-anchor="start" x="87.38" y="-380.5" font-family="Helvetica,sans-Serif" font-size="10.00">#</text>
<text text-anchor="start" x="97" y="-380.5" font-family="Helvetica,sans-Serif" font-size="10.00">stopSolver</text>
<text text-anchor="start" x="87" y="-365.5" font-family="Helvetica,sans-Serif" font-size="10.00">+</text>
<text text-anchor="start" x="97" y="-365.5" font-family="Helvetica,sans-Serif" font-size="10.00">getVariablesCount()</text>
<text text-anchor="start" x="87" y="-350.5" font-family="Helvetica,sans-Serif" font-size="10.00">+</text>
<text text-anchor="start" x="97" y="-350.5" font-family="Helvetica,sans-Serif" font-size="10.00">getDivisionVariable()</text>
<text text-anchor="start" x="87" y="-335.5" font-family="Helvetica,sans-Serif" font-size="10.00">+</text>
<text text-anchor="start" x="97" y="-335.5" font-family="Helvetica,sans-Serif" font-size="10.00">setPhase()</text>
<text text-anchor="start" x="87" y="-320.5" font-family="Helvetica,sans-Serif" font-size="10.00">+</text>
<text text-anchor="start" x="97" y="-320.5" font-family="Helvetica,sans-Serif" font-size="10.00">bumpVariableActivity()</text>
<text text-anchor="start" x="87" y="-305.5" font-family="Helvetica,sans-Serif" font-size="10.00">+</text>
<text text-anchor="start" x="97" y="-305.5" font-family="Helvetica,sans-Serif" font-size="10.00">setSolverInterrupt()</text>
<text text-anchor="start" x="87" y="-290.5" font-family="Helvetica,sans-Serif" font-size="10.00">+</text>
<text text-anchor="start" x="97" y="-290.5" font-family="Helvetica,sans-Serif" font-size="10.00">unsetSolverInterrupt()</text>
<text text-anchor="start" x="87" y="-275.5" font-family="Helvetica,sans-Serif" font-size="10.00">+</text>
<text text-anchor="start" x="97" y="-275.5" font-family="Helvetica,sans-Serif" font-size="10.00">solve()</text>
<text text-anchor="start" x="87" y="-260.5" font-family="Helvetica,sans-Serif" font-size="10.00">+</text>
<text text-anchor="start" x="97" y="-260.5" font-family="Helvetica,sans-Serif" font-size="10.00">addClause()</text>
<text text-anchor="start" x="87" y="-245.5" font-family="Helvetica,sans-Serif" font-size="10.00">+</text>
<text text-anchor="start" x="97" y="-245.5" font-family="Helvetica,sans-Serif" font-size="10.00">addClauses()</text>
<text text-anchor="start" x="87" y="-230.5" font-family="Helvetica,sans-Serif" font-size="10.00">+</text>
<text text-anchor="start" x="97" y="-230.5" font-family="Helvetica,sans-Serif" font-size="10.00">addInitialClauses()</text>
<text text-anchor="start" x="87" y="-215.5" font-family="Helvetica,sans-Serif" font-size="10.00">+</text>
<text text-anchor="start" x="97" y="-215.5" font-family="Helvetica,sans-Serif" font-size="10.00">loadFormula()</text>
<text text-anchor="start" x="87" y="-200.5" font-family="Helvetica,sans-Serif" font-size="10.00">+</text>
<text text-anchor="start" x="97" y="-200.5" font-family="Helvetica,sans-Serif" font-size="10.00">importClause()</text>
<text text-anchor="start" x="87" y="-185.5" font-family="Helvetica,sans-Serif" font-size="10.00">+</text>
<text text-anchor="start" x="97" y="-185.5" font-family="Helvetica,sans-Serif" font-size="10.00">importClauses()</text>
<text text-anchor="start" x="87" y="-170.5" font-family="Helvetica,sans-Serif" font-size="10.00">+</text>
<text text-anchor="start" x="97" y="-170.5" font-family="Helvetica,sans-Serif" font-size="10.00">printStatistics()</text>
<text text-anchor="start" x="87" y="-155.5" font-family="Helvetica,sans-Serif" font-size="10.00">+</text>
<text text-anchor="start" x="97" y="-155.5" font-family="Helvetica,sans-Serif" font-size="10.00">printWinningLog()</text>
<text text-anchor="start" x="87" y="-140.5" font-family="Helvetica,sans-Serif" font-size="10.00">+</text>
<text text-anchor="start" x="97" y="-140.5" font-family="Helvetica,sans-Serif" font-size="10.00">getModel()</text>
<text text-anchor="start" x="87" y="-125.5" font-family="Helvetica,sans-Serif" font-size="10.00">+</text>
<text text-anchor="start" x="97" y="-125.5" font-family="Helvetica,sans-Serif" font-size="10.00">diversify()</text>
<text text-anchor="start" x="87" y="-110.5" font-family="Helvetica,sans-Serif" font-size="10.00">+</text>
<text text-anchor="start" x="97" y="-110.5" font-family="Helvetica,sans-Serif" font-size="10.00">MapleCOMSPSSolver()</text>
<text text-anchor="start" x="87" y="-95.5" font-family="Helvetica,sans-Serif" font-size="10.00">+</text>
<text text-anchor="start" x="97" y="-95.5" font-family="Helvetica,sans-Serif" font-size="10.00">MapleCOMSPSSolver()</text>
<text text-anchor="start" x="87" y="-80.5" font-family="Helvetica,sans-Serif" font-size="10.00">+</text>
<text text-anchor="start" x="97" y="-80.5" font-family="Helvetica,sans-Serif" font-size="10.00">~MapleCOMSPSSolver()</text>
<text text-anchor="start" x="87" y="-65.5" font-family="Helvetica,sans-Serif" font-size="10.00">+</text>
<text text-anchor="start" x="97" y="-65.5" font-family="Helvetica,sans-Serif" font-size="10.00">getFinalAnalysis()</text>
<text text-anchor="start" x="87" y="-50.5" font-family="Helvetica,sans-Serif" font-size="10.00">+</text>
<text text-anchor="start" x="97" y="-50.5" font-family="Helvetica,sans-Serif" font-size="10.00">getSatAssumptions()</text>
<text text-anchor="start" x="87" y="-35.5" font-family="Helvetica,sans-Serif" font-size="10.00">+</text>
<text text-anchor="start" x="97" y="-35.5" font-family="Helvetica,sans-Serif" font-size="10.00">setStrengthening()</text>
<text text-anchor="start" x="87" y="-20.5" font-family="Helvetica,sans-Serif" font-size="10.00">+</text>
<text text-anchor="start" x="97" y="-20.5" font-family="Helvetica,sans-Serif" font-size="10.00">setParameter()</text>
<text text-anchor="start" x="87" y="-5.5" font-family="Helvetica,sans-Serif" font-size="10.00">+</text>
<text text-anchor="start" x="97" y="-5.5" font-family="Helvetica,sans-Serif" font-size="10.00">initshuffle()</text>
<polygon fill="#666666" stroke="#666666" points="83,-437 83,-437 209,-437 209,-437 83,-437"/>
<polygon fill="#666666" stroke="#666666" points="83,-377 83,-377 95,-377 95,-377 83,-377"/>
<polygon fill="#666666" stroke="#666666" points="95,-377 95,-377 209,-377 209,-377 95,-377"/>
<polygon fill="none" stroke="#666666" points="83,0 83,-454 209,-454 209,0 83,0"/>
</a>
</g>
</g>
<!-- Node2 -->
<g id="Node000002" class="node">
<title>Node2</title>
<g id="a_Node000002"><a xlink:href="classSolverCdclInterface.html" target="_top" xlink:title="Interface for CDCL (Conflict&#45;Driven Clause Learning) solvers This class provides a common interface f...">
<polygon fill="white" stroke="none" points="203.5,-659 88.5,-659 88.5,-490 203.5,-490 203.5,-659"/>
<text text-anchor="start" x="103.25" y="-645.5" font-family="Helvetica,sans-Serif" font-size="10.00">SolverCdclInterface</text>
<text text-anchor="start" x="92.5" y="-630.5" font-family="Helvetica,sans-Serif" font-size="10.00">+</text>
<text text-anchor="start" x="102.5" y="-630.5" font-family="Helvetica,sans-Serif" font-size="10.00">m_cdclType</text>
<text text-anchor="start" x="92.88" y="-615.5" font-family="Helvetica,sans-Serif" font-size="10.00">#</text>
<text text-anchor="start" x="102.5" y="-615.5" font-family="Helvetica,sans-Serif" font-size="10.00">m_clausesToImport</text>
<text text-anchor="start" x="92.5" y="-600.5" font-family="Helvetica,sans-Serif" font-size="10.00">+</text>
<text text-anchor="start" x="102.5" y="-600.5" font-family="Helvetica,sans-Serif" font-size="10.00">setPhase()</text>
<text text-anchor="start" x="92.5" y="-585.5" font-family="Helvetica,sans-Serif" font-size="10.00">+</text>
<text text-anchor="start" x="102.5" y="-585.5" font-family="Helvetica,sans-Serif" font-size="10.00">bumpVariableActivity()</text>
<text text-anchor="start" x="92.5" y="-570.5" font-family="Helvetica,sans-Serif" font-size="10.00">+</text>
<text text-anchor="start" x="102.5" y="-570.5" font-family="Helvetica,sans-Serif" font-size="10.00">getFinalAnalysis()</text>
<text text-anchor="start" x="92.5" y="-555.5" font-family="Helvetica,sans-Serif" font-size="10.00">+</text>
<text text-anchor="start" x="102.5" y="-555.5" font-family="Helvetica,sans-Serif" font-size="10.00">getSatAssumptions()</text>
<text text-anchor="start" x="92.5" y="-540.5" font-family="Helvetica,sans-Serif" font-size="10.00">+</text>
<text text-anchor="start" x="102.5" y="-540.5" font-family="Helvetica,sans-Serif" font-size="10.00">printWinningLog()</text>
<text text-anchor="start" x="92.5" y="-525.5" font-family="Helvetica,sans-Serif" font-size="10.00">+</text>
<text text-anchor="start" x="102.5" y="-525.5" font-family="Helvetica,sans-Serif" font-size="10.00">getSolverType()</text>
<text text-anchor="start" x="92.5" y="-510.5" font-family="Helvetica,sans-Serif" font-size="10.00">+</text>
<text text-anchor="start" x="102.5" y="-510.5" font-family="Helvetica,sans-Serif" font-size="10.00">SolverCdclInterface()</text>
<text text-anchor="start" x="92.5" y="-495.5" font-family="Helvetica,sans-Serif" font-size="10.00">+</text>
<text text-anchor="start" x="102.5" y="-495.5" font-family="Helvetica,sans-Serif" font-size="10.00">~SolverCdclInterface()</text>
<polygon fill="#666666" stroke="#666666" points="88.5,-642 88.5,-642 203.5,-642 203.5,-642 88.5,-642"/>
<polygon fill="#666666" stroke="#666666" points="88.5,-612 88.5,-612 100.5,-612 100.5,-612 88.5,-612"/>
<polygon fill="#666666" stroke="#666666" points="100.5,-612 100.5,-612 203.5,-612 203.5,-612 100.5,-612"/>
<polygon fill="none" stroke="#666666" points="88.5,-490 88.5,-659 203.5,-659 203.5,-490 88.5,-490"/>
</a>
</g>
</g>
<!-- Node2&#45;&gt;Node1 -->
<g id="edge1_Node000001_Node000002" class="edge">
<title>Node2&#45;&gt;Node1</title>
<g id="a_edge1_Node000001_Node000002"><a xlink:title=" ">
<path fill="none" stroke="#63b8ff" d="M146,-479.06C146,-470.96 146,-462.57 146,-453.98"/>
<polygon fill="none" stroke="#63b8ff" points="142.5,-478.79 146,-488.79 149.5,-478.79 142.5,-478.79"/>
</a>
</g>
</g>
<!-- Node3 -->
<g id="Node000003" class="node">
<title>Node3</title>
<g id="a_Node000003"><a xlink:href="classSolverInterface.html" target="_top" xlink:title="Interface for a SAT solver with standard features.">
<polygon fill="white" stroke="none" points="144,-1179 0,-1179 0,-695 144,-695 144,-1179"/>
<text text-anchor="start" x="39" y="-1165.5" font-family="Helvetica,sans-Serif" font-size="10.00">SolverInterface</text>
<text text-anchor="start" x="4.38" y="-1150.5" font-family="Helvetica,sans-Serif" font-size="10.00">#</text>
<text text-anchor="start" x="14" y="-1150.5" font-family="Helvetica,sans-Serif" font-size="10.00">m_algoType</text>
<text text-anchor="start" x="4.38" y="-1135.5" font-family="Helvetica,sans-Serif" font-size="10.00">#</text>
<text text-anchor="start" x="14" y="-1135.5" font-family="Helvetica,sans-Serif" font-size="10.00">m_initialized</text>
<text text-anchor="start" x="4.38" y="-1120.5" font-family="Helvetica,sans-Serif" font-size="10.00">#</text>
<text text-anchor="start" x="14" y="-1120.5" font-family="Helvetica,sans-Serif" font-size="10.00">m_solverTypeId</text>
<text text-anchor="start" x="4.38" y="-1105.5" font-family="Helvetica,sans-Serif" font-size="10.00">#</text>
<text text-anchor="start" x="14" y="-1105.5" font-family="Helvetica,sans-Serif" font-size="10.00">m_solverId</text>
<text text-anchor="start" x="4.38" y="-1090.5" font-family="Helvetica,sans-Serif" font-size="10.00">#</text>
<text text-anchor="start" x="14" y="-1090.5" font-family="Helvetica,sans-Serif" font-size="10.00">s_instanceCounts</text>
<text text-anchor="start" x="4" y="-1075.5" font-family="Helvetica,sans-Serif" font-size="10.00">+</text>
<text text-anchor="start" x="14" y="-1075.5" font-family="Helvetica,sans-Serif" font-size="10.00">getVariablesCount()</text>
<text text-anchor="start" x="4" y="-1060.5" font-family="Helvetica,sans-Serif" font-size="10.00">+</text>
<text text-anchor="start" x="14" y="-1060.5" font-family="Helvetica,sans-Serif" font-size="10.00">getDivisionVariable()</text>
<text text-anchor="start" x="4" y="-1045.5" font-family="Helvetica,sans-Serif" font-size="10.00">+</text>
<text text-anchor="start" x="14" y="-1045.5" font-family="Helvetica,sans-Serif" font-size="10.00">setSolverInterrupt()</text>
<text text-anchor="start" x="4" y="-1030.5" font-family="Helvetica,sans-Serif" font-size="10.00">+</text>
<text text-anchor="start" x="14" y="-1030.5" font-family="Helvetica,sans-Serif" font-size="10.00">unsetSolverInterrupt()</text>
<text text-anchor="start" x="4" y="-1015.5" font-family="Helvetica,sans-Serif" font-size="10.00">+</text>
<text text-anchor="start" x="14" y="-1015.5" font-family="Helvetica,sans-Serif" font-size="10.00">printWinningLog()</text>
<text text-anchor="start" x="4" y="-1000.5" font-family="Helvetica,sans-Serif" font-size="10.00">+</text>
<text text-anchor="start" x="14" y="-1000.5" font-family="Helvetica,sans-Serif" font-size="10.00">solve()</text>
<text text-anchor="start" x="4" y="-985.5" font-family="Helvetica,sans-Serif" font-size="10.00">+</text>
<text text-anchor="start" x="14" y="-985.5" font-family="Helvetica,sans-Serif" font-size="10.00">addClause()</text>
<text text-anchor="start" x="4" y="-970.5" font-family="Helvetica,sans-Serif" font-size="10.00">+</text>
<text text-anchor="start" x="14" y="-970.5" font-family="Helvetica,sans-Serif" font-size="10.00">addClauses()</text>
<text text-anchor="start" x="4" y="-955.5" font-family="Helvetica,sans-Serif" font-size="10.00">+</text>
<text text-anchor="start" x="14" y="-955.5" font-family="Helvetica,sans-Serif" font-size="10.00">addInitialClauses()</text>
<text text-anchor="start" x="4" y="-940.5" font-family="Helvetica,sans-Serif" font-size="10.00">+</text>
<text text-anchor="start" x="14" y="-940.5" font-family="Helvetica,sans-Serif" font-size="10.00">loadFormula()</text>
<text text-anchor="start" x="4" y="-925.5" font-family="Helvetica,sans-Serif" font-size="10.00">+</text>
<text text-anchor="start" x="14" y="-925.5" font-family="Helvetica,sans-Serif" font-size="10.00">printStatistics()</text>
<text text-anchor="start" x="4" y="-910.5" font-family="Helvetica,sans-Serif" font-size="10.00">+</text>
<text text-anchor="start" x="14" y="-910.5" font-family="Helvetica,sans-Serif" font-size="10.00">getModel()</text>
<text text-anchor="start" x="4" y="-895.5" font-family="Helvetica,sans-Serif" font-size="10.00">+</text>
<text text-anchor="start" x="14" y="-895.5" font-family="Helvetica,sans-Serif" font-size="10.00">printParameters()</text>
<text text-anchor="start" x="4" y="-880.5" font-family="Helvetica,sans-Serif" font-size="10.00">+</text>
<text text-anchor="start" x="14" y="-880.5" font-family="Helvetica,sans-Serif" font-size="10.00">diversify()</text>
<text text-anchor="start" x="4" y="-865.5" font-family="Helvetica,sans-Serif" font-size="10.00">+</text>
<text text-anchor="start" x="14" y="-865.5" font-family="Helvetica,sans-Serif" font-size="10.00">isInitialized()</text>
<text text-anchor="start" x="4" y="-850.5" font-family="Helvetica,sans-Serif" font-size="10.00">+</text>
<text text-anchor="start" x="14" y="-850.5" font-family="Helvetica,sans-Serif" font-size="10.00">setInitialized()</text>
<text text-anchor="start" x="4" y="-835.5" font-family="Helvetica,sans-Serif" font-size="10.00">+</text>
<text text-anchor="start" x="14" y="-835.5" font-family="Helvetica,sans-Serif" font-size="10.00">getAlgoType()</text>
<text text-anchor="start" x="4" y="-820.5" font-family="Helvetica,sans-Serif" font-size="10.00">+</text>
<text text-anchor="start" x="14" y="-820.5" font-family="Helvetica,sans-Serif" font-size="10.00">getSolverTypeId()</text>
<text text-anchor="start" x="4" y="-805.5" font-family="Helvetica,sans-Serif" font-size="10.00">+</text>
<text text-anchor="start" x="14" y="-805.5" font-family="Helvetica,sans-Serif" font-size="10.00">setSolverTypeId()</text>
<text text-anchor="start" x="4" y="-790.5" font-family="Helvetica,sans-Serif" font-size="10.00">+</text>
<text text-anchor="start" x="14" y="-790.5" font-family="Helvetica,sans-Serif" font-size="10.00">getSolverId()</text>
<text text-anchor="start" x="4" y="-775.5" font-family="Helvetica,sans-Serif" font-size="10.00">+</text>
<text text-anchor="start" x="14" y="-775.5" font-family="Helvetica,sans-Serif" font-size="10.00">setSolverId()</text>
<text text-anchor="start" x="4" y="-760.5" font-family="Helvetica,sans-Serif" font-size="10.00">+</text>
<text text-anchor="start" x="14" y="-760.5" font-family="Helvetica,sans-Serif" font-size="10.00">getSolverTypeCount()</text>
<text text-anchor="start" x="4" y="-745.5" font-family="Helvetica,sans-Serif" font-size="10.00">+</text>
<text text-anchor="start" x="14" y="-745.5" font-family="Helvetica,sans-Serif" font-size="10.00">SolverInterface()</text>
<text text-anchor="start" x="4" y="-730.5" font-family="Helvetica,sans-Serif" font-size="10.00">+</text>
<text text-anchor="start" x="14" y="-730.5" font-family="Helvetica,sans-Serif" font-size="10.00">~SolverInterface()</text>
<text text-anchor="start" x="4.38" y="-715.5" font-family="Helvetica,sans-Serif" font-size="10.00">#</text>
<text text-anchor="start" x="14" y="-715.5" font-family="Helvetica,sans-Serif" font-size="10.00">initializeTypeId()</text>
<text text-anchor="start" x="4.38" y="-700.5" font-family="Helvetica,sans-Serif" font-size="10.00">#</text>
<text text-anchor="start" x="14" y="-700.5" font-family="Helvetica,sans-Serif" font-size="10.00">getAndIncrementTypeCount()</text>
<polygon fill="#666666" stroke="#666666" points="0,-1162 0,-1162 144,-1162 144,-1162 0,-1162"/>
<polygon fill="#666666" stroke="#666666" points="0,-1087 0,-1087 12,-1087 12,-1087 0,-1087"/>
<polygon fill="#666666" stroke="#666666" points="12,-1087 12,-1087 144,-1087 144,-1087 12,-1087"/>
<polygon fill="none" stroke="#666666" points="0,-695 0,-1179 144,-1179 144,-695 0,-695"/>
</a>
</g>
</g>
<!-- Node3&#45;&gt;Node2 -->
<g id="edge2_Node000002_Node000003" class="edge">
<title>Node3&#45;&gt;Node2</title>
<g id="a_edge2_Node000002_Node000003"><a xlink:title=" ">
<path fill="none" stroke="#63b8ff" d="M123.74,-683.93C125.52,-675.27 127.24,-666.87 128.89,-658.84"/>
<polygon fill="none" stroke="#63b8ff" points="120.35,-683.06 121.77,-693.56 127.21,-684.47 120.35,-683.06"/>
</a>
</g>
</g>
<!-- Node4 -->
<g id="Node000004" class="node">
<title>Node4</title>
<g id="a_Node000004"><a xlink:href="classSharingEntity.html" target="_top" xlink:title="A base class representing entities that can exchange clauses between themselves.">
<polygon fill="white" stroke="none" points="278,-1066.5 162,-1066.5 162,-807.5 278,-807.5 278,-1066.5"/>
<text text-anchor="start" x="191.5" y="-1053" font-family="Helvetica,sans-Serif" font-size="10.00">SharingEntity</text>
<text text-anchor="start" x="166.38" y="-1038" font-family="Helvetica,sans-Serif" font-size="10.00">#</text>
<text text-anchor="start" x="176" y="-1038" font-family="Helvetica,sans-Serif" font-size="10.00">m_clients</text>
<text text-anchor="start" x="166.38" y="-1023" font-family="Helvetica,sans-Serif" font-size="10.00">#</text>
<text text-anchor="start" x="176" y="-1023" font-family="Helvetica,sans-Serif" font-size="10.00">m_clientsMutex</text>
<text text-anchor="start" x="166" y="-1008" font-family="Helvetica,sans-Serif" font-size="10.00">+</text>
<text text-anchor="start" x="176" y="-1008" font-family="Helvetica,sans-Serif" font-size="10.00">SharingEntity()</text>
<text text-anchor="start" x="166" y="-993" font-family="Helvetica,sans-Serif" font-size="10.00">+</text>
<text text-anchor="start" x="176" y="-993" font-family="Helvetica,sans-Serif" font-size="10.00">SharingEntity()</text>
<text text-anchor="start" x="166" y="-978" font-family="Helvetica,sans-Serif" font-size="10.00">+</text>
<text text-anchor="start" x="176" y="-978" font-family="Helvetica,sans-Serif" font-size="10.00">~SharingEntity()</text>
<text text-anchor="start" x="166" y="-963" font-family="Helvetica,sans-Serif" font-size="10.00">+</text>
<text text-anchor="start" x="176" y="-963" font-family="Helvetica,sans-Serif" font-size="10.00">importClause()</text>
<text text-anchor="start" x="166" y="-948" font-family="Helvetica,sans-Serif" font-size="10.00">+</text>
<text text-anchor="start" x="176" y="-948" font-family="Helvetica,sans-Serif" font-size="10.00">importClauses()</text>
<text text-anchor="start" x="166" y="-933" font-family="Helvetica,sans-Serif" font-size="10.00">+</text>
<text text-anchor="start" x="176" y="-933" font-family="Helvetica,sans-Serif" font-size="10.00">getSharingId()</text>
<text text-anchor="start" x="166" y="-918" font-family="Helvetica,sans-Serif" font-size="10.00">+</text>
<text text-anchor="start" x="176" y="-918" font-family="Helvetica,sans-Serif" font-size="10.00">setSharingId()</text>
<text text-anchor="start" x="166" y="-903" font-family="Helvetica,sans-Serif" font-size="10.00">+</text>
<text text-anchor="start" x="176" y="-903" font-family="Helvetica,sans-Serif" font-size="10.00">addClient()</text>
<text text-anchor="start" x="166" y="-888" font-family="Helvetica,sans-Serif" font-size="10.00">+</text>
<text text-anchor="start" x="176" y="-888" font-family="Helvetica,sans-Serif" font-size="10.00">removeClient()</text>
<text text-anchor="start" x="166" y="-873" font-family="Helvetica,sans-Serif" font-size="10.00">+</text>
<text text-anchor="start" x="176" y="-873" font-family="Helvetica,sans-Serif" font-size="10.00">getClientCount()</text>
<text text-anchor="start" x="166" y="-858" font-family="Helvetica,sans-Serif" font-size="10.00">+</text>
<text text-anchor="start" x="176" y="-858" font-family="Helvetica,sans-Serif" font-size="10.00">clearClients()</text>
<text text-anchor="start" x="166.38" y="-843" font-family="Helvetica,sans-Serif" font-size="10.00">#</text>
<text text-anchor="start" x="176" y="-843" font-family="Helvetica,sans-Serif" font-size="10.00">exportClauseToClient()</text>
<text text-anchor="start" x="166.38" y="-828" font-family="Helvetica,sans-Serif" font-size="10.00">#</text>
<text text-anchor="start" x="176" y="-828" font-family="Helvetica,sans-Serif" font-size="10.00">exportClause()</text>
<text text-anchor="start" x="166.38" y="-813" font-family="Helvetica,sans-Serif" font-size="10.00">#</text>
<text text-anchor="start" x="176" y="-813" font-family="Helvetica,sans-Serif" font-size="10.00">exportClauses()</text>
<polygon fill="#666666" stroke="#666666" points="162,-1049.5 162,-1049.5 278,-1049.5 278,-1049.5 162,-1049.5"/>
<polygon fill="#666666" stroke="#666666" points="162,-1019.5 162,-1019.5 174,-1019.5 174,-1019.5 162,-1019.5"/>
<polygon fill="#666666" stroke="#666666" points="174,-1019.5 174,-1019.5 278,-1019.5 278,-1019.5 174,-1019.5"/>
<polygon fill="none" stroke="#666666" points="162,-807.5 162,-1066.5 278,-1066.5 278,-807.5 162,-807.5"/>
</a>
</g>
</g>
<!-- Node4&#45;&gt;Node2 -->
<g id="edge3_Node000002_Node000004" class="edge">
<title>Node4&#45;&gt;Node2</title>
<g id="a_edge3_Node000002_Node000004"><a xlink:title=" ">
<path fill="none" stroke="#63b8ff" d="M191.37,-796.53C181.83,-750.04 171.5,-699.74 163.12,-658.88"/>
<polygon fill="none" stroke="#63b8ff" points="187.91,-797.06 193.35,-806.15 194.76,-795.65 187.91,-797.06"/>
</a>
</g>
</g>
<!-- Node5 -->
<g id="Node000005" class="node">
<title>Node5</title>
<g id="a_Node000005"><a xlink:title=" ">
<polygon fill="white" stroke="none" points="284.5,-1275 155.5,-1275 155.5,-1215 284.5,-1215 284.5,-1275"/>
<text text-anchor="start" x="160.38" y="-1261.5" font-family="Helvetica,sans-Serif" font-size="10.00">std::enable_shared</text>
<text text-anchor="start" x="160.38" y="-1250.25" font-family="Helvetica,sans-Serif" font-size="10.00">_from_this&lt; SharingEntity &gt;</text>
<text text-anchor="start" x="218.5" y="-1235.5" font-family="Helvetica,sans-Serif" font-size="10.00"> </text>
<text text-anchor="start" x="218.5" y="-1220.5" font-family="Helvetica,sans-Serif" font-size="10.00"> </text>
<polygon fill="#bfbfbf" stroke="#bfbfbf" points="155.5,-1247 155.5,-1247 284.5,-1247 284.5,-1247 155.5,-1247"/>
<polygon fill="#bfbfbf" stroke="#bfbfbf" points="155.5,-1232 155.5,-1232 284.5,-1232 284.5,-1232 155.5,-1232"/>
<polygon fill="none" stroke="#bfbfbf" points="155.5,-1215 155.5,-1275 284.5,-1275 284.5,-1215 155.5,-1215"/>
</a>
</g>
</g>
<!-- Node5&#45;&gt;Node4 -->
<g id="edge4_Node000004_Node000005" class="edge">
<title>Node5&#45;&gt;Node4</title>
<g id="a_edge4_Node000004_Node000005"><a xlink:title=" ">
<path fill="none" stroke="#63b8ff" d="M220,-1204.01C220,-1168.86 220,-1115.72 220,-1066.15"/>
<polygon fill="none" stroke="#63b8ff" points="216.5,-1203.7 220,-1213.7 223.5,-1203.7 216.5,-1203.7"/>
</a>
</g>
</g>
</g>
</svg>
