<?xml version="1.0" encoding="UTF-8" standalone="no"?>
<!DOCTYPE svg PUBLIC "-//W3C//DTD SVG 1.1//EN"
 "http://www.w3.org/Graphics/SVG/1.1/DTD/svg11.dtd">
<!-- Generated by graphviz version 12.1.2 (20240928.0832)
 -->
<!-- Title: YalSat Pages: 1 -->
<svg width="282pt" height="974pt"
 viewBox="0.00 0.00 281.50 974.25" xmlns="http://www.w3.org/2000/svg" xmlns:xlink="http://www.w3.org/1999/xlink">
<g id="graph0" class="graph" transform="scale(1 1) rotate(0) translate(4 970.25)">
<title>YalSat</title>
<!-- Node1 -->
<g id="Node000001" class="node">
<title>Node1</title>
<g id="a_Node000001"><a xlink:title="Implements LocalSearchInterface to interact with the YalSAT local search solver.">
<polygon fill="#999999" stroke="none" points="200.5,-274 89.5,-274 89.5,0 200.5,0 200.5,-274"/>
<text text-anchor="start" x="130.38" y="-260.5" font-family="Helvetica,sans-Serif" font-size="10.00">YalSat</text>
<text text-anchor="start" x="143.5" y="-245.5" font-family="Helvetica,sans-Serif" font-size="10.00"> </text>
<text text-anchor="start" x="93.5" y="-230.5" font-family="Helvetica,sans-Serif" font-size="10.00">+</text>
<text text-anchor="start" x="103.5" y="-230.5" font-family="Helvetica,sans-Serif" font-size="10.00">YalSat()</text>
<text text-anchor="start" x="93.5" y="-215.5" font-family="Helvetica,sans-Serif" font-size="10.00">+</text>
<text text-anchor="start" x="103.5" y="-215.5" font-family="Helvetica,sans-Serif" font-size="10.00">~YalSat()</text>
<text text-anchor="start" x="93.5" y="-200.5" font-family="Helvetica,sans-Serif" font-size="10.00">+</text>
<text text-anchor="start" x="103.5" y="-200.5" font-family="Helvetica,sans-Serif" font-size="10.00">getVariablesCount()</text>
<text text-anchor="start" x="93.5" y="-185.5" font-family="Helvetica,sans-Serif" font-size="10.00">+</text>
<text text-anchor="start" x="103.5" y="-185.5" font-family="Helvetica,sans-Serif" font-size="10.00">getDivisionVariable()</text>
<text text-anchor="start" x="93.5" y="-170.5" font-family="Helvetica,sans-Serif" font-size="10.00">+</text>
<text text-anchor="start" x="103.5" y="-170.5" font-family="Helvetica,sans-Serif" font-size="10.00">setSolverInterrupt()</text>
<text text-anchor="start" x="93.5" y="-155.5" font-family="Helvetica,sans-Serif" font-size="10.00">+</text>
<text text-anchor="start" x="103.5" y="-155.5" font-family="Helvetica,sans-Serif" font-size="10.00">unsetSolverInterrupt()</text>
<text text-anchor="start" x="93.5" y="-140.5" font-family="Helvetica,sans-Serif" font-size="10.00">+</text>
<text text-anchor="start" x="103.5" y="-140.5" font-family="Helvetica,sans-Serif" font-size="10.00">setPhase()</text>
<text text-anchor="start" x="93.5" y="-125.5" font-family="Helvetica,sans-Serif" font-size="10.00">+</text>
<text text-anchor="start" x="103.5" y="-125.5" font-family="Helvetica,sans-Serif" font-size="10.00">solve()</text>
<text text-anchor="start" x="93.5" y="-110.5" font-family="Helvetica,sans-Serif" font-size="10.00">+</text>
<text text-anchor="start" x="103.5" y="-110.5" font-family="Helvetica,sans-Serif" font-size="10.00">addClause()</text>
<text text-anchor="start" x="93.5" y="-95.5" font-family="Helvetica,sans-Serif" font-size="10.00">+</text>
<text text-anchor="start" x="103.5" y="-95.5" font-family="Helvetica,sans-Serif" font-size="10.00">addClauses()</text>
<text text-anchor="start" x="93.5" y="-80.5" font-family="Helvetica,sans-Serif" font-size="10.00">+</text>
<text text-anchor="start" x="103.5" y="-80.5" font-family="Helvetica,sans-Serif" font-size="10.00">addInitialClauses()</text>
<text text-anchor="start" x="93.5" y="-65.5" font-family="Helvetica,sans-Serif" font-size="10.00">+</text>
<text text-anchor="start" x="103.5" y="-65.5" font-family="Helvetica,sans-Serif" font-size="10.00">loadFormula()</text>
<text text-anchor="start" x="93.5" y="-50.5" font-family="Helvetica,sans-Serif" font-size="10.00">+</text>
<text text-anchor="start" x="103.5" y="-50.5" font-family="Helvetica,sans-Serif" font-size="10.00">getModel()</text>
<text text-anchor="start" x="93.5" y="-35.5" font-family="Helvetica,sans-Serif" font-size="10.00">+</text>
<text text-anchor="start" x="103.5" y="-35.5" font-family="Helvetica,sans-Serif" font-size="10.00">printStatistics()</text>
<text text-anchor="start" x="93.5" y="-20.5" font-family="Helvetica,sans-Serif" font-size="10.00">+</text>
<text text-anchor="start" x="103.5" y="-20.5" font-family="Helvetica,sans-Serif" font-size="10.00">printParameters()</text>
<text text-anchor="start" x="93.5" y="-5.5" font-family="Helvetica,sans-Serif" font-size="10.00">+</text>
<text text-anchor="start" x="103.5" y="-5.5" font-family="Helvetica,sans-Serif" font-size="10.00">diversify()</text>
<polygon fill="#666666" stroke="#666666" points="89.5,-257 89.5,-257 200.5,-257 200.5,-257 89.5,-257"/>
<polygon fill="#666666" stroke="#666666" points="89.5,-242 89.5,-242 200.5,-242 200.5,-242 89.5,-242"/>
<polygon fill="none" stroke="#666666" points="89.5,0 89.5,-274 200.5,-274 200.5,0 89.5,0"/>
</a>
</g>
</g>
<!-- Node2 -->
<g id="Node000002" class="node">
<title>Node2</title>
<g id="a_Node000002"><a xlink:href="classLocalSearchInterface.html" target="_top" xlink:title="Interface for Local Search solvers.">
<polygon fill="white" stroke="none" points="206,-435 84,-435 84,-311 206,-311 206,-435"/>
<text text-anchor="start" x="98.5" y="-421.5" font-family="Helvetica,sans-Serif" font-size="10.00">LocalSearchInterface</text>
<text text-anchor="start" x="88.38" y="-406.5" font-family="Helvetica,sans-Serif" font-size="10.00">#</text>
<text text-anchor="start" x="98" y="-406.5" font-family="Helvetica,sans-Serif" font-size="10.00">lsType</text>
<text text-anchor="start" x="88.38" y="-391.5" font-family="Helvetica,sans-Serif" font-size="10.00">#</text>
<text text-anchor="start" x="98" y="-391.5" font-family="Helvetica,sans-Serif" font-size="10.00">finalTrail</text>
<text text-anchor="start" x="88" y="-376.5" font-family="Helvetica,sans-Serif" font-size="10.00">+</text>
<text text-anchor="start" x="98" y="-376.5" font-family="Helvetica,sans-Serif" font-size="10.00">LocalSearchInterface()</text>
<text text-anchor="start" x="88" y="-361.5" font-family="Helvetica,sans-Serif" font-size="10.00">+</text>
<text text-anchor="start" x="98" y="-361.5" font-family="Helvetica,sans-Serif" font-size="10.00">~LocalSearchInterface()</text>
<text text-anchor="start" x="88" y="-346.5" font-family="Helvetica,sans-Serif" font-size="10.00">+</text>
<text text-anchor="start" x="98" y="-346.5" font-family="Helvetica,sans-Serif" font-size="10.00">setPhase()</text>
<text text-anchor="start" x="88" y="-331.5" font-family="Helvetica,sans-Serif" font-size="10.00">+</text>
<text text-anchor="start" x="98" y="-331.5" font-family="Helvetica,sans-Serif" font-size="10.00">printWinningLog()</text>
<text text-anchor="start" x="88" y="-316.5" font-family="Helvetica,sans-Serif" font-size="10.00">+</text>
<text text-anchor="start" x="98" y="-316.5" font-family="Helvetica,sans-Serif" font-size="10.00">getNbUnsat()</text>
<polygon fill="#666666" stroke="#666666" points="84,-418 84,-418 206,-418 206,-418 84,-418"/>
<polygon fill="#666666" stroke="#666666" points="84,-388 84,-388 96,-388 96,-388 84,-388"/>
<polygon fill="#666666" stroke="#666666" points="96,-388 96,-388 206,-388 206,-388 96,-388"/>
<polygon fill="none" stroke="#666666" points="84,-311 84,-435 206,-435 206,-311 84,-311"/>
</a>
</g>
</g>
<!-- Node2&#45;&gt;Node1 -->
<g id="edge1_Node000001_Node000002" class="edge">
<title>Node2&#45;&gt;Node1</title>
<g id="a_edge1_Node000001_Node000002"><a xlink:title=" ">
<path fill="none" stroke="#63b8ff" d="M145,-299.66C145,-291.37 145,-282.72 145,-273.93"/>
<polygon fill="none" stroke="#63b8ff" points="141.5,-299.62 145,-309.62 148.5,-299.62 141.5,-299.62"/>
</a>
</g>
</g>
<!-- Node3 -->
<g id="Node000003" class="node">
<title>Node3</title>
<g id="a_Node000003"><a xlink:href="classSolverInterface.html" target="_top" xlink:title="Interface for a SAT solver with standard features.">
<polygon fill="white" stroke="none" points="144,-966.25 0,-966.25 0,-482.25 144,-482.25 144,-966.25"/>
<text text-anchor="start" x="39" y="-952.75" font-family="Helvetica,sans-Serif" font-size="10.00">SolverInterface</text>
<text text-anchor="start" x="4.38" y="-937.75" font-family="Helvetica,sans-Serif" font-size="10.00">#</text>
<text text-anchor="start" x="14" y="-937.75" font-family="Helvetica,sans-Serif" font-size="10.00">m_algoType</text>
<text text-anchor="start" x="4.38" y="-922.75" font-family="Helvetica,sans-Serif" font-size="10.00">#</text>
<text text-anchor="start" x="14" y="-922.75" font-family="Helvetica,sans-Serif" font-size="10.00">m_initialized</text>
<text text-anchor="start" x="4.38" y="-907.75" font-family="Helvetica,sans-Serif" font-size="10.00">#</text>
<text text-anchor="start" x="14" y="-907.75" font-family="Helvetica,sans-Serif" font-size="10.00">m_solverTypeId</text>
<text text-anchor="start" x="4.38" y="-892.75" font-family="Helvetica,sans-Serif" font-size="10.00">#</text>
<text text-anchor="start" x="14" y="-892.75" font-family="Helvetica,sans-Serif" font-size="10.00">m_solverId</text>
<text text-anchor="start" x="4.38" y="-877.75" font-family="Helvetica,sans-Serif" font-size="10.00">#</text>
<text text-anchor="start" x="14" y="-877.75" font-family="Helvetica,sans-Serif" font-size="10.00">s_instanceCounts</text>
<text text-anchor="start" x="4" y="-862.75" font-family="Helvetica,sans-Serif" font-size="10.00">+</text>
<text text-anchor="start" x="14" y="-862.75" font-family="Helvetica,sans-Serif" font-size="10.00">getVariablesCount()</text>
<text text-anchor="start" x="4" y="-847.75" font-family="Helvetica,sans-Serif" font-size="10.00">+</text>
<text text-anchor="start" x="14" y="-847.75" font-family="Helvetica,sans-Serif" font-size="10.00">getDivisionVariable()</text>
<text text-anchor="start" x="4" y="-832.75" font-family="Helvetica,sans-Serif" font-size="10.00">+</text>
<text text-anchor="start" x="14" y="-832.75" font-family="Helvetica,sans-Serif" font-size="10.00">setSolverInterrupt()</text>
<text text-anchor="start" x="4" y="-817.75" font-family="Helvetica,sans-Serif" font-size="10.00">+</text>
<text text-anchor="start" x="14" y="-817.75" font-family="Helvetica,sans-Serif" font-size="10.00">unsetSolverInterrupt()</text>
<text text-anchor="start" x="4" y="-802.75" font-family="Helvetica,sans-Serif" font-size="10.00">+</text>
<text text-anchor="start" x="14" y="-802.75" font-family="Helvetica,sans-Serif" font-size="10.00">printWinningLog()</text>
<text text-anchor="start" x="4" y="-787.75" font-family="Helvetica,sans-Serif" font-size="10.00">+</text>
<text text-anchor="start" x="14" y="-787.75" font-family="Helvetica,sans-Serif" font-size="10.00">solve()</text>
<text text-anchor="start" x="4" y="-772.75" font-family="Helvetica,sans-Serif" font-size="10.00">+</text>
<text text-anchor="start" x="14" y="-772.75" font-family="Helvetica,sans-Serif" font-size="10.00">addClause()</text>
<text text-anchor="start" x="4" y="-757.75" font-family="Helvetica,sans-Serif" font-size="10.00">+</text>
<text text-anchor="start" x="14" y="-757.75" font-family="Helvetica,sans-Serif" font-size="10.00">addClauses()</text>
<text text-anchor="start" x="4" y="-742.75" font-family="Helvetica,sans-Serif" font-size="10.00">+</text>
<text text-anchor="start" x="14" y="-742.75" font-family="Helvetica,sans-Serif" font-size="10.00">addInitialClauses()</text>
<text text-anchor="start" x="4" y="-727.75" font-family="Helvetica,sans-Serif" font-size="10.00">+</text>
<text text-anchor="start" x="14" y="-727.75" font-family="Helvetica,sans-Serif" font-size="10.00">loadFormula()</text>
<text text-anchor="start" x="4" y="-712.75" font-family="Helvetica,sans-Serif" font-size="10.00">+</text>
<text text-anchor="start" x="14" y="-712.75" font-family="Helvetica,sans-Serif" font-size="10.00">printStatistics()</text>
<text text-anchor="start" x="4" y="-697.75" font-family="Helvetica,sans-Serif" font-size="10.00">+</text>
<text text-anchor="start" x="14" y="-697.75" font-family="Helvetica,sans-Serif" font-size="10.00">getModel()</text>
<text text-anchor="start" x="4" y="-682.75" font-family="Helvetica,sans-Serif" font-size="10.00">+</text>
<text text-anchor="start" x="14" y="-682.75" font-family="Helvetica,sans-Serif" font-size="10.00">printParameters()</text>
<text text-anchor="start" x="4" y="-667.75" font-family="Helvetica,sans-Serif" font-size="10.00">+</text>
<text text-anchor="start" x="14" y="-667.75" font-family="Helvetica,sans-Serif" font-size="10.00">diversify()</text>
<text text-anchor="start" x="4" y="-652.75" font-family="Helvetica,sans-Serif" font-size="10.00">+</text>
<text text-anchor="start" x="14" y="-652.75" font-family="Helvetica,sans-Serif" font-size="10.00">isInitialized()</text>
<text text-anchor="start" x="4" y="-637.75" font-family="Helvetica,sans-Serif" font-size="10.00">+</text>
<text text-anchor="start" x="14" y="-637.75" font-family="Helvetica,sans-Serif" font-size="10.00">setInitialized()</text>
<text text-anchor="start" x="4" y="-622.75" font-family="Helvetica,sans-Serif" font-size="10.00">+</text>
<text text-anchor="start" x="14" y="-622.75" font-family="Helvetica,sans-Serif" font-size="10.00">getAlgoType()</text>
<text text-anchor="start" x="4" y="-607.75" font-family="Helvetica,sans-Serif" font-size="10.00">+</text>
<text text-anchor="start" x="14" y="-607.75" font-family="Helvetica,sans-Serif" font-size="10.00">getSolverTypeId()</text>
<text text-anchor="start" x="4" y="-592.75" font-family="Helvetica,sans-Serif" font-size="10.00">+</text>
<text text-anchor="start" x="14" y="-592.75" font-family="Helvetica,sans-Serif" font-size="10.00">setSolverTypeId()</text>
<text text-anchor="start" x="4" y="-577.75" font-family="Helvetica,sans-Serif" font-size="10.00">+</text>
<text text-anchor="start" x="14" y="-577.75" font-family="Helvetica,sans-Serif" font-size="10.00">getSolverId()</text>
<text text-anchor="start" x="4" y="-562.75" font-family="Helvetica,sans-Serif" font-size="10.00">+</text>
<text text-anchor="start" x="14" y="-562.75" font-family="Helvetica,sans-Serif" font-size="10.00">setSolverId()</text>
<text text-anchor="start" x="4" y="-547.75" font-family="Helvetica,sans-Serif" font-size="10.00">+</text>
<text text-anchor="start" x="14" y="-547.75" font-family="Helvetica,sans-Serif" font-size="10.00">getSolverTypeCount()</text>
<text text-anchor="start" x="4" y="-532.75" font-family="Helvetica,sans-Serif" font-size="10.00">+</text>
<text text-anchor="start" x="14" y="-532.75" font-family="Helvetica,sans-Serif" font-size="10.00">SolverInterface()</text>
<text text-anchor="start" x="4" y="-517.75" font-family="Helvetica,sans-Serif" font-size="10.00">+</text>
<text text-anchor="start" x="14" y="-517.75" font-family="Helvetica,sans-Serif" font-size="10.00">~SolverInterface()</text>
<text text-anchor="start" x="4.38" y="-502.75" font-family="Helvetica,sans-Serif" font-size="10.00">#</text>
<text text-anchor="start" x="14" y="-502.75" font-family="Helvetica,sans-Serif" font-size="10.00">initializeTypeId()</text>
<text text-anchor="start" x="4.38" y="-487.75" font-family="Helvetica,sans-Serif" font-size="10.00">#</text>
<text text-anchor="start" x="14" y="-487.75" font-family="Helvetica,sans-Serif" font-size="10.00">getAndIncrementTypeCount()</text>
<polygon fill="#666666" stroke="#666666" points="0,-949.25 0,-949.25 144,-949.25 144,-949.25 0,-949.25"/>
<polygon fill="#666666" stroke="#666666" points="0,-874.25 0,-874.25 12,-874.25 12,-874.25 0,-874.25"/>
<polygon fill="#666666" stroke="#666666" points="12,-874.25 12,-874.25 144,-874.25 144,-874.25 12,-874.25"/>
<polygon fill="none" stroke="#666666" points="0,-482.25 0,-966.25 144,-966.25 144,-482.25 0,-482.25"/>
</a>
</g>
</g>
<!-- Node3&#45;&gt;Node2 -->
<g id="edge2_Node000002_Node000003" class="edge">
<title>Node3&#45;&gt;Node2</title>
<g id="a_edge2_Node000002_Node000003"><a xlink:title=" ">
<path fill="none" stroke="#63b8ff" d="M124.62,-471.5C127.34,-458.48 129.91,-446.18 132.25,-434.99"/>
<polygon fill="none" stroke="#63b8ff" points="121.23,-470.6 122.61,-481.11 128.08,-472.04 121.23,-470.6"/>
</a>
</g>
</g>
<!-- Node4 -->
<g id="Node000004" class="node">
<title>Node4</title>
<g id="a_Node000004"><a xlink:href="structLocalSearchStats.html" target="_top" xlink:title="Local search statistics.">
<polygon fill="white" stroke="none" points="273.5,-756.25 162.5,-756.25 162.5,-692.25 273.5,-692.25 273.5,-756.25"/>
<text text-anchor="start" x="179" y="-742.75" font-family="Helvetica,sans-Serif" font-size="10.00">LocalSearchStats</text>
<text text-anchor="start" x="166.5" y="-727.75" font-family="Helvetica,sans-Serif" font-size="10.00">+</text>
<text text-anchor="start" x="176.5" y="-727.75" font-family="Helvetica,sans-Serif" font-size="10.00">numberUnsatClauses</text>
<text text-anchor="start" x="166.5" y="-712.75" font-family="Helvetica,sans-Serif" font-size="10.00">+</text>
<text text-anchor="start" x="176.5" y="-712.75" font-family="Helvetica,sans-Serif" font-size="10.00">numberFlips</text>
<text text-anchor="start" x="216.5" y="-697.75" font-family="Helvetica,sans-Serif" font-size="10.00"> </text>
<polygon fill="#666666" stroke="#666666" points="162.5,-739.25 162.5,-739.25 273.5,-739.25 273.5,-739.25 162.5,-739.25"/>
<polygon fill="#666666" stroke="#666666" points="162.5,-709.25 162.5,-709.25 174.5,-709.25 174.5,-709.25 162.5,-709.25"/>
<polygon fill="#666666" stroke="#666666" points="174.5,-709.25 174.5,-709.25 273.5,-709.25 273.5,-709.25 174.5,-709.25"/>
<polygon fill="none" stroke="#666666" points="162.5,-692.25 162.5,-756.25 273.5,-756.25 273.5,-692.25 162.5,-692.25"/>
</a>
</g>
</g>
<!-- Node4&#45;&gt;Node2 -->
<g id="edge3_Node000002_Node000004" class="edge">
<title>Node4&#45;&gt;Node2</title>
<g id="a_edge3_Node000002_Node000004"><a xlink:title=" ">
<path fill="none" stroke="#63b8ff" d="M211.52,-692.26C200.13,-637.73 176.2,-523.27 160.37,-447.52"/>
<polygon fill="none" stroke="#63b8ff" points="160.34,-447.41 155.2,-442.35 157.89,-435.66 163.03,-440.72 160.34,-447.41"/>
</a>
</g>
<text text-anchor="middle" x="181.77" y="-454.75" font-family="Helvetica,sans-Serif" font-size="10.00" fill="grey"> #lsStats</text>
</g>
</g>
</svg>
