<?xml version="1.0" encoding="UTF-8" standalone="no"?>
<!DOCTYPE svg PUBLIC "-//W3C//DTD SVG 1.1//EN"
 "http://www.w3.org/Graphics/SVG/1.1/DTD/svg11.dtd">
<!-- Generated by graphviz version 12.1.2 (20240928.0832)
 -->
<!-- Title: GenericGlobalSharing Pages: 1 -->
<svg width="161pt" height="1188pt"
 viewBox="0.00 0.00 161.00 1188.00" xmlns="http://www.w3.org/2000/svg" xmlns:xlink="http://www.w3.org/1999/xlink">
<g id="graph0" class="graph" transform="scale(1 1) rotate(0) translate(4 1184)">
<title>GenericGlobalSharing</title>
<!-- Node1 -->
<g id="Node000001" class="node">
<title>Node1</title>
<g id="a_Node000001"><a xlink:title="Implements a generic global sharing strategy for clause exchange.">
<polygon fill="#999999" stroke="none" points="140,-244 13,-244 13,0 140,0 140,-244"/>
<text text-anchor="start" x="29.25" y="-230.5" font-family="Helvetica,sans-Serif" font-size="10.00">GenericGlobalSharing</text>
<text text-anchor="start" x="17.38" y="-215.5" font-family="Helvetica,sans-Serif" font-size="10.00">#</text>
<text text-anchor="start" x="27" y="-215.5" font-family="Helvetica,sans-Serif" font-size="10.00">totalSize</text>
<text text-anchor="start" x="17.38" y="-200.5" font-family="Helvetica,sans-Serif" font-size="10.00">#</text>
<text text-anchor="start" x="27" y="-200.5" font-family="Helvetica,sans-Serif" font-size="10.00">sendRequests</text>
<text text-anchor="start" x="17.38" y="-185.5" font-family="Helvetica,sans-Serif" font-size="10.00">#</text>
<text text-anchor="start" x="27" y="-185.5" font-family="Helvetica,sans-Serif" font-size="10.00">b_filter_send</text>
<text text-anchor="start" x="17.38" y="-170.5" font-family="Helvetica,sans-Serif" font-size="10.00">#</text>
<text text-anchor="start" x="27" y="-170.5" font-family="Helvetica,sans-Serif" font-size="10.00">b_filter_recv</text>
<text text-anchor="start" x="17.38" y="-155.5" font-family="Helvetica,sans-Serif" font-size="10.00">#</text>
<text text-anchor="start" x="27" y="-155.5" font-family="Helvetica,sans-Serif" font-size="10.00">clausesToSendSerialized</text>
<text text-anchor="start" x="17.38" y="-140.5" font-family="Helvetica,sans-Serif" font-size="10.00">#</text>
<text text-anchor="start" x="27" y="-140.5" font-family="Helvetica,sans-Serif" font-size="10.00">receivedClauses</text>
<text text-anchor="start" x="17.38" y="-125.5" font-family="Helvetica,sans-Serif" font-size="10.00">#</text>
<text text-anchor="start" x="27" y="-125.5" font-family="Helvetica,sans-Serif" font-size="10.00">subscriptions</text>
<text text-anchor="start" x="17.38" y="-110.5" font-family="Helvetica,sans-Serif" font-size="10.00">#</text>
<text text-anchor="start" x="27" y="-110.5" font-family="Helvetica,sans-Serif" font-size="10.00">subscribers</text>
<text text-anchor="start" x="17" y="-95.5" font-family="Helvetica,sans-Serif" font-size="10.00">+</text>
<text text-anchor="start" x="27" y="-95.5" font-family="Helvetica,sans-Serif" font-size="10.00">GenericGlobalSharing()</text>
<text text-anchor="start" x="17" y="-80.5" font-family="Helvetica,sans-Serif" font-size="10.00">+</text>
<text text-anchor="start" x="27" y="-80.5" font-family="Helvetica,sans-Serif" font-size="10.00">~GenericGlobalSharing()</text>
<text text-anchor="start" x="17" y="-65.5" font-family="Helvetica,sans-Serif" font-size="10.00">+</text>
<text text-anchor="start" x="27" y="-65.5" font-family="Helvetica,sans-Serif" font-size="10.00">initMpiVariables()</text>
<text text-anchor="start" x="17" y="-50.5" font-family="Helvetica,sans-Serif" font-size="10.00">+</text>
<text text-anchor="start" x="27" y="-50.5" font-family="Helvetica,sans-Serif" font-size="10.00">doSharing()</text>
<text text-anchor="start" x="17" y="-35.5" font-family="Helvetica,sans-Serif" font-size="10.00">+</text>
<text text-anchor="start" x="27" y="-35.5" font-family="Helvetica,sans-Serif" font-size="10.00">joinProcess()</text>
<text text-anchor="start" x="17.38" y="-20.5" font-family="Helvetica,sans-Serif" font-size="10.00">#</text>
<text text-anchor="start" x="27" y="-20.5" font-family="Helvetica,sans-Serif" font-size="10.00">serializeClauses()</text>
<text text-anchor="start" x="17.38" y="-5.5" font-family="Helvetica,sans-Serif" font-size="10.00">#</text>
<text text-anchor="start" x="27" y="-5.5" font-family="Helvetica,sans-Serif" font-size="10.00">deserializeClauses()</text>
<polygon fill="#666666" stroke="#666666" points="13,-227 13,-227 140,-227 140,-227 13,-227"/>
<polygon fill="#666666" stroke="#666666" points="13,-107 13,-107 25,-107 25,-107 13,-107"/>
<polygon fill="#666666" stroke="#666666" points="25,-107 25,-107 140,-107 140,-107 25,-107"/>
<polygon fill="none" stroke="#666666" points="13,0 13,-244 140,-244 140,0 13,0"/>
</a>
</g>
</g>
<!-- Node2 -->
<g id="Node000002" class="node">
<title>Node2</title>
<g id="a_Node000002"><a xlink:href="classGlobalSharingStrategy.html" target="_top" xlink:title="Base class for global clause sharing strategies across MPI processes.">
<polygon fill="white" stroke="none" points="139.5,-524 13.5,-524 13.5,-280 139.5,-280 139.5,-524"/>
<text text-anchor="start" x="28.12" y="-510.5" font-family="Helvetica,sans-Serif" font-size="10.00">GlobalSharingStrategy</text>
<text text-anchor="start" x="17.88" y="-495.5" font-family="Helvetica,sans-Serif" font-size="10.00">#</text>
<text text-anchor="start" x="27.5" y="-495.5" font-family="Helvetica,sans-Serif" font-size="10.00">gstats</text>
<text text-anchor="start" x="17.88" y="-480.5" font-family="Helvetica,sans-Serif" font-size="10.00">#</text>
<text text-anchor="start" x="27.5" y="-480.5" font-family="Helvetica,sans-Serif" font-size="10.00">requests_sent</text>
<text text-anchor="start" x="17.88" y="-465.5" font-family="Helvetica,sans-Serif" font-size="10.00">#</text>
<text text-anchor="start" x="27.5" y="-465.5" font-family="Helvetica,sans-Serif" font-size="10.00">recv_end_requests</text>
<text text-anchor="start" x="17.88" y="-450.5" font-family="Helvetica,sans-Serif" font-size="10.00">#</text>
<text text-anchor="start" x="27.5" y="-450.5" font-family="Helvetica,sans-Serif" font-size="10.00">send_end_request</text>
<text text-anchor="start" x="17.88" y="-435.5" font-family="Helvetica,sans-Serif" font-size="10.00">#</text>
<text text-anchor="start" x="27.5" y="-435.5" font-family="Helvetica,sans-Serif" font-size="10.00">receivedFinalResultRoot</text>
<text text-anchor="start" x="17.5" y="-420.5" font-family="Helvetica,sans-Serif" font-size="10.00">+</text>
<text text-anchor="start" x="27.5" y="-420.5" font-family="Helvetica,sans-Serif" font-size="10.00">GlobalSharingStrategy()</text>
<text text-anchor="start" x="17.5" y="-405.5" font-family="Helvetica,sans-Serif" font-size="10.00">+</text>
<text text-anchor="start" x="27.5" y="-405.5" font-family="Helvetica,sans-Serif" font-size="10.00">~GlobalSharingStrategy()</text>
<text text-anchor="start" x="17.5" y="-390.5" font-family="Helvetica,sans-Serif" font-size="10.00">+</text>
<text text-anchor="start" x="27.5" y="-390.5" font-family="Helvetica,sans-Serif" font-size="10.00">importClause()</text>
<text text-anchor="start" x="17.5" y="-375.5" font-family="Helvetica,sans-Serif" font-size="10.00">+</text>
<text text-anchor="start" x="27.5" y="-375.5" font-family="Helvetica,sans-Serif" font-size="10.00">importClauses()</text>
<text text-anchor="start" x="17.5" y="-360.5" font-family="Helvetica,sans-Serif" font-size="10.00">+</text>
<text text-anchor="start" x="27.5" y="-360.5" font-family="Helvetica,sans-Serif" font-size="10.00">exportClauseToClient()</text>
<text text-anchor="start" x="17.5" y="-345.5" font-family="Helvetica,sans-Serif" font-size="10.00">+</text>
<text text-anchor="start" x="27.5" y="-345.5" font-family="Helvetica,sans-Serif" font-size="10.00">getSleepingTime()</text>
<text text-anchor="start" x="17.5" y="-330.5" font-family="Helvetica,sans-Serif" font-size="10.00">+</text>
<text text-anchor="start" x="27.5" y="-330.5" font-family="Helvetica,sans-Serif" font-size="10.00">joinProcess()</text>
<text text-anchor="start" x="17.5" y="-315.5" font-family="Helvetica,sans-Serif" font-size="10.00">+</text>
<text text-anchor="start" x="27.5" y="-315.5" font-family="Helvetica,sans-Serif" font-size="10.00">printStats()</text>
<text text-anchor="start" x="17.5" y="-300.5" font-family="Helvetica,sans-Serif" font-size="10.00">+</text>
<text text-anchor="start" x="27.5" y="-300.5" font-family="Helvetica,sans-Serif" font-size="10.00">initMpiVariables()</text>
<text text-anchor="start" x="17.5" y="-285.5" font-family="Helvetica,sans-Serif" font-size="10.00">+</text>
<text text-anchor="start" x="27.5" y="-285.5" font-family="Helvetica,sans-Serif" font-size="10.00">doSharing()</text>
<polygon fill="#666666" stroke="#666666" points="13.5,-507 13.5,-507 139.5,-507 139.5,-507 13.5,-507"/>
<polygon fill="#666666" stroke="#666666" points="13.5,-432 13.5,-432 25.5,-432 25.5,-432 13.5,-432"/>
<polygon fill="#666666" stroke="#666666" points="25.5,-432 25.5,-432 139.5,-432 139.5,-432 25.5,-432"/>
<polygon fill="none" stroke="#666666" points="13.5,-280 13.5,-524 139.5,-524 139.5,-280 13.5,-280"/>
</a>
</g>
</g>
<!-- Node2&#45;&gt;Node1 -->
<g id="edge1_Node000001_Node000002" class="edge">
<title>Node2&#45;&gt;Node1</title>
<g id="a_edge1_Node000001_Node000002"><a xlink:title=" ">
<path fill="none" stroke="#63b8ff" d="M76.5,-268.83C76.5,-260.41 76.5,-251.96 76.5,-243.6"/>
<polygon fill="none" stroke="#63b8ff" points="73,-268.76 76.5,-278.76 80,-268.76 73,-268.76"/>
</a>
</g>
</g>
<!-- Node3 -->
<g id="Node000003" class="node">
<title>Node3</title>
<g id="a_Node000003"><a xlink:href="classSharingStrategy.html" target="_top" xlink:title="SharingStrategy class, inheriting from SharingEntity.">
<polygon fill="white" stroke="none" points="153,-789 0,-789 0,-560 153,-560 153,-789"/>
<text text-anchor="start" x="42" y="-775.5" font-family="Helvetica,sans-Serif" font-size="10.00">SharingStrategy</text>
<text text-anchor="start" x="4.38" y="-760.5" font-family="Helvetica,sans-Serif" font-size="10.00">#</text>
<text text-anchor="start" x="14" y="-760.5" font-family="Helvetica,sans-Serif" font-size="10.00">m_clauseDB</text>
<text text-anchor="start" x="4.38" y="-745.5" font-family="Helvetica,sans-Serif" font-size="10.00">#</text>
<text text-anchor="start" x="14" y="-745.5" font-family="Helvetica,sans-Serif" font-size="10.00">stats</text>
<text text-anchor="start" x="4.38" y="-730.5" font-family="Helvetica,sans-Serif" font-size="10.00">#</text>
<text text-anchor="start" x="14" y="-730.5" font-family="Helvetica,sans-Serif" font-size="10.00">m_producers</text>
<text text-anchor="start" x="4.38" y="-715.5" font-family="Helvetica,sans-Serif" font-size="10.00">#</text>
<text text-anchor="start" x="14" y="-715.5" font-family="Helvetica,sans-Serif" font-size="10.00">m_producersMutex</text>
<text text-anchor="start" x="4" y="-700.5" font-family="Helvetica,sans-Serif" font-size="10.00">+</text>
<text text-anchor="start" x="14" y="-700.5" font-family="Helvetica,sans-Serif" font-size="10.00">SharingStrategy()</text>
<text text-anchor="start" x="4" y="-685.5" font-family="Helvetica,sans-Serif" font-size="10.00">+</text>
<text text-anchor="start" x="14" y="-685.5" font-family="Helvetica,sans-Serif" font-size="10.00">~SharingStrategy()</text>
<text text-anchor="start" x="4" y="-670.5" font-family="Helvetica,sans-Serif" font-size="10.00">+</text>
<text text-anchor="start" x="14" y="-670.5" font-family="Helvetica,sans-Serif" font-size="10.00">doSharing()</text>
<text text-anchor="start" x="4" y="-655.5" font-family="Helvetica,sans-Serif" font-size="10.00">+</text>
<text text-anchor="start" x="14" y="-655.5" font-family="Helvetica,sans-Serif" font-size="10.00">getSleepingTime()</text>
<text text-anchor="start" x="4" y="-640.5" font-family="Helvetica,sans-Serif" font-size="10.00">+</text>
<text text-anchor="start" x="14" y="-640.5" font-family="Helvetica,sans-Serif" font-size="10.00">printStats()</text>
<text text-anchor="start" x="4" y="-625.5" font-family="Helvetica,sans-Serif" font-size="10.00">+</text>
<text text-anchor="start" x="14" y="-625.5" font-family="Helvetica,sans-Serif" font-size="10.00">connectConstructorProducers()</text>
<text text-anchor="start" x="4" y="-610.5" font-family="Helvetica,sans-Serif" font-size="10.00">+</text>
<text text-anchor="start" x="14" y="-610.5" font-family="Helvetica,sans-Serif" font-size="10.00">addProducer()</text>
<text text-anchor="start" x="4" y="-595.5" font-family="Helvetica,sans-Serif" font-size="10.00">+</text>
<text text-anchor="start" x="14" y="-595.5" font-family="Helvetica,sans-Serif" font-size="10.00">connectProducer()</text>
<text text-anchor="start" x="4" y="-580.5" font-family="Helvetica,sans-Serif" font-size="10.00">+</text>
<text text-anchor="start" x="14" y="-580.5" font-family="Helvetica,sans-Serif" font-size="10.00">removeProducer()</text>
<text text-anchor="start" x="4.38" y="-565.5" font-family="Helvetica,sans-Serif" font-size="10.00">#</text>
<text text-anchor="start" x="14" y="-565.5" font-family="Helvetica,sans-Serif" font-size="10.00">exportClauseToClient()</text>
<polygon fill="#666666" stroke="#666666" points="0,-772 0,-772 153,-772 153,-772 0,-772"/>
<polygon fill="#666666" stroke="#666666" points="0,-712 0,-712 12,-712 12,-712 0,-712"/>
<polygon fill="#666666" stroke="#666666" points="12,-712 12,-712 153,-712 153,-712 12,-712"/>
<polygon fill="none" stroke="#666666" points="0,-560 0,-789 153,-789 153,-560 0,-560"/>
</a>
</g>
</g>
<!-- Node3&#45;&gt;Node2 -->
<g id="edge2_Node000002_Node000003" class="edge">
<title>Node3&#45;&gt;Node2</title>
<g id="a_edge2_Node000002_Node000003"><a xlink:title=" ">
<path fill="none" stroke="#63b8ff" d="M76.5,-549.03C76.5,-540.69 76.5,-532.3 76.5,-523.98"/>
<polygon fill="none" stroke="#63b8ff" points="73,-548.84 76.5,-558.84 80,-548.84 73,-548.84"/>
</a>
</g>
</g>
<!-- Node4 -->
<g id="Node000004" class="node">
<title>Node4</title>
<g id="a_Node000004"><a xlink:href="classSharingEntity.html" target="_top" xlink:title="A base class representing entities that can exchange clauses between themselves.">
<polygon fill="white" stroke="none" points="134.5,-1084 18.5,-1084 18.5,-825 134.5,-825 134.5,-1084"/>
<text text-anchor="start" x="48" y="-1070.5" font-family="Helvetica,sans-Serif" font-size="10.00">SharingEntity</text>
<text text-anchor="start" x="22.88" y="-1055.5" font-family="Helvetica,sans-Serif" font-size="10.00">#</text>
<text text-anchor="start" x="32.5" y="-1055.5" font-family="Helvetica,sans-Serif" font-size="10.00">m_clients</text>
<text text-anchor="start" x="22.88" y="-1040.5" font-family="Helvetica,sans-Serif" font-size="10.00">#</text>
<text text-anchor="start" x="32.5" y="-1040.5" font-family="Helvetica,sans-Serif" font-size="10.00">m_clientsMutex</text>
<text text-anchor="start" x="22.5" y="-1025.5" font-family="Helvetica,sans-Serif" font-size="10.00">+</text>
<text text-anchor="start" x="32.5" y="-1025.5" font-family="Helvetica,sans-Serif" font-size="10.00">SharingEntity()</text>
<text text-anchor="start" x="22.5" y="-1010.5" font-family="Helvetica,sans-Serif" font-size="10.00">+</text>
<text text-anchor="start" x="32.5" y="-1010.5" font-family="Helvetica,sans-Serif" font-size="10.00">SharingEntity()</text>
<text text-anchor="start" x="22.5" y="-995.5" font-family="Helvetica,sans-Serif" font-size="10.00">+</text>
<text text-anchor="start" x="32.5" y="-995.5" font-family="Helvetica,sans-Serif" font-size="10.00">~SharingEntity()</text>
<text text-anchor="start" x="22.5" y="-980.5" font-family="Helvetica,sans-Serif" font-size="10.00">+</text>
<text text-anchor="start" x="32.5" y="-980.5" font-family="Helvetica,sans-Serif" font-size="10.00">importClause()</text>
<text text-anchor="start" x="22.5" y="-965.5" font-family="Helvetica,sans-Serif" font-size="10.00">+</text>
<text text-anchor="start" x="32.5" y="-965.5" font-family="Helvetica,sans-Serif" font-size="10.00">importClauses()</text>
<text text-anchor="start" x="22.5" y="-950.5" font-family="Helvetica,sans-Serif" font-size="10.00">+</text>
<text text-anchor="start" x="32.5" y="-950.5" font-family="Helvetica,sans-Serif" font-size="10.00">getSharingId()</text>
<text text-anchor="start" x="22.5" y="-935.5" font-family="Helvetica,sans-Serif" font-size="10.00">+</text>
<text text-anchor="start" x="32.5" y="-935.5" font-family="Helvetica,sans-Serif" font-size="10.00">setSharingId()</text>
<text text-anchor="start" x="22.5" y="-920.5" font-family="Helvetica,sans-Serif" font-size="10.00">+</text>
<text text-anchor="start" x="32.5" y="-920.5" font-family="Helvetica,sans-Serif" font-size="10.00">addClient()</text>
<text text-anchor="start" x="22.5" y="-905.5" font-family="Helvetica,sans-Serif" font-size="10.00">+</text>
<text text-anchor="start" x="32.5" y="-905.5" font-family="Helvetica,sans-Serif" font-size="10.00">removeClient()</text>
<text text-anchor="start" x="22.5" y="-890.5" font-family="Helvetica,sans-Serif" font-size="10.00">+</text>
<text text-anchor="start" x="32.5" y="-890.5" font-family="Helvetica,sans-Serif" font-size="10.00">getClientCount()</text>
<text text-anchor="start" x="22.5" y="-875.5" font-family="Helvetica,sans-Serif" font-size="10.00">+</text>
<text text-anchor="start" x="32.5" y="-875.5" font-family="Helvetica,sans-Serif" font-size="10.00">clearClients()</text>
<text text-anchor="start" x="22.88" y="-860.5" font-family="Helvetica,sans-Serif" font-size="10.00">#</text>
<text text-anchor="start" x="32.5" y="-860.5" font-family="Helvetica,sans-Serif" font-size="10.00">exportClauseToClient()</text>
<text text-anchor="start" x="22.88" y="-845.5" font-family="Helvetica,sans-Serif" font-size="10.00">#</text>
<text text-anchor="start" x="32.5" y="-845.5" font-family="Helvetica,sans-Serif" font-size="10.00">exportClause()</text>
<text text-anchor="start" x="22.88" y="-830.5" font-family="Helvetica,sans-Serif" font-size="10.00">#</text>
<text text-anchor="start" x="32.5" y="-830.5" font-family="Helvetica,sans-Serif" font-size="10.00">exportClauses()</text>
<polygon fill="#666666" stroke="#666666" points="18.5,-1067 18.5,-1067 134.5,-1067 134.5,-1067 18.5,-1067"/>
<polygon fill="#666666" stroke="#666666" points="18.5,-1037 18.5,-1037 30.5,-1037 30.5,-1037 18.5,-1037"/>
<polygon fill="#666666" stroke="#666666" points="30.5,-1037 30.5,-1037 134.5,-1037 134.5,-1037 30.5,-1037"/>
<polygon fill="none" stroke="#666666" points="18.5,-825 18.5,-1084 134.5,-1084 134.5,-825 18.5,-825"/>
</a>
</g>
</g>
<!-- Node4&#45;&gt;Node3 -->
<g id="edge3_Node000003_Node000004" class="edge">
<title>Node4&#45;&gt;Node3</title>
<g id="a_edge3_Node000003_Node000004"><a xlink:title=" ">
<path fill="none" stroke="#63b8ff" d="M76.5,-813.72C76.5,-805.39 76.5,-797.06 76.5,-788.85"/>
<polygon fill="none" stroke="#63b8ff" points="73,-813.57 76.5,-823.57 80,-813.57 73,-813.57"/>
</a>
</g>
</g>
<!-- Node5 -->
<g id="Node000005" class="node">
<title>Node5</title>
<g id="a_Node000005"><a xlink:title=" ">
<polygon fill="white" stroke="none" points="141,-1180 12,-1180 12,-1120 141,-1120 141,-1180"/>
<text text-anchor="start" x="16.88" y="-1166.5" font-family="Helvetica,sans-Serif" font-size="10.00">std::enable_shared</text>
<text text-anchor="start" x="16.88" y="-1155.25" font-family="Helvetica,sans-Serif" font-size="10.00">_from_this&lt; SharingEntity &gt;</text>
<text text-anchor="start" x="75" y="-1140.5" font-family="Helvetica,sans-Serif" font-size="10.00"> </text>
<text text-anchor="start" x="75" y="-1125.5" font-family="Helvetica,sans-Serif" font-size="10.00"> </text>
<polygon fill="#bfbfbf" stroke="#bfbfbf" points="12,-1152 12,-1152 141,-1152 141,-1152 12,-1152"/>
<polygon fill="#bfbfbf" stroke="#bfbfbf" points="12,-1137 12,-1137 141,-1137 141,-1137 12,-1137"/>
<polygon fill="none" stroke="#bfbfbf" points="12,-1120 12,-1180 141,-1180 141,-1120 12,-1120"/>
</a>
</g>
</g>
<!-- Node5&#45;&gt;Node4 -->
<g id="edge4_Node000004_Node000005" class="edge">
<title>Node5&#45;&gt;Node4</title>
<g id="a_edge4_Node000004_Node000005"><a xlink:title=" ">
<path fill="none" stroke="#63b8ff" d="M76.5,-1108.69C76.5,-1101.06 76.5,-1092.72 76.5,-1083.99"/>
<polygon fill="none" stroke="#63b8ff" points="73,-1108.52 76.5,-1118.52 80,-1108.52 73,-1108.52"/>
</a>
</g>
</g>
</g>
</svg>
