<?xml version="1.0" encoding="UTF-8" standalone="no"?>
<!DOCTYPE svg PUBLIC "-//W3C//DTD SVG 1.1//EN"
 "http://www.w3.org/Graphics/SVG/1.1/DTD/svg11.dtd">
<!-- Generated by graphviz version 12.1.2 (20240928.0832)
 -->
<!-- Title: SequentialWorker Pages: 1 -->
<svg width="376pt" height="423pt"
 viewBox="0.00 0.00 376.17 423.25" xmlns="http://www.w3.org/2000/svg" xmlns:xlink="http://www.w3.org/1999/xlink">

<svg id="main" version="1.1" xmlns="http://www.w3.org/2000/svg" xmlns:xlink="http://www.w3.org/1999/xlink" xml:space="preserve">

<style type="text/css"><![CDATA[
.node, .edge {opacity: 0.7;}
.node.selected, .edge.selected {opacity: 1;}
.edge:hover path { stroke: red; }
.edge:hover polygon { stroke: red; fill: red; }
]]></style>
<script type="application/ecmascript" xlink:href="svg.min.js"/>
<svg id="graph" class="graph">
<g id="graph0" class="graph" transform="scale(1 1) rotate(0) translate(4 419.25)">
<title>SequentialWorker</title>
<!-- Node1 -->
<g id="Node000001" class="node">
<title>Node1</title>
<g id="a_Node000001"><a xlink:title="Basic Implementation of WorkingStrategy for a sequential execution.">
<polygon fill="#999999" stroke="none" points="285,-214 174,-214 174,0 285,0 285,-214"/>
<text text-anchor="start" x="191.25" y="-200.5" font-family="Helvetica,sans-Serif" font-size="10.00">SequentialWorker</text>
<text text-anchor="start" x="178" y="-185.5" font-family="Helvetica,sans-Serif" font-size="10.00">+</text>
<text text-anchor="start" x="188" y="-185.5" font-family="Helvetica,sans-Serif" font-size="10.00">solver</text>
<text text-anchor="start" x="178.38" y="-170.5" font-family="Helvetica,sans-Serif" font-size="10.00">#</text>
<text text-anchor="start" x="188" y="-170.5" font-family="Helvetica,sans-Serif" font-size="10.00">actualCube</text>
<text text-anchor="start" x="178.38" y="-155.5" font-family="Helvetica,sans-Serif" font-size="10.00">#</text>
<text text-anchor="start" x="188" y="-155.5" font-family="Helvetica,sans-Serif" font-size="10.00">force</text>
<text text-anchor="start" x="178.38" y="-140.5" font-family="Helvetica,sans-Serif" font-size="10.00">#</text>
<text text-anchor="start" x="188" y="-140.5" font-family="Helvetica,sans-Serif" font-size="10.00">waitJob</text>
<text text-anchor="start" x="178.38" y="-125.5" font-family="Helvetica,sans-Serif" font-size="10.00">#</text>
<text text-anchor="start" x="188" y="-125.5" font-family="Helvetica,sans-Serif" font-size="10.00">mutexStart</text>
<text text-anchor="start" x="178.38" y="-110.5" font-family="Helvetica,sans-Serif" font-size="10.00">#</text>
<text text-anchor="start" x="188" y="-110.5" font-family="Helvetica,sans-Serif" font-size="10.00">mutexCondStart</text>
<text text-anchor="start" x="178" y="-95.5" font-family="Helvetica,sans-Serif" font-size="10.00">+</text>
<text text-anchor="start" x="188" y="-95.5" font-family="Helvetica,sans-Serif" font-size="10.00">SequentialWorker()</text>
<text text-anchor="start" x="178" y="-80.5" font-family="Helvetica,sans-Serif" font-size="10.00">+</text>
<text text-anchor="start" x="188" y="-80.5" font-family="Helvetica,sans-Serif" font-size="10.00">~SequentialWorker()</text>
<text text-anchor="start" x="178" y="-65.5" font-family="Helvetica,sans-Serif" font-size="10.00">+</text>
<text text-anchor="start" x="188" y="-65.5" font-family="Helvetica,sans-Serif" font-size="10.00">solve()</text>
<text text-anchor="start" x="178" y="-50.5" font-family="Helvetica,sans-Serif" font-size="10.00">+</text>
<text text-anchor="start" x="188" y="-50.5" font-family="Helvetica,sans-Serif" font-size="10.00">join()</text>
<text text-anchor="start" x="178" y="-35.5" font-family="Helvetica,sans-Serif" font-size="10.00">+</text>
<text text-anchor="start" x="188" y="-35.5" font-family="Helvetica,sans-Serif" font-size="10.00">setSolverInterrupt()</text>
<text text-anchor="start" x="178" y="-20.5" font-family="Helvetica,sans-Serif" font-size="10.00">+</text>
<text text-anchor="start" x="188" y="-20.5" font-family="Helvetica,sans-Serif" font-size="10.00">unsetSolverInterrupt()</text>
<text text-anchor="start" x="178" y="-5.5" font-family="Helvetica,sans-Serif" font-size="10.00">+</text>
<text text-anchor="start" x="188" y="-5.5" font-family="Helvetica,sans-Serif" font-size="10.00">waitInterrupt()</text>
<polygon fill="#666666" stroke="#666666" points="174,-197 174,-197 285,-197 285,-197 174,-197"/>
<polygon fill="#666666" stroke="#666666" points="174,-107 174,-107 186,-107 186,-107 174,-107"/>
<polygon fill="#666666" stroke="#666666" points="186,-107 186,-107 285,-107 285,-107 186,-107"/>
<polygon fill="none" stroke="#666666" points="174,0 174,-214 285,-214 285,0 174,0"/>
</a>
</g>
</g>
<!-- Node2 -->
<g id="Node000002" class="node">
<title>Node2</title>
<g id="a_Node000002"><a xlink:href="classWorkingStrategy.html" target="_top" xlink:title="Base Interface for Working Strategies.">
<polygon fill="white" stroke="none" points="111,-415.25 0,-415.25 0,-261.25 111,-261.25 111,-415.25"/>
<text text-anchor="start" x="19.88" y="-401.75" font-family="Helvetica,sans-Serif" font-size="10.00">WorkingStrategy</text>
<text text-anchor="start" x="4.38" y="-386.75" font-family="Helvetica,sans-Serif" font-size="10.00">#</text>
<text text-anchor="start" x="14" y="-386.75" font-family="Helvetica,sans-Serif" font-size="10.00">slaves</text>
<text text-anchor="start" x="4" y="-371.75" font-family="Helvetica,sans-Serif" font-size="10.00">+</text>
<text text-anchor="start" x="14" y="-371.75" font-family="Helvetica,sans-Serif" font-size="10.00">WorkingStrategy()</text>
<text text-anchor="start" x="4" y="-356.75" font-family="Helvetica,sans-Serif" font-size="10.00">+</text>
<text text-anchor="start" x="14" y="-356.75" font-family="Helvetica,sans-Serif" font-size="10.00">solve()</text>
<text text-anchor="start" x="4" y="-341.75" font-family="Helvetica,sans-Serif" font-size="10.00">+</text>
<text text-anchor="start" x="14" y="-341.75" font-family="Helvetica,sans-Serif" font-size="10.00">join()</text>
<text text-anchor="start" x="4" y="-326.75" font-family="Helvetica,sans-Serif" font-size="10.00">+</text>
<text text-anchor="start" x="14" y="-326.75" font-family="Helvetica,sans-Serif" font-size="10.00">setSolverInterrupt()</text>
<text text-anchor="start" x="4" y="-311.75" font-family="Helvetica,sans-Serif" font-size="10.00">+</text>
<text text-anchor="start" x="14" y="-311.75" font-family="Helvetica,sans-Serif" font-size="10.00">unsetSolverInterrupt()</text>
<text text-anchor="start" x="4" y="-296.75" font-family="Helvetica,sans-Serif" font-size="10.00">+</text>
<text text-anchor="start" x="14" y="-296.75" font-family="Helvetica,sans-Serif" font-size="10.00">waitInterrupt()</text>
<text text-anchor="start" x="4" y="-281.75" font-family="Helvetica,sans-Serif" font-size="10.00">+</text>
<text text-anchor="start" x="14" y="-281.75" font-family="Helvetica,sans-Serif" font-size="10.00">addSlave()</text>
<text text-anchor="start" x="4" y="-266.75" font-family="Helvetica,sans-Serif" font-size="10.00">+</text>
<text text-anchor="start" x="14" y="-266.75" font-family="Helvetica,sans-Serif" font-size="10.00">~WorkingStrategy()</text>
<polygon fill="#666666" stroke="#666666" points="0,-398.25 0,-398.25 111,-398.25 111,-398.25 0,-398.25"/>
<polygon fill="#666666" stroke="#666666" points="0,-383.25 0,-383.25 12,-383.25 12,-383.25 0,-383.25"/>
<polygon fill="#666666" stroke="#666666" points="12,-383.25 12,-383.25 111,-383.25 111,-383.25 12,-383.25"/>
<polygon fill="none" stroke="#666666" points="0,-261.25 0,-415.25 111,-415.25 111,-261.25 0,-261.25"/>
</a>
</g>
</g>
<!-- Node2&#45;&gt;Node1 -->
<g id="edge1_Node000001_Node000002" class="edge">
<title>Node2&#45;&gt;Node1</title>
<g id="a_edge1_Node000001_Node000002"><a xlink:title=" ">
<path fill="none" stroke="#63b8ff" d="M117.75,-255.23C136.14,-231.01 156.13,-204.67 174.05,-181.05"/>
<polygon fill="none" stroke="#63b8ff" points="114.97,-253.11 111.71,-263.19 120.54,-257.34 114.97,-253.11"/>
</a>
</g>
</g>
<!-- Node2&#45;&gt;Node2 -->
<g id="edge2_Node000002_Node000002" class="edge">
<title>Node2&#45;&gt;Node2</title>
<g id="a_edge2_Node000002_Node000002"><a xlink:title=" ">
<path fill="none" stroke="#63b8ff" d="M110.95,-356.21C121.52,-354.06 129,-348.08 129,-338.25 129,-332.72 126.63,-328.41 122.68,-325.31"/>
<polygon fill="none" stroke="#63b8ff" points="122.81,-325.37 115.72,-326.68 111.78,-320.64 118.87,-319.33 122.81,-325.37"/>
</a>
</g>
<text text-anchor="middle" x="146.25" y="-334.38" font-family="Helvetica,sans-Serif" font-size="10.00" fill="grey"> #parent</text>
</g>
<!-- Node3 -->
<g id="Node000003" class="node">
<title>Node3</title>
<g id="a_Node000003"><a xlink:href="classThread.html" target="_top" xlink:title="Thread class.">
<polygon fill="white" stroke="none" points="277.5,-377.75 181.5,-377.75 181.5,-298.75 277.5,-298.75 277.5,-377.75"/>
<text text-anchor="start" x="214.5" y="-364.25" font-family="Helvetica,sans-Serif" font-size="10.00">Thread</text>
<text text-anchor="start" x="185.88" y="-349.25" font-family="Helvetica,sans-Serif" font-size="10.00">#</text>
<text text-anchor="start" x="195.5" y="-349.25" font-family="Helvetica,sans-Serif" font-size="10.00">myTid</text>
<text text-anchor="start" x="185.5" y="-334.25" font-family="Helvetica,sans-Serif" font-size="10.00">+</text>
<text text-anchor="start" x="195.5" y="-334.25" font-family="Helvetica,sans-Serif" font-size="10.00">Thread()</text>
<text text-anchor="start" x="185.5" y="-319.25" font-family="Helvetica,sans-Serif" font-size="10.00">+</text>
<text text-anchor="start" x="195.5" y="-319.25" font-family="Helvetica,sans-Serif" font-size="10.00">join()</text>
<text text-anchor="start" x="185.5" y="-304.25" font-family="Helvetica,sans-Serif" font-size="10.00">+</text>
<text text-anchor="start" x="195.5" y="-304.25" font-family="Helvetica,sans-Serif" font-size="10.00">setThreadAffinity()</text>
<polygon fill="#666666" stroke="#666666" points="181.5,-360.75 181.5,-360.75 277.5,-360.75 277.5,-360.75 181.5,-360.75"/>
<polygon fill="#666666" stroke="#666666" points="181.5,-345.75 181.5,-345.75 193.5,-345.75 193.5,-345.75 181.5,-345.75"/>
<polygon fill="#666666" stroke="#666666" points="193.5,-345.75 193.5,-345.75 277.5,-345.75 277.5,-345.75 193.5,-345.75"/>
<polygon fill="none" stroke="#666666" points="181.5,-298.75 181.5,-377.75 277.5,-377.75 277.5,-298.75 181.5,-298.75"/>
</a>
</g>
</g>
<!-- Node3&#45;&gt;Node1 -->
<g id="edge3_Node000001_Node000003" class="edge">
<title>Node3&#45;&gt;Node1</title>
<g id="a_edge3_Node000001_Node000003"><a xlink:title=" ">
<path fill="none" stroke="#63b8ff" d="M229.5,-298.88C229.5,-278.72 229.5,-252.81 229.5,-226.62"/>
<polygon fill="none" stroke="#63b8ff" points="229.5,-226.67 225.5,-220.67 229.5,-214.67 233.5,-220.67 229.5,-226.67"/>
</a>
</g>
<text text-anchor="middle" x="247.88" y="-233.75" font-family="Helvetica,sans-Serif" font-size="10.00" fill="grey"> #worker</text>
</g>
<!-- Node4 -->
<g id="Node000004" class="node">
<title>Node4</title>
<g id="a_Node000004"><a xlink:href="classMutex.html" target="_top" xlink:title="Mutex class.">
<polygon fill="white" stroke="none" points="351.5,-392.75 295.5,-392.75 295.5,-283.75 351.5,-283.75 351.5,-392.75"/>
<text text-anchor="start" x="310.38" y="-379.25" font-family="Helvetica,sans-Serif" font-size="10.00">Mutex</text>
<text text-anchor="start" x="299.88" y="-364.25" font-family="Helvetica,sans-Serif" font-size="10.00">#</text>
<text text-anchor="start" x="309.5" y="-364.25" font-family="Helvetica,sans-Serif" font-size="10.00">mtx</text>
<text text-anchor="start" x="299.5" y="-349.25" font-family="Helvetica,sans-Serif" font-size="10.00">+</text>
<text text-anchor="start" x="309.5" y="-349.25" font-family="Helvetica,sans-Serif" font-size="10.00">Mutex()</text>
<text text-anchor="start" x="299.5" y="-334.25" font-family="Helvetica,sans-Serif" font-size="10.00">+</text>
<text text-anchor="start" x="309.5" y="-334.25" font-family="Helvetica,sans-Serif" font-size="10.00">~Mutex()</text>
<text text-anchor="start" x="299.5" y="-319.25" font-family="Helvetica,sans-Serif" font-size="10.00">+</text>
<text text-anchor="start" x="309.5" y="-319.25" font-family="Helvetica,sans-Serif" font-size="10.00">lock()</text>
<text text-anchor="start" x="299.5" y="-304.25" font-family="Helvetica,sans-Serif" font-size="10.00">+</text>
<text text-anchor="start" x="309.5" y="-304.25" font-family="Helvetica,sans-Serif" font-size="10.00">unlock()</text>
<text text-anchor="start" x="299.5" y="-289.25" font-family="Helvetica,sans-Serif" font-size="10.00">+</text>
<text text-anchor="start" x="309.5" y="-289.25" font-family="Helvetica,sans-Serif" font-size="10.00">tryLock()</text>
<polygon fill="#666666" stroke="#666666" points="295.5,-375.75 295.5,-375.75 351.5,-375.75 351.5,-375.75 295.5,-375.75"/>
<polygon fill="#666666" stroke="#666666" points="295.5,-360.75 295.5,-360.75 307.5,-360.75 307.5,-360.75 295.5,-360.75"/>
<polygon fill="#666666" stroke="#666666" points="307.5,-360.75 307.5,-360.75 351.5,-360.75 351.5,-360.75 307.5,-360.75"/>
<polygon fill="none" stroke="#666666" points="295.5,-283.75 295.5,-392.75 351.5,-392.75 351.5,-283.75 295.5,-283.75"/>
</a>
</g>
</g>
<!-- Node4&#45;&gt;Node1 -->
<g id="edge4_Node000001_Node000004" class="edge">
<title>Node4&#45;&gt;Node1</title>
<g id="a_edge4_Node000001_Node000004"><a xlink:title=" ">
<path fill="none" stroke="#63b8ff" d="M301.58,-283.79C294.41,-266.32 286.15,-246.16 277.83,-225.87"/>
<polygon fill="none" stroke="#63b8ff" points="277.83,-225.86 271.85,-221.82 273.27,-214.75 279.25,-218.79 277.83,-225.86"/>
</a>
</g>
<text text-anchor="middle" x="326.54" y="-233.75" font-family="Helvetica,sans-Serif" font-size="10.00" fill="grey"> #waitInterruptLock</text>
</g>
</g>
</svg>
</svg>

<style type='text/css'>
<![CDATA[
[data-mouse-over-selected='false'] { opacity: 0.7; }
[data-mouse-over-selected='true']  { opacity: 1.0; }
]]>
</style>
<script type="application/ecmascript"><![CDATA[
document.addEventListener('DOMContentLoaded', (event) => {
  highlightEdges();
  highlightAdjacentNodes();
});
]]></script>
</svg>
