<?xml version="1.0" encoding="UTF-8" standalone="no"?>
<!DOCTYPE svg PUBLIC "-//W3C//DTD SVG 1.1//EN"
 "http://www.w3.org/Graphics/SVG/1.1/DTD/svg11.dtd">
<!-- Generated by graphviz version 12.1.2 (20240928.0832)
 -->
<!-- Title: GlobalSharingStrategy Pages: 1 -->
<!--zoomable 1709 -->

<svg id="main" version="1.1" xmlns="http://www.w3.org/2000/svg" xmlns:xlink="http://www.w3.org/1999/xlink" xml:space="preserve" onload="init(evt)">

<style type="text/css"><![CDATA[
.node, .edge {opacity: 0.7;}
.node.selected, .edge.selected {opacity: 1;}
.edge:hover path { stroke: red; }
.edge:hover polygon { stroke: red; fill: red; }
]]></style>

<defs>
  <circle id="rim" cx="0" cy="0" r="7"/>
  <circle id="rim2" cx="0" cy="0" r="3.5"/>
  <g id="zoomPlus">
    <use xlink:href="#rim" fill="#404040"><set attributeName="fill" to="#808080" begin="zoomplus.mouseover" end="zoomplus.mouseout"/></use>
    <path d="M-4,0h8M0,-4v8" fill="none" stroke="white" stroke-width="1.5" pointer-events="none"/>
  </g>
  <g id="zoomMin">
    <use xlink:href="#rim" fill="#404040"><set attributeName="fill" to="#808080" begin="zoomminus.mouseover" end="zoomminus.mouseout"/></use>
    <path d="M-4,0h8" fill="none" stroke="white" stroke-width="1.5" pointer-events="none"/>
  </g>
  <g id="arrowUp" transform="translate(30 24)">
    <use xlink:href="#rim"/>
    <path pointer-events="none" fill="none" stroke="white" stroke-width="1.5" d="M0,-3.0v7 M-2.5,-0.5L0,-3.0L2.5,-0.5"/>
  </g>
  <g id="arrowRight" transform="rotate(90) translate(36 -43)">
    <use xlink:href="#rim"/>
    <path pointer-events="none" fill="none" stroke="white" stroke-width="1.5" d="M0,-3.0v7 M-2.5,-0.5L0,-3.0L2.5,-0.5"/>
  </g>
  <g id="arrowDown" transform="rotate(180) translate(-30 -48)">
    <use xlink:href="#rim"/>
    <path pointer-events="none" fill="none" stroke="white" stroke-width="1.5" d="M0,-3.0v7 M-2.5,-0.5L0,-3.0L2.5,-0.5"/>
  </g>
  <g id="arrowLeft" transform="rotate(270) translate(-36 17)">
    <use xlink:href="#rim"/>
    <path pointer-events="none" fill="none" stroke="white" stroke-width="1.5" d="M0,-3.0v7 M-2.5,-0.5L0,-3.0L2.5,-0.5"/>
  </g>
  <g id="resetDef">
    <use xlink:href="#rim2" fill="#404040"><set attributeName="fill" to="#808080" begin="reset.mouseover" end="reset.mouseout"/></use>
  </g>
</defs>
<script type="application/ecmascript">
var viewWidth = 443;
var viewHeight = 1709;
var sectionId = 'dynsection-0';
</script>
<script type="application/ecmascript" xlink:href="svg.min.js"/>
<svg id="graph" class="graph">
<g id="viewport">
<title>GlobalSharingStrategy</title>
<!-- Node1 -->
<g id="Node000001" class="node">
<title>Node1</title>
<g id="a_Node000001"><a xlink:title="Base class for global clause sharing strategies across MPI processes.">
<polygon fill="#999999" stroke="none" points="271.5,-1045 145.5,-1045 145.5,-801 271.5,-801 271.5,-1045"/>
<text text-anchor="start" x="160.12" y="-1031.5" font-family="Helvetica,sans-Serif" font-size="10.00">GlobalSharingStrategy</text>
<text text-anchor="start" x="149.88" y="-1016.5" font-family="Helvetica,sans-Serif" font-size="10.00">#</text>
<text text-anchor="start" x="159.5" y="-1016.5" font-family="Helvetica,sans-Serif" font-size="10.00">gstats</text>
<text text-anchor="start" x="149.88" y="-1001.5" font-family="Helvetica,sans-Serif" font-size="10.00">#</text>
<text text-anchor="start" x="159.5" y="-1001.5" font-family="Helvetica,sans-Serif" font-size="10.00">requests_sent</text>
<text text-anchor="start" x="149.88" y="-986.5" font-family="Helvetica,sans-Serif" font-size="10.00">#</text>
<text text-anchor="start" x="159.5" y="-986.5" font-family="Helvetica,sans-Serif" font-size="10.00">recv_end_requests</text>
<text text-anchor="start" x="149.88" y="-971.5" font-family="Helvetica,sans-Serif" font-size="10.00">#</text>
<text text-anchor="start" x="159.5" y="-971.5" font-family="Helvetica,sans-Serif" font-size="10.00">send_end_request</text>
<text text-anchor="start" x="149.88" y="-956.5" font-family="Helvetica,sans-Serif" font-size="10.00">#</text>
<text text-anchor="start" x="159.5" y="-956.5" font-family="Helvetica,sans-Serif" font-size="10.00">receivedFinalResultRoot</text>
<text text-anchor="start" x="149.5" y="-941.5" font-family="Helvetica,sans-Serif" font-size="10.00">+</text>
<text text-anchor="start" x="159.5" y="-941.5" font-family="Helvetica,sans-Serif" font-size="10.00">GlobalSharingStrategy()</text>
<text text-anchor="start" x="149.5" y="-926.5" font-family="Helvetica,sans-Serif" font-size="10.00">+</text>
<text text-anchor="start" x="159.5" y="-926.5" font-family="Helvetica,sans-Serif" font-size="10.00">~GlobalSharingStrategy()</text>
<text text-anchor="start" x="149.5" y="-911.5" font-family="Helvetica,sans-Serif" font-size="10.00">+</text>
<text text-anchor="start" x="159.5" y="-911.5" font-family="Helvetica,sans-Serif" font-size="10.00">importClause()</text>
<text text-anchor="start" x="149.5" y="-896.5" font-family="Helvetica,sans-Serif" font-size="10.00">+</text>
<text text-anchor="start" x="159.5" y="-896.5" font-family="Helvetica,sans-Serif" font-size="10.00">importClauses()</text>
<text text-anchor="start" x="149.5" y="-881.5" font-family="Helvetica,sans-Serif" font-size="10.00">+</text>
<text text-anchor="start" x="159.5" y="-881.5" font-family="Helvetica,sans-Serif" font-size="10.00">exportClauseToClient()</text>
<text text-anchor="start" x="149.5" y="-866.5" font-family="Helvetica,sans-Serif" font-size="10.00">+</text>
<text text-anchor="start" x="159.5" y="-866.5" font-family="Helvetica,sans-Serif" font-size="10.00">getSleepingTime()</text>
<text text-anchor="start" x="149.5" y="-851.5" font-family="Helvetica,sans-Serif" font-size="10.00">+</text>
<text text-anchor="start" x="159.5" y="-851.5" font-family="Helvetica,sans-Serif" font-size="10.00">joinProcess()</text>
<text text-anchor="start" x="149.5" y="-836.5" font-family="Helvetica,sans-Serif" font-size="10.00">+</text>
<text text-anchor="start" x="159.5" y="-836.5" font-family="Helvetica,sans-Serif" font-size="10.00">printStats()</text>
<text text-anchor="start" x="149.5" y="-821.5" font-family="Helvetica,sans-Serif" font-size="10.00">+</text>
<text text-anchor="start" x="159.5" y="-821.5" font-family="Helvetica,sans-Serif" font-size="10.00">initMpiVariables()</text>
<text text-anchor="start" x="149.5" y="-806.5" font-family="Helvetica,sans-Serif" font-size="10.00">+</text>
<text text-anchor="start" x="159.5" y="-806.5" font-family="Helvetica,sans-Serif" font-size="10.00">doSharing()</text>
<polygon fill="#666666" stroke="#666666" points="145.5,-1028 145.5,-1028 271.5,-1028 271.5,-1028 145.5,-1028"/>
<polygon fill="#666666" stroke="#666666" points="145.5,-953 145.5,-953 157.5,-953 157.5,-953 145.5,-953"/>
<polygon fill="#666666" stroke="#666666" points="157.5,-953 157.5,-953 271.5,-953 271.5,-953 157.5,-953"/>
<polygon fill="none" stroke="#666666" points="145.5,-801 145.5,-1045 271.5,-1045 271.5,-801 145.5,-801"/>
</a>
</g>
</g>
<!-- Node5 -->
<g id="Node000005" class="node">
<title>Node5</title>
<g id="a_Node000005"><a xlink:href="classAllGatherSharing.html" target="_top" xlink:title="Implements a global sharing strategy using MPI_Allgather for clause exchange.">
<polygon fill="white" stroke="none" points="127,-482 0,-482 0,-283 127,-283 127,-482"/>
<text text-anchor="start" x="26.75" y="-468.5" font-family="Helvetica,sans-Serif" font-size="10.00">AllGatherSharing</text>
<text text-anchor="start" x="4.38" y="-453.5" font-family="Helvetica,sans-Serif" font-size="10.00">#</text>
<text text-anchor="start" x="14" y="-453.5" font-family="Helvetica,sans-Serif" font-size="10.00">totalSize</text>
<text text-anchor="start" x="4.38" y="-438.5" font-family="Helvetica,sans-Serif" font-size="10.00">#</text>
<text text-anchor="start" x="14" y="-438.5" font-family="Helvetica,sans-Serif" font-size="10.00">color</text>
<text text-anchor="start" x="4.38" y="-423.5" font-family="Helvetica,sans-Serif" font-size="10.00">#</text>
<text text-anchor="start" x="14" y="-423.5" font-family="Helvetica,sans-Serif" font-size="10.00">clausesToSendSerialized</text>
<text text-anchor="start" x="4.38" y="-408.5" font-family="Helvetica,sans-Serif" font-size="10.00">#</text>
<text text-anchor="start" x="14" y="-408.5" font-family="Helvetica,sans-Serif" font-size="10.00">receivedClauses</text>
<text text-anchor="start" x="4.38" y="-393.5" font-family="Helvetica,sans-Serif" font-size="10.00">#</text>
<text text-anchor="start" x="14" y="-393.5" font-family="Helvetica,sans-Serif" font-size="10.00">b_filter</text>
<text text-anchor="start" x="4" y="-378.5" font-family="Helvetica,sans-Serif" font-size="10.00">+</text>
<text text-anchor="start" x="14" y="-378.5" font-family="Helvetica,sans-Serif" font-size="10.00">AllGatherSharing()</text>
<text text-anchor="start" x="4" y="-363.5" font-family="Helvetica,sans-Serif" font-size="10.00">+</text>
<text text-anchor="start" x="14" y="-363.5" font-family="Helvetica,sans-Serif" font-size="10.00">~AllGatherSharing()</text>
<text text-anchor="start" x="4" y="-348.5" font-family="Helvetica,sans-Serif" font-size="10.00">+</text>
<text text-anchor="start" x="14" y="-348.5" font-family="Helvetica,sans-Serif" font-size="10.00">doSharing()</text>
<text text-anchor="start" x="4" y="-333.5" font-family="Helvetica,sans-Serif" font-size="10.00">+</text>
<text text-anchor="start" x="14" y="-333.5" font-family="Helvetica,sans-Serif" font-size="10.00">initMpiVariables()</text>
<text text-anchor="start" x="4" y="-318.5" font-family="Helvetica,sans-Serif" font-size="10.00">+</text>
<text text-anchor="start" x="14" y="-318.5" font-family="Helvetica,sans-Serif" font-size="10.00">joinProcess()</text>
<text text-anchor="start" x="4.38" y="-303.5" font-family="Helvetica,sans-Serif" font-size="10.00">#</text>
<text text-anchor="start" x="14" y="-303.5" font-family="Helvetica,sans-Serif" font-size="10.00">serializeClauses()</text>
<text text-anchor="start" x="4.38" y="-288.5" font-family="Helvetica,sans-Serif" font-size="10.00">#</text>
<text text-anchor="start" x="14" y="-288.5" font-family="Helvetica,sans-Serif" font-size="10.00">deserializeClauses()</text>
<polygon fill="#666666" stroke="#666666" points="0,-465 0,-465 127,-465 127,-465 0,-465"/>
<polygon fill="#666666" stroke="#666666" points="0,-390 0,-390 12,-390 12,-390 0,-390"/>
<polygon fill="#666666" stroke="#666666" points="12,-390 12,-390 127,-390 127,-390 12,-390"/>
<polygon fill="none" stroke="#666666" points="0,-283 0,-482 127,-482 127,-283 0,-283"/>
</a>
</g>
</g>
<!-- Node1&#45;&gt;Node5 -->
<g id="edge4_Node000001_Node000005" class="edge">
<title>Node1&#45;&gt;Node5</title>
<g id="a_edge4_Node000001_Node000005"><a xlink:title=" ">
<path fill="none" stroke="#63b8ff" d="M144.56,-790.6C141.27,-782.03 138.21,-773.44 135.5,-765 105.35,-671.15 86.15,-560.02 75.23,-481.98"/>
<polygon fill="none" stroke="#63b8ff" points="141.2,-791.62 148.12,-799.65 147.71,-789.06 141.2,-791.62"/>
</a>
</g>
</g>
<!-- Node6 -->
<g id="Node000006" class="node">
<title>Node6</title>
<g id="a_Node000006"><a xlink:href="classGenericGlobalSharing.html" target="_top" xlink:title="Implements a generic global sharing strategy for clause exchange.">
<polygon fill="white" stroke="none" points="272,-504.5 145,-504.5 145,-260.5 272,-260.5 272,-504.5"/>
<text text-anchor="start" x="161.25" y="-491" font-family="Helvetica,sans-Serif" font-size="10.00">GenericGlobalSharing</text>
<text text-anchor="start" x="149.38" y="-476" font-family="Helvetica,sans-Serif" font-size="10.00">#</text>
<text text-anchor="start" x="159" y="-476" font-family="Helvetica,sans-Serif" font-size="10.00">totalSize</text>
<text text-anchor="start" x="149.38" y="-461" font-family="Helvetica,sans-Serif" font-size="10.00">#</text>
<text text-anchor="start" x="159" y="-461" font-family="Helvetica,sans-Serif" font-size="10.00">sendRequests</text>
<text text-anchor="start" x="149.38" y="-446" font-family="Helvetica,sans-Serif" font-size="10.00">#</text>
<text text-anchor="start" x="159" y="-446" font-family="Helvetica,sans-Serif" font-size="10.00">b_filter_send</text>
<text text-anchor="start" x="149.38" y="-431" font-family="Helvetica,sans-Serif" font-size="10.00">#</text>
<text text-anchor="start" x="159" y="-431" font-family="Helvetica,sans-Serif" font-size="10.00">b_filter_recv</text>
<text text-anchor="start" x="149.38" y="-416" font-family="Helvetica,sans-Serif" font-size="10.00">#</text>
<text text-anchor="start" x="159" y="-416" font-family="Helvetica,sans-Serif" font-size="10.00">clausesToSendSerialized</text>
<text text-anchor="start" x="149.38" y="-401" font-family="Helvetica,sans-Serif" font-size="10.00">#</text>
<text text-anchor="start" x="159" y="-401" font-family="Helvetica,sans-Serif" font-size="10.00">receivedClauses</text>
<text text-anchor="start" x="149.38" y="-386" font-family="Helvetica,sans-Serif" font-size="10.00">#</text>
<text text-anchor="start" x="159" y="-386" font-family="Helvetica,sans-Serif" font-size="10.00">subscriptions</text>
<text text-anchor="start" x="149.38" y="-371" font-family="Helvetica,sans-Serif" font-size="10.00">#</text>
<text text-anchor="start" x="159" y="-371" font-family="Helvetica,sans-Serif" font-size="10.00">subscribers</text>
<text text-anchor="start" x="149" y="-356" font-family="Helvetica,sans-Serif" font-size="10.00">+</text>
<text text-anchor="start" x="159" y="-356" font-family="Helvetica,sans-Serif" font-size="10.00">GenericGlobalSharing()</text>
<text text-anchor="start" x="149" y="-341" font-family="Helvetica,sans-Serif" font-size="10.00">+</text>
<text text-anchor="start" x="159" y="-341" font-family="Helvetica,sans-Serif" font-size="10.00">~GenericGlobalSharing()</text>
<text text-anchor="start" x="149" y="-326" font-family="Helvetica,sans-Serif" font-size="10.00">+</text>
<text text-anchor="start" x="159" y="-326" font-family="Helvetica,sans-Serif" font-size="10.00">initMpiVariables()</text>
<text text-anchor="start" x="149" y="-311" font-family="Helvetica,sans-Serif" font-size="10.00">+</text>
<text text-anchor="start" x="159" y="-311" font-family="Helvetica,sans-Serif" font-size="10.00">doSharing()</text>
<text text-anchor="start" x="149" y="-296" font-family="Helvetica,sans-Serif" font-size="10.00">+</text>
<text text-anchor="start" x="159" y="-296" font-family="Helvetica,sans-Serif" font-size="10.00">joinProcess()</text>
<text text-anchor="start" x="149.38" y="-281" font-family="Helvetica,sans-Serif" font-size="10.00">#</text>
<text text-anchor="start" x="159" y="-281" font-family="Helvetica,sans-Serif" font-size="10.00">serializeClauses()</text>
<text text-anchor="start" x="149.38" y="-266" font-family="Helvetica,sans-Serif" font-size="10.00">#</text>
<text text-anchor="start" x="159" y="-266" font-family="Helvetica,sans-Serif" font-size="10.00">deserializeClauses()</text>
<polygon fill="#666666" stroke="#666666" points="145,-487.5 145,-487.5 272,-487.5 272,-487.5 145,-487.5"/>
<polygon fill="#666666" stroke="#666666" points="145,-367.5 145,-367.5 157,-367.5 157,-367.5 145,-367.5"/>
<polygon fill="#666666" stroke="#666666" points="157,-367.5 157,-367.5 272,-367.5 272,-367.5 157,-367.5"/>
<polygon fill="none" stroke="#666666" points="145,-260.5 145,-504.5 272,-504.5 272,-260.5 145,-260.5"/>
</a>
</g>
</g>
<!-- Node1&#45;&gt;Node6 -->
<g id="edge5_Node000001_Node000006" class="edge">
<title>Node1&#45;&gt;Node6</title>
<g id="a_edge5_Node000001_Node000006"><a xlink:title=" ">
<path fill="none" stroke="#63b8ff" d="M208.5,-789.84C208.5,-702.62 208.5,-589.24 208.5,-504.41"/>
<polygon fill="none" stroke="#63b8ff" points="205,-789.64 208.5,-799.64 212,-789.64 205,-789.64"/>
</a>
</g>
</g>
<!-- Node7 -->
<g id="Node000007" class="node">
<title>Node7</title>
<g id="a_Node000007"><a xlink:href="classMallobSharing.html" target="_top" xlink:title="Implements a global sharing strategy based on the Mallob algorithm.">
<polygon fill="white" stroke="none" points="434.5,-765 290.5,-765 290.5,0 434.5,0 434.5,-765"/>
<text text-anchor="start" x="331.75" y="-751.5" font-family="Helvetica,sans-Serif" font-size="10.00">MallobSharing</text>
<text text-anchor="start" x="294.88" y="-736.5" font-family="Helvetica,sans-Serif" font-size="10.00">#</text>
<text text-anchor="start" x="304.5" y="-736.5" font-family="Helvetica,sans-Serif" font-size="10.00">defaultBufferSize</text>
<text text-anchor="start" x="294.88" y="-721.5" font-family="Helvetica,sans-Serif" font-size="10.00">#</text>
<text text-anchor="start" x="304.5" y="-721.5" font-family="Helvetica,sans-Serif" font-size="10.00">baseSize</text>
<text text-anchor="start" x="294.88" y="-706.5" font-family="Helvetica,sans-Serif" font-size="10.00">#</text>
<text text-anchor="start" x="304.5" y="-706.5" font-family="Helvetica,sans-Serif" font-size="10.00">maxSize</text>
<text text-anchor="start" x="294.88" y="-691.5" font-family="Helvetica,sans-Serif" font-size="10.00">#</text>
<text text-anchor="start" x="304.5" y="-691.5" font-family="Helvetica,sans-Serif" font-size="10.00">buffers</text>
<text text-anchor="start" x="294.88" y="-676.5" font-family="Helvetica,sans-Serif" font-size="10.00">#</text>
<text text-anchor="start" x="304.5" y="-676.5" font-family="Helvetica,sans-Serif" font-size="10.00">clausesToSendSerialized</text>
<text text-anchor="start" x="294.88" y="-661.5" font-family="Helvetica,sans-Serif" font-size="10.00">#</text>
<text text-anchor="start" x="304.5" y="-661.5" font-family="Helvetica,sans-Serif" font-size="10.00">receivedClausesLeft</text>
<text text-anchor="start" x="294.88" y="-646.5" font-family="Helvetica,sans-Serif" font-size="10.00">#</text>
<text text-anchor="start" x="304.5" y="-646.5" font-family="Helvetica,sans-Serif" font-size="10.00">receivedClausesRight</text>
<text text-anchor="start" x="294.88" y="-631.5" font-family="Helvetica,sans-Serif" font-size="10.00">#</text>
<text text-anchor="start" x="304.5" y="-631.5" font-family="Helvetica,sans-Serif" font-size="10.00">receivedClausesFather</text>
<text text-anchor="start" x="294.88" y="-616.5" font-family="Helvetica,sans-Serif" font-size="10.00">#</text>
<text text-anchor="start" x="304.5" y="-616.5" font-family="Helvetica,sans-Serif" font-size="10.00">deserializedClauses</text>
<text text-anchor="start" x="294.88" y="-601.5" font-family="Helvetica,sans-Serif" font-size="10.00">#</text>
<text text-anchor="start" x="304.5" y="-601.5" font-family="Helvetica,sans-Serif" font-size="10.00">myBitVector</text>
<text text-anchor="start" x="294.88" y="-586.5" font-family="Helvetica,sans-Serif" font-size="10.00">#</text>
<text text-anchor="start" x="304.5" y="-586.5" font-family="Helvetica,sans-Serif" font-size="10.00">father</text>
<text text-anchor="start" x="294.88" y="-571.5" font-family="Helvetica,sans-Serif" font-size="10.00">#</text>
<text text-anchor="start" x="304.5" y="-571.5" font-family="Helvetica,sans-Serif" font-size="10.00">left_child</text>
<text text-anchor="start" x="294.88" y="-556.5" font-family="Helvetica,sans-Serif" font-size="10.00">#</text>
<text text-anchor="start" x="304.5" y="-556.5" font-family="Helvetica,sans-Serif" font-size="10.00">right_child</text>
<text text-anchor="start" x="294.88" y="-541.5" font-family="Helvetica,sans-Serif" font-size="10.00">#</text>
<text text-anchor="start" x="304.5" y="-541.5" font-family="Helvetica,sans-Serif" font-size="10.00">nb_children</text>
<text text-anchor="start" x="294.88" y="-526.5" font-family="Helvetica,sans-Serif" font-size="10.00">#</text>
<text text-anchor="start" x="304.5" y="-526.5" font-family="Helvetica,sans-Serif" font-size="10.00">sleepTime</text>
<text text-anchor="start" x="294.88" y="-511.5" font-family="Helvetica,sans-Serif" font-size="10.00">#</text>
<text text-anchor="start" x="304.5" y="-511.5" font-family="Helvetica,sans-Serif" font-size="10.00">addChildClauses</text>
<text text-anchor="start" x="294.88" y="-496.5" font-family="Helvetica,sans-Serif" font-size="10.00">#</text>
<text text-anchor="start" x="304.5" y="-496.5" font-family="Helvetica,sans-Serif" font-size="10.00">lbdLimitAtImport</text>
<text text-anchor="start" x="294.88" y="-481.5" font-family="Helvetica,sans-Serif" font-size="10.00">#</text>
<text text-anchor="start" x="304.5" y="-481.5" font-family="Helvetica,sans-Serif" font-size="10.00">sizeLimitAtImport</text>
<text text-anchor="start" x="294.88" y="-466.5" font-family="Helvetica,sans-Serif" font-size="10.00">#</text>
<text text-anchor="start" x="304.5" y="-466.5" font-family="Helvetica,sans-Serif" font-size="10.00">m_freeSize</text>
<text text-anchor="start" x="294.88" y="-451.5" font-family="Helvetica,sans-Serif" font-size="10.00">#</text>
<text text-anchor="start" x="304.5" y="-451.5" font-family="Helvetica,sans-Serif" font-size="10.00">accumulatedAdmittedLiterals</text>
<text text-anchor="start" x="294.88" y="-436.5" font-family="Helvetica,sans-Serif" font-size="10.00">#</text>
<text text-anchor="start" x="304.5" y="-436.5" font-family="Helvetica,sans-Serif" font-size="10.00">accumulatedDesiredLiterals</text>
<text text-anchor="start" x="294.88" y="-421.5" font-family="Helvetica,sans-Serif" font-size="10.00">#</text>
<text text-anchor="start" x="304.5" y="-421.5" font-family="Helvetica,sans-Serif" font-size="10.00">lastEpochAdmittedLits</text>
<text text-anchor="start" x="294.88" y="-406.5" font-family="Helvetica,sans-Serif" font-size="10.00">#</text>
<text text-anchor="start" x="304.5" y="-406.5" font-family="Helvetica,sans-Serif" font-size="10.00">lastEpochReceivedLits</text>
<text text-anchor="start" x="294.88" y="-391.5" font-family="Helvetica,sans-Serif" font-size="10.00">#</text>
<text text-anchor="start" x="304.5" y="-391.5" font-family="Helvetica,sans-Serif" font-size="10.00">compensationFactor</text>
<text text-anchor="start" x="294.88" y="-376.5" font-family="Helvetica,sans-Serif" font-size="10.00">#</text>
<text text-anchor="start" x="304.5" y="-376.5" font-family="Helvetica,sans-Serif" font-size="10.00">maxCompensationFactor</text>
<text text-anchor="start" x="294.88" y="-361.5" font-family="Helvetica,sans-Serif" font-size="10.00">#</text>
<text text-anchor="start" x="304.5" y="-361.5" font-family="Helvetica,sans-Serif" font-size="10.00">estimatedIncomingLits</text>
<text text-anchor="start" x="294.88" y="-346.5" font-family="Helvetica,sans-Serif" font-size="10.00">#</text>
<text text-anchor="start" x="304.5" y="-346.5" font-family="Helvetica,sans-Serif" font-size="10.00">estimatedSharedLits</text>
<text text-anchor="start" x="294.5" y="-331.5" font-family="Helvetica,sans-Serif" font-size="10.00">+</text>
<text text-anchor="start" x="304.5" y="-331.5" font-family="Helvetica,sans-Serif" font-size="10.00">MallobSharing()</text>
<text text-anchor="start" x="294.5" y="-316.5" font-family="Helvetica,sans-Serif" font-size="10.00">+</text>
<text text-anchor="start" x="304.5" y="-316.5" font-family="Helvetica,sans-Serif" font-size="10.00">~MallobSharing()</text>
<text text-anchor="start" x="294.5" y="-301.5" font-family="Helvetica,sans-Serif" font-size="10.00">+</text>
<text text-anchor="start" x="304.5" y="-301.5" font-family="Helvetica,sans-Serif" font-size="10.00">initMpiVariables()</text>
<text text-anchor="start" x="294.5" y="-286.5" font-family="Helvetica,sans-Serif" font-size="10.00">+</text>
<text text-anchor="start" x="304.5" y="-286.5" font-family="Helvetica,sans-Serif" font-size="10.00">doSharing()</text>
<text text-anchor="start" x="294.5" y="-271.5" font-family="Helvetica,sans-Serif" font-size="10.00">+</text>
<text text-anchor="start" x="304.5" y="-271.5" font-family="Helvetica,sans-Serif" font-size="10.00">joinProcess()</text>
<text text-anchor="start" x="294.5" y="-256.5" font-family="Helvetica,sans-Serif" font-size="10.00">+</text>
<text text-anchor="start" x="304.5" y="-256.5" font-family="Helvetica,sans-Serif" font-size="10.00">importClause()</text>
<text text-anchor="start" x="294.5" y="-241.5" font-family="Helvetica,sans-Serif" font-size="10.00">+</text>
<text text-anchor="start" x="304.5" y="-241.5" font-family="Helvetica,sans-Serif" font-size="10.00">getSleepingTime()</text>
<text text-anchor="start" x="294.5" y="-226.5" font-family="Helvetica,sans-Serif" font-size="10.00">+</text>
<text text-anchor="start" x="304.5" y="-226.5" font-family="Helvetica,sans-Serif" font-size="10.00">initializeFilter()</text>
<text text-anchor="start" x="294.5" y="-211.5" font-family="Helvetica,sans-Serif" font-size="10.00">+</text>
<text text-anchor="start" x="304.5" y="-211.5" font-family="Helvetica,sans-Serif" font-size="10.00">doesClauseExist()</text>
<text text-anchor="start" x="294.5" y="-196.5" font-family="Helvetica,sans-Serif" font-size="10.00">+</text>
<text text-anchor="start" x="304.5" y="-196.5" font-family="Helvetica,sans-Serif" font-size="10.00">updateClause()</text>
<text text-anchor="start" x="294.5" y="-181.5" font-family="Helvetica,sans-Serif" font-size="10.00">+</text>
<text text-anchor="start" x="304.5" y="-181.5" font-family="Helvetica,sans-Serif" font-size="10.00">insertClause()</text>
<text text-anchor="start" x="294.5" y="-166.5" font-family="Helvetica,sans-Serif" font-size="10.00">+</text>
<text text-anchor="start" x="304.5" y="-166.5" font-family="Helvetica,sans-Serif" font-size="10.00">isClauseShared()</text>
<text text-anchor="start" x="294.5" y="-151.5" font-family="Helvetica,sans-Serif" font-size="10.00">+</text>
<text text-anchor="start" x="304.5" y="-151.5" font-family="Helvetica,sans-Serif" font-size="10.00">canConsumerImportClause()</text>
<text text-anchor="start" x="294.5" y="-136.5" font-family="Helvetica,sans-Serif" font-size="10.00">+</text>
<text text-anchor="start" x="304.5" y="-136.5" font-family="Helvetica,sans-Serif" font-size="10.00">incrementEpoch()</text>
<text text-anchor="start" x="294.5" y="-121.5" font-family="Helvetica,sans-Serif" font-size="10.00">+</text>
<text text-anchor="start" x="304.5" y="-121.5" font-family="Helvetica,sans-Serif" font-size="10.00">markClauseAsShared()</text>
<text text-anchor="start" x="294.5" y="-106.5" font-family="Helvetica,sans-Serif" font-size="10.00">+</text>
<text text-anchor="start" x="304.5" y="-106.5" font-family="Helvetica,sans-Serif" font-size="10.00">shrinkFilter()</text>
<text text-anchor="start" x="294.88" y="-91.5" font-family="Helvetica,sans-Serif" font-size="10.00">#</text>
<text text-anchor="start" x="304.5" y="-91.5" font-family="Helvetica,sans-Serif" font-size="10.00">exportClauseToClient()</text>
<text text-anchor="start" x="294.88" y="-76.5" font-family="Helvetica,sans-Serif" font-size="10.00">#</text>
<text text-anchor="start" x="304.5" y="-76.5" font-family="Helvetica,sans-Serif" font-size="10.00">deserializeClauses()</text>
<text text-anchor="start" x="294.88" y="-61.5" font-family="Helvetica,sans-Serif" font-size="10.00">#</text>
<text text-anchor="start" x="304.5" y="-61.5" font-family="Helvetica,sans-Serif" font-size="10.00">mergeSerializedBuffersWith</text>
<text text-anchor="start" x="304.5" y="-50.25" font-family="Helvetica,sans-Serif" font-size="10.00">Mine()</text>
<text text-anchor="start" x="294.88" y="-35.5" font-family="Helvetica,sans-Serif" font-size="10.00">#</text>
<text text-anchor="start" x="304.5" y="-35.5" font-family="Helvetica,sans-Serif" font-size="10.00">computeBufferSize()</text>
<text text-anchor="start" x="294.88" y="-20.5" font-family="Helvetica,sans-Serif" font-size="10.00">#</text>
<text text-anchor="start" x="304.5" y="-20.5" font-family="Helvetica,sans-Serif" font-size="10.00">getOneClauseWrapper()</text>
<text text-anchor="start" x="294.88" y="-5.5" font-family="Helvetica,sans-Serif" font-size="10.00">#</text>
<text text-anchor="start" x="304.5" y="-5.5" font-family="Helvetica,sans-Serif" font-size="10.00">computeCompensation()</text>
<polygon fill="#666666" stroke="#666666" points="290.5,-748 290.5,-748 434.5,-748 434.5,-748 290.5,-748"/>
<polygon fill="#666666" stroke="#666666" points="290.5,-343 290.5,-343 302.5,-343 302.5,-343 290.5,-343"/>
<polygon fill="#666666" stroke="#666666" points="302.5,-343 302.5,-343 434.5,-343 434.5,-343 302.5,-343"/>
<polygon fill="none" stroke="#666666" points="290.5,0 290.5,-765 434.5,-765 434.5,0 290.5,0"/>
</a>
</g>
</g>
<!-- Node1&#45;&gt;Node7 -->
<g id="edge6_Node000001_Node000007" class="edge">
<title>Node1&#45;&gt;Node7</title>
<g id="a_edge6_Node000001_Node000007"><a xlink:title=" ">
<path fill="none" stroke="#63b8ff" d="M272.1,-790.84C275.49,-782.18 278.66,-773.51 281.5,-765 284.61,-755.69 287.63,-746.21 290.55,-736.6"/>
<polygon fill="none" stroke="#63b8ff" points="268.9,-789.41 268.43,-799.99 275.4,-792.01 268.9,-789.41"/>
</a>
</g>
</g>
<!-- Node2 -->
<g id="Node000002" class="node">
<title>Node2</title>
<g id="a_Node000002"><a xlink:href="classSharingStrategy.html" target="_top" xlink:title="SharingStrategy class, inheriting from SharingEntity.">
<polygon fill="white" stroke="none" points="285,-1310 132,-1310 132,-1081 285,-1081 285,-1310"/>
<text text-anchor="start" x="174" y="-1296.5" font-family="Helvetica,sans-Serif" font-size="10.00">SharingStrategy</text>
<text text-anchor="start" x="136.38" y="-1281.5" font-family="Helvetica,sans-Serif" font-size="10.00">#</text>
<text text-anchor="start" x="146" y="-1281.5" font-family="Helvetica,sans-Serif" font-size="10.00">m_clauseDB</text>
<text text-anchor="start" x="136.38" y="-1266.5" font-family="Helvetica,sans-Serif" font-size="10.00">#</text>
<text text-anchor="start" x="146" y="-1266.5" font-family="Helvetica,sans-Serif" font-size="10.00">stats</text>
<text text-anchor="start" x="136.38" y="-1251.5" font-family="Helvetica,sans-Serif" font-size="10.00">#</text>
<text text-anchor="start" x="146" y="-1251.5" font-family="Helvetica,sans-Serif" font-size="10.00">m_producers</text>
<text text-anchor="start" x="136.38" y="-1236.5" font-family="Helvetica,sans-Serif" font-size="10.00">#</text>
<text text-anchor="start" x="146" y="-1236.5" font-family="Helvetica,sans-Serif" font-size="10.00">m_producersMutex</text>
<text text-anchor="start" x="136" y="-1221.5" font-family="Helvetica,sans-Serif" font-size="10.00">+</text>
<text text-anchor="start" x="146" y="-1221.5" font-family="Helvetica,sans-Serif" font-size="10.00">SharingStrategy()</text>
<text text-anchor="start" x="136" y="-1206.5" font-family="Helvetica,sans-Serif" font-size="10.00">+</text>
<text text-anchor="start" x="146" y="-1206.5" font-family="Helvetica,sans-Serif" font-size="10.00">~SharingStrategy()</text>
<text text-anchor="start" x="136" y="-1191.5" font-family="Helvetica,sans-Serif" font-size="10.00">+</text>
<text text-anchor="start" x="146" y="-1191.5" font-family="Helvetica,sans-Serif" font-size="10.00">doSharing()</text>
<text text-anchor="start" x="136" y="-1176.5" font-family="Helvetica,sans-Serif" font-size="10.00">+</text>
<text text-anchor="start" x="146" y="-1176.5" font-family="Helvetica,sans-Serif" font-size="10.00">getSleepingTime()</text>
<text text-anchor="start" x="136" y="-1161.5" font-family="Helvetica,sans-Serif" font-size="10.00">+</text>
<text text-anchor="start" x="146" y="-1161.5" font-family="Helvetica,sans-Serif" font-size="10.00">printStats()</text>
<text text-anchor="start" x="136" y="-1146.5" font-family="Helvetica,sans-Serif" font-size="10.00">+</text>
<text text-anchor="start" x="146" y="-1146.5" font-family="Helvetica,sans-Serif" font-size="10.00">connectConstructorProducers()</text>
<text text-anchor="start" x="136" y="-1131.5" font-family="Helvetica,sans-Serif" font-size="10.00">+</text>
<text text-anchor="start" x="146" y="-1131.5" font-family="Helvetica,sans-Serif" font-size="10.00">addProducer()</text>
<text text-anchor="start" x="136" y="-1116.5" font-family="Helvetica,sans-Serif" font-size="10.00">+</text>
<text text-anchor="start" x="146" y="-1116.5" font-family="Helvetica,sans-Serif" font-size="10.00">connectProducer()</text>
<text text-anchor="start" x="136" y="-1101.5" font-family="Helvetica,sans-Serif" font-size="10.00">+</text>
<text text-anchor="start" x="146" y="-1101.5" font-family="Helvetica,sans-Serif" font-size="10.00">removeProducer()</text>
<text text-anchor="start" x="136.38" y="-1086.5" font-family="Helvetica,sans-Serif" font-size="10.00">#</text>
<text text-anchor="start" x="146" y="-1086.5" font-family="Helvetica,sans-Serif" font-size="10.00">exportClauseToClient()</text>
<polygon fill="#666666" stroke="#666666" points="132,-1293 132,-1293 285,-1293 285,-1293 132,-1293"/>
<polygon fill="#666666" stroke="#666666" points="132,-1233 132,-1233 144,-1233 144,-1233 132,-1233"/>
<polygon fill="#666666" stroke="#666666" points="144,-1233 144,-1233 285,-1233 285,-1233 144,-1233"/>
<polygon fill="none" stroke="#666666" points="132,-1081 132,-1310 285,-1310 285,-1081 132,-1081"/>
</a>
</g>
</g>
<!-- Node2&#45;&gt;Node1 -->
<g id="edge1_Node000001_Node000002" class="edge">
<title>Node2&#45;&gt;Node1</title>
<g id="a_edge1_Node000001_Node000002"><a xlink:title=" ">
<path fill="none" stroke="#63b8ff" d="M208.5,-1070.03C208.5,-1061.69 208.5,-1053.3 208.5,-1044.98"/>
<polygon fill="none" stroke="#63b8ff" points="205,-1069.84 208.5,-1079.84 212,-1069.84 205,-1069.84"/>
</a>
</g>
</g>
<!-- Node3 -->
<g id="Node000003" class="node">
<title>Node3</title>
<g id="a_Node000003"><a xlink:href="classSharingEntity.html" target="_top" xlink:title="A base class representing entities that can exchange clauses between themselves.">
<polygon fill="white" stroke="none" points="266.5,-1605 150.5,-1605 150.5,-1346 266.5,-1346 266.5,-1605"/>
<text text-anchor="start" x="180" y="-1591.5" font-family="Helvetica,sans-Serif" font-size="10.00">SharingEntity</text>
<text text-anchor="start" x="154.88" y="-1576.5" font-family="Helvetica,sans-Serif" font-size="10.00">#</text>
<text text-anchor="start" x="164.5" y="-1576.5" font-family="Helvetica,sans-Serif" font-size="10.00">m_clients</text>
<text text-anchor="start" x="154.88" y="-1561.5" font-family="Helvetica,sans-Serif" font-size="10.00">#</text>
<text text-anchor="start" x="164.5" y="-1561.5" font-family="Helvetica,sans-Serif" font-size="10.00">m_clientsMutex</text>
<text text-anchor="start" x="154.5" y="-1546.5" font-family="Helvetica,sans-Serif" font-size="10.00">+</text>
<text text-anchor="start" x="164.5" y="-1546.5" font-family="Helvetica,sans-Serif" font-size="10.00">SharingEntity()</text>
<text text-anchor="start" x="154.5" y="-1531.5" font-family="Helvetica,sans-Serif" font-size="10.00">+</text>
<text text-anchor="start" x="164.5" y="-1531.5" font-family="Helvetica,sans-Serif" font-size="10.00">SharingEntity()</text>
<text text-anchor="start" x="154.5" y="-1516.5" font-family="Helvetica,sans-Serif" font-size="10.00">+</text>
<text text-anchor="start" x="164.5" y="-1516.5" font-family="Helvetica,sans-Serif" font-size="10.00">~SharingEntity()</text>
<text text-anchor="start" x="154.5" y="-1501.5" font-family="Helvetica,sans-Serif" font-size="10.00">+</text>
<text text-anchor="start" x="164.5" y="-1501.5" font-family="Helvetica,sans-Serif" font-size="10.00">importClause()</text>
<text text-anchor="start" x="154.5" y="-1486.5" font-family="Helvetica,sans-Serif" font-size="10.00">+</text>
<text text-anchor="start" x="164.5" y="-1486.5" font-family="Helvetica,sans-Serif" font-size="10.00">importClauses()</text>
<text text-anchor="start" x="154.5" y="-1471.5" font-family="Helvetica,sans-Serif" font-size="10.00">+</text>
<text text-anchor="start" x="164.5" y="-1471.5" font-family="Helvetica,sans-Serif" font-size="10.00">getSharingId()</text>
<text text-anchor="start" x="154.5" y="-1456.5" font-family="Helvetica,sans-Serif" font-size="10.00">+</text>
<text text-anchor="start" x="164.5" y="-1456.5" font-family="Helvetica,sans-Serif" font-size="10.00">setSharingId()</text>
<text text-anchor="start" x="154.5" y="-1441.5" font-family="Helvetica,sans-Serif" font-size="10.00">+</text>
<text text-anchor="start" x="164.5" y="-1441.5" font-family="Helvetica,sans-Serif" font-size="10.00">addClient()</text>
<text text-anchor="start" x="154.5" y="-1426.5" font-family="Helvetica,sans-Serif" font-size="10.00">+</text>
<text text-anchor="start" x="164.5" y="-1426.5" font-family="Helvetica,sans-Serif" font-size="10.00">removeClient()</text>
<text text-anchor="start" x="154.5" y="-1411.5" font-family="Helvetica,sans-Serif" font-size="10.00">+</text>
<text text-anchor="start" x="164.5" y="-1411.5" font-family="Helvetica,sans-Serif" font-size="10.00">getClientCount()</text>
<text text-anchor="start" x="154.5" y="-1396.5" font-family="Helvetica,sans-Serif" font-size="10.00">+</text>
<text text-anchor="start" x="164.5" y="-1396.5" font-family="Helvetica,sans-Serif" font-size="10.00">clearClients()</text>
<text text-anchor="start" x="154.88" y="-1381.5" font-family="Helvetica,sans-Serif" font-size="10.00">#</text>
<text text-anchor="start" x="164.5" y="-1381.5" font-family="Helvetica,sans-Serif" font-size="10.00">exportClauseToClient()</text>
<text text-anchor="start" x="154.88" y="-1366.5" font-family="Helvetica,sans-Serif" font-size="10.00">#</text>
<text text-anchor="start" x="164.5" y="-1366.5" font-family="Helvetica,sans-Serif" font-size="10.00">exportClause()</text>
<text text-anchor="start" x="154.88" y="-1351.5" font-family="Helvetica,sans-Serif" font-size="10.00">#</text>
<text text-anchor="start" x="164.5" y="-1351.5" font-family="Helvetica,sans-Serif" font-size="10.00">exportClauses()</text>
<polygon fill="#666666" stroke="#666666" points="150.5,-1588 150.5,-1588 266.5,-1588 266.5,-1588 150.5,-1588"/>
<polygon fill="#666666" stroke="#666666" points="150.5,-1558 150.5,-1558 162.5,-1558 162.5,-1558 150.5,-1558"/>
<polygon fill="#666666" stroke="#666666" points="162.5,-1558 162.5,-1558 266.5,-1558 266.5,-1558 162.5,-1558"/>
<polygon fill="none" stroke="#666666" points="150.5,-1346 150.5,-1605 266.5,-1605 266.5,-1346 150.5,-1346"/>
</a>
</g>
</g>
<!-- Node3&#45;&gt;Node2 -->
<g id="edge2_Node000002_Node000003" class="edge">
<title>Node3&#45;&gt;Node2</title>
<g id="a_edge2_Node000002_Node000003"><a xlink:title=" ">
<path fill="none" stroke="#63b8ff" d="M208.5,-1334.72C208.5,-1326.39 208.5,-1318.06 208.5,-1309.85"/>
<polygon fill="none" stroke="#63b8ff" points="205,-1334.57 208.5,-1344.57 212,-1334.57 205,-1334.57"/>
</a>
</g>
</g>
<!-- Node4 -->
<g id="Node000004" class="node">
<title>Node4</title>
<g id="a_Node000004"><a xlink:title=" ">
<polygon fill="white" stroke="none" points="273,-1701 144,-1701 144,-1641 273,-1641 273,-1701"/>
<text text-anchor="start" x="148.88" y="-1687.5" font-family="Helvetica,sans-Serif" font-size="10.00">std::enable_shared</text>
<text text-anchor="start" x="148.88" y="-1676.25" font-family="Helvetica,sans-Serif" font-size="10.00">_from_this&lt; SharingEntity &gt;</text>
<text text-anchor="start" x="207" y="-1661.5" font-family="Helvetica,sans-Serif" font-size="10.00"> </text>
<text text-anchor="start" x="207" y="-1646.5" font-family="Helvetica,sans-Serif" font-size="10.00"> </text>
<polygon fill="#bfbfbf" stroke="#bfbfbf" points="144,-1673 144,-1673 273,-1673 273,-1673 144,-1673"/>
<polygon fill="#bfbfbf" stroke="#bfbfbf" points="144,-1658 144,-1658 273,-1658 273,-1658 144,-1658"/>
<polygon fill="none" stroke="#bfbfbf" points="144,-1641 144,-1701 273,-1701 273,-1641 144,-1641"/>
</a>
</g>
</g>
<!-- Node4&#45;&gt;Node3 -->
<g id="edge3_Node000003_Node000004" class="edge">
<title>Node4&#45;&gt;Node3</title>
<g id="a_edge3_Node000003_Node000004"><a xlink:title=" ">
<path fill="none" stroke="#63b8ff" d="M208.5,-1629.69C208.5,-1622.06 208.5,-1613.72 208.5,-1604.99"/>
<polygon fill="none" stroke="#63b8ff" points="205,-1629.52 208.5,-1639.52 212,-1629.52 205,-1629.52"/>
</a>
</g>
</g>
</g>
</svg>

<g id="navigator" transform="translate(0 0)" fill="#404254">
  <rect fill="#f2f5e9" fill-opacity="0.5" stroke="#606060" stroke-width=".5" x="0" y="0" width="60" height="60"/>
  <use id="zoomplus" xlink:href="#zoomPlus" x="17" y="9" onmousedown="handleZoom(evt,'in')"/>
  <use id="zoomminus" xlink:href="#zoomMin" x="42" y="9" onmousedown="handleZoom(evt,'out')"/>
  <use id="reset" xlink:href="#resetDef" x="30" y="36" onmousedown="handleReset()"/>
   <use id="arrowup" xlink:href="#arrowUp" x="0" y="0" onmousedown="handlePan(0,-1)"/>
  <use id="arrowright" xlink:href="#arrowRight" x="0" y="0" onmousedown="handlePan(1,0)"/>
  <use id="arrowdown" xlink:href="#arrowDown" x="0" y="0" onmousedown="handlePan(0,1)"/>
  <use id="arrowleft" xlink:href="#arrowLeft" x="0" y="0" onmousedown="handlePan(-1,0)"/>
</g>
<svg viewBox="0 0 15 15" width="100%" height="30px" preserveAspectRatio="xMaxYMin meet">
 <g id="arrow_out" transform="scale(0.3 0.3)">
  <a xlink:href="classGlobalSharingStrategy__inherit__graph_org.svg" target="_base">
   <rect id="button" ry="5" rx="5" y="6" x="6" height="38" width="38"
        fill="#f2f5e9" fill-opacity="0.5" stroke="#606060" stroke-width="1.0"/>
   <path id="arrow"
     d="M 11.500037,31.436501 C 11.940474,20.09759 22.043105,11.32322 32.158766,21.979434 L 37.068811,17.246167 C 37.068811,17.246167 37.088388,32 37.088388,32 L 22.160133,31.978069 C 22.160133,31.978069 26.997745,27.140456 26.997745,27.140456 C 18.528582,18.264221 13.291696,25.230495 11.500037,31.436501 z"
     style="fill:#404040;"/>
  </a>
 </g>
</svg>

<style type='text/css'>
<![CDATA[
[data-mouse-over-selected='false'] { opacity: 0.7; }
[data-mouse-over-selected='true']  { opacity: 1.0; }
]]>
</style>
<script type="application/ecmascript"><![CDATA[
document.addEventListener('DOMContentLoaded', (event) => {
  highlightEdges();
  highlightAdjacentNodes();
});
]]></script>
</svg>
