<?xml version="1.0" encoding="UTF-8" standalone="no"?>
<!DOCTYPE svg PUBLIC "-//W3C//DTD SVG 1.1//EN"
 "http://www.w3.org/Graphics/SVG/1.1/DTD/svg11.dtd">
<!-- Generated by graphviz version 12.1.2 (20240928.0832)
 -->
<!-- Title: SharingStrategy Pages: 1 -->
<svg width="239pt" height="625pt"
 viewBox="0.00 0.00 239.00 625.25" xmlns="http://www.w3.org/2000/svg" xmlns:xlink="http://www.w3.org/1999/xlink">
<g id="graph0" class="graph" transform="scale(1 1) rotate(0) translate(4 621.25)">
<title>SharingStrategy</title>
<!-- Node1 -->
<g id="Node000001" class="node">
<title>Node1</title>
<g id="a_Node000001"><a xlink:title="SharingStrategy class, inheriting from SharingEntity.">
<polygon fill="#999999" stroke="none" points="231,-214 78,-214 78,0 231,0 231,-214"/>
<text text-anchor="start" x="120" y="-200.5" font-family="Helvetica,sans-Serif" font-size="10.00">SharingStrategy</text>
<text text-anchor="start" x="82.38" y="-185.5" font-family="Helvetica,sans-Serif" font-size="10.00">#</text>
<text text-anchor="start" x="92" y="-185.5" font-family="Helvetica,sans-Serif" font-size="10.00">m_clauseDB</text>
<text text-anchor="start" x="82.38" y="-170.5" font-family="Helvetica,sans-Serif" font-size="10.00">#</text>
<text text-anchor="start" x="92" y="-170.5" font-family="Helvetica,sans-Serif" font-size="10.00">m_producers</text>
<text text-anchor="start" x="82.38" y="-155.5" font-family="Helvetica,sans-Serif" font-size="10.00">#</text>
<text text-anchor="start" x="92" y="-155.5" font-family="Helvetica,sans-Serif" font-size="10.00">m_producersMutex</text>
<text text-anchor="start" x="82" y="-140.5" font-family="Helvetica,sans-Serif" font-size="10.00">+</text>
<text text-anchor="start" x="92" y="-140.5" font-family="Helvetica,sans-Serif" font-size="10.00">SharingStrategy()</text>
<text text-anchor="start" x="82" y="-125.5" font-family="Helvetica,sans-Serif" font-size="10.00">+</text>
<text text-anchor="start" x="92" y="-125.5" font-family="Helvetica,sans-Serif" font-size="10.00">~SharingStrategy()</text>
<text text-anchor="start" x="82" y="-110.5" font-family="Helvetica,sans-Serif" font-size="10.00">+</text>
<text text-anchor="start" x="92" y="-110.5" font-family="Helvetica,sans-Serif" font-size="10.00">doSharing()</text>
<text text-anchor="start" x="82" y="-95.5" font-family="Helvetica,sans-Serif" font-size="10.00">+</text>
<text text-anchor="start" x="92" y="-95.5" font-family="Helvetica,sans-Serif" font-size="10.00">getSleepingTime()</text>
<text text-anchor="start" x="82" y="-80.5" font-family="Helvetica,sans-Serif" font-size="10.00">+</text>
<text text-anchor="start" x="92" y="-80.5" font-family="Helvetica,sans-Serif" font-size="10.00">printStats()</text>
<text text-anchor="start" x="82" y="-65.5" font-family="Helvetica,sans-Serif" font-size="10.00">+</text>
<text text-anchor="start" x="92" y="-65.5" font-family="Helvetica,sans-Serif" font-size="10.00">connectConstructorProducers()</text>
<text text-anchor="start" x="82" y="-50.5" font-family="Helvetica,sans-Serif" font-size="10.00">+</text>
<text text-anchor="start" x="92" y="-50.5" font-family="Helvetica,sans-Serif" font-size="10.00">addProducer()</text>
<text text-anchor="start" x="82" y="-35.5" font-family="Helvetica,sans-Serif" font-size="10.00">+</text>
<text text-anchor="start" x="92" y="-35.5" font-family="Helvetica,sans-Serif" font-size="10.00">connectProducer()</text>
<text text-anchor="start" x="82" y="-20.5" font-family="Helvetica,sans-Serif" font-size="10.00">+</text>
<text text-anchor="start" x="92" y="-20.5" font-family="Helvetica,sans-Serif" font-size="10.00">removeProducer()</text>
<text text-anchor="start" x="82.38" y="-5.5" font-family="Helvetica,sans-Serif" font-size="10.00">#</text>
<text text-anchor="start" x="92" y="-5.5" font-family="Helvetica,sans-Serif" font-size="10.00">exportClauseToClient()</text>
<polygon fill="#666666" stroke="#666666" points="78,-197 78,-197 231,-197 231,-197 78,-197"/>
<polygon fill="#666666" stroke="#666666" points="78,-152 78,-152 90,-152 90,-152 78,-152"/>
<polygon fill="#666666" stroke="#666666" points="90,-152 90,-152 231,-152 231,-152 90,-152"/>
<polygon fill="none" stroke="#666666" points="78,0 78,-214 231,-214 231,0 78,0"/>
</a>
</g>
</g>
<!-- Node2 -->
<g id="Node000002" class="node">
<title>Node2</title>
<g id="a_Node000002"><a xlink:href="classSharingEntity.html" target="_top" xlink:title="A base class representing entities that can exchange clauses between themselves.">
<polygon fill="white" stroke="none" points="122.5,-520.25 6.5,-520.25 6.5,-261.25 122.5,-261.25 122.5,-520.25"/>
<text text-anchor="start" x="36" y="-506.75" font-family="Helvetica,sans-Serif" font-size="10.00">SharingEntity</text>
<text text-anchor="start" x="10.88" y="-491.75" font-family="Helvetica,sans-Serif" font-size="10.00">#</text>
<text text-anchor="start" x="20.5" y="-491.75" font-family="Helvetica,sans-Serif" font-size="10.00">m_clients</text>
<text text-anchor="start" x="10.88" y="-476.75" font-family="Helvetica,sans-Serif" font-size="10.00">#</text>
<text text-anchor="start" x="20.5" y="-476.75" font-family="Helvetica,sans-Serif" font-size="10.00">m_clientsMutex</text>
<text text-anchor="start" x="10.5" y="-461.75" font-family="Helvetica,sans-Serif" font-size="10.00">+</text>
<text text-anchor="start" x="20.5" y="-461.75" font-family="Helvetica,sans-Serif" font-size="10.00">SharingEntity()</text>
<text text-anchor="start" x="10.5" y="-446.75" font-family="Helvetica,sans-Serif" font-size="10.00">+</text>
<text text-anchor="start" x="20.5" y="-446.75" font-family="Helvetica,sans-Serif" font-size="10.00">SharingEntity()</text>
<text text-anchor="start" x="10.5" y="-431.75" font-family="Helvetica,sans-Serif" font-size="10.00">+</text>
<text text-anchor="start" x="20.5" y="-431.75" font-family="Helvetica,sans-Serif" font-size="10.00">~SharingEntity()</text>
<text text-anchor="start" x="10.5" y="-416.75" font-family="Helvetica,sans-Serif" font-size="10.00">+</text>
<text text-anchor="start" x="20.5" y="-416.75" font-family="Helvetica,sans-Serif" font-size="10.00">importClause()</text>
<text text-anchor="start" x="10.5" y="-401.75" font-family="Helvetica,sans-Serif" font-size="10.00">+</text>
<text text-anchor="start" x="20.5" y="-401.75" font-family="Helvetica,sans-Serif" font-size="10.00">importClauses()</text>
<text text-anchor="start" x="10.5" y="-386.75" font-family="Helvetica,sans-Serif" font-size="10.00">+</text>
<text text-anchor="start" x="20.5" y="-386.75" font-family="Helvetica,sans-Serif" font-size="10.00">getSharingId()</text>
<text text-anchor="start" x="10.5" y="-371.75" font-family="Helvetica,sans-Serif" font-size="10.00">+</text>
<text text-anchor="start" x="20.5" y="-371.75" font-family="Helvetica,sans-Serif" font-size="10.00">setSharingId()</text>
<text text-anchor="start" x="10.5" y="-356.75" font-family="Helvetica,sans-Serif" font-size="10.00">+</text>
<text text-anchor="start" x="20.5" y="-356.75" font-family="Helvetica,sans-Serif" font-size="10.00">addClient()</text>
<text text-anchor="start" x="10.5" y="-341.75" font-family="Helvetica,sans-Serif" font-size="10.00">+</text>
<text text-anchor="start" x="20.5" y="-341.75" font-family="Helvetica,sans-Serif" font-size="10.00">removeClient()</text>
<text text-anchor="start" x="10.5" y="-326.75" font-family="Helvetica,sans-Serif" font-size="10.00">+</text>
<text text-anchor="start" x="20.5" y="-326.75" font-family="Helvetica,sans-Serif" font-size="10.00">getClientCount()</text>
<text text-anchor="start" x="10.5" y="-311.75" font-family="Helvetica,sans-Serif" font-size="10.00">+</text>
<text text-anchor="start" x="20.5" y="-311.75" font-family="Helvetica,sans-Serif" font-size="10.00">clearClients()</text>
<text text-anchor="start" x="10.88" y="-296.75" font-family="Helvetica,sans-Serif" font-size="10.00">#</text>
<text text-anchor="start" x="20.5" y="-296.75" font-family="Helvetica,sans-Serif" font-size="10.00">exportClauseToClient()</text>
<text text-anchor="start" x="10.88" y="-281.75" font-family="Helvetica,sans-Serif" font-size="10.00">#</text>
<text text-anchor="start" x="20.5" y="-281.75" font-family="Helvetica,sans-Serif" font-size="10.00">exportClause()</text>
<text text-anchor="start" x="10.88" y="-266.75" font-family="Helvetica,sans-Serif" font-size="10.00">#</text>
<text text-anchor="start" x="20.5" y="-266.75" font-family="Helvetica,sans-Serif" font-size="10.00">exportClauses()</text>
<polygon fill="#666666" stroke="#666666" points="6.5,-503.25 6.5,-503.25 122.5,-503.25 122.5,-503.25 6.5,-503.25"/>
<polygon fill="#666666" stroke="#666666" points="6.5,-473.25 6.5,-473.25 18.5,-473.25 18.5,-473.25 6.5,-473.25"/>
<polygon fill="#666666" stroke="#666666" points="18.5,-473.25 18.5,-473.25 122.5,-473.25 122.5,-473.25 18.5,-473.25"/>
<polygon fill="none" stroke="#666666" points="6.5,-261.25 6.5,-520.25 122.5,-520.25 122.5,-261.25 6.5,-261.25"/>
</a>
</g>
</g>
<!-- Node2&#45;&gt;Node1 -->
<g id="edge1_Node000001_Node000002" class="edge">
<title>Node2&#45;&gt;Node1</title>
<g id="a_edge1_Node000001_Node000002"><a xlink:title=" ">
<path fill="none" stroke="#63b8ff" d="M108.9,-250.76C112.86,-238.35 116.83,-225.92 120.69,-213.85"/>
<polygon fill="none" stroke="#63b8ff" points="105.59,-249.62 105.88,-260.21 112.26,-251.75 105.59,-249.62"/>
</a>
</g>
</g>
<!-- Node3 -->
<g id="Node000003" class="node">
<title>Node3</title>
<g id="a_Node000003"><a xlink:title=" ">
<polygon fill="white" stroke="none" points="129,-617.25 0,-617.25 0,-557.25 129,-557.25 129,-617.25"/>
<text text-anchor="start" x="4.88" y="-603.75" font-family="Helvetica,sans-Serif" font-size="10.00">std::enable_shared</text>
<text text-anchor="start" x="4.88" y="-592.5" font-family="Helvetica,sans-Serif" font-size="10.00">_from_this&lt; SharingEntity &gt;</text>
<text text-anchor="start" x="63" y="-577.75" font-family="Helvetica,sans-Serif" font-size="10.00"> </text>
<text text-anchor="start" x="63" y="-562.75" font-family="Helvetica,sans-Serif" font-size="10.00"> </text>
<polygon fill="#bfbfbf" stroke="#bfbfbf" points="0,-589.25 0,-589.25 129,-589.25 129,-589.25 0,-589.25"/>
<polygon fill="#bfbfbf" stroke="#bfbfbf" points="0,-574.25 0,-574.25 129,-574.25 129,-574.25 0,-574.25"/>
<polygon fill="none" stroke="#bfbfbf" points="0,-557.25 0,-617.25 129,-617.25 129,-557.25 0,-557.25"/>
</a>
</g>
</g>
<!-- Node3&#45;&gt;Node2 -->
<g id="edge2_Node000002_Node000003" class="edge">
<title>Node3&#45;&gt;Node2</title>
<g id="a_edge2_Node000002_Node000003"><a xlink:title=" ">
<path fill="none" stroke="#63b8ff" d="M64.5,-546.09C64.5,-538.1 64.5,-529.31 64.5,-520.11"/>
<polygon fill="none" stroke="#63b8ff" points="61,-546.04 64.5,-556.04 68,-546.04 61,-546.04"/>
</a>
</g>
</g>
<!-- Node4 -->
<g id="Node000004" class="node">
<title>Node4</title>
<g id="a_Node000004"><a xlink:href="structSharingStatistics.html" target="_top" xlink:title="Local Sharing statistics.Sharing statistics.">
<polygon fill="white" stroke="none" points="230.5,-430.25 140.5,-430.25 140.5,-351.25 230.5,-351.25 230.5,-430.25"/>
<text text-anchor="start" x="148.38" y="-416.75" font-family="Helvetica,sans-Serif" font-size="10.00">SharingStatistics</text>
<text text-anchor="start" x="144.5" y="-401.75" font-family="Helvetica,sans-Serif" font-size="10.00">+</text>
<text text-anchor="start" x="154.5" y="-401.75" font-family="Helvetica,sans-Serif" font-size="10.00">sharedClauses</text>
<text text-anchor="start" x="144.5" y="-386.75" font-family="Helvetica,sans-Serif" font-size="10.00">+</text>
<text text-anchor="start" x="154.5" y="-386.75" font-family="Helvetica,sans-Serif" font-size="10.00">receivedClauses</text>
<text text-anchor="start" x="144.5" y="-371.75" font-family="Helvetica,sans-Serif" font-size="10.00">+</text>
<text text-anchor="start" x="154.5" y="-371.75" font-family="Helvetica,sans-Serif" font-size="10.00">filteredAtImport</text>
<text text-anchor="start" x="184" y="-356.75" font-family="Helvetica,sans-Serif" font-size="10.00"> </text>
<polygon fill="#666666" stroke="#666666" points="140.5,-413.25 140.5,-413.25 230.5,-413.25 230.5,-413.25 140.5,-413.25"/>
<polygon fill="#666666" stroke="#666666" points="140.5,-368.25 140.5,-368.25 152.5,-368.25 152.5,-368.25 140.5,-368.25"/>
<polygon fill="#666666" stroke="#666666" points="152.5,-368.25 152.5,-368.25 230.5,-368.25 230.5,-368.25 152.5,-368.25"/>
<polygon fill="none" stroke="#666666" points="140.5,-351.25 140.5,-430.25 230.5,-430.25 230.5,-351.25 140.5,-351.25"/>
</a>
</g>
</g>
<!-- Node4&#45;&gt;Node1 -->
<g id="edge3_Node000001_Node000004" class="edge">
<title>Node4&#45;&gt;Node1</title>
<g id="a_edge3_Node000001_Node000004"><a xlink:title=" ">
<path fill="none" stroke="#63b8ff" d="M181.29,-351.46C177.75,-319.28 172.49,-271.5 167.57,-226.76"/>
<polygon fill="none" stroke="#63b8ff" points="167.57,-226.76 162.93,-221.23 166.25,-214.83 170.89,-220.36 167.57,-226.76"/>
</a>
</g>
<text text-anchor="middle" x="183.7" y="-233.75" font-family="Helvetica,sans-Serif" font-size="10.00" fill="grey"> #stats</text>
</g>
</g>
</svg>
