<?xml version="1.0" encoding="UTF-8" standalone="no"?>
<!DOCTYPE svg PUBLIC "-//W3C//DTD SVG 1.1//EN"
 "http://www.w3.org/Graphics/SVG/1.1/DTD/svg11.dtd">
<!-- Generated by graphviz version 12.1.2 (20240928.0832)
 -->
<!-- Title: SAT Solvers Pages: 1 -->
<svg width="246pt" height="101pt"
 viewBox="0.00 0.00 245.50 101.25" xmlns="http://www.w3.org/2000/svg" xmlns:xlink="http://www.w3.org/1999/xlink">

<svg id="main" version="1.1" xmlns="http://www.w3.org/2000/svg" xmlns:xlink="http://www.w3.org/1999/xlink" xml:space="preserve">

<style type="text/css"><![CDATA[
.node, .edge {opacity: 0.7;}
.node.selected, .edge.selected {opacity: 1;}
.edge:hover path { stroke: red; }
.edge:hover polygon { stroke: red; fill: red; }
]]></style>
<script type="application/ecmascript" xlink:href="svg.min.js"/>
<svg id="graph" class="graph">
<g id="graph0" class="graph" transform="scale(1 1) rotate(0) translate(4 97.25)">
<title>SAT Solvers</title>
<!-- Node4 -->
<g id="Node000004" class="node">
<title>Node4</title>
<g id="a_Node000004"><a xlink:href="group__localsearch__solving.html" target="_top" xlink:title="Different Classes for Local Search solver interaction.">
<polygon fill="white" stroke="#666666" points="226.25,-93.25 118,-93.25 118,-74 226.25,-74 226.25,-93.25"/>
<text text-anchor="middle" x="172.12" y="-79.75" font-family="Helvetica,sans-Serif" font-size="10.00">Local Search Solvers</text>
</a>
</g>
</g>
<!-- Node2 -->
<g id="Node000002" class="node">
<title>Node2</title>
<g id="a_Node000002"><a xlink:href="group__preproc__solving.html" target="_top" xlink:title="Different Classes for SAT Formula preprocessing.">
<polygon fill="white" stroke="#666666" points="237.5,-56.25 106.75,-56.25 106.75,-37 237.5,-37 237.5,-56.25"/>
<text text-anchor="middle" x="172.12" y="-42.75" font-family="Helvetica,sans-Serif" font-size="10.00">Preprocessing Techniques</text>
</a>
</g>
</g>
<!-- Node1 -->
<g id="Node000001" class="node">
<title>Node1</title>
<g id="a_Node000001"><a xlink:title="Different Classes for SAT formula processing.">
<polygon fill="#999999" stroke="#666666" points="70.75,-56.25 0,-56.25 0,-37 70.75,-37 70.75,-56.25"/>
<text text-anchor="middle" x="35.38" y="-42.75" font-family="Helvetica,sans-Serif" font-size="10.00">SAT Solvers</text>
</a>
</g>
</g>
<!-- Node1&#45;&gt;Node4 -->
<g id="edge3" class="edge">
<title>Node1&#45;&gt;Node4</title>
<path fill="none" stroke="black" d="M82,-59.15C99.16,-63.87 118.44,-69.16 134.66,-73.61"/>
<polygon fill="black" stroke="black" points="83.11,-55.83 72.54,-56.55 81.25,-62.58 83.11,-55.83"/>
</g>
<!-- Node1&#45;&gt;Node2 -->
<g id="edge1" class="edge">
<title>Node1&#45;&gt;Node2</title>
<path fill="none" stroke="black" d="M82.44,-46.62C90.18,-46.62 98.34,-46.62 106.45,-46.62"/>
<polygon fill="black" stroke="black" points="82.59,-43.13 72.59,-46.63 82.59,-50.13 82.59,-43.13"/>
</g>
<!-- Node3 -->
<g id="Node000003" class="node">
<title>Node3</title>
<g id="a_Node000003"><a xlink:href="group__solving__cdcl.html" target="_top" xlink:title="Different Classes for CDCL (Conflict&#45;Driven Clause Learning) solvers interaction.">
<polygon fill="white" stroke="#666666" points="210.88,-19.25 133.38,-19.25 133.38,0 210.88,0 210.88,-19.25"/>
<text text-anchor="middle" x="172.12" y="-5.75" font-family="Helvetica,sans-Serif" font-size="10.00">CDCL Solvers</text>
</a>
</g>
</g>
<!-- Node1&#45;&gt;Node3 -->
<g id="edge2" class="edge">
<title>Node1&#45;&gt;Node3</title>
<path fill="none" stroke="black" d="M82,-34.1C99.16,-29.38 118.44,-24.09 134.66,-19.64"/>
<polygon fill="black" stroke="black" points="81.25,-30.67 72.54,-36.7 83.11,-37.42 81.25,-30.67"/>
</g>
</g>
</svg>
</svg>

<style type='text/css'>
<![CDATA[
[data-mouse-over-selected='false'] { opacity: 0.7; }
[data-mouse-over-selected='true']  { opacity: 1.0; }
]]>
</style>
<script type="application/ecmascript"><![CDATA[
document.addEventListener('DOMContentLoaded', (event) => {
  highlightEdges();
  highlightAdjacentNodes();
});
]]></script>
</svg>
