<?xml version="1.0" encoding="UTF-8" standalone="no"?>
<!DOCTYPE svg PUBLIC "-//W3C//DTD SVG 1.1//EN"
 "http://www.w3.org/Graphics/SVG/1.1/DTD/svg11.dtd">
<!-- Generated by graphviz version 12.1.2 (20240928.0832)
 -->
<!-- Title: Sharing Pages: 1 -->
<svg width="203pt" height="88pt"
 viewBox="0.00 0.00 202.75 87.50" xmlns="http://www.w3.org/2000/svg" xmlns:xlink="http://www.w3.org/1999/xlink">
<g id="graph0" class="graph" transform="scale(1 1) rotate(0) translate(4 83.5)">
<title>Sharing</title>
<!-- Node2 -->
<g id="Node000002" class="node">
<title>Node2</title>
<g id="a_Node000002"><a xlink:href="group__global__sharing.html" target="_top" xlink:title="Different Classes for Sharing clauses between different processes.">
<polygon fill="white" stroke="#666666" points="194.75,-79.5 85,-79.5 85,-49 194.75,-49 194.75,-79.5"/>
<text text-anchor="start" x="93" y="-66" font-family="Helvetica,sans-Serif" font-size="10.00">Inter&#45;Process Sharing</text>
<text text-anchor="middle" x="139.88" y="-54.75" font-family="Helvetica,sans-Serif" font-size="10.00"> Strategies</text>
</a>
</g>
</g>
<!-- Node3 -->
<g id="Node000003" class="node">
<title>Node3</title>
<g id="a_Node000003"><a xlink:href="group__local__sharing.html" target="_top" xlink:title="Different Classes for Sharing clauses between different threads in the same process.">
<polygon fill="white" stroke="#666666" points="194.75,-30.5 85,-30.5 85,0 194.75,0 194.75,-30.5"/>
<text text-anchor="start" x="93" y="-17" font-family="Helvetica,sans-Serif" font-size="10.00">Intra&#45;Process Sharing</text>
<text text-anchor="middle" x="139.88" y="-5.75" font-family="Helvetica,sans-Serif" font-size="10.00"> Strategies</text>
</a>
</g>
</g>
<!-- Node1 -->
<g id="Node000001" class="node">
<title>Node1</title>
<g id="a_Node000001"><a xlink:title="Different Classes for Sharing clauses between solvers and other type of entities.">
<polygon fill="#999999" stroke="#666666" points="49,-48.88 0,-48.88 0,-29.62 49,-29.62 49,-48.88"/>
<text text-anchor="middle" x="24.5" y="-35.38" font-family="Helvetica,sans-Serif" font-size="10.00">Sharing</text>
</a>
</g>
</g>
<!-- Node1&#45;&gt;Node2 -->
<g id="edge1" class="edge">
<title>Node1&#45;&gt;Node2</title>
<path fill="none" stroke="black" d="M60.41,-46.95C68.13,-48.65 76.49,-50.49 84.78,-52.32"/>
<polygon fill="black" stroke="black" points="61.26,-43.55 50.75,-44.82 59.76,-50.39 61.26,-43.55"/>
</g>
<!-- Node1&#45;&gt;Node3 -->
<g id="edge2" class="edge">
<title>Node1&#45;&gt;Node3</title>
<path fill="none" stroke="black" d="M60.41,-31.86C68.13,-30.22 76.49,-28.46 84.78,-26.7"/>
<polygon fill="black" stroke="black" points="59.81,-28.41 50.75,-33.91 61.26,-35.26 59.81,-28.41"/>
</g>
</g>
</svg>
