<?xml version="1.0" encoding="UTF-8" standalone="no"?>
<!DOCTYPE svg PUBLIC "-//W3C//DTD SVG 1.1//EN"
 "http://www.w3.org/Graphics/SVG/1.1/DTD/svg11.dtd">
<!-- Generated by graphviz version 12.1.2 (20240928.0832)
 -->
<!-- Title: Graphical Class Hierarchy Pages: 1 -->
<svg width="283pt" height="138pt"
 viewBox="0.00 0.00 283.00 138.25" xmlns="http://www.w3.org/2000/svg" xmlns:xlink="http://www.w3.org/1999/xlink">
<g id="graph0" class="graph" transform="scale(1 1) rotate(0) translate(4 134.25)">
<title>Graphical Class Hierarchy</title>
<!-- Node0 -->
<g id="Node000000" class="node">
<title>Node0</title>
<g id="a_Node000000"><a xlink:href="classClauseDatabase.html" target="_top" xlink:title="Abstract base class defining the interface for clause storage and management.">
<polygon fill="white" stroke="#666666" points="87.25,-74.25 0,-74.25 0,-55 87.25,-55 87.25,-74.25"/>
<text text-anchor="middle" x="43.62" y="-60.75" font-family="Helvetica,sans-Serif" font-size="10.00">ClauseDatabase</text>
</a>
</g>
</g>
<!-- Node1 -->
<g id="Node000001" class="node">
<title>Node1</title>
<g id="a_Node000001"><a xlink:href="classClauseDatabaseBufferPerEntity.html" target="_top" xlink:title="A clause database that maintain separate buffers for each entity, mimicing old painless default behav...">
<polygon fill="white" stroke="#666666" points="275,-130.25 123.25,-130.25 123.25,-111 275,-111 275,-130.25"/>
<text text-anchor="middle" x="199.12" y="-116.75" font-family="Helvetica,sans-Serif" font-size="10.00">ClauseDatabaseBufferPerEntity</text>
</a>
</g>
</g>
<!-- Node0&#45;&gt;Node1 -->
<g id="edge1_Node000000_Node000001" class="edge">
<title>Node0&#45;&gt;Node1</title>
<g id="a_edge1_Node000000_Node000001"><a xlink:title=" ">
<path fill="none" stroke="#63b8ff" d="M72.56,-79.94C87.31,-87.55 105.9,-96.43 123.25,-102.62 131.56,-105.59 140.56,-108.23 149.35,-110.5"/>
<polygon fill="#63b8ff" stroke="#63b8ff" points="74.39,-76.95 63.91,-75.38 71.13,-83.14 74.39,-76.95"/>
</a>
</g>
</g>
<!-- Node2 -->
<g id="Node000002" class="node">
<title>Node2</title>
<g id="a_Node000002"><a xlink:href="classClauseDatabaseMallob.html" target="_top" xlink:title="A clause database implementation attempting to naively mimic the Simplified Adaptive Database from Ma...">
<polygon fill="white" stroke="#666666" points="257,-93.25 141.25,-93.25 141.25,-74 257,-74 257,-93.25"/>
<text text-anchor="middle" x="199.12" y="-79.75" font-family="Helvetica,sans-Serif" font-size="10.00">ClauseDatabaseMallob</text>
</a>
</g>
</g>
<!-- Node0&#45;&gt;Node2 -->
<g id="edge2_Node000000_Node000002" class="edge">
<title>Node0&#45;&gt;Node2</title>
<g id="a_edge2_Node000000_Node000002"><a xlink:title=" ">
<path fill="none" stroke="#63b8ff" d="M98.61,-71.31C112.32,-73 127.1,-74.83 140.96,-76.55"/>
<polygon fill="#63b8ff" stroke="#63b8ff" points="99.24,-67.86 88.89,-70.1 98.38,-74.81 99.24,-67.86"/>
</a>
</g>
</g>
<!-- Node3 -->
<g id="Node000003" class="node">
<title>Node3</title>
<g id="a_Node000003"><a xlink:href="classClauseDatabasePerSize.html" target="_top" xlink:title="A clause database that organizes clauses based on their size.">
<polygon fill="white" stroke="#666666" points="259.62,-56.25 138.62,-56.25 138.62,-37 259.62,-37 259.62,-56.25"/>
<text text-anchor="middle" x="199.12" y="-42.75" font-family="Helvetica,sans-Serif" font-size="10.00">ClauseDatabasePerSize</text>
</a>
</g>
</g>
<!-- Node0&#45;&gt;Node3 -->
<g id="edge3_Node000000_Node000003" class="edge">
<title>Node0&#45;&gt;Node3</title>
<g id="a_edge3_Node000000_Node000003"><a xlink:title=" ">
<path fill="none" stroke="#63b8ff" d="M98.44,-58.31C111.36,-56.8 125.23,-55.17 138.39,-53.63"/>
<polygon fill="#63b8ff" stroke="#63b8ff" points="98.41,-54.79 88.89,-59.43 99.23,-61.75 98.41,-54.79"/>
</a>
</g>
</g>
<!-- Node4 -->
<g id="Node000004" class="node">
<title>Node4</title>
<g id="a_Node000004"><a xlink:href="classClauseDatabaseSingleBuffer.html" target="_top" xlink:title="This is just a ClauseDatabase wrapper around a ClauseBuufer.">
<polygon fill="white" stroke="#666666" points="269,-19.25 129.25,-19.25 129.25,0 269,0 269,-19.25"/>
<text text-anchor="middle" x="199.12" y="-5.75" font-family="Helvetica,sans-Serif" font-size="10.00">ClauseDatabaseSingleBuffer</text>
</a>
</g>
</g>
<!-- Node0&#45;&gt;Node4 -->
<g id="edge4_Node000000_Node000004" class="edge">
<title>Node0&#45;&gt;Node4</title>
<g id="a_edge4_Node000000_Node000004"><a xlink:title=" ">
<path fill="none" stroke="#63b8ff" d="M73.19,-49.46C87.86,-42.12 106.18,-33.62 123.25,-27.62 131.7,-24.66 140.86,-22.01 149.77,-19.72"/>
<polygon fill="#63b8ff" stroke="#63b8ff" points="71.9,-46.19 64.58,-53.85 75.08,-52.42 71.9,-46.19"/>
</a>
</g>
</g>
</g>
</svg>
