<?xml version="1.0" encoding="UTF-8" standalone="no"?>
<!DOCTYPE svg PUBLIC "-//W3C//DTD SVG 1.1//EN"
 "http://www.w3.org/Graphics/SVG/1.1/DTD/svg11.dtd">
<!-- Generated by graphviz version 12.1.2 (20240928.0832)
 -->
<!-- Title: Graphical Class Hierarchy Pages: 1 -->
<svg width="302pt" height="101pt"
 viewBox="0.00 0.00 301.75 101.25" xmlns="http://www.w3.org/2000/svg" xmlns:xlink="http://www.w3.org/1999/xlink">
<g id="graph0" class="graph" transform="scale(1 1) rotate(0) translate(4 97.25)">
<title>Graphical Class Hierarchy</title>
<!-- Node0 -->
<g id="Node000000" class="node">
<title>Node0</title>
<g id="a_Node000000"><a xlink:href="classParsers_1_1ClauseProcessor.html" target="_top" xlink:title="Abstract base class for clause processors.">
<polygon fill="white" stroke="#666666" points="128.5,-56.25 0,-56.25 0,-37 128.5,-37 128.5,-56.25"/>
<text text-anchor="middle" x="64.25" y="-42.75" font-family="Helvetica,sans-Serif" font-size="10.00">Parsers::ClauseProcessor</text>
</a>
</g>
</g>
<!-- Node1 -->
<g id="Node000001" class="node">
<title>Node1</title>
<g id="a_Node000001"><a xlink:href="classParsers_1_1RedundancyFilter.html" target="_top" xlink:title="Filter for removing redundant clauses.">
<polygon fill="white" stroke="#666666" points="293.75,-93.25 164.5,-93.25 164.5,-74 293.75,-74 293.75,-93.25"/>
<text text-anchor="middle" x="229.12" y="-79.75" font-family="Helvetica,sans-Serif" font-size="10.00">Parsers::RedundancyFilter</text>
</a>
</g>
</g>
<!-- Node0&#45;&gt;Node1 -->
<g id="edge5_Node000000_Node000001" class="edge">
<title>Node0&#45;&gt;Node1</title>
<g id="a_edge5_Node000000_Node000001"><a xlink:title=" ">
<path fill="none" stroke="#63b8ff" d="M120.86,-59.26C141.35,-63.91 164.29,-69.12 183.67,-73.53"/>
<polygon fill="#63b8ff" stroke="#63b8ff" points="121.76,-55.87 111.23,-57.07 120.21,-62.7 121.76,-55.87"/>
</a>
</g>
</g>
<!-- Node2 -->
<g id="Node000002" class="node">
<title>Node2</title>
<g id="a_Node000002"><a xlink:href="classParsers_1_1SBVAInit.html" target="_top" xlink:title="A filter for Structured BVA (Binary Variable Addition)">
<polygon fill="white" stroke="#666666" points="276.5,-56.25 181.75,-56.25 181.75,-37 276.5,-37 276.5,-56.25"/>
<text text-anchor="middle" x="229.12" y="-42.75" font-family="Helvetica,sans-Serif" font-size="10.00">Parsers::SBVAInit</text>
</a>
</g>
</g>
<!-- Node0&#45;&gt;Node2 -->
<g id="edge6_Node000000_Node000002" class="edge">
<title>Node0&#45;&gt;Node2</title>
<g id="a_edge6_Node000000_Node000002"><a xlink:title=" ">
<path fill="none" stroke="#63b8ff" d="M139.89,-46.62C153.97,-46.62 168.33,-46.62 181.25,-46.62"/>
<polygon fill="#63b8ff" stroke="#63b8ff" points="140.2,-43.13 130.2,-46.63 140.2,-50.13 140.2,-43.13"/>
</a>
</g>
</g>
<!-- Node3 -->
<g id="Node000003" class="node">
<title>Node3</title>
<g id="a_Node000003"><a xlink:href="classParsers_1_1TautologyFilter.html" target="_top" xlink:title="Filter for removing tautological clauses. A tautological clause or simple a tautology is a clause tha...">
<polygon fill="white" stroke="#666666" points="288.12,-19.25 170.12,-19.25 170.12,0 288.12,0 288.12,-19.25"/>
<text text-anchor="middle" x="229.12" y="-5.75" font-family="Helvetica,sans-Serif" font-size="10.00">Parsers::TautologyFilter</text>
</a>
</g>
</g>
<!-- Node0&#45;&gt;Node3 -->
<g id="edge7_Node000000_Node000003" class="edge">
<title>Node0&#45;&gt;Node3</title>
<g id="a_edge7_Node000000_Node000003"><a xlink:title=" ">
<path fill="none" stroke="#63b8ff" d="M120.86,-33.99C141.35,-29.34 164.29,-24.13 183.67,-19.72"/>
<polygon fill="#63b8ff" stroke="#63b8ff" points="120.21,-30.55 111.23,-36.18 121.76,-37.38 120.21,-30.55"/>
</a>
</g>
</g>
</g>
</svg>
