<?xml version="1.0" encoding="UTF-8" standalone="no"?>
<!DOCTYPE svg PUBLIC "-//W3C//DTD SVG 1.1//EN"
 "http://www.w3.org/Graphics/SVG/1.1/DTD/svg11.dtd">
<!-- Generated by graphviz version 12.1.2 (20240928.0832)
 -->
<!-- Title: Graphical Class Hierarchy Pages: 1 -->
<svg width="224pt" height="101pt"
 viewBox="0.00 0.00 223.75 101.25" xmlns="http://www.w3.org/2000/svg" xmlns:xlink="http://www.w3.org/1999/xlink">
<g id="graph0" class="graph" transform="scale(1 1) rotate(0) translate(4 97.25)">
<title>Graphical Class Hierarchy</title>
<!-- Node0 -->
<g id="Node000000" class="node">
<title>Node0</title>
<g id="a_Node000000"><a xlink:href="classWorkingStrategy.html" target="_top" xlink:title="Base Interface for Working Strategies.">
<polygon fill="white" stroke="#666666" points="87.25,-56.25 0,-56.25 0,-37 87.25,-37 87.25,-56.25"/>
<text text-anchor="middle" x="43.62" y="-42.75" font-family="Helvetica,sans-Serif" font-size="10.00">WorkingStrategy</text>
</a>
</g>
</g>
<!-- Node1 -->
<g id="Node000001" class="node">
<title>Node1</title>
<g id="a_Node000001"><a xlink:href="classPortfolioPRS.html" target="_top" xlink:title="An Implementation of WorkingStrategy that mimics the strategy used in the PRS&#45;Distributed solver from...">
<polygon fill="white" stroke="#666666" points="205.62,-93.25 133.38,-93.25 133.38,-74 205.62,-74 205.62,-93.25"/>
<text text-anchor="middle" x="169.5" y="-79.75" font-family="Helvetica,sans-Serif" font-size="10.00">PortfolioPRS</text>
</a>
</g>
</g>
<!-- Node0&#45;&gt;Node1 -->
<g id="edge34_Node000000_Node000001" class="edge">
<title>Node0&#45;&gt;Node1</title>
<g id="a_edge34_Node000000_Node000001"><a xlink:title=" ">
<path fill="none" stroke="#63b8ff" d="M89.09,-59.91C104.12,-64.39 120.63,-69.33 134.69,-73.53"/>
<polygon fill="#63b8ff" stroke="#63b8ff" points="90.51,-56.68 79.92,-57.17 88.5,-63.38 90.51,-56.68"/>
</a>
</g>
</g>
<!-- Node2 -->
<g id="Node000002" class="node">
<title>Node2</title>
<g id="a_Node000002"><a xlink:href="classPortfolioSimple.html" target="_top" xlink:title="A Simple Implementation of WorkingStrategy for the portfolio parallel strategy This strategy uses the...">
<polygon fill="white" stroke="#666666" points="210.5,-56.25 128.5,-56.25 128.5,-37 210.5,-37 210.5,-56.25"/>
<text text-anchor="middle" x="169.5" y="-42.75" font-family="Helvetica,sans-Serif" font-size="10.00">PortfolioSimple</text>
</a>
</g>
</g>
<!-- Node0&#45;&gt;Node2 -->
<g id="edge35_Node000000_Node000002" class="edge">
<title>Node0&#45;&gt;Node2</title>
<g id="a_edge35_Node000000_Node000002"><a xlink:title=" ">
<path fill="none" stroke="#63b8ff" d="M98.93,-46.62C108.72,-46.62 118.78,-46.62 128.1,-46.62"/>
<polygon fill="#63b8ff" stroke="#63b8ff" points="99.12,-43.13 89.12,-46.63 99.12,-50.13 99.12,-43.13"/>
</a>
</g>
</g>
<!-- Node3 -->
<g id="Node000003" class="node">
<title>Node3</title>
<g id="a_Node000003"><a xlink:href="classSequentialWorker.html" target="_top" xlink:title="Basic Implementation of WorkingStrategy for a sequential execution.">
<polygon fill="white" stroke="#666666" points="215.75,-19.25 123.25,-19.25 123.25,0 215.75,0 215.75,-19.25"/>
<text text-anchor="middle" x="169.5" y="-5.75" font-family="Helvetica,sans-Serif" font-size="10.00">SequentialWorker</text>
</a>
</g>
</g>
<!-- Node0&#45;&gt;Node3 -->
<g id="edge36_Node000000_Node000003" class="edge">
<title>Node0&#45;&gt;Node3</title>
<g id="a_edge36_Node000000_Node000003"><a xlink:title=" ">
<path fill="none" stroke="#63b8ff" d="M89.09,-33.34C104.12,-28.86 120.63,-23.92 134.69,-19.72"/>
<polygon fill="#63b8ff" stroke="#63b8ff" points="88.5,-29.87 79.92,-36.08 90.51,-36.57 88.5,-29.87"/>
</a>
</g>
</g>
</g>
</svg>
