<?xml version="1.0" encoding="UTF-8" standalone="no"?>
<!DOCTYPE svg PUBLIC "-//W3C//DTD SVG 1.1//EN"
 "http://www.w3.org/Graphics/SVG/1.1/DTD/svg11.dtd">
<!-- Generated by graphviz version 12.1.2 (20240928.0832)
 -->
<!-- Title: Graphical Class Hierarchy Pages: 1 -->
<svg width="666pt" height="545pt"
 viewBox="0.00 0.00 666.25 545.25" xmlns="http://www.w3.org/2000/svg" xmlns:xlink="http://www.w3.org/1999/xlink">
<g id="graph0" class="graph" transform="scale(1 1) rotate(0) translate(4 541.25)">
<title>Graphical Class Hierarchy</title>
<!-- Node0 -->
<g id="Node000000" class="node">
<title>Node0</title>
<g id="a_Node000000"><a xlink:title=" ">
<polygon fill="#e0e0e0" stroke="#999999" points="97,-356.88 0,-356.88 0,-326.38 97,-326.38 97,-356.88"/>
<text text-anchor="start" x="8" y="-343.38" font-family="Helvetica,sans-Serif" font-size="10.00">std::enable_shared</text>
<text text-anchor="middle" x="48.5" y="-332.12" font-family="Helvetica,sans-Serif" font-size="10.00">_from_this</text>
</a>
</g>
</g>
<!-- Node1 -->
<g id="Node000001" class="node">
<title>Node1</title>
<g id="a_Node000001"><a xlink:href="classSharingEntity.html" target="_top" xlink:title="A base class representing entities that can exchange clauses between themselves.">
<polygon fill="white" stroke="#666666" points="210.5,-351.25 137.5,-351.25 137.5,-332 210.5,-332 210.5,-351.25"/>
<text text-anchor="middle" x="174" y="-337.75" font-family="Helvetica,sans-Serif" font-size="10.00">SharingEntity</text>
</a>
</g>
</g>
<!-- Node0&#45;&gt;Node1 -->
<g id="edge9_Node000000_Node000001" class="edge">
<title>Node0&#45;&gt;Node1</title>
<g id="a_edge9_Node000000_Node000001"><a xlink:title=" ">
<path fill="none" stroke="#63b8ff" d="M108.63,-341.62C118.41,-341.62 128.28,-341.62 137.26,-341.62"/>
<polygon fill="#63b8ff" stroke="#63b8ff" points="108.76,-338.13 98.76,-341.63 108.76,-345.13 108.76,-338.13"/>
</a>
</g>
</g>
<!-- Node2 -->
<g id="Node000002" class="node">
<title>Node2</title>
<g id="a_Node000002"><a xlink:href="classSharingStrategy.html" target="_top" xlink:title="SharingStrategy class, inheriting from SharingEntity.">
<polygon fill="white" stroke="#666666" points="349.5,-453.25 264.5,-453.25 264.5,-434 349.5,-434 349.5,-453.25"/>
<text text-anchor="middle" x="307" y="-439.75" font-family="Helvetica,sans-Serif" font-size="10.00">SharingStrategy</text>
</a>
</g>
</g>
<!-- Node1&#45;&gt;Node2 -->
<g id="edge10_Node000001_Node000002" class="edge">
<title>Node1&#45;&gt;Node2</title>
<g id="a_edge10_Node000001_Node000002"><a xlink:title=" ">
<path fill="none" stroke="#63b8ff" d="M190.79,-360.31C205.25,-376.63 227.88,-400.2 251,-416.62 260.28,-423.22 271.41,-429.01 281.22,-433.53"/>
<polygon fill="#63b8ff" stroke="#63b8ff" points="193.46,-358.05 184.26,-352.79 188.17,-362.64 193.46,-358.05"/>
</a>
</g>
</g>
<!-- Node9 -->
<g id="Node000009" class="node">
<title>Node9</title>
<g id="a_Node000009"><a xlink:href="classSolverCdclInterface.html" target="_top" xlink:title="Interface for CDCL (Conflict&#45;Driven Clause Learning) solvers This class provides a common interface f...">
<polygon fill="white" stroke="#666666" points="357.75,-259.25 256.25,-259.25 256.25,-240 357.75,-240 357.75,-259.25"/>
<text text-anchor="middle" x="307" y="-245.75" font-family="Helvetica,sans-Serif" font-size="10.00">SolverCdclInterface</text>
</a>
</g>
</g>
<!-- Node1&#45;&gt;Node9 -->
<g id="edge17_Node000001_Node000009" class="edge">
<title>Node1&#45;&gt;Node9</title>
<g id="a_edge17_Node000001_Node000009"><a xlink:title=" ">
<path fill="none" stroke="#63b8ff" d="M198.43,-325.17C225.54,-306.13 269.32,-275.39 291.75,-259.63"/>
<polygon fill="#63b8ff" stroke="#63b8ff" points="196.68,-322.12 190.51,-330.73 200.7,-327.85 196.68,-322.12"/>
</a>
</g>
</g>
<!-- Node3 -->
<g id="Node000003" class="node">
<title>Node3</title>
<g id="a_Node000003"><a xlink:href="classGlobalSharingStrategy.html" target="_top" xlink:title="Base class for global clause sharing strategies across MPI processes.">
<polygon fill="white" stroke="#666666" points="511.75,-500.25 399,-500.25 399,-481 511.75,-481 511.75,-500.25"/>
<text text-anchor="middle" x="455.38" y="-486.75" font-family="Helvetica,sans-Serif" font-size="10.00">GlobalSharingStrategy</text>
</a>
</g>
</g>
<!-- Node2&#45;&gt;Node3 -->
<g id="edge11_Node000002_Node000003" class="edge">
<title>Node2&#45;&gt;Node3</title>
<g id="a_edge11_Node000002_Node000003"><a xlink:title=" ">
<path fill="none" stroke="#63b8ff" d="M350.33,-457.22C373.54,-464.67 401.81,-473.75 423.03,-480.56"/>
<polygon fill="#63b8ff" stroke="#63b8ff" points="351.43,-453.9 340.84,-454.17 349.29,-460.56 351.43,-453.9"/>
</a>
</g>
</g>
<!-- Node7 -->
<g id="Node000007" class="node">
<title>Node7</title>
<g id="a_Node000007"><a xlink:href="classHordeSatSharing.html" target="_top" xlink:title="This strategy is a HordeSat&#45;like sharing strategy.">
<polygon fill="white" stroke="#666666" points="500.5,-463.25 410.25,-463.25 410.25,-444 500.5,-444 500.5,-463.25"/>
<text text-anchor="middle" x="455.38" y="-449.75" font-family="Helvetica,sans-Serif" font-size="10.00">HordeSatSharing</text>
</a>
</g>
</g>
<!-- Node2&#45;&gt;Node7 -->
<g id="edge15_Node000002_Node000007" class="edge">
<title>Node2&#45;&gt;Node7</title>
<g id="a_edge15_Node000002_Node000007"><a xlink:title=" ">
<path fill="none" stroke="#63b8ff" d="M361.27,-447.26C377.22,-448.35 394.54,-449.54 409.87,-450.58"/>
<polygon fill="#63b8ff" stroke="#63b8ff" points="361.67,-443.78 351.46,-446.59 361.19,-450.77 361.67,-443.78"/>
</a>
</g>
</g>
<!-- Node8 -->
<g id="Node000008" class="node">
<title>Node8</title>
<g id="a_Node000008"><a xlink:href="classSimpleSharing.html" target="_top" xlink:title="This strategy is a simple sharing strategy.">
<polygon fill="white" stroke="#666666" points="494.88,-426.25 415.88,-426.25 415.88,-407 494.88,-407 494.88,-426.25"/>
<text text-anchor="middle" x="455.38" y="-412.75" font-family="Helvetica,sans-Serif" font-size="10.00">SimpleSharing</text>
</a>
</g>
</g>
<!-- Node2&#45;&gt;Node8 -->
<g id="edge16_Node000002_Node000008" class="edge">
<title>Node2&#45;&gt;Node8</title>
<g id="a_edge16_Node000002_Node000008"><a xlink:title=" ">
<path fill="none" stroke="#63b8ff" d="M361.15,-433.82C379.1,-430.51 398.79,-426.88 415.43,-423.81"/>
<polygon fill="#63b8ff" stroke="#63b8ff" points="360.63,-430.36 351.43,-435.61 361.9,-437.24 360.63,-430.36"/>
</a>
</g>
</g>
<!-- Node4 -->
<g id="Node000004" class="node">
<title>Node4</title>
<g id="a_Node000004"><a xlink:href="classAllGatherSharing.html" target="_top" xlink:title="Implements a global sharing strategy using MPI_Allgather for clause exchange.">
<polygon fill="white" stroke="#666666" points="647.75,-537.25 558.25,-537.25 558.25,-518 647.75,-518 647.75,-537.25"/>
<text text-anchor="middle" x="603" y="-523.75" font-family="Helvetica,sans-Serif" font-size="10.00">AllGatherSharing</text>
</a>
</g>
</g>
<!-- Node3&#45;&gt;Node4 -->
<g id="edge12_Node000003_Node000004" class="edge">
<title>Node3&#45;&gt;Node4</title>
<g id="a_edge12_Node000003_Node000004"><a xlink:title=" ">
<path fill="none" stroke="#63b8ff" d="M507.11,-503.52C525.18,-508.11 545.24,-513.2 562.26,-517.53"/>
<polygon fill="#63b8ff" stroke="#63b8ff" points="508.19,-500.18 497.63,-501.11 506.46,-506.96 508.19,-500.18"/>
</a>
</g>
</g>
<!-- Node5 -->
<g id="Node000005" class="node">
<title>Node5</title>
<g id="a_Node000005"><a xlink:href="classGenericGlobalSharing.html" target="_top" xlink:title="Implements a generic global sharing strategy for clause exchange.">
<polygon fill="white" stroke="#666666" points="658.25,-500.25 547.75,-500.25 547.75,-481 658.25,-481 658.25,-500.25"/>
<text text-anchor="middle" x="603" y="-486.75" font-family="Helvetica,sans-Serif" font-size="10.00">GenericGlobalSharing</text>
</a>
</g>
</g>
<!-- Node3&#45;&gt;Node5 -->
<g id="edge13_Node000003_Node000005" class="edge">
<title>Node3&#45;&gt;Node5</title>
<g id="a_edge13_Node000003_Node000005"><a xlink:title=" ">
<path fill="none" stroke="#63b8ff" d="M523.27,-490.62C531.44,-490.62 539.7,-490.62 547.65,-490.62"/>
<polygon fill="#63b8ff" stroke="#63b8ff" points="523.36,-487.13 513.36,-490.63 523.36,-494.13 523.36,-487.13"/>
</a>
</g>
</g>
<!-- Node6 -->
<g id="Node000006" class="node">
<title>Node6</title>
<g id="a_Node000006"><a xlink:href="classMallobSharing.html" target="_top" xlink:title="Implements a global sharing strategy based on the Mallob algorithm.">
<polygon fill="white" stroke="#666666" points="641.75,-463.25 564.25,-463.25 564.25,-444 641.75,-444 641.75,-463.25"/>
<text text-anchor="middle" x="603" y="-449.75" font-family="Helvetica,sans-Serif" font-size="10.00">MallobSharing</text>
</a>
</g>
</g>
<!-- Node3&#45;&gt;Node6 -->
<g id="edge14_Node000003_Node000006" class="edge">
<title>Node3&#45;&gt;Node6</title>
<g id="a_edge14_Node000003_Node000006"><a xlink:title=" ">
<path fill="none" stroke="#63b8ff" d="M507.13,-477.73C525.72,-473 546.44,-467.74 563.76,-463.34"/>
<polygon fill="#63b8ff" stroke="#63b8ff" points="506.46,-474.29 497.63,-480.14 508.19,-481.07 506.46,-474.29"/>
</a>
</g>
</g>
<!-- Node10 -->
<g id="Node000010" class="node">
<title>Node10</title>
<g id="a_Node000010"><a xlink:href="classCadical.html" target="_top" xlink:title="Implements the different interfaces to interact with the Cadical CDCL solver.">
<polygon fill="white" stroke="#666666" points="479.5,-389.25 431.25,-389.25 431.25,-370 479.5,-370 479.5,-389.25"/>
<text text-anchor="middle" x="455.38" y="-375.75" font-family="Helvetica,sans-Serif" font-size="10.00">Cadical</text>
</a>
</g>
</g>
<!-- Node9&#45;&gt;Node10 -->
<g id="edge18_Node000009_Node000010" class="edge">
<title>Node9&#45;&gt;Node10</title>
<g id="a_edge18_Node000009_Node000010"><a xlink:title=" ">
<path fill="none" stroke="#63b8ff" d="M319.13,-269.43C334.15,-294.4 363.19,-337.05 399,-361.62 408.5,-368.15 420.52,-372.43 430.93,-375.17"/>
<polygon fill="#63b8ff" stroke="#63b8ff" points="322.23,-267.8 314.17,-260.92 316.19,-271.32 322.23,-267.8"/>
</a>
</g>
</g>
<!-- Node13 -->
<g id="Node000013" class="node">
<title>Node13</title>
<g id="a_Node000013"><a xlink:href="classGlucoseSyrup.html" target="_top" xlink:title="Instance of a Glucose solver.">
<polygon fill="white" stroke="#666666" points="493.75,-352.25 417,-352.25 417,-333 493.75,-333 493.75,-352.25"/>
<text text-anchor="middle" x="455.38" y="-338.75" font-family="Helvetica,sans-Serif" font-size="10.00">GlucoseSyrup</text>
</a>
</g>
</g>
<!-- Node9&#45;&gt;Node13 -->
<g id="edge19_Node000009_Node000013" class="edge">
<title>Node9&#45;&gt;Node13</title>
<g id="a_edge19_Node000009_Node000013"><a xlink:title=" ">
<path fill="none" stroke="#63b8ff" d="M325.48,-267.49C342.79,-284.29 370.72,-309.11 399,-324.62 404.58,-327.69 410.77,-330.33 416.93,-332.58"/>
<polygon fill="#63b8ff" stroke="#63b8ff" points="328.09,-265.15 318.53,-260.59 323.16,-270.12 328.09,-265.15"/>
</a>
</g>
</g>
<!-- Node14 -->
<g id="Node000014" class="node">
<title>Node14</title>
<g id="a_Node000014"><a xlink:href="classKissat.html" target="_top" xlink:title="Instance of a Kissat solver.">
<polygon fill="white" stroke="#666666" points="477.25,-315.25 433.5,-315.25 433.5,-296 477.25,-296 477.25,-315.25"/>
<text text-anchor="middle" x="455.38" y="-301.75" font-family="Helvetica,sans-Serif" font-size="10.00">Kissat</text>
</a>
</g>
</g>
<!-- Node9&#45;&gt;Node14 -->
<g id="edge20_Node000009_Node000014" class="edge">
<title>Node9&#45;&gt;Node14</title>
<g id="a_edge20_Node000009_Node000014"><a xlink:title=" ">
<path fill="none" stroke="#63b8ff" d="M340.71,-264.04C357.92,-271.43 379.46,-280.38 399,-287.62 410.18,-291.77 422.82,-295.92 433.2,-299.19"/>
<polygon fill="#63b8ff" stroke="#63b8ff" points="342.57,-261.03 332,-260.27 339.78,-267.45 342.57,-261.03"/>
</a>
</g>
</g>
<!-- Node15 -->
<g id="Node000015" class="node">
<title>Node15</title>
<g id="a_Node000015"><a xlink:href="classKissatINCSolver.html" target="_top" xlink:title="Instance of a KissatINCSolver solver.">
<polygon fill="white" stroke="#666666" points="499.75,-278.25 411,-278.25 411,-259 499.75,-259 499.75,-278.25"/>
<text text-anchor="middle" x="455.38" y="-264.75" font-family="Helvetica,sans-Serif" font-size="10.00">KissatINCSolver</text>
</a>
</g>
</g>
<!-- Node9&#45;&gt;Node15 -->
<g id="edge21_Node000009_Node000015" class="edge">
<title>Node9&#45;&gt;Node15</title>
<g id="a_edge21_Node000009_Node000015"><a xlink:title=" ">
<path fill="none" stroke="#63b8ff" d="M368.97,-257.54C382.91,-259.35 397.45,-261.24 410.51,-262.93"/>
<polygon fill="#63b8ff" stroke="#63b8ff" points="369.83,-254.12 359.47,-256.31 368.93,-261.06 369.83,-254.12"/>
</a>
</g>
</g>
<!-- Node16 -->
<g id="Node000016" class="node">
<title>Node16</title>
<g id="a_Node000016"><a xlink:href="classKissatMABSolver.html" target="_top" xlink:title="Instance of a KissatMABSolver solver.">
<polygon fill="white" stroke="#666666" points="502,-241.25 408.75,-241.25 408.75,-222 502,-222 502,-241.25"/>
<text text-anchor="middle" x="455.38" y="-227.75" font-family="Helvetica,sans-Serif" font-size="10.00">KissatMABSolver</text>
</a>
</g>
</g>
<!-- Node9&#45;&gt;Node16 -->
<g id="edge22_Node000009_Node000016" class="edge">
<title>Node9&#45;&gt;Node16</title>
<g id="a_edge22_Node000009_Node000016"><a xlink:title=" ">
<path fill="none" stroke="#63b8ff" d="M369.33,-242.08C382.47,-240.47 396.14,-238.79 408.57,-237.26"/>
<polygon fill="#63b8ff" stroke="#63b8ff" points="368.96,-238.6 359.47,-243.3 369.82,-245.55 368.96,-238.6"/>
</a>
</g>
</g>
<!-- Node17 -->
<g id="Node000017" class="node">
<title>Node17</title>
<g id="a_Node000017"><a xlink:href="classLingeling.html" target="_top" xlink:title="Instance of a Lingeling solver.">
<polygon fill="white" stroke="#666666" points="482.88,-204.25 427.88,-204.25 427.88,-185 482.88,-185 482.88,-204.25"/>
<text text-anchor="middle" x="455.38" y="-190.75" font-family="Helvetica,sans-Serif" font-size="10.00">Lingeling</text>
</a>
</g>
</g>
<!-- Node9&#45;&gt;Node17 -->
<g id="edge23_Node000009_Node000017" class="edge">
<title>Node9&#45;&gt;Node17</title>
<g id="a_edge23_Node000009_Node000017"><a xlink:title=" ">
<path fill="none" stroke="#63b8ff" d="M341.94,-235.15C358.95,-228.07 379.95,-219.59 399,-212.62 408.21,-209.26 418.39,-205.86 427.48,-202.94"/>
<polygon fill="#63b8ff" stroke="#63b8ff" points="340.65,-231.89 332.78,-238.99 343.36,-238.35 340.65,-231.89"/>
</a>
</g>
</g>
<!-- Node18 -->
<g id="Node000018" class="node">
<title>Node18</title>
<g id="a_Node000018"><a xlink:href="classMapleCOMSPSSolver.html" target="_top" xlink:title="Instance of a MapleCOMSPS solver.">
<polygon fill="white" stroke="#666666" points="511.75,-167.25 399,-167.25 399,-148 511.75,-148 511.75,-167.25"/>
<text text-anchor="middle" x="455.38" y="-153.75" font-family="Helvetica,sans-Serif" font-size="10.00">MapleCOMSPSSolver</text>
</a>
</g>
</g>
<!-- Node9&#45;&gt;Node18 -->
<g id="edge24_Node000009_Node000018" class="edge">
<title>Node9&#45;&gt;Node18</title>
<g id="a_edge24_Node000009_Node000018"><a xlink:title=" ">
<path fill="none" stroke="#63b8ff" d="M325.81,-231.74C343.17,-215.18 370.98,-190.88 399,-175.62 404.59,-172.58 410.79,-169.94 416.95,-167.7"/>
<polygon fill="#63b8ff" stroke="#63b8ff" points="323.54,-229.07 318.82,-238.55 328.43,-234.08 323.54,-229.07"/>
</a>
</g>
</g>
<!-- Node19 -->
<g id="Node000019" class="node">
<title>Node19</title>
<g id="a_Node000019"><a xlink:href="classMiniSat.html" target="_top" xlink:title="Instance of a Minisat solver.">
<polygon fill="white" stroke="#666666" points="479.88,-130.25 430.88,-130.25 430.88,-111 479.88,-111 479.88,-130.25"/>
<text text-anchor="middle" x="455.38" y="-116.75" font-family="Helvetica,sans-Serif" font-size="10.00">MiniSat</text>
</a>
</g>
</g>
<!-- Node9&#45;&gt;Node19 -->
<g id="edge25_Node000009_Node000019" class="edge">
<title>Node9&#45;&gt;Node19</title>
<g id="a_edge25_Node000009_Node000019"><a xlink:title=" ">
<path fill="none" stroke="#63b8ff" d="M319.18,-230C334.24,-205.25 363.33,-162.99 399,-138.62 408.35,-132.24 420.12,-128 430.4,-125.24"/>
<polygon fill="#63b8ff" stroke="#63b8ff" points="316.28,-228.03 314.2,-238.42 322.3,-231.59 316.28,-228.03"/>
</a>
</g>
</g>
<!-- Node11 -->
<g id="Node000011" class="node">
<title>Node11</title>
<g id="a_Node000011"><a xlink:title=" ">
<polygon fill="#e0e0e0" stroke="#999999" points="353.25,-407.25 260.75,-407.25 260.75,-388 353.25,-388 353.25,-407.25"/>
<text text-anchor="middle" x="307" y="-393.75" font-family="Helvetica,sans-Serif" font-size="10.00">CaDiCaL::Learner</text>
</a>
</g>
</g>
<!-- Node11&#45;&gt;Node10 -->
<g id="edge26_Node000011_Node000010" class="edge">
<title>Node11&#45;&gt;Node10</title>
<g id="a_edge26_Node000011_Node000010"><a xlink:title=" ">
<path fill="none" stroke="#63b8ff" d="M364.93,-390.62C387.94,-387.79 413.21,-384.69 431,-382.5"/>
<polygon fill="#63b8ff" stroke="#63b8ff" points="364.51,-387.15 355.01,-391.84 365.37,-394.1 364.51,-387.15"/>
</a>
</g>
</g>
<!-- Node20 -->
<g id="Node000020" class="node">
<title>Node20</title>
<g id="a_Node000020"><a xlink:href="classSolverInterface.html" target="_top" xlink:title="Interface for a SAT solver with standard features.">
<polygon fill="white" stroke="#666666" points="215,-93.25 133,-93.25 133,-74 215,-74 215,-93.25"/>
<text text-anchor="middle" x="174" y="-79.75" font-family="Helvetica,sans-Serif" font-size="10.00">SolverInterface</text>
</a>
</g>
</g>
<!-- Node20&#45;&gt;Node9 -->
<g id="edge32_Node000020_Node000009" class="edge">
<title>Node20&#45;&gt;Node9</title>
<g id="a_edge32_Node000020_Node000009"><a xlink:title=" ">
<path fill="none" stroke="#63b8ff" d="M189.74,-102.31C217.51,-137.49 276.68,-212.47 298.07,-239.58"/>
<polygon fill="#63b8ff" stroke="#63b8ff" points="192.68,-100.38 183.74,-94.7 187.19,-104.72 192.68,-100.38"/>
</a>
</g>
</g>
<!-- Node21 -->
<g id="Node000021" class="node">
<title>Node21</title>
<g id="a_Node000021"><a xlink:href="classLocalSearchInterface.html" target="_top" xlink:title="Interface for Local Search solvers.">
<polygon fill="white" stroke="#666666" points="361.5,-93.25 252.5,-93.25 252.5,-74 361.5,-74 361.5,-93.25"/>
<text text-anchor="middle" x="307" y="-79.75" font-family="Helvetica,sans-Serif" font-size="10.00">LocalSearchInterface</text>
</a>
</g>
</g>
<!-- Node20&#45;&gt;Node21 -->
<g id="edge27_Node000020_Node000021" class="edge">
<title>Node20&#45;&gt;Node21</title>
<g id="a_edge27_Node000020_Node000021"><a xlink:title=" ">
<path fill="none" stroke="#63b8ff" d="M226.82,-83.62C235.1,-83.62 243.69,-83.62 252.02,-83.62"/>
<polygon fill="#63b8ff" stroke="#63b8ff" points="226.89,-80.13 216.89,-83.63 226.89,-87.13 226.89,-80.13"/>
</a>
</g>
</g>
<!-- Node23 -->
<g id="Node000023" class="node">
<title>Node23</title>
<g id="a_Node000023"><a xlink:href="classPreprocessorInterface.html" target="_top" xlink:title="Interface for preprocessor algorithms in SAT solving.">
<polygon fill="white" stroke="#666666" points="363,-56.25 251,-56.25 251,-37 363,-37 363,-56.25"/>
<text text-anchor="middle" x="307" y="-42.75" font-family="Helvetica,sans-Serif" font-size="10.00">PreprocessorInterface</text>
</a>
</g>
</g>
<!-- Node20&#45;&gt;Node23 -->
<g id="edge29_Node000020_Node000023" class="edge">
<title>Node20&#45;&gt;Node23</title>
<g id="a_edge29_Node000020_Node000023"><a xlink:title=" ">
<path fill="none" stroke="#63b8ff" d="M221.56,-70.47C237.57,-65.95 255.23,-60.96 270.25,-56.72"/>
<polygon fill="#63b8ff" stroke="#63b8ff" points="220.93,-67.02 212.25,-73.1 222.83,-73.75 220.93,-67.02"/>
</a>
</g>
</g>
<!-- Node22 -->
<g id="Node000022" class="node">
<title>Node22</title>
<g id="a_Node000022"><a xlink:href="classYalSat.html" target="_top" xlink:title="Implements LocalSearchInterface to interact with the YalSAT local search solver.">
<polygon fill="white" stroke="#666666" points="478,-93.25 432.75,-93.25 432.75,-74 478,-74 478,-93.25"/>
<text text-anchor="middle" x="455.38" y="-79.75" font-family="Helvetica,sans-Serif" font-size="10.00">YalSat</text>
</a>
</g>
</g>
<!-- Node21&#45;&gt;Node22 -->
<g id="edge28_Node000021_Node000022" class="edge">
<title>Node21&#45;&gt;Node22</title>
<g id="a_edge28_Node000021_Node000022"><a xlink:title=" ">
<path fill="none" stroke="#63b8ff" d="M373.04,-83.62C394.36,-83.62 416.62,-83.62 432.45,-83.62"/>
<polygon fill="#63b8ff" stroke="#63b8ff" points="373.19,-80.13 363.19,-83.63 373.19,-87.13 373.19,-80.13"/>
</a>
</g>
</g>
<!-- Node24 -->
<g id="Node000024" class="node">
<title>Node24</title>
<g id="a_Node000024"><a xlink:href="classStructuredBVA.html" target="_top" xlink:title="Structured Binary Variable Addition (SBVA) preprocessing algorithm.">
<polygon fill="white" stroke="#666666" points="496,-56.25 414.75,-56.25 414.75,-37 496,-37 496,-56.25"/>
<text text-anchor="middle" x="455.38" y="-42.75" font-family="Helvetica,sans-Serif" font-size="10.00">StructuredBVA</text>
</a>
</g>
</g>
<!-- Node23&#45;&gt;Node24 -->
<g id="edge30_Node000023_Node000024" class="edge">
<title>Node23&#45;&gt;Node24</title>
<g id="a_edge30_Node000023_Node000024"><a xlink:title=" ">
<path fill="none" stroke="#63b8ff" d="M374.65,-46.62C388.25,-46.62 402.16,-46.62 414.47,-46.62"/>
<polygon fill="#63b8ff" stroke="#63b8ff" points="374.85,-43.13 364.85,-46.63 374.85,-50.13 374.85,-43.13"/>
</a>
</g>
</g>
<!-- Node25 -->
<g id="Node000025" class="node">
<title>Node25</title>
<g id="a_Node000025"><a xlink:href="structpreprocess.html" target="_top" xlink:title="The different simplification techniques implemented in PRS framework.">
<polygon fill="white" stroke="#666666" points="487.38,-19.25 423.38,-19.25 423.38,0 487.38,0 487.38,-19.25"/>
<text text-anchor="middle" x="455.38" y="-5.75" font-family="Helvetica,sans-Serif" font-size="10.00">preprocess</text>
</a>
</g>
</g>
<!-- Node23&#45;&gt;Node25 -->
<g id="edge31_Node000023_Node000025" class="edge">
<title>Node23&#45;&gt;Node25</title>
<g id="a_edge31_Node000023_Node000025"><a xlink:title=" ">
<path fill="none" stroke="#63b8ff" d="M358.9,-33.76C380.32,-28.35 404.55,-22.22 423.24,-17.49"/>
<polygon fill="#63b8ff" stroke="#63b8ff" points="358.3,-30.3 349.46,-36.14 360.02,-37.09 358.3,-30.3"/>
</a>
</g>
</g>
<!-- Node12 -->
<g id="Node000012" class="node">
<title>Node12</title>
<g id="a_Node000012"><a xlink:title=" ">
<polygon fill="#e0e0e0" stroke="#999999" points="360,-370.25 254,-370.25 254,-351 360,-351 360,-370.25"/>
<text text-anchor="middle" x="307" y="-356.75" font-family="Helvetica,sans-Serif" font-size="10.00">CaDiCaL::Terminator</text>
</a>
</g>
</g>
<!-- Node12&#45;&gt;Node10 -->
<g id="edge33_Node000012_Node000010" class="edge">
<title>Node12&#45;&gt;Node10</title>
<g id="a_edge33_Node000012_Node000010"><a xlink:title=" ">
<path fill="none" stroke="#63b8ff" d="M371.64,-368.89C392.7,-371.62 414.83,-374.49 430.9,-376.58"/>
<polygon fill="#63b8ff" stroke="#63b8ff" points="372.3,-365.44 361.93,-367.63 371.4,-372.38 372.3,-365.44"/>
</a>
</g>
</g>
</g>
</svg>
