<?xml version="1.0" encoding="UTF-8" standalone="no"?>
<!DOCTYPE svg PUBLIC "-//W3C//DTD SVG 1.1//EN"
 "http://www.w3.org/Graphics/SVG/1.1/DTD/svg11.dtd">
<!-- Generated by graphviz version 12.1.2 (20240928.0832)
 -->
<!-- Title: /github/workspace/src/utils/Parsers.hpp Pages: 1 -->
<svg width="330pt" height="105pt"
 viewBox="0.00 0.00 329.75 105.00" xmlns="http://www.w3.org/2000/svg" xmlns:xlink="http://www.w3.org/1999/xlink">
<g id="graph0" class="graph" transform="scale(1 1) rotate(0) translate(4 101)">
<title>/github/workspace/src/utils/Parsers.hpp</title>
<!-- Node1 -->
<g id="Node000001" class="node">
<title>Node1</title>
<g id="a_Node000001"><a xlink:title="Defines classes and functions for parsing CNF formulas and processing clauses.">
<polygon fill="#999999" stroke="#666666" points="222.88,-97 110.88,-97 110.88,-66.5 222.88,-66.5 222.88,-97"/>
<text text-anchor="start" x="118.88" y="-83.5" font-family="Helvetica,sans-Serif" font-size="10.00">/github/workspace/src</text>
<text text-anchor="middle" x="166.88" y="-72.25" font-family="Helvetica,sans-Serif" font-size="10.00">/utils/Parsers.hpp</text>
</a>
</g>
</g>
<!-- Node2 -->
<g id="Node000002" class="node">
<title>Node2</title>
<g id="a_Node000002"><a xlink:href="StructuredBva_8hpp_source.html" target="_top" xlink:title=" ">
<polygon fill="white" stroke="#666666" points="163.75,-30.5 0,-30.5 0,0 163.75,0 163.75,-30.5"/>
<text text-anchor="start" x="8" y="-17" font-family="Helvetica,sans-Serif" font-size="10.00">/github/workspace/src</text>
<text text-anchor="middle" x="81.88" y="-5.75" font-family="Helvetica,sans-Serif" font-size="10.00">/preprocessors/StructuredBva.hpp</text>
</a>
</g>
</g>
<!-- Node1&#45;&gt;Node2 -->
<g id="edge1_Node000001_Node000002" class="edge">
<title>Node1&#45;&gt;Node2</title>
<g id="a_edge1_Node000001_Node000002"><a xlink:title=" ">
<path fill="none" stroke="#63b8ff" d="M138.6,-59.29C126.28,-49.94 112.16,-39.23 101.09,-30.83"/>
<polygon fill="#63b8ff" stroke="#63b8ff" points="136.3,-61.94 146.38,-65.2 140.53,-56.37 136.3,-61.94"/>
</a>
</g>
</g>
<!-- Node3 -->
<g id="Node000003" class="node">
<title>Node3</title>
<g id="a_Node000003"><a xlink:href="Lingeling_8hpp_source.html" target="_top" xlink:title=" ">
<polygon fill="white" stroke="#666666" points="321.75,-30.5 182,-30.5 182,0 321.75,0 321.75,-30.5"/>
<text text-anchor="start" x="190" y="-17" font-family="Helvetica,sans-Serif" font-size="10.00">/github/workspace/src</text>
<text text-anchor="middle" x="251.88" y="-5.75" font-family="Helvetica,sans-Serif" font-size="10.00">/solvers/CDCL/Lingeling.hpp</text>
</a>
</g>
</g>
<!-- Node1&#45;&gt;Node3 -->
<g id="edge2_Node000001_Node000003" class="edge">
<title>Node1&#45;&gt;Node3</title>
<g id="a_edge2_Node000001_Node000003"><a xlink:title=" ">
<path fill="none" stroke="#63b8ff" d="M195.15,-59.29C207.47,-49.94 221.59,-39.23 232.66,-30.83"/>
<polygon fill="#63b8ff" stroke="#63b8ff" points="193.22,-56.37 187.37,-65.2 197.45,-61.94 193.22,-56.37"/>
</a>
</g>
</g>
</g>
</svg>
