<?xml version="1.0" encoding="UTF-8" standalone="no"?>
<!DOCTYPE svg PUBLIC "-//W3C//DTD SVG 1.1//EN"
 "http://www.w3.org/Graphics/SVG/1.1/DTD/svg11.dtd">
<!-- Generated by graphviz version 12.1.2 (20240928.0832)
 -->
<!-- Title: /github/workspace/src/utils/Parsers.hpp Pages: 1 -->
<svg width="1080pt" height="260pt"
 viewBox="0.00 0.00 1080.23 259.50" xmlns="http://www.w3.org/2000/svg" xmlns:xlink="http://www.w3.org/1999/xlink">
<g id="graph0" class="graph" transform="scale(1 1) rotate(0) translate(4 255.5)">
<title>/github/workspace/src/utils/Parsers.hpp</title>
<!-- Node1 -->
<g id="Node000001" class="node">
<title>Node1</title>
<g id="a_Node000001"><a xlink:title="Defines classes and functions for parsing CNF formulas and processing clauses.">
<polygon fill="#999999" stroke="#666666" points="718.5,-251.5 606.5,-251.5 606.5,-221 718.5,-221 718.5,-251.5"/>
<text text-anchor="start" x="614.5" y="-238" font-family="Helvetica,sans-Serif" font-size="10.00">/github/workspace/src</text>
<text text-anchor="middle" x="662.5" y="-226.75" font-family="Helvetica,sans-Serif" font-size="10.00">/utils/Parsers.hpp</text>
</a>
</g>
</g>
<!-- Node2 -->
<g id="Node000002" class="node">
<title>Node2</title>
<g id="a_Node000002"><a xlink:href="SolverInterface_8hpp_source.html" target="_top" xlink:title=" ">
<polygon fill="white" stroke="#666666" points="733.5,-185 591.5,-185 591.5,-165.75 733.5,-165.75 733.5,-185"/>
<text text-anchor="middle" x="662.5" y="-171.5" font-family="Helvetica,sans-Serif" font-size="10.00">../solvers/SolverInterface.hpp</text>
</a>
</g>
</g>
<!-- Node1&#45;&gt;Node2 -->
<g id="edge1_Node000001_Node000002" class="edge">
<title>Node1&#45;&gt;Node2</title>
<g id="a_edge1_Node000001_Node000002"><a xlink:title=" ">
<path fill="none" stroke="#63b8ff" d="M662.5,-220.7C662.5,-213.46 662.5,-204.59 662.5,-196.69"/>
<polygon fill="#63b8ff" stroke="#63b8ff" points="666,-196.96 662.5,-186.96 659,-196.96 666,-196.96"/>
</a>
</g>
</g>
<!-- Node4 -->
<g id="Node000004" class="node">
<title>Node4</title>
<g id="a_Node000004"><a xlink:title=" ">
<polygon fill="#e0e0e0" stroke="#999999" points="455.38,-19.25 399.62,-19.25 399.62,0 455.38,0 455.38,-19.25"/>
<text text-anchor="middle" x="427.5" y="-5.75" font-family="Helvetica,sans-Serif" font-size="10.00">algorithm</text>
</a>
</g>
</g>
<!-- Node1&#45;&gt;Node4 -->
<g id="edge41_Node000001_Node000004" class="edge">
<title>Node1&#45;&gt;Node4</title>
<g id="a_edge41_Node000001_Node000004"><a xlink:title=" ">
<path fill="none" stroke="#63b8ff" d="M606,-233.92C535.17,-228.85 416.28,-208.32 360.5,-129.75 335.82,-94.98 378.79,-50.33 406.61,-26.8"/>
<polygon fill="#63b8ff" stroke="#63b8ff" points="408.63,-29.67 414.17,-20.63 404.21,-24.24 408.63,-29.67"/>
</a>
</g>
</g>
<!-- Node12 -->
<g id="Node000012" class="node">
<title>Node12</title>
<g id="a_Node000012"><a xlink:href="ClauseUtils_8hpp_source.html" target="_top" xlink:title=" ">
<polygon fill="white" stroke="#666666" points="1017.62,-129.75 885.38,-129.75 885.38,-110.5 1017.62,-110.5 1017.62,-129.75"/>
<text text-anchor="middle" x="951.5" y="-116.25" font-family="Helvetica,sans-Serif" font-size="10.00">containers/ClauseUtils.hpp</text>
</a>
</g>
</g>
<!-- Node1&#45;&gt;Node12 -->
<g id="edge29_Node000001_Node000012" class="edge">
<title>Node1&#45;&gt;Node12</title>
<g id="a_edge29_Node000001_Node000012"><a xlink:title=" ">
<path fill="none" stroke="#63b8ff" d="M685.68,-220.56C714.3,-202.61 761.51,-173.64 780.5,-165.75 816.01,-151 857.74,-139.99 891.08,-132.6"/>
<polygon fill="#63b8ff" stroke="#63b8ff" points="891.53,-136.09 900.57,-130.56 890.06,-129.24 891.53,-136.09"/>
</a>
</g>
</g>
<!-- Node22 -->
<g id="Node000022" class="node">
<title>Node22</title>
<g id="a_Node000022"><a xlink:href="Formula_8hpp_source.html" target="_top" xlink:title=" ">
<polygon fill="white" stroke="#666666" points="275.12,-129.75 157.88,-129.75 157.88,-110.5 275.12,-110.5 275.12,-129.75"/>
<text text-anchor="middle" x="216.5" y="-116.25" font-family="Helvetica,sans-Serif" font-size="10.00">containers/Formula.hpp</text>
</a>
</g>
</g>
<!-- Node1&#45;&gt;Node22 -->
<g id="edge30_Node000001_Node000022" class="edge">
<title>Node1&#45;&gt;Node22</title>
<g id="a_edge30_Node000001_Node000022"><a xlink:title=" ">
<path fill="none" stroke="#63b8ff" d="M606.13,-231.64C516.2,-225.23 344.75,-210.1 289.5,-185 265.88,-174.27 244.26,-153.33 230.78,-138.35"/>
<polygon fill="#63b8ff" stroke="#63b8ff" points="233.68,-136.35 224.48,-131.08 228.38,-140.93 233.68,-136.35"/>
</a>
</g>
</g>
<!-- Node29 -->
<g id="Node000029" class="node">
<title>Node29</title>
<g id="a_Node000029"><a xlink:title=" ">
<polygon fill="#e0e0e0" stroke="#999999" points="847.5,-185 789.5,-185 789.5,-165.75 847.5,-165.75 847.5,-185"/>
<text text-anchor="middle" x="818.5" y="-171.5" font-family="Helvetica,sans-Serif" font-size="10.00">functional</text>
</a>
</g>
</g>
<!-- Node1&#45;&gt;Node29 -->
<g id="edge42_Node000001_Node000029" class="edge">
<title>Node1&#45;&gt;Node29</title>
<g id="a_edge42_Node000001_Node000029"><a xlink:title=" ">
<path fill="none" stroke="#63b8ff" d="M701.46,-220.55C726.82,-210.98 759.59,-198.61 784,-189.39"/>
<polygon fill="#63b8ff" stroke="#63b8ff" points="785.04,-192.74 793.16,-185.94 782.57,-186.19 785.04,-192.74"/>
</a>
</g>
</g>
<!-- Node3 -->
<g id="Node000003" class="node">
<title>Node3</title>
<g id="a_Node000003"><a xlink:href="ClauseExchange_8hpp_source.html" target="_top" xlink:title=" ">
<polygon fill="white" stroke="#666666" points="885.5,-74.5 731.5,-74.5 731.5,-55.25 885.5,-55.25 885.5,-74.5"/>
<text text-anchor="middle" x="808.5" y="-61" font-family="Helvetica,sans-Serif" font-size="10.00">containers/ClauseExchange.hpp</text>
</a>
</g>
</g>
<!-- Node2&#45;&gt;Node3 -->
<g id="edge2_Node000002_Node000003" class="edge">
<title>Node2&#45;&gt;Node3</title>
<g id="a_edge2_Node000002_Node000003"><a xlink:title=" ">
<path fill="none" stroke="#63b8ff" d="M676.88,-165.35C690.63,-156.58 711.82,-142.74 729.5,-129.75 750.45,-114.35 773.47,-95.51 789.22,-82.29"/>
<polygon fill="#63b8ff" stroke="#63b8ff" points="791.47,-84.98 796.86,-75.85 786.96,-79.63 791.47,-84.98"/>
</a>
</g>
</g>
<!-- Node5 -->
<g id="Node000005" class="node">
<title>Node5</title>
<g id="a_Node000005"><a xlink:title=" ">
<polygon fill="#e0e0e0" stroke="#999999" points="1033.12,-19.25 987.88,-19.25 987.88,0 1033.12,0 1033.12,-19.25"/>
<text text-anchor="middle" x="1010.5" y="-5.75" font-family="Helvetica,sans-Serif" font-size="10.00">atomic</text>
</a>
</g>
</g>
<!-- Node2&#45;&gt;Node5 -->
<g id="edge20_Node000002_Node000005" class="edge">
<title>Node2&#45;&gt;Node5</title>
<g id="a_edge20_Node000002_Node000005"><a xlink:title=" ">
<path fill="none" stroke="#63b8ff" d="M733.73,-167.99C840.91,-158.12 1032.48,-139.27 1044.5,-129.75 1071.37,-108.46 1079.11,-86.27 1064.5,-55.25 1058.79,-43.12 1047.98,-33.16 1037.53,-25.75"/>
<polygon fill="#63b8ff" stroke="#63b8ff" points="1039.74,-23.02 1029.45,-20.5 1035.93,-28.89 1039.74,-23.02"/>
</a>
</g>
</g>
<!-- Node11 -->
<g id="Node000011" class="node">
<title>Node11</title>
<g id="a_Node000011"><a xlink:title=" ">
<polygon fill="#e0e0e0" stroke="#999999" points="643,-19.25 600,-19.25 600,0 643,0 643,-19.25"/>
<text text-anchor="middle" x="621.5" y="-5.75" font-family="Helvetica,sans-Serif" font-size="10.00">vector</text>
</a>
</g>
</g>
<!-- Node2&#45;&gt;Node11 -->
<g id="edge28_Node000002_Node000011" class="edge">
<title>Node2&#45;&gt;Node11</title>
<g id="a_edge28_Node000002_Node000011"><a xlink:title=" ">
<path fill="none" stroke="#63b8ff" d="M672.86,-165.54C685.72,-153.46 704.96,-130.93 696.5,-110.5 687.84,-89.59 674.49,-92.28 660.5,-74.5 649.33,-60.3 638.78,-42.68 631.48,-29.54"/>
<polygon fill="#63b8ff" stroke="#63b8ff" points="634.73,-28.2 626.89,-21.07 628.58,-31.53 634.73,-28.2"/>
</a>
</g>
</g>
<!-- Node2&#45;&gt;Node12 -->
<g id="edge11_Node000002_Node000012" class="edge">
<title>Node2&#45;&gt;Node12</title>
<g id="a_edge11_Node000002_Node000012"><a xlink:title=" ">
<path fill="none" stroke="#63b8ff" d="M711.85,-165.28C761.42,-156.15 837.87,-142.06 891.04,-132.26"/>
<polygon fill="#63b8ff" stroke="#63b8ff" points="891.66,-135.71 900.86,-130.46 890.39,-128.83 891.66,-135.71"/>
</a>
</g>
</g>
<!-- Node14 -->
<g id="Node000014" class="node">
<title>Node14</title>
<g id="a_Node000014"><a xlink:title=" ">
<polygon fill="#e0e0e0" stroke="#999999" points="1055.75,-74.5 1005.25,-74.5 1005.25,-55.25 1055.75,-55.25 1055.75,-74.5"/>
<text text-anchor="middle" x="1030.5" y="-61" font-family="Helvetica,sans-Serif" font-size="10.00">memory</text>
</a>
</g>
</g>
<!-- Node2&#45;&gt;Node14 -->
<g id="edge21_Node000002_Node000014" class="edge">
<title>Node2&#45;&gt;Node14</title>
<g id="a_edge21_Node000002_Node000014"><a xlink:title=" ">
<path fill="none" stroke="#63b8ff" d="M733.67,-167.99C836.78,-158.4 1016.57,-140.29 1026.5,-129.75 1037.34,-118.24 1037.37,-99.79 1035.25,-85.67"/>
<polygon fill="#63b8ff" stroke="#63b8ff" points="1038.74,-85.27 1033.35,-76.14 1031.87,-86.64 1038.74,-85.27"/>
</a>
</g>
</g>
<!-- Node15 -->
<g id="Node000015" class="node">
<title>Node15</title>
<g id="a_Node000015"><a xlink:href="Logger_8hpp.html" target="_top" xlink:title="Defines logging functions and macros for the SAT solver.">
<polygon fill="white" stroke="#666666" points="867,-129.75 782,-129.75 782,-110.5 867,-110.5 867,-129.75"/>
<text text-anchor="middle" x="824.5" y="-116.25" font-family="Helvetica,sans-Serif" font-size="10.00">utils/Logger.hpp</text>
</a>
</g>
</g>
<!-- Node2&#45;&gt;Node15 -->
<g id="edge16_Node000002_Node000015" class="edge">
<title>Node2&#45;&gt;Node15</title>
<g id="a_edge16_Node000002_Node000015"><a xlink:title=" ">
<path fill="none" stroke="#63b8ff" d="M689.98,-165.34C716.4,-156.66 756.56,-143.46 786.12,-133.74"/>
<polygon fill="#63b8ff" stroke="#63b8ff" points="787.04,-137.12 795.45,-130.68 784.85,-130.47 787.04,-137.12"/>
</a>
</g>
</g>
<!-- Node16 -->
<g id="Node000016" class="node">
<title>Node16</title>
<g id="a_Node000016"><a xlink:title=" ">
<polygon fill="#e0e0e0" stroke="#999999" points="417.62,-129.75 369.38,-129.75 369.38,-110.5 417.62,-110.5 417.62,-129.75"/>
<text text-anchor="middle" x="393.5" y="-116.25" font-family="Helvetica,sans-Serif" font-size="10.00">random</text>
</a>
</g>
</g>
<!-- Node2&#45;&gt;Node16 -->
<g id="edge22_Node000002_Node000016" class="edge">
<title>Node2&#45;&gt;Node16</title>
<g id="a_edge22_Node000002_Node000016"><a xlink:title=" ">
<path fill="none" stroke="#63b8ff" d="M608.86,-165.32C563.41,-157.4 496.28,-145.13 429.17,-130.23"/>
<polygon fill="#63b8ff" stroke="#63b8ff" points="429.96,-126.82 419.44,-128.05 428.43,-133.65 429.96,-126.82"/>
</a>
</g>
</g>
<!-- Node17 -->
<g id="Node000017" class="node">
<title>Node17</title>
<g id="a_Node000017"><a xlink:title=" ">
<polygon fill="#e0e0e0" stroke="#999999" points="479.75,-129.75 435.25,-129.75 435.25,-110.5 479.75,-110.5 479.75,-129.75"/>
<text text-anchor="middle" x="457.5" y="-116.25" font-family="Helvetica,sans-Serif" font-size="10.00">stdio.h</text>
</a>
</g>
</g>
<!-- Node2&#45;&gt;Node17 -->
<g id="edge23_Node000002_Node000017" class="edge">
<title>Node2&#45;&gt;Node17</title>
<g id="a_edge23_Node000002_Node000017"><a xlink:title=" ">
<path fill="none" stroke="#63b8ff" d="M626.69,-165.26C593.94,-156.89 543.87,-144.04 491.15,-130.16"/>
<polygon fill="#63b8ff" stroke="#63b8ff" points="492.24,-126.83 481.68,-127.67 490.46,-133.6 492.24,-126.83"/>
</a>
</g>
</g>
<!-- Node18 -->
<g id="Node000018" class="node">
<title>Node18</title>
<g id="a_Node000018"><a xlink:title=" ">
<polygon fill="#e0e0e0" stroke="#999999" points="544.88,-129.75 498.12,-129.75 498.12,-110.5 544.88,-110.5 544.88,-129.75"/>
<text text-anchor="middle" x="521.5" y="-116.25" font-family="Helvetica,sans-Serif" font-size="10.00">stdlib.h</text>
</a>
</g>
</g>
<!-- Node2&#45;&gt;Node18 -->
<g id="edge24_Node000002_Node000018" class="edge">
<title>Node2&#45;&gt;Node18</title>
<g id="a_edge24_Node000002_Node000018"><a xlink:title=" ">
<path fill="none" stroke="#63b8ff" d="M638.58,-165.34C615.86,-156.76 581.45,-143.77 555.81,-134.08"/>
<polygon fill="#63b8ff" stroke="#63b8ff" points="557.07,-130.82 546.48,-130.56 554.6,-137.37 557.07,-130.82"/>
</a>
</g>
</g>
<!-- Node19 -->
<g id="Node000019" class="node">
<title>Node19</title>
<g id="a_Node000019"><a xlink:title=" ">
<polygon fill="#e0e0e0" stroke="#999999" points="619.75,-129.75 563.25,-129.75 563.25,-110.5 619.75,-110.5 619.75,-129.75"/>
<text text-anchor="middle" x="591.5" y="-116.25" font-family="Helvetica,sans-Serif" font-size="10.00">typeindex</text>
</a>
</g>
</g>
<!-- Node2&#45;&gt;Node19 -->
<g id="edge25_Node000002_Node000019" class="edge">
<title>Node2&#45;&gt;Node19</title>
<g id="a_edge25_Node000002_Node000019"><a xlink:title=" ">
<path fill="none" stroke="#63b8ff" d="M650.46,-165.34C640.09,-157.57 624.9,-146.17 612.53,-136.9"/>
<polygon fill="#63b8ff" stroke="#63b8ff" points="614.68,-134.13 604.58,-130.93 610.48,-139.73 614.68,-134.13"/>
</a>
</g>
</g>
<!-- Node20 -->
<g id="Node000020" class="node">
<title>Node20</title>
<g id="a_Node000020"><a xlink:title=" ">
<polygon fill="#e0e0e0" stroke="#999999" points="687.38,-129.75 637.62,-129.75 637.62,-110.5 687.38,-110.5 687.38,-129.75"/>
<text text-anchor="middle" x="662.5" y="-116.25" font-family="Helvetica,sans-Serif" font-size="10.00">typeinfo</text>
</a>
</g>
</g>
<!-- Node2&#45;&gt;Node20 -->
<g id="edge26_Node000002_Node000020" class="edge">
<title>Node2&#45;&gt;Node20</title>
<g id="a_edge26_Node000002_Node000020"><a xlink:title=" ">
<path fill="none" stroke="#63b8ff" d="M662.5,-165.58C662.5,-159.07 662.5,-149.92 662.5,-141.62"/>
<polygon fill="#63b8ff" stroke="#63b8ff" points="666,-141.62 662.5,-131.62 659,-141.62 666,-141.62"/>
</a>
</g>
</g>
<!-- Node21 -->
<g id="Node000021" class="node">
<title>Node21</title>
<g id="a_Node000021"><a xlink:title=" ">
<polygon fill="#e0e0e0" stroke="#999999" points="381.88,-19.25 299.12,-19.25 299.12,0 381.88,0 381.88,-19.25"/>
<text text-anchor="middle" x="340.5" y="-5.75" font-family="Helvetica,sans-Serif" font-size="10.00">unordered_map</text>
</a>
</g>
</g>
<!-- Node2&#45;&gt;Node21 -->
<g id="edge27_Node000002_Node000021" class="edge">
<title>Node2&#45;&gt;Node21</title>
<g id="a_edge27_Node000002_Node000021"><a xlink:title=" ">
<path fill="none" stroke="#63b8ff" d="M591.25,-173.23C512.41,-170.4 392.29,-160.92 360.5,-129.75 334.25,-104.01 334.57,-57.66 337.38,-31"/>
<polygon fill="#63b8ff" stroke="#63b8ff" points="340.84,-31.54 338.66,-21.17 333.9,-30.63 340.84,-31.54"/>
</a>
</g>
</g>
<!-- Node3&#45;&gt;Node4 -->
<g id="edge3_Node000003_Node000004" class="edge">
<title>Node3&#45;&gt;Node4</title>
<g id="a_edge3_Node000003_Node000004"><a xlink:title=" ">
<path fill="none" stroke="#63b8ff" d="M741.88,-54.79C676.75,-45.87 574.78,-31.82 486.5,-19.25 480.22,-18.36 473.57,-17.4 467.09,-16.45"/>
<polygon fill="#63b8ff" stroke="#63b8ff" points="467.6,-12.99 457.2,-15.01 466.59,-19.92 467.6,-12.99"/>
</a>
</g>
</g>
<!-- Node3&#45;&gt;Node5 -->
<g id="edge4_Node000003_Node000005" class="edge">
<title>Node3&#45;&gt;Node5</title>
<g id="a_edge4_Node000003_Node000005"><a xlink:title=" ">
<path fill="none" stroke="#63b8ff" d="M843.91,-54.81C876.23,-46.5 925.59,-33.71 976.59,-20.01"/>
<polygon fill="#63b8ff" stroke="#63b8ff" points="977.28,-23.45 986.03,-17.47 975.46,-16.69 977.28,-23.45"/>
</a>
</g>
</g>
<!-- Node6 -->
<g id="Node000006" class="node">
<title>Node6</title>
<g id="a_Node000006"><a xlink:title=" ">
<polygon fill="#e0e0e0" stroke="#999999" points="775.62,-19.25 661.38,-19.25 661.38,0 775.62,0 775.62,-19.25"/>
<text text-anchor="middle" x="718.5" y="-5.75" font-family="Helvetica,sans-Serif" font-size="10.00">boost/intrusive_ptr.hpp</text>
</a>
</g>
</g>
<!-- Node3&#45;&gt;Node6 -->
<g id="edge5_Node000003_Node000006" class="edge">
<title>Node3&#45;&gt;Node6</title>
<g id="a_edge5_Node000003_Node000006"><a xlink:title=" ">
<path fill="none" stroke="#63b8ff" d="M793.23,-54.84C779.66,-46.81 759.55,-34.91 743.6,-25.48"/>
<polygon fill="#63b8ff" stroke="#63b8ff" points="745.53,-22.55 735.14,-20.47 741.97,-28.58 745.53,-22.55"/>
</a>
</g>
</g>
<!-- Node7 -->
<g id="Node000007" class="node">
<title>Node7</title>
<g id="a_Node000007"><a xlink:title=" ">
<polygon fill="#e0e0e0" stroke="#999999" points="837.75,-19.25 793.25,-19.25 793.25,0 837.75,0 837.75,-19.25"/>
<text text-anchor="middle" x="815.5" y="-5.75" font-family="Helvetica,sans-Serif" font-size="10.00">cstdlib</text>
</a>
</g>
</g>
<!-- Node3&#45;&gt;Node7 -->
<g id="edge6_Node000003_Node000007" class="edge">
<title>Node3&#45;&gt;Node7</title>
<g id="a_edge6_Node000003_Node000007"><a xlink:title=" ">
<path fill="none" stroke="#63b8ff" d="M809.66,-55.08C810.52,-48.49 811.74,-39.21 812.84,-30.82"/>
<polygon fill="#63b8ff" stroke="#63b8ff" points="816.29,-31.48 814.12,-21.11 809.35,-30.57 816.29,-31.48"/>
</a>
</g>
</g>
<!-- Node8 -->
<g id="Node000008" class="node">
<title>Node8</title>
<g id="a_Node000008"><a xlink:title=" ">
<polygon fill="#e0e0e0" stroke="#999999" points="901.12,-19.25 855.88,-19.25 855.88,0 901.12,0 901.12,-19.25"/>
<text text-anchor="middle" x="878.5" y="-5.75" font-family="Helvetica,sans-Serif" font-size="10.00">cstring</text>
</a>
</g>
</g>
<!-- Node3&#45;&gt;Node8 -->
<g id="edge7_Node000003_Node000008" class="edge">
<title>Node3&#45;&gt;Node8</title>
<g id="a_edge7_Node000003_Node000008"><a xlink:title=" ">
<path fill="none" stroke="#63b8ff" d="M820.37,-54.84C830.59,-47.07 845.57,-35.67 857.76,-26.4"/>
<polygon fill="#63b8ff" stroke="#63b8ff" points="859.76,-29.28 865.6,-20.44 855.52,-23.71 859.76,-29.28"/>
</a>
</g>
</g>
<!-- Node9 -->
<g id="Node000009" class="node">
<title>Node9</title>
<g id="a_Node000009"><a xlink:title=" ">
<polygon fill="#e0e0e0" stroke="#999999" points="970.12,-19.25 918.88,-19.25 918.88,0 970.12,0 970.12,-19.25"/>
<text text-anchor="middle" x="944.5" y="-5.75" font-family="Helvetica,sans-Serif" font-size="10.00">sstream</text>
</a>
</g>
</g>
<!-- Node3&#45;&gt;Node9 -->
<g id="edge8_Node000003_Node000009" class="edge">
<title>Node3&#45;&gt;Node9</title>
<g id="a_edge8_Node000003_Node000009"><a xlink:title=" ">
<path fill="none" stroke="#63b8ff" d="M831.57,-54.84C853.26,-46.35 885.98,-33.54 910.63,-23.89"/>
<polygon fill="#63b8ff" stroke="#63b8ff" points="911.87,-27.16 919.91,-20.25 909.32,-20.64 911.87,-27.16"/>
</a>
</g>
</g>
<!-- Node10 -->
<g id="Node000010" class="node">
<title>Node10</title>
<g id="a_Node000010"><a xlink:title=" ">
<polygon fill="#e0e0e0" stroke="#999999" points="553.5,-19.25 495.5,-19.25 495.5,0 553.5,0 553.5,-19.25"/>
<text text-anchor="middle" x="524.5" y="-5.75" font-family="Helvetica,sans-Serif" font-size="10.00">stdexcept</text>
</a>
</g>
</g>
<!-- Node3&#45;&gt;Node10 -->
<g id="edge9_Node000003_Node000010" class="edge">
<title>Node3&#45;&gt;Node10</title>
<g id="a_edge9_Node000003_Node000010"><a xlink:title=" ">
<path fill="none" stroke="#63b8ff" d="M760,-54.78C705.03,-44.47 616.41,-27.86 564.99,-18.22"/>
<polygon fill="#63b8ff" stroke="#63b8ff" points="565.65,-14.78 555.18,-16.38 564.36,-21.66 565.65,-14.78"/>
</a>
</g>
</g>
<!-- Node3&#45;&gt;Node11 -->
<g id="edge10_Node000003_Node000011" class="edge">
<title>Node3&#45;&gt;Node11</title>
<g id="a_edge10_Node000003_Node000011"><a xlink:title=" ">
<path fill="none" stroke="#63b8ff" d="M776.78,-54.84C742.7,-45.14 688.81,-29.79 654.31,-19.97"/>
<polygon fill="#63b8ff" stroke="#63b8ff" points="655.45,-16.65 644.87,-17.28 653.53,-23.38 655.45,-16.65"/>
</a>
</g>
</g>
<!-- Node12&#45;&gt;Node3 -->
<g id="edge12_Node000012_Node000003" class="edge">
<title>Node12&#45;&gt;Node3</title>
<g id="a_edge12_Node000012_Node000003"><a xlink:title=" ">
<path fill="none" stroke="#63b8ff" d="M927.24,-110.09C904.23,-101.52 869.41,-88.56 843.42,-78.88"/>
<polygon fill="#63b8ff" stroke="#63b8ff" points="844.89,-75.69 834.3,-75.48 842.45,-82.25 844.89,-75.69"/>
</a>
</g>
</g>
<!-- Node12&#45;&gt;Node11 -->
<g id="edge15_Node000012_Node000011" class="edge">
<title>Node12&#45;&gt;Node11</title>
<g id="a_edge15_Node000012_Node000011"><a xlink:title=" ">
<path fill="none" stroke="#63b8ff" d="M891.48,-110.01C834.28,-100.86 752.57,-86.45 722.5,-74.5 714.25,-71.22 671.89,-43.78 644.72,-25.95"/>
<polygon fill="#63b8ff" stroke="#63b8ff" points="646.69,-23.06 636.41,-20.49 642.85,-28.91 646.69,-23.06"/>
</a>
</g>
</g>
<!-- Node13 -->
<g id="Node000013" class="node">
<title>Node13</title>
<g id="a_Node000013"><a xlink:title=" ">
<polygon fill="#e0e0e0" stroke="#999999" points="987.12,-74.5 941.88,-74.5 941.88,-55.25 987.12,-55.25 987.12,-74.5"/>
<text text-anchor="middle" x="964.5" y="-61" font-family="Helvetica,sans-Serif" font-size="10.00">cstdint</text>
</a>
</g>
</g>
<!-- Node12&#45;&gt;Node13 -->
<g id="edge13_Node000012_Node000013" class="edge">
<title>Node12&#45;&gt;Node13</title>
<g id="a_edge13_Node000012_Node000013"><a xlink:title=" ">
<path fill="none" stroke="#63b8ff" d="M953.65,-110.33C955.27,-103.67 957.58,-94.24 959.64,-85.78"/>
<polygon fill="#63b8ff" stroke="#63b8ff" points="962.98,-86.87 961.95,-76.33 956.18,-85.21 962.98,-86.87"/>
</a>
</g>
</g>
<!-- Node12&#45;&gt;Node14 -->
<g id="edge14_Node000012_Node000014" class="edge">
<title>Node12&#45;&gt;Node14</title>
<g id="a_edge14_Node000012_Node000014"><a xlink:title=" ">
<path fill="none" stroke="#63b8ff" d="M964.9,-110.09C976.59,-102.21 993.8,-90.61 1007.66,-81.27"/>
<polygon fill="#63b8ff" stroke="#63b8ff" points="1009.44,-84.29 1015.78,-75.8 1005.53,-78.49 1009.44,-84.29"/>
</a>
</g>
</g>
<!-- Node15&#45;&gt;Node5 -->
<g id="edge17_Node000015_Node000005" class="edge">
<title>Node15&#45;&gt;Node5</title>
<g id="a_edge17_Node000015_Node000005"><a xlink:title=" ">
<path fill="none" stroke="#63b8ff" d="M839.49,-110.17C860.3,-97.75 899.17,-74.64 932.5,-55.25 949.92,-45.12 969.62,-33.85 984.87,-25.17"/>
<polygon fill="#63b8ff" stroke="#63b8ff" points="986.35,-28.35 993.31,-20.37 982.89,-22.27 986.35,-28.35"/>
</a>
</g>
</g>
<!-- Node15&#45;&gt;Node11 -->
<g id="edge19_Node000015_Node000011" class="edge">
<title>Node15&#45;&gt;Node11</title>
<g id="a_edge19_Node000015_Node000011"><a xlink:title=" ">
<path fill="none" stroke="#63b8ff" d="M781.73,-110.06C754.12,-103.02 718.14,-91.54 689.5,-74.5 668.49,-62 648.62,-42.04 635.84,-27.75"/>
<polygon fill="#63b8ff" stroke="#63b8ff" points="638.72,-25.73 629.52,-20.47 633.43,-30.32 638.72,-25.73"/>
</a>
</g>
</g>
<!-- Node15&#45;&gt;Node14 -->
<g id="edge18_Node000015_Node000014" class="edge">
<title>Node15&#45;&gt;Node14</title>
<g id="a_edge18_Node000015_Node000014"><a xlink:title=" ">
<path fill="none" stroke="#63b8ff" d="M859.45,-110.09C896.79,-100.44 955.74,-85.2 993.76,-75.37"/>
<polygon fill="#63b8ff" stroke="#63b8ff" points="994.57,-78.78 1003.38,-72.89 992.82,-72 994.57,-78.78"/>
</a>
</g>
</g>
<!-- Node23 -->
<g id="Node000023" class="node">
<title>Node23</title>
<g id="a_Node000023"><a xlink:href="vector2D_8hpp_source.html" target="_top" xlink:title=" ">
<polygon fill="white" stroke="#666666" points="218,-74.5 145,-74.5 145,-55.25 218,-55.25 218,-74.5"/>
<text text-anchor="middle" x="181.5" y="-61" font-family="Helvetica,sans-Serif" font-size="10.00">vector2D.hpp</text>
</a>
</g>
</g>
<!-- Node22&#45;&gt;Node23 -->
<g id="edge31_Node000022_Node000023" class="edge">
<title>Node22&#45;&gt;Node23</title>
<g id="a_edge31_Node000022_Node000023"><a xlink:title=" ">
<path fill="none" stroke="#63b8ff" d="M210.72,-110.33C206.09,-103.28 199.43,-93.15 193.63,-84.33"/>
<polygon fill="#63b8ff" stroke="#63b8ff" points="196.65,-82.56 188.24,-76.12 190.8,-86.4 196.65,-82.56"/>
</a>
</g>
</g>
<!-- Node28 -->
<g id="Node000028" class="node">
<title>Node28</title>
<g id="a_Node000028"><a xlink:title=" ">
<polygon fill="#e0e0e0" stroke="#999999" points="313.25,-74.5 235.75,-74.5 235.75,-55.25 313.25,-55.25 313.25,-74.5"/>
<text text-anchor="middle" x="274.5" y="-61" font-family="Helvetica,sans-Serif" font-size="10.00">unordered_set</text>
</a>
</g>
</g>
<!-- Node22&#45;&gt;Node28 -->
<g id="edge40_Node000022_Node000028" class="edge">
<title>Node22&#45;&gt;Node28</title>
<g id="a_edge40_Node000022_Node000028"><a xlink:title=" ">
<path fill="none" stroke="#63b8ff" d="M226.34,-110.09C234.55,-102.55 246.48,-91.6 256.41,-82.48"/>
<polygon fill="#63b8ff" stroke="#63b8ff" points="258.69,-85.14 263.69,-75.8 253.96,-79.98 258.69,-85.14"/>
</a>
</g>
</g>
<!-- Node23&#45;&gt;Node4 -->
<g id="edge32_Node000023_Node000004" class="edge">
<title>Node23&#45;&gt;Node4</title>
<g id="a_edge32_Node000023_Node000004"><a xlink:title=" ">
<path fill="none" stroke="#63b8ff" d="M218.17,-56.26C257.73,-48 322.88,-34.26 388.31,-19.71"/>
<polygon fill="#63b8ff" stroke="#63b8ff" points="388.76,-23.19 397.75,-17.6 387.23,-16.36 388.76,-23.19"/>
</a>
</g>
</g>
<!-- Node23&#45;&gt;Node10 -->
<g id="edge36_Node000023_Node000010" class="edge">
<title>Node23&#45;&gt;Node10</title>
<g id="a_edge36_Node000023_Node000010"><a xlink:title=" ">
<path fill="none" stroke="#63b8ff" d="M218.31,-56.69C221.08,-56.19 223.83,-55.7 226.5,-55.25 275.25,-46.93 414.53,-26.56 484.03,-16.48"/>
<polygon fill="#63b8ff" stroke="#63b8ff" points="484.47,-19.95 493.86,-15.05 483.47,-13.02 484.47,-19.95"/>
</a>
</g>
</g>
<!-- Node23&#45;&gt;Node11 -->
<g id="edge39_Node000023_Node000011" class="edge">
<title>Node23&#45;&gt;Node11</title>
<g id="a_edge39_Node000023_Node000011"><a xlink:title=" ">
<path fill="none" stroke="#63b8ff" d="M218.29,-56.57C221.07,-56.09 223.82,-55.65 226.5,-55.25 375.05,-33.1 413.5,-38.12 562.5,-19.25 570.88,-18.19 579.9,-16.93 588.32,-15.7"/>
<polygon fill="#63b8ff" stroke="#63b8ff" points="588.8,-19.17 598.18,-14.24 587.77,-12.25 588.8,-19.17"/>
</a>
</g>
</g>
<!-- Node23&#45;&gt;Node21 -->
<g id="edge38_Node000023_Node000021" class="edge">
<title>Node23&#45;&gt;Node21</title>
<g id="a_edge38_Node000023_Node000021"><a xlink:title=" ">
<path fill="none" stroke="#63b8ff" d="M208.47,-54.84C234.4,-46.16 273.81,-32.96 302.83,-23.24"/>
<polygon fill="#63b8ff" stroke="#63b8ff" points="303.59,-26.68 311.96,-20.18 301.37,-20.04 303.59,-26.68"/>
</a>
</g>
</g>
<!-- Node24 -->
<g id="Node000024" class="node">
<title>Node24</title>
<g id="a_Node000024"><a xlink:title=" ">
<polygon fill="#e0e0e0" stroke="#999999" points="127.62,-19.25 79.38,-19.25 79.38,0 127.62,0 127.62,-19.25"/>
<text text-anchor="middle" x="103.5" y="-5.75" font-family="Helvetica,sans-Serif" font-size="10.00">cassert</text>
</a>
</g>
</g>
<!-- Node23&#45;&gt;Node24 -->
<g id="edge33_Node000023_Node000024" class="edge">
<title>Node23&#45;&gt;Node24</title>
<g id="a_edge33_Node000023_Node000024"><a xlink:title=" ">
<path fill="none" stroke="#63b8ff" d="M168.27,-54.84C156.73,-46.96 139.73,-35.36 126.05,-26.02"/>
<polygon fill="#63b8ff" stroke="#63b8ff" points="128.28,-23.3 118.05,-20.56 124.33,-29.08 128.28,-23.3"/>
</a>
</g>
</g>
<!-- Node25 -->
<g id="Node000025" class="node">
<title>Node25</title>
<g id="a_Node000025"><a xlink:title=" ">
<polygon fill="#e0e0e0" stroke="#999999" points="217.25,-19.25 145.75,-19.25 145.75,0 217.25,0 217.25,-19.25"/>
<text text-anchor="middle" x="181.5" y="-5.75" font-family="Helvetica,sans-Serif" font-size="10.00">initializer_list</text>
</a>
</g>
</g>
<!-- Node23&#45;&gt;Node25 -->
<g id="edge34_Node000023_Node000025" class="edge">
<title>Node23&#45;&gt;Node25</title>
<g id="a_edge34_Node000023_Node000025"><a xlink:title=" ">
<path fill="none" stroke="#63b8ff" d="M181.5,-55.08C181.5,-48.57 181.5,-39.42 181.5,-31.12"/>
<polygon fill="#63b8ff" stroke="#63b8ff" points="185,-31.12 181.5,-21.12 178,-31.12 185,-31.12"/>
</a>
</g>
</g>
<!-- Node26 -->
<g id="Node000026" class="node">
<title>Node26</title>
<g id="a_Node000026"><a xlink:title=" ">
<polygon fill="#e0e0e0" stroke="#999999" points="281.5,-19.25 235.5,-19.25 235.5,0 281.5,0 281.5,-19.25"/>
<text text-anchor="middle" x="258.5" y="-5.75" font-family="Helvetica,sans-Serif" font-size="10.00">iterator</text>
</a>
</g>
</g>
<!-- Node23&#45;&gt;Node26 -->
<g id="edge35_Node000023_Node000026" class="edge">
<title>Node23&#45;&gt;Node26</title>
<g id="a_edge35_Node000023_Node000026"><a xlink:title=" ">
<path fill="none" stroke="#63b8ff" d="M194.56,-54.84C205.96,-46.96 222.73,-35.36 236.24,-26.02"/>
<polygon fill="#63b8ff" stroke="#63b8ff" points="237.9,-29.13 244.13,-20.56 233.91,-23.37 237.9,-29.13"/>
</a>
</g>
</g>
<!-- Node27 -->
<g id="Node000027" class="node">
<title>Node27</title>
<g id="a_Node000027"><a xlink:title=" ">
<polygon fill="#e0e0e0" stroke="#999999" points="61,-19.25 0,-19.25 0,0 61,0 61,-19.25"/>
<text text-anchor="middle" x="30.5" y="-5.75" font-family="Helvetica,sans-Serif" font-size="10.00">type_traits</text>
</a>
</g>
</g>
<!-- Node23&#45;&gt;Node27 -->
<g id="edge37_Node000023_Node000027" class="edge">
<title>Node23&#45;&gt;Node27</title>
<g id="a_edge37_Node000023_Node000027"><a xlink:title=" ">
<path fill="none" stroke="#63b8ff" d="M155.88,-54.84C131.48,-46.24 94.49,-33.19 67,-23.5"/>
<polygon fill="#63b8ff" stroke="#63b8ff" points="68.26,-20.23 57.67,-20.21 65.93,-26.83 68.26,-20.23"/>
</a>
</g>
</g>
</g>
</svg>
