<?xml version="1.0" encoding="UTF-8" standalone="no"?>
<!DOCTYPE svg PUBLIC "-//W3C//DTD SVG 1.1//EN"
 "http://www.w3.org/Graphics/SVG/1.1/DTD/svg11.dtd">
<!-- Generated by graphviz version 12.1.2 (20240928.0832)
 -->
<!-- Title: PairCompare Pages: 1 -->
<svg width="88pt" height="87pt"
 viewBox="0.00 0.00 88.00 87.00" xmlns="http://www.w3.org/2000/svg" xmlns:xlink="http://www.w3.org/1999/xlink">
<g id="graph0" class="graph" transform="scale(1 1) rotate(0) translate(4 83)">
<title>PairCompare</title>
<!-- Node1 -->
<g id="Node000001" class="node">
<title>Node1</title>
<g id="a_Node000001"><a xlink:title="Functor for the priority queue used in solve()">
<polygon fill="#999999" stroke="none" points="80,-79 0,-79 0,0 80,0 80,-79"/>
<text text-anchor="start" x="11.88" y="-65.5" font-family="Helvetica,sans-Serif" font-size="10.00">PairCompare</text>
<text text-anchor="start" x="4" y="-50.5" font-family="Helvetica,sans-Serif" font-size="10.00">+</text>
<text text-anchor="start" x="14" y="-50.5" font-family="Helvetica,sans-Serif" font-size="10.00">func</text>
<text text-anchor="start" x="4" y="-35.5" font-family="Helvetica,sans-Serif" font-size="10.00">+</text>
<text text-anchor="start" x="14" y="-35.5" font-family="Helvetica,sans-Serif" font-size="10.00">PairCompare()</text>
<text text-anchor="start" x="4" y="-20.5" font-family="Helvetica,sans-Serif" font-size="10.00">+</text>
<text text-anchor="start" x="14" y="-20.5" font-family="Helvetica,sans-Serif" font-size="10.00">PairCompare()</text>
<text text-anchor="start" x="4" y="-5.5" font-family="Helvetica,sans-Serif" font-size="10.00">+</text>
<text text-anchor="start" x="14" y="-5.5" font-family="Helvetica,sans-Serif" font-size="10.00">operator()()</text>
<polygon fill="#666666" stroke="#666666" points="0,-62 0,-62 80,-62 80,-62 0,-62"/>
<polygon fill="#666666" stroke="#666666" points="0,-47 0,-47 12,-47 12,-47 0,-47"/>
<polygon fill="#666666" stroke="#666666" points="12,-47 12,-47 80,-47 80,-47 12,-47"/>
<polygon fill="none" stroke="#666666" points="0,0 0,-79 80,-79 80,0 0,0"/>
</a>
</g>
</g>
</g>
</svg>
