<?xml version="1.0" encoding="UTF-8" standalone="no"?>
<!DOCTYPE svg PUBLIC "-//W3C//DTD SVG 1.1//EN"
 "http://www.w3.org/Graphics/SVG/1.1/DTD/svg11.dtd">
<!-- Generated by graphviz version 12.1.2 (20240928.0832)
 -->
<!-- Title: Parameters Pages: 1 -->
<svg width="84pt" height="87pt"
 viewBox="0.00 0.00 84.00 87.00" xmlns="http://www.w3.org/2000/svg" xmlns:xlink="http://www.w3.org/1999/xlink">
<g id="graph0" class="graph" transform="scale(1 1) rotate(0) translate(4 83)">
<title>Parameters</title>
<!-- Node1 -->
<g id="Node000001" class="node">
<title>Node1</title>
<g id="a_Node000001"><a xlink:title=" ">
<polygon fill="#999999" stroke="none" points="76,-79 0,-79 0,0 76,0 76,-79"/>
<text text-anchor="start" x="12.88" y="-65.5" font-family="Helvetica,sans-Serif" font-size="10.00">Parameters</text>
<text text-anchor="start" x="36.5" y="-50.5" font-family="Helvetica,sans-Serif" font-size="10.00"> </text>
<text text-anchor="start" x="4" y="-35.5" font-family="Helvetica,sans-Serif" font-size="10.00">+</text>
<text text-anchor="start" x="14" y="-35.5" font-family="Helvetica,sans-Serif" font-size="10.00">init()</text>
<text text-anchor="start" x="4" y="-20.5" font-family="Helvetica,sans-Serif" font-size="10.00">+</text>
<text text-anchor="start" x="14" y="-20.5" font-family="Helvetica,sans-Serif" font-size="10.00">printHelp()</text>
<text text-anchor="start" x="4" y="-5.5" font-family="Helvetica,sans-Serif" font-size="10.00">+</text>
<text text-anchor="start" x="14" y="-5.5" font-family="Helvetica,sans-Serif" font-size="10.00">printParams()</text>
<polygon fill="#666666" stroke="#666666" points="0,-62 0,-62 76,-62 76,-62 0,-62"/>
<polygon fill="#666666" stroke="#666666" points="0,-47 0,-47 76,-47 76,-47 0,-47"/>
<polygon fill="none" stroke="#666666" points="0,0 0,-79 76,-79 76,0 0,0"/>
</a>
</g>
</g>
</g>
</svg>
