<?xml version="1.0" encoding="UTF-8" standalone="no"?>
<!DOCTYPE svg PUBLIC "-//W3C//DTD SVG 1.1//EN"
 "http://www.w3.org/Graphics/SVG/1.1/DTD/svg11.dtd">
<!-- Generated by graphviz version 12.1.2 (20240928.0832)
 -->
<!-- Title: HashNode Pages: 1 -->
<svg width="108pt" height="168pt"
 viewBox="0.00 0.00 108.25 168.25" xmlns="http://www.w3.org/2000/svg" xmlns:xlink="http://www.w3.org/1999/xlink">
<g id="graph0" class="graph" transform="scale(1 1) rotate(0) translate(4 164.25)">
<title>HashNode</title>
<!-- Node1 -->
<g id="Node000001" class="node">
<title>Node1</title>
<g id="a_Node000001"><a xlink:title=" ">
<polygon fill="#999999" stroke="none" points="56,-49 0,-49 0,0 56,0 56,-49"/>
<text text-anchor="start" x="4.75" y="-35.5" font-family="Helvetica,sans-Serif" font-size="10.00">HashNode</text>
<text text-anchor="start" x="26.5" y="-20.5" font-family="Helvetica,sans-Serif" font-size="10.00"> </text>
<text text-anchor="start" x="26.5" y="-5.5" font-family="Helvetica,sans-Serif" font-size="10.00"> </text>
<polygon fill="#666666" stroke="#666666" points="0,-32 0,-32 56,-32 56,-32 0,-32"/>
<polygon fill="#666666" stroke="#666666" points="0,-17 0,-17 56,-17 56,-17 0,-17"/>
<polygon fill="none" stroke="#666666" points="0,0 0,-49 56,-49 56,0 0,0"/>
</a>
</g>
</g>
<!-- Node1&#45;&gt;Node1 -->
<g id="edge2_Node000001_Node000001" class="edge">
<title>Node1&#45;&gt;Node1</title>
<g id="a_edge2_Node000001_Node000001"><a xlink:title=" ">
<path fill="none" stroke="#63b8ff" d="M55.85,-33.51C65.85,-33.71 74,-30.7 74,-24.5 74,-21.4 71.96,-19.1 68.67,-17.59"/>
<polygon fill="none" stroke="#63b8ff" points="68.58,-17.58 62.01,-20.55 56.74,-15.63 63.3,-12.66 68.58,-17.58"/>
</a>
</g>
<text text-anchor="middle" x="87.12" y="-20.62" font-family="Helvetica,sans-Serif" font-size="10.00" fill="grey"> +next</text>
</g>
<!-- Node2 -->
<g id="Node000002" class="node">
<title>Node2</title>
<g id="a_Node000002"><a xlink:href="structDataType.html" target="_top" xlink:title=" ">
<polygon fill="white" stroke="none" points="53.5,-160.25 2.5,-160.25 2.5,-96.25 53.5,-96.25 53.5,-160.25"/>
<text text-anchor="start" x="7.38" y="-146.75" font-family="Helvetica,sans-Serif" font-size="10.00">DataType</text>
<text text-anchor="start" x="11" y="-131.75" font-family="Helvetica,sans-Serif" font-size="10.00">+</text>
<text text-anchor="start" x="25.5" y="-131.75" font-family="Helvetica,sans-Serif" font-size="10.00">key</text>
<text text-anchor="start" x="11" y="-116.75" font-family="Helvetica,sans-Serif" font-size="10.00">+</text>
<text text-anchor="start" x="25.5" y="-116.75" font-family="Helvetica,sans-Serif" font-size="10.00">val</text>
<text text-anchor="start" x="26.5" y="-101.75" font-family="Helvetica,sans-Serif" font-size="10.00"> </text>
<polygon fill="#bfbfbf" stroke="#bfbfbf" points="2.5,-143.25 2.5,-143.25 53.5,-143.25 53.5,-143.25 2.5,-143.25"/>
<polygon fill="#bfbfbf" stroke="#bfbfbf" points="2.5,-113.25 2.5,-113.25 23.5,-113.25 23.5,-113.25 2.5,-113.25"/>
<polygon fill="#bfbfbf" stroke="#bfbfbf" points="23.5,-113.25 23.5,-113.25 53.5,-113.25 53.5,-113.25 23.5,-113.25"/>
<polygon fill="none" stroke="#bfbfbf" points="2.5,-96.25 2.5,-160.25 53.5,-160.25 53.5,-96.25 2.5,-96.25"/>
</a>
</g>
</g>
<!-- Node2&#45;&gt;Node1 -->
<g id="edge1_Node000001_Node000002" class="edge">
<title>Node2&#45;&gt;Node1</title>
<g id="a_edge1_Node000001_Node000002"><a xlink:title=" ">
<path fill="none" stroke="#63b8ff" d="M28,-96.45C28,-85.43 28,-72.92 28,-61.51"/>
<polygon fill="none" stroke="#63b8ff" points="28,-61.67 24,-55.67 28,-49.67 32,-55.67 28,-61.67"/>
</a>
</g>
<text text-anchor="middle" x="41.5" y="-68.75" font-family="Helvetica,sans-Serif" font-size="10.00" fill="grey"> +data</text>
</g>
</g>
</svg>
