<?xml version="1.0" encoding="UTF-8" standalone="no"?>
<!DOCTYPE svg PUBLIC "-//W3C//DTD SVG 1.1//EN"
 "http://www.w3.org/Graphics/SVG/1.1/DTD/svg11.dtd">
<!-- Generated by graphviz version 12.1.2 (20240928.0832)
 -->
<!-- Title: fnv&lt; T, typename std::enable_if&lt; sizeof(T)==8 &gt;::type &gt; Pages: 1 -->
<svg width="108pt" height="94pt"
 viewBox="0.00 0.00 108.00 94.00" xmlns="http://www.w3.org/2000/svg" xmlns:xlink="http://www.w3.org/1999/xlink">

<svg id="main" version="1.1" xmlns="http://www.w3.org/2000/svg" xmlns:xlink="http://www.w3.org/1999/xlink" xml:space="preserve">

<style type="text/css"><![CDATA[
.node, .edge {opacity: 0.7;}
.node.selected, .edge.selected {opacity: 1;}
.edge:hover path { stroke: red; }
.edge:hover polygon { stroke: red; fill: red; }
]]></style>
<script type="application/ecmascript" xlink:href="svg.min.js"/>
<svg id="graph" class="graph">
<g id="graph0" class="graph" transform="scale(1 1) rotate(0) translate(4 90)">
<title>fnv&lt; T, typename std::enable_if&lt; sizeof(T)==8 &gt;::type &gt;</title>
<!-- Node1 -->
<g id="Node000001" class="node">
<title>Node1</title>
<g id="a_Node000001"><a xlink:title="Fowler&#45;Noll&#45;Vo hash parameters for 64 bits.">
<polygon fill="#999999" stroke="none" points="100,-86 0,-86 0,0 100,0 100,-86"/>
<text text-anchor="start" x="4.62" y="-72.5" font-family="Helvetica,sans-Serif" font-size="10.00">fnv&lt; T, typename std</text>
<text text-anchor="start" x="4.62" y="-61.25" font-family="Helvetica,sans-Serif" font-size="10.00">::enable_if&lt; sizeof(T)</text>
<text text-anchor="start" x="21.88" y="-50" font-family="Helvetica,sans-Serif" font-size="10.00">==8 &gt;::type &gt;</text>
<text text-anchor="start" x="18.5" y="-35.5" font-family="Helvetica,sans-Serif" font-size="10.00">+</text>
<text text-anchor="start" x="43" y="-35.5" font-family="Helvetica,sans-Serif" font-size="10.00">init</text>
<text text-anchor="start" x="18.5" y="-20.5" font-family="Helvetica,sans-Serif" font-size="10.00">+</text>
<text text-anchor="start" x="43" y="-20.5" font-family="Helvetica,sans-Serif" font-size="10.00">prime</text>
<text text-anchor="start" x="48.5" y="-5.5" font-family="Helvetica,sans-Serif" font-size="10.00"> </text>
<polygon fill="#666666" stroke="#666666" points="0,-47 0,-47 100,-47 100,-47 0,-47"/>
<polygon fill="#666666" stroke="#666666" points="0,-17 0,-17 41,-17 41,-17 0,-17"/>
<polygon fill="#666666" stroke="#666666" points="41,-17 41,-17 100,-17 100,-17 41,-17"/>
<polygon fill="none" stroke="#666666" points="0,0 0,-86 100,-86 100,0 0,0"/>
</a>
</g>
</g>
</g>
</svg>
</svg>

<style type='text/css'>
<![CDATA[
[data-mouse-over-selected='false'] { opacity: 0.7; }
[data-mouse-over-selected='true']  { opacity: 1.0; }
]]>
</style>
<script type="application/ecmascript"><![CDATA[
document.addEventListener('DOMContentLoaded', (event) => {
  highlightEdges();
  highlightAdjacentNodes();
});
]]></script>
</svg>
