<?xml version="1.0" encoding="UTF-8" standalone="no"?>
<!DOCTYPE svg PUBLIC "-//W3C//DTD SVG 1.1//EN"
 "http://www.w3.org/Graphics/SVG/1.1/DTD/svg11.dtd">
<!-- Generated by graphviz version 12.1.2 (20240928.0832)
 -->
<!-- Title: GlobalSharingStatistics Pages: 1 -->
<svg width="128pt" height="202pt"
 viewBox="0.00 0.00 128.00 202.00" xmlns="http://www.w3.org/2000/svg" xmlns:xlink="http://www.w3.org/1999/xlink">
<g id="graph0" class="graph" transform="scale(1 1) rotate(0) translate(4 198)">
<title>GlobalSharingStatistics</title>
<!-- Node1 -->
<g id="Node000001" class="node">
<title>Node1</title>
<g id="a_Node000001"><a xlink:title="Statistics of a global sharing strategy.">
<polygon fill="#999999" stroke="none" points="120,-79 0,-79 0,0 120,0 120,-79"/>
<text text-anchor="start" x="9" y="-65.5" font-family="Helvetica,sans-Serif" font-size="10.00">GlobalSharingStatistics</text>
<text text-anchor="start" x="4" y="-50.5" font-family="Helvetica,sans-Serif" font-size="10.00">+</text>
<text text-anchor="start" x="14" y="-50.5" font-family="Helvetica,sans-Serif" font-size="10.00">sharedDuplicasAvoided</text>
<text text-anchor="start" x="4" y="-35.5" font-family="Helvetica,sans-Serif" font-size="10.00">+</text>
<text text-anchor="start" x="14" y="-35.5" font-family="Helvetica,sans-Serif" font-size="10.00">receivedDuplicas</text>
<text text-anchor="start" x="4" y="-20.5" font-family="Helvetica,sans-Serif" font-size="10.00">+</text>
<text text-anchor="start" x="14" y="-20.5" font-family="Helvetica,sans-Serif" font-size="10.00">messagesSent</text>
<text text-anchor="start" x="58.5" y="-5.5" font-family="Helvetica,sans-Serif" font-size="10.00"> </text>
<polygon fill="#666666" stroke="#666666" points="0,-62 0,-62 120,-62 120,-62 0,-62"/>
<polygon fill="#666666" stroke="#666666" points="0,-17 0,-17 12,-17 12,-17 0,-17"/>
<polygon fill="#666666" stroke="#666666" points="12,-17 12,-17 120,-17 120,-17 12,-17"/>
<polygon fill="none" stroke="#666666" points="0,0 0,-79 120,-79 120,0 0,0"/>
</a>
</g>
</g>
<!-- Node2 -->
<g id="Node000002" class="node">
<title>Node2</title>
<g id="a_Node000002"><a xlink:href="structSharingStatistics.html" target="_top" xlink:title="Local Sharing statistics.Sharing statistics.">
<polygon fill="white" stroke="none" points="105,-194 15,-194 15,-115 105,-115 105,-194"/>
<text text-anchor="start" x="22.88" y="-180.5" font-family="Helvetica,sans-Serif" font-size="10.00">SharingStatistics</text>
<text text-anchor="start" x="19" y="-165.5" font-family="Helvetica,sans-Serif" font-size="10.00">+</text>
<text text-anchor="start" x="29" y="-165.5" font-family="Helvetica,sans-Serif" font-size="10.00">sharedClauses</text>
<text text-anchor="start" x="19" y="-150.5" font-family="Helvetica,sans-Serif" font-size="10.00">+</text>
<text text-anchor="start" x="29" y="-150.5" font-family="Helvetica,sans-Serif" font-size="10.00">receivedClauses</text>
<text text-anchor="start" x="19" y="-135.5" font-family="Helvetica,sans-Serif" font-size="10.00">+</text>
<text text-anchor="start" x="29" y="-135.5" font-family="Helvetica,sans-Serif" font-size="10.00">filteredAtImport</text>
<text text-anchor="start" x="58.5" y="-120.5" font-family="Helvetica,sans-Serif" font-size="10.00"> </text>
<polygon fill="#666666" stroke="#666666" points="15,-177 15,-177 105,-177 105,-177 15,-177"/>
<polygon fill="#666666" stroke="#666666" points="15,-132 15,-132 27,-132 27,-132 15,-132"/>
<polygon fill="#666666" stroke="#666666" points="27,-132 27,-132 105,-132 105,-132 27,-132"/>
<polygon fill="none" stroke="#666666" points="15,-115 15,-194 105,-194 105,-115 15,-115"/>
</a>
</g>
</g>
<!-- Node2&#45;&gt;Node1 -->
<g id="edge1_Node000001_Node000002" class="edge">
<title>Node2&#45;&gt;Node1</title>
<g id="a_edge1_Node000001_Node000002"><a xlink:title=" ">
<path fill="none" stroke="#63b8ff" d="M60,-103.92C60,-95.47 60,-86.81 60,-78.72"/>
<polygon fill="none" stroke="#63b8ff" points="56.5,-103.73 60,-113.73 63.5,-103.73 56.5,-103.73"/>
</a>
</g>
</g>
</g>
</svg>
