<?xml version="1.0" encoding="UTF-8" standalone="no"?>
<!DOCTYPE svg PUBLIC "-//W3C//DTD SVG 1.1//EN"
 "http://www.w3.org/Graphics/SVG/1.1/DTD/svg11.dtd">
<!-- Generated by graphviz version 12.1.2 (20240928.0832)
 -->
<!-- Title: HashMap Pages: 1 -->
<svg width="116pt" height="325pt"
 viewBox="0.00 0.00 115.75 324.50" xmlns="http://www.w3.org/2000/svg" xmlns:xlink="http://www.w3.org/1999/xlink">

<svg id="main" version="1.1" xmlns="http://www.w3.org/2000/svg" xmlns:xlink="http://www.w3.org/1999/xlink" xml:space="preserve">

<style type="text/css"><![CDATA[
.node, .edge {opacity: 0.7;}
.node.selected, .edge.selected {opacity: 1;}
.edge:hover path { stroke: red; }
.edge:hover polygon { stroke: red; fill: red; }
]]></style>
<script type="application/ecmascript" xlink:href="svg.min.js"/>
<svg id="graph" class="graph">
<g id="graph0" class="graph" transform="scale(1 1) rotate(0) translate(4 320.5)">
<title>HashMap</title>
<!-- Node1 -->
<g id="Node000001" class="node">
<title>Node1</title>
<g id="a_Node000001"><a xlink:title=" ">
<polygon fill="#999999" stroke="none" points="71,-109 0,-109 0,0 71,0 71,-109"/>
<text text-anchor="start" x="14.5" y="-95.5" font-family="Helvetica,sans-Serif" font-size="10.00">HashMap</text>
<text text-anchor="start" x="4" y="-80.5" font-family="Helvetica,sans-Serif" font-size="10.00">+</text>
<text text-anchor="start" x="14" y="-80.5" font-family="Helvetica,sans-Serif" font-size="10.00">size</text>
<text text-anchor="start" x="4" y="-65.5" font-family="Helvetica,sans-Serif" font-size="10.00">+</text>
<text text-anchor="start" x="14" y="-65.5" font-family="Helvetica,sans-Serif" font-size="10.00">HashMap()</text>
<text text-anchor="start" x="4" y="-50.5" font-family="Helvetica,sans-Serif" font-size="10.00">+</text>
<text text-anchor="start" x="14" y="-50.5" font-family="Helvetica,sans-Serif" font-size="10.00">~HashMap()</text>
<text text-anchor="start" x="4" y="-35.5" font-family="Helvetica,sans-Serif" font-size="10.00">+</text>
<text text-anchor="start" x="14" y="-35.5" font-family="Helvetica,sans-Serif" font-size="10.00">get()</text>
<text text-anchor="start" x="4" y="-20.5" font-family="Helvetica,sans-Serif" font-size="10.00">+</text>
<text text-anchor="start" x="14" y="-20.5" font-family="Helvetica,sans-Serif" font-size="10.00">erase()</text>
<text text-anchor="start" x="4" y="-5.5" font-family="Helvetica,sans-Serif" font-size="10.00">+</text>
<text text-anchor="start" x="14" y="-5.5" font-family="Helvetica,sans-Serif" font-size="10.00">insert()</text>
<polygon fill="#666666" stroke="#666666" points="0,-92 0,-92 71,-92 71,-92 0,-92"/>
<polygon fill="#666666" stroke="#666666" points="0,-77 0,-77 12,-77 12,-77 0,-77"/>
<polygon fill="#666666" stroke="#666666" points="12,-77 12,-77 71,-77 71,-77 12,-77"/>
<polygon fill="none" stroke="#666666" points="0,0 0,-109 71,-109 71,0 0,0"/>
</a>
</g>
</g>
<!-- Node2 -->
<g id="Node000002" class="node">
<title>Node2</title>
<g id="a_Node000002"><a xlink:href="structHashNode.html" target="_top" xlink:title=" ">
<polygon fill="white" stroke="none" points="63.5,-205.25 7.5,-205.25 7.5,-156.25 63.5,-156.25 63.5,-205.25"/>
<text text-anchor="start" x="12.25" y="-191.75" font-family="Helvetica,sans-Serif" font-size="10.00">HashNode</text>
<text text-anchor="start" x="34" y="-176.75" font-family="Helvetica,sans-Serif" font-size="10.00"> </text>
<text text-anchor="start" x="34" y="-161.75" font-family="Helvetica,sans-Serif" font-size="10.00"> </text>
<polygon fill="#bfbfbf" stroke="#bfbfbf" points="7.5,-188.25 7.5,-188.25 63.5,-188.25 63.5,-188.25 7.5,-188.25"/>
<polygon fill="#bfbfbf" stroke="#bfbfbf" points="7.5,-173.25 7.5,-173.25 63.5,-173.25 63.5,-173.25 7.5,-173.25"/>
<polygon fill="none" stroke="#bfbfbf" points="7.5,-156.25 7.5,-205.25 63.5,-205.25 63.5,-156.25 7.5,-156.25"/>
</a>
</g>
</g>
<!-- Node2&#45;&gt;Node1 -->
<g id="edge1_Node000001_Node000002" class="edge">
<title>Node2&#45;&gt;Node1</title>
<g id="a_edge1_Node000001_Node000002"><a xlink:title=" ">
<path fill="none" stroke="#63b8ff" d="M35.5,-156.38C35.5,-146.41 35.5,-134.23 35.5,-121.83"/>
<polygon fill="none" stroke="#63b8ff" points="35.5,-121.81 31.5,-115.81 35.5,-109.81 39.5,-115.81 35.5,-121.81"/>
</a>
</g>
<text text-anchor="middle" x="50.12" y="-128.75" font-family="Helvetica,sans-Serif" font-size="10.00" fill="grey"> +table</text>
</g>
<!-- Node2&#45;&gt;Node2 -->
<g id="edge3_Node000002_Node000002" class="edge">
<title>Node2&#45;&gt;Node2</title>
<g id="a_edge3_Node000002_Node000002"><a xlink:title=" ">
<path fill="none" stroke="#63b8ff" d="M63.35,-189.76C73.35,-189.96 81.5,-186.95 81.5,-180.75 81.5,-177.65 79.46,-175.35 76.17,-173.84"/>
<polygon fill="none" stroke="#63b8ff" points="76.08,-173.83 69.51,-176.8 64.24,-171.88 70.8,-168.91 76.08,-173.83"/>
</a>
</g>
<text text-anchor="middle" x="94.62" y="-176.88" font-family="Helvetica,sans-Serif" font-size="10.00" fill="grey"> +next</text>
</g>
<!-- Node3 -->
<g id="Node000003" class="node">
<title>Node3</title>
<g id="a_Node000003"><a xlink:href="structDataType.html" target="_top" xlink:title=" ">
<polygon fill="white" stroke="none" points="61,-316.5 10,-316.5 10,-252.5 61,-252.5 61,-316.5"/>
<text text-anchor="start" x="14.88" y="-303" font-family="Helvetica,sans-Serif" font-size="10.00">DataType</text>
<text text-anchor="start" x="18.5" y="-288" font-family="Helvetica,sans-Serif" font-size="10.00">+</text>
<text text-anchor="start" x="33" y="-288" font-family="Helvetica,sans-Serif" font-size="10.00">key</text>
<text text-anchor="start" x="18.5" y="-273" font-family="Helvetica,sans-Serif" font-size="10.00">+</text>
<text text-anchor="start" x="33" y="-273" font-family="Helvetica,sans-Serif" font-size="10.00">val</text>
<text text-anchor="start" x="34" y="-258" font-family="Helvetica,sans-Serif" font-size="10.00"> </text>
<polygon fill="#bfbfbf" stroke="#bfbfbf" points="10,-299.5 10,-299.5 61,-299.5 61,-299.5 10,-299.5"/>
<polygon fill="#bfbfbf" stroke="#bfbfbf" points="10,-269.5 10,-269.5 31,-269.5 31,-269.5 10,-269.5"/>
<polygon fill="#bfbfbf" stroke="#bfbfbf" points="31,-269.5 31,-269.5 61,-269.5 61,-269.5 31,-269.5"/>
<polygon fill="none" stroke="#bfbfbf" points="10,-252.5 10,-316.5 61,-316.5 61,-252.5 10,-252.5"/>
</a>
</g>
</g>
<!-- Node3&#45;&gt;Node2 -->
<g id="edge2_Node000002_Node000003" class="edge">
<title>Node3&#45;&gt;Node2</title>
<g id="a_edge2_Node000002_Node000003"><a xlink:title=" ">
<path fill="none" stroke="#63b8ff" d="M35.5,-252.7C35.5,-241.68 35.5,-229.17 35.5,-217.76"/>
<polygon fill="none" stroke="#63b8ff" points="35.5,-217.92 31.5,-211.92 35.5,-205.92 39.5,-211.92 35.5,-217.92"/>
</a>
</g>
<text text-anchor="middle" x="49" y="-225" font-family="Helvetica,sans-Serif" font-size="10.00" fill="grey"> +data</text>
</g>
</g>
</svg>
</svg>

<style type='text/css'>
<![CDATA[
[data-mouse-over-selected='false'] { opacity: 0.7; }
[data-mouse-over-selected='true']  { opacity: 1.0; }
]]>
</style>
<script type="application/ecmascript"><![CDATA[
document.addEventListener('DOMContentLoaded', (event) => {
  highlightEdges();
  highlightAdjacentNodes();
});
]]></script>
</svg>
